G04 ================== begin FILE IDENTIFICATION RECORD ==================*
G04 Layout Name:  F:/Cadence Boards/STM32F4-BALANCE/Board/balance_new.brd*
G04 Film Name:    DRILL*
G04 File Format:  Gerber RS274X*
G04 File Origin:  Cadence Allegro 16.6-P004*
G04 Origin Date:  Thu Mar 03 17:48:13 2016*
G04 *
G04 Layer:  MANUFACTURING/NCDRILL_LEGEND*
G04 Layer:  MANUFACTURING/NCDRILL_FIGURE*
G04 Layer:  MANUFACTURING/NCLEGEND-1-2*
G04 Layer:  BOARD GEOMETRY/OUTLINE*
G04 Layer:  BOARD GEOMETRY/DIMENSION*
G04 *
G04 Offset:    (0.0000 0.0000)*
G04 Mirror:    No*
G04 Mode:      Positive*
G04 Rotation:  0*
G04 FullContactRelief:  No*
G04 UndefLineWidth:     0.2540*
G04 ================== end FILE IDENTIFICATION RECORD ====================*
%FSLAX25Y25*MOMM*%
%IR0*IPPOS*OFA0.00000B0.00000*MIA0B0*SFA1.00000B1.00000*%
%AMMACRO14*
1,1,.254,.217462,-.525*
20,1,.254,.217462,-.525,-.217462,-.525,0.0*
1,1,.254,-.217462,-.525*
20,1,.254,-.217462,-.525,-.525,-.217462,0.0*
1,1,.254,-.525,-.217462*
20,1,.254,-.525,-.217462,-.525,.217462,0.0*
1,1,.254,-.525,.217462*
20,1,.254,-.525,.217462,-.217462,.525,0.0*
1,1,.254,-.217462,.525*
20,1,.254,-.217462,.525,.217462,.525,0.0*
1,1,.254,.217462,.525*
20,1,.254,.217462,.525,.525,.217462,0.0*
1,1,.254,.525,.217462*
20,1,.254,.525,.217462,.525,-.217462,0.0*
1,1,.254,.525,-.217462*
20,1,.254,.525,-.217462,.217462,-.525,0.0*
1,1,.254,.217462,-.525*
%
%ADD14MACRO14*%
%AMMACRO13*
1,1,.254,1.6,0.0*
20,1,.254,1.6,0.0,0.0,-1.6,0.0*
1,1,.254,0.0,-1.6*
20,1,.254,0.0,-1.6,-1.6,0.0,0.0*
1,1,.254,-1.6,0.0*
20,1,.254,-1.6,0.0,0.0,1.6,0.0*
1,1,.254,0.0,1.6*
20,1,.254,0.0,1.6,1.6,0.0,0.0*
1,1,.254,1.6,0.0*
%
%ADD13MACRO13*%
%AMMACRO18*
1,1,.254,.1524,0.0*
20,1,.254,.1524,0.0,-.1524,0.0,0.0*
1,1,.254,-.1524,0.0*
1,1,.254,0.0,.1524*
20,1,.254,0.0,.1524,0.0,-.1524,0.0*
1,1,.254,0.0,-.1524*
%
%ADD18MACRO18*%
%AMMACRO10*
1,1,.254,-.95,1.95*
20,1,.254,-.95,1.95,.95,1.95,0.0*
1,1,.254,.95,1.95*
20,1,.254,.95,1.95,.95,-1.95,0.0*
1,1,.254,.95,-1.95*
20,1,.254,.95,-1.95,-.95,-1.95,0.0*
1,1,.254,-.95,-1.95*
20,1,.254,-.95,-1.95,-.95,1.95,0.0*
1,1,.254,-.95,1.95*
1,1,.254,-.7917,-.475*
20,1,.254,-.7917,-.475,-.7917,.475,0.0*
1,1,.254,-.7917,.475*
20,1,.254,-.7917,.475,-.3958,.475,0.0*
1,1,.254,-.3958,.475*
20,1,.254,-.3958,.475,-.2692,.4275,0.0*
1,1,.254,-.2692,.4275*
20,1,.254,-.2692,.4275,-.19,.3642,0.0*
1,1,.254,-.19,.3642*
20,1,.254,-.19,.3642,-.1583,.2375,0.0*
1,1,.254,-.1583,.2375*
20,1,.254,-.1583,.2375,-.19,.1108,0.0*
1,1,.254,-.19,.1108*
20,1,.254,-.19,.1108,-.285,.0317,0.0*
1,1,.254,-.285,.0317*
20,1,.254,-.285,.0317,-.3958,-.0158,0.0*
1,1,.254,-.3958,-.0158*
20,1,.254,-.3958,-.0158,-.7917,-.0158,0.0*
1,1,.254,-.7917,-.0158*
1,1,.254,-.3958,-.0158*
20,1,.254,-.3958,-.0158,-.1583,-.475,0.0*
1,1,.254,-.1583,-.475*
1,1,.254,.6018,.0317*
20,1,.254,.6018,.0317,.6651,.0792,0.0*
1,1,.254,.6651,.0792*
20,1,.254,.6651,.0792,.7126,.1583,0.0*
1,1,.254,.7126,.1583*
20,1,.254,.7126,.1583,.7443,.2692,0.0*
1,1,.254,.7443,.2692*
20,1,.254,.7443,.2692,.7126,.3642,0.0*
1,1,.254,.7126,.3642*
20,1,.254,.7126,.3642,.6493,.4275,0.0*
1,1,.254,.6493,.4275*
20,1,.254,.6493,.4275,.5384,.475,0.0*
1,1,.254,.5384,.475*
20,1,.254,.5384,.475,.1109,.475,0.0*
1,1,.254,.1109,.475*
20,1,.254,.1109,.475,.1109,-.475,0.0*
1,1,.254,.1109,-.475*
20,1,.254,.1109,-.475,.6334,-.475,0.0*
1,1,.254,.6334,-.475*
20,1,.254,.6334,-.475,.7443,-.4117,0.0*
1,1,.254,.7443,-.4117*
20,1,.254,.7443,-.4117,.8076,-.3167,0.0*
1,1,.254,.8076,-.3167*
20,1,.254,.8076,-.3167,.8393,-.2058,0.0*
1,1,.254,.8393,-.2058*
20,1,.254,.8393,-.2058,.8076,-.095,0.0*
1,1,.254,.8076,-.095*
20,1,.254,.8076,-.095,.7126,0.0,0.0*
1,1,.254,.7126,0.0*
20,1,.254,.7126,0.0,.6018,.0317,0.0*
1,1,.254,.6018,.0317*
20,1,.254,.6018,.0317,.1109,.0317,0.0*
1,1,.254,.1109,.0317*
%
%ADD10MACRO10*%
%AMMACRO11*
1,1,.254,1.95,.95*
20,1,.254,1.95,.95,1.95,-.95,0.0*
1,1,.254,1.95,-.95*
20,1,.254,1.95,-.95,-1.95,-.95,0.0*
1,1,.254,-1.95,-.95*
20,1,.254,-1.95,-.95,-1.95,.95,0.0*
1,1,.254,-1.95,.95*
20,1,.254,-1.95,.95,1.95,.95,0.0*
1,1,.254,1.95,.95*
1,1,.254,-.7917,-.475*
20,1,.254,-.7917,-.475,-.7917,.475,0.0*
1,1,.254,-.7917,.475*
20,1,.254,-.7917,.475,-.3958,.475,0.0*
1,1,.254,-.3958,.475*
20,1,.254,-.3958,.475,-.2692,.4275,0.0*
1,1,.254,-.2692,.4275*
20,1,.254,-.2692,.4275,-.19,.3642,0.0*
1,1,.254,-.19,.3642*
20,1,.254,-.19,.3642,-.1583,.2375,0.0*
1,1,.254,-.1583,.2375*
20,1,.254,-.1583,.2375,-.19,.1108,0.0*
1,1,.254,-.19,.1108*
20,1,.254,-.19,.1108,-.285,.0317,0.0*
1,1,.254,-.285,.0317*
20,1,.254,-.285,.0317,-.3958,-.0158,0.0*
1,1,.254,-.3958,-.0158*
20,1,.254,-.3958,-.0158,-.7917,-.0158,0.0*
1,1,.254,-.7917,-.0158*
1,1,.254,-.3958,-.0158*
20,1,.254,-.3958,-.0158,-.1583,-.475,0.0*
1,1,.254,-.1583,-.475*
1,1,.254,.6018,.0317*
20,1,.254,.6018,.0317,.6651,.0792,0.0*
1,1,.254,.6651,.0792*
20,1,.254,.6651,.0792,.7126,.1583,0.0*
1,1,.254,.7126,.1583*
20,1,.254,.7126,.1583,.7443,.2692,0.0*
1,1,.254,.7443,.2692*
20,1,.254,.7443,.2692,.7126,.3642,0.0*
1,1,.254,.7126,.3642*
20,1,.254,.7126,.3642,.6493,.4275,0.0*
1,1,.254,.6493,.4275*
20,1,.254,.6493,.4275,.5384,.475,0.0*
1,1,.254,.5384,.475*
20,1,.254,.5384,.475,.1109,.475,0.0*
1,1,.254,.1109,.475*
20,1,.254,.1109,.475,.1109,-.475,0.0*
1,1,.254,.1109,-.475*
20,1,.254,.1109,-.475,.6334,-.475,0.0*
1,1,.254,.6334,-.475*
20,1,.254,.6334,-.475,.7443,-.4117,0.0*
1,1,.254,.7443,-.4117*
20,1,.254,.7443,-.4117,.8076,-.3167,0.0*
1,1,.254,.8076,-.3167*
20,1,.254,.8076,-.3167,.8393,-.2058,0.0*
1,1,.254,.8393,-.2058*
20,1,.254,.8393,-.2058,.8076,-.095,0.0*
1,1,.254,.8076,-.095*
20,1,.254,.8076,-.095,.7126,0.0,0.0*
1,1,.254,.7126,0.0*
20,1,.254,.7126,0.0,.6018,.0317,0.0*
1,1,.254,.6018,.0317*
20,1,.254,.6018,.0317,.1109,.0317,0.0*
1,1,.254,.1109,.0317*
%
%ADD11MACRO11*%
%AMMACRO12*
1,1,.254,1.177,.577*
20,1,.254,1.177,.577,1.177,-.577,0.0*
1,1,.254,1.177,-.577*
20,1,.254,1.177,-.577,-1.177,-.577,0.0*
1,1,.254,-1.177,-.577*
20,1,.254,-1.177,-.577,-1.177,.577,0.0*
1,1,.254,-1.177,.577*
20,1,.254,-1.177,.577,1.177,.577,0.0*
1,1,.254,1.177,.577*
1,1,.254,-.4808,-.2885*
20,1,.254,-.4808,-.2885,-.4808,.2885,0.0*
1,1,.254,-.4808,.2885*
20,1,.254,-.4808,.2885,-.2404,.2885,0.0*
1,1,.254,-.2404,.2885*
20,1,.254,-.2404,.2885,-.1635,.2596,0.0*
1,1,.254,-.1635,.2596*
20,1,.254,-.1635,.2596,-.1154,.2212,0.0*
1,1,.254,-.1154,.2212*
20,1,.254,-.1154,.2212,-.0962,.1442,0.0*
1,1,.254,-.0962,.1442*
20,1,.254,-.0962,.1442,-.1154,.0673,0.0*
1,1,.254,-.1154,.0673*
20,1,.254,-.1154,.0673,-.1731,.0192,0.0*
1,1,.254,-.1731,.0192*
20,1,.254,-.1731,.0192,-.2404,-.0096,0.0*
1,1,.254,-.2404,-.0096*
20,1,.254,-.2404,-.0096,-.4808,-.0096,0.0*
1,1,.254,-.4808,-.0096*
1,1,.254,-.2404,-.0096*
20,1,.254,-.2404,-.0096,-.0962,-.2885,0.0*
1,1,.254,-.0962,-.2885*
1,1,.254,.0482,-.2885*
20,1,.254,.0482,-.2885,.2886,.2885,0.0*
1,1,.254,.2886,.2885*
20,1,.254,.2886,.2885,.529,-.2885,0.0*
1,1,.254,.529,-.2885*
1,1,.254,.4425,-.0866*
20,1,.254,.4425,-.0866,.1347,-.0866,0.0*
1,1,.254,.1347,-.0866*
%
%ADD12MACRO12*%
%AMMACRO17*
1,1,.254,.3048,.3048*
20,1,.254,.3048,.3048,.3048,-.3048,0.0*
1,1,.254,.3048,-.3048*
20,1,.254,.3048,-.3048,-.3048,-.3048,0.0*
1,1,.254,-.3048,-.3048*
20,1,.254,-.3048,-.3048,-.3048,.3048,0.0*
1,1,.254,-.3048,.3048*
20,1,.254,-.3048,.3048,.3048,.3048,0.0*
1,1,.254,.3048,.3048*
%
%ADD17MACRO17*%
%AMMACRO15*
1,1,.254,0.0,.5*
20,1,.254,0.0,.5,-.433013,.25,0.0*
1,1,.254,-.433013,.25*
20,1,.254,-.433013,.25,-.433013,-.25,0.0*
1,1,.254,-.433013,-.25*
20,1,.254,-.433013,-.25,0.0,-.5,0.0*
1,1,.254,0.0,-.5*
20,1,.254,0.0,-.5,.433013,-.25,0.0*
1,1,.254,.433013,-.25*
20,1,.254,.433013,-.25,.433013,.25,0.0*
1,1,.254,.433013,.25*
20,1,.254,.433013,.25,0.0,.5,0.0*
1,1,.254,0.0,.5*
%
%ADD15MACRO15*%
%AMMACRO16*
1,1,.254,.4,0.0*
20,1,.254,.4,0.0,.2,.34641,0.0*
1,1,.254,.2,.34641*
20,1,.254,.2,.34641,-.2,.34641,0.0*
1,1,.254,-.2,.34641*
20,1,.254,-.2,.34641,-.4,0.0,0.0*
1,1,.254,-.4,0.0*
20,1,.254,-.4,0.0,-.2,-.34641,0.0*
1,1,.254,-.2,-.34641*
20,1,.254,-.2,-.34641,.2,-.34641,0.0*
1,1,.254,.2,-.34641*
20,1,.254,.2,-.34641,.4,0.0,0.0*
1,1,.254,.4,0.0*
%
%ADD16MACRO16*%
%ADD19C,.254*%
G75*
%LPD*%
G75*
G54D10*
X-4890770Y-12081270D03*
X-3098800Y2286000D03*
G54D11*
X-4890770Y-11367530D03*
X-2489200Y2311400D03*
G54D12*
X-4890770Y-10653790D03*
X-4064000Y1054000D03*
Y1524000D03*
Y1994000D03*
G54D13*
X-4890770Y-9940050D03*
X-4400000Y-2640000D03*
Y2640000D03*
X4400000Y-2640000D03*
Y2640000D03*
G54D14*
X-4890770Y-9226310D03*
X1270000Y-2286000D03*
Y-2540000D03*
X1016000Y-2286000D03*
Y-2540000D03*
X762000Y-2286000D03*
Y-2540000D03*
X4445000Y1206500D03*
Y1460500D03*
Y1714500D03*
G54D15*
X-4890770Y-8512570D03*
X-1304500Y-2738000D03*
Y-2088000D03*
X-1143000Y2032000D03*
X-1397000D03*
X-1651000D03*
X-854500Y-2738000D03*
Y-2088000D03*
X-635000Y2032000D03*
X-889000D03*
X-127000Y-2476500D03*
X-381000D03*
X-127000Y-1778000D03*
X-381000D03*
Y1000000D03*
X-127000D03*
X-381000Y2032000D03*
X381000Y-2476500D03*
X127000D03*
X635000Y-1778000D03*
X381000D03*
X127000D03*
Y1000000D03*
X381000D03*
X635000Y2032000D03*
X381000D03*
X889000Y-1778000D03*
X1143000Y2032000D03*
X889000D03*
X1651000D03*
X1397000D03*
X2921000Y-2667000D03*
X2667000D03*
X2921000Y-2413000D03*
X2667000D03*
X2921000Y2413000D03*
X2667000D03*
X2921000Y2032000D03*
Y2667000D03*
X2667000D03*
X3429000Y-2667000D03*
X3175000D03*
X3429000Y-2413000D03*
X3175000D03*
X3302000Y0D03*
X3048000D03*
X3302000Y254000D03*
Y508000D03*
X3048000Y254000D03*
Y508000D03*
X3302000Y762000D03*
X3048000D03*
X3429000Y2413000D03*
X3175000D03*
X3429000Y2032000D03*
X3175000D03*
X3429000Y2667000D03*
X3175000D03*
X3937000Y-2667000D03*
X3683000D03*
X3937000Y-2413000D03*
X3683000D03*
X3937000Y2413000D03*
X3683000D03*
Y2032000D03*
X3937000Y2667000D03*
X3683000D03*
G54D16*
X-4890770Y-7798830D03*
X-4216400Y-1778000D03*
X-3911600D03*
X-2895600Y1270000D03*
X-3200400D03*
X-1752600Y-2032000D03*
X-2057400D03*
G54D17*
X-4890770Y-7085090D03*
X-2921000Y-571500D03*
X-1333500Y1587500D03*
X-952500Y444500D03*
X-1016000Y190500D03*
X-1079500Y952500D03*
X1214450Y-1587500D03*
X1079500D03*
X1460500D03*
X1594500Y-1579430D03*
G54D18*
X-4890770Y-6371350D03*
X-4381500Y-1905000D03*
Y-2159000D03*
X-4635500Y-1905000D03*
Y-2159000D03*
X-4381500Y-1143000D03*
Y-1397000D03*
X-4635500Y-1143000D03*
Y-1397000D03*
X-4381500Y-1651000D03*
X-4635500D03*
Y-698500D03*
Y-952500D03*
X-4127500D03*
X-4381500D03*
X-4127500Y-698500D03*
X-4381500D03*
X-4635500Y-190500D03*
Y-444500D03*
X-4127500D03*
X-4381500D03*
X-4127500Y-190500D03*
X-4381500D03*
Y571500D03*
Y63500D03*
X-4635500Y571500D03*
Y317500D03*
Y63500D03*
X-4381500Y317500D03*
Y1079500D03*
Y825500D03*
X-4635500Y1079500D03*
Y825500D03*
X-4381500Y2349500D03*
X-4635500D03*
X-4381500Y2095500D03*
Y1841500D03*
X-4635500Y2095500D03*
Y1841500D03*
X-4127500Y2349500D03*
Y2857500D03*
Y2603500D03*
X-3810000Y-2730500D03*
X-3556000D03*
X-4064000D03*
X-3619500Y-952500D03*
X-3873500D03*
X-3619500Y-698500D03*
X-3873500D03*
X-3619500Y-444500D03*
X-3873500D03*
X-3619500Y-190500D03*
X-3873500D03*
X-3619500Y2095500D03*
Y1841500D03*
Y2349500D03*
X-3873500D03*
X-3619500Y2857500D03*
Y2603500D03*
X-3873500Y2857500D03*
Y2603500D03*
X-3048000Y-2730500D03*
X-3302000D03*
X-2984500Y-1905000D03*
Y-2159000D03*
Y-1397000D03*
Y-1651000D03*
X-2794000Y-2730500D03*
X-2540000D03*
X-2730500Y-1905000D03*
X-2476500D03*
X-2730500Y-2159000D03*
X-2476500D03*
X-2730500Y-1397000D03*
X-2476500D03*
X-2730500Y-1651000D03*
X-2476500D03*
X-2667000Y-317500D03*
X-2413000D03*
X-2730500Y2095500D03*
X-2476500D03*
X-2730500Y1841500D03*
X-2476500D03*
X-2730500Y2857500D03*
X-2476500D03*
X-2730500Y2603500D03*
X-2476500D03*
X-1841500Y-2413000D03*
X-2286000Y-2730500D03*
X-2032000D03*
X-1778000D03*
X-1841500Y-1905000D03*
Y-2159000D03*
Y-1651000D03*
X-2222500Y-1397000D03*
X-2159000Y-762000D03*
X-1905000D03*
X-2159000Y-1016000D03*
X-1905000D03*
X-2159000Y-571500D03*
X-1905000D03*
X-2159000Y-63500D03*
X-1905000Y-317500D03*
X-2159000Y444500D03*
X-1905000D03*
X-2159000Y190500D03*
X-1905000D03*
X-2159000Y698500D03*
X-1905000D03*
X-2222500Y2095500D03*
Y1841500D03*
Y2857500D03*
Y2603500D03*
X-1333500Y-2413000D03*
X-1587500D03*
X-1333500Y-1905000D03*
X-1587500D03*
Y-2159000D03*
X-1333500Y-1651000D03*
X-1587500D03*
X-1397000Y-571500D03*
X-1651000D03*
Y-825500D03*
X-1397000Y-317500D03*
X-1651000D03*
X-1397000Y444500D03*
Y190500D03*
X-1651000Y444500D03*
Y190500D03*
X-698500Y-2730500D03*
X-635000Y-127000D03*
X-889000D03*
X-635000Y127000D03*
X-889000D03*
X-444500Y-2730500D03*
X-190500D03*
X-63500Y-1524000D03*
X0Y-571500D03*
X-198000Y-1023500D03*
X-127000Y-571500D03*
X0Y-190500D03*
X-254000Y-133670D03*
X-317500Y444500D03*
X-191380Y434680D03*
X-245340Y199160D03*
X-72350Y425870D03*
X-317500Y254000D03*
X0Y508000D03*
X63500Y-2730500D03*
X317500D03*
X508000Y-2159000D03*
X444500Y-2032000D03*
X127000Y-2159000D03*
X190500Y-1460500D03*
X351360Y-1518820D03*
X190500Y-762000D03*
X254000Y-825500D03*
X571500Y-635000D03*
X317500Y-952500D03*
X381000Y-825500D03*
X127000Y-444500D03*
X190500Y-508000D03*
X254000Y444500D03*
X63500D03*
X317500Y508000D03*
X1016000Y-2730500D03*
X1143000Y-1968500D03*
Y-1778000D03*
X762000Y-1167670D03*
X1206500Y0D03*
X1173390Y-127000D03*
X889000Y444500D03*
X825500Y254000D03*
X965200Y444500D03*
X901710Y254000D03*
X1206500Y381000D03*
X812800Y444500D03*
X1206500Y127000D03*
X762000Y698500D03*
Y889000D03*
Y1270000D03*
X1524000Y-2730500D03*
X1778000D03*
X1270000D03*
X1397000Y-1270000D03*
Y-1397000D03*
X1651000D03*
Y-1270000D03*
X1524000Y-1397000D03*
Y-1270000D03*
Y-1167670D03*
X1333500Y-1333500D03*
X1524000Y-571500D03*
X1397000Y-635000D03*
X1270000Y-508000D03*
X1651000Y571500D03*
X1333500D03*
X1651000Y1206500D03*
X2032000Y-2730500D03*
X1905000Y-2095500D03*
X2349500Y-63500D03*
X2667000Y-1143000D03*
X2921000D03*
X2667000Y-635000D03*
X2921000D03*
X2667000Y-889000D03*
X2921000D03*
X3175000Y-1143000D03*
X3429000D03*
X3175000Y-635000D03*
X3429000D03*
X3175000Y-889000D03*
X3429000D03*
X3873500Y-2095500D03*
X4000500D03*
X3746500D03*
X3937000Y-1143000D03*
X3683000D03*
X3937000Y-635000D03*
X3683000D03*
X3937000Y-889000D03*
X3683000D03*
X4000500Y0D03*
Y508000D03*
Y254000D03*
Y762000D03*
Y1778000D03*
Y1524000D03*
X3683000Y1270000D03*
X4000500Y2286000D03*
Y2032000D03*
X4191000Y-1143000D03*
Y-635000D03*
Y-889000D03*
X4254500Y0D03*
X4508500D03*
X4254500Y508000D03*
X4508500D03*
X4254500Y254000D03*
X4508500D03*
X4254500Y762000D03*
X4508500D03*
X4254500Y1778000D03*
Y1524000D03*
Y2286000D03*
X4508500D03*
X4254500Y2032000D03*
X4508500D03*
G54D19*
G01X-6516250Y227530D02*
X-6488680Y264590D01*
X-6465060Y285750D01*
X-6433560Y296330D01*
X-6406000Y285750D01*
X-6386320Y264590D01*
X-6370570Y232830D01*
X-6366630Y195790D01*
X-6370570Y164040D01*
X-6386320Y132280D01*
X-6409950Y105830D01*
X-6437500Y95250D01*
X-6469000Y105830D01*
X-6496560Y137570D01*
X-6512310Y185210D01*
X-6516250Y238120D01*
X-6508370Y306910D01*
X-6496560Y343960D01*
X-6476880Y381000D01*
X-6449320Y407460D01*
X-6421760Y412750D01*
X-6394200Y402170D01*
X-6374510Y375710D01*
G01X-6201290Y359830D02*
X-6177660Y391580D01*
X-6150100Y407460D01*
X-6118600Y412750D01*
X-6079240Y402170D01*
X-6051670Y375710D01*
X-6043800Y343960D01*
X-6047740Y312200D01*
X-6063490Y285750D01*
X-6142230Y232830D01*
X-6177660Y195790D01*
X-6201290Y142860D01*
X-6209160Y95250D01*
X-6043800D01*
G01X-5811520Y84670D02*
X-5819400Y89960D01*
Y100540D01*
X-5811520Y105830D01*
X-5803640Y100540D01*
Y89960D01*
X-5811520Y84670D01*
G01X-5449320Y95250D02*
Y412750D01*
X-5594990Y185210D01*
X-5398130D01*
G01X-6032500Y-12438140D02*
Y-3937000D01*
X6250940D01*
Y-12438140D01*
X-6032500D01*
G01Y-11724400D02*
X6250940D01*
G01X-6032500Y-11010660D02*
X6250940D01*
G01X-6032500Y-10296920D02*
X6250940D01*
G01X-6032500Y-9583180D02*
X6250940D01*
G01X-6032500Y-8869440D02*
X6250940D01*
G01X-6032500Y-8155700D02*
X6250940D01*
G01X-6032500Y-7441960D02*
X6250940D01*
G01X-6032500Y-6728220D02*
X6250940D01*
G01X-6032500Y-6014480D02*
X6250940D01*
G01X-6032500Y-5300740D02*
X6250940D01*
G01X-6032500Y-4587000D02*
X6250940D01*
G01X-5170000Y-3120000D02*
X-6219000D01*
G01X-5969000Y-142870D02*
Y-3120000D01*
G01X-6031500Y-2720000D02*
X-5969000Y-3120000D01*
X-5906500Y-2720000D01*
X-6031500D01*
G01X-5969000Y650870D02*
Y3120000D01*
G01X-5906500Y2720000D02*
X-5969000Y3120000D01*
X-6031500Y2720000D01*
X-5906500D01*
G01X-5170000Y3120000D02*
X-6219000D01*
G01X-5752980Y-5776990D02*
Y-5459490D01*
X-5603360D01*
G01X-5658490Y-5612940D02*
X-5752980D01*
G01X-5410450Y-5459490D02*
X-5315970D01*
G01X-5363210D02*
Y-5776990D01*
G01X-5410450D02*
X-5315970D01*
G01X-5024630Y-5618240D02*
X-4945880D01*
Y-5713490D01*
X-4969510Y-5745250D01*
X-4997070Y-5766410D01*
X-5036440Y-5776990D01*
X-5075810Y-5766410D01*
X-5103370Y-5745250D01*
X-5126990Y-5713490D01*
X-5142740Y-5676450D01*
X-5150620Y-5634120D01*
Y-5597070D01*
X-5142740Y-5565330D01*
X-5126990Y-5528280D01*
X-5103370Y-5496530D01*
X-5079750Y-5475370D01*
X-5048250Y-5459490D01*
X-5020690D01*
X-4989200Y-5470070D01*
X-4965570Y-5491240D01*
G01X-4819900Y-5459490D02*
Y-5687030D01*
X-4804160Y-5734670D01*
X-4772660Y-5766410D01*
X-4733290Y-5776990D01*
X-4693920Y-5766410D01*
X-4662420Y-5734670D01*
X-4646680Y-5687030D01*
Y-5459490D01*
G01X-4497070Y-5776990D02*
Y-5459490D01*
X-4398650D01*
X-4367150Y-5475370D01*
X-4347460Y-5496530D01*
X-4339590Y-5538870D01*
X-4347460Y-5581200D01*
X-4371090Y-5607650D01*
X-4398650Y-5623540D01*
X-4497070D01*
G01X-4398650D02*
X-4339590Y-5776990D01*
G01X-4024630D02*
X-4182110D01*
Y-5459490D01*
X-4024630D01*
G01X-4087620Y-5612940D02*
X-4182110D01*
G01X-4920000Y-3120000D02*
Y3120000D01*
X4920000D01*
Y-3120000D01*
X-4920000D01*
G01Y3370000D02*
Y4491800D01*
G01X-1362070Y4241800D02*
X-4920000D01*
G01X-4520000Y4304300D02*
X-4920000Y4241800D01*
X-4520000Y4179300D01*
Y4304300D01*
G01X-4241170Y-5063250D02*
X-4142740Y-4745750D01*
X-4044310Y-5063250D01*
G01X-4079750Y-4952130D02*
X-4205740D01*
G01X-3906520Y-4745750D02*
Y-5063250D01*
X-3749040D01*
G01X-3591560Y-4745750D02*
Y-5063250D01*
X-3434080D01*
G01X-2969510Y-4745750D02*
Y-4973290D01*
X-2953770Y-5020930D01*
X-2922270Y-5052670D01*
X-2882900Y-5063250D01*
X-2843530Y-5052670D01*
X-2812030Y-5020930D01*
X-2796290Y-4973290D01*
Y-4745750D01*
G01X-2658490Y-5063250D02*
Y-4745750D01*
X-2477390Y-5063250D01*
Y-4745750D01*
G01X-2300220D02*
X-2205740D01*
G01X-2252980D02*
Y-5063250D01*
G01X-2300220D02*
X-2205740D01*
G01X-1938020Y-4745750D02*
Y-5063250D01*
G01X-2028570Y-4745750D02*
X-1847470D01*
G01X-1705740Y-5020930D02*
X-1674240Y-5047380D01*
X-1638810Y-5063250D01*
X-1607310D01*
X-1575820Y-5047380D01*
X-1552190Y-5020930D01*
X-1540380Y-4983870D01*
X-1548250Y-4946840D01*
X-1567940Y-4915090D01*
X-1603380Y-4893910D01*
X-1650620Y-4883330D01*
X-1678180Y-4862170D01*
X-1689990Y-4825130D01*
X-1682110Y-4788080D01*
X-1662430Y-4761630D01*
X-1634870Y-4745750D01*
X-1607310D01*
X-1579750Y-4756330D01*
X-1556130Y-4782790D01*
G01X-1091570Y-5063250D02*
X-993140Y-4745750D01*
X-894710Y-5063250D01*
G01X-930150Y-4952130D02*
X-1056140D01*
G01X-756920Y-5063250D02*
Y-4745750D01*
X-658500D01*
X-627000Y-4761630D01*
X-607310Y-4782790D01*
X-599440Y-4825130D01*
X-607310Y-4867460D01*
X-630940Y-4893910D01*
X-658500Y-4909800D01*
X-756920D01*
G01X-658500D02*
X-599440Y-5063250D01*
G01X-284480D02*
X-441960D01*
Y-4745750D01*
X-284480D01*
G01X-347470Y-4899200D02*
X-441960D01*
G01X219460Y-4745750D02*
X313940D01*
G01X266700D02*
Y-5063250D01*
G01X219460D02*
X313940D01*
G01X491110D02*
Y-4745750D01*
X672210Y-5063250D01*
Y-4745750D01*
G01X1109210Y-5063250D02*
Y-4745750D01*
X1211580Y-5010330D01*
X1313950Y-4745750D01*
Y-5063250D01*
G01X1479300Y-4745750D02*
X1573780D01*
G01X1526540D02*
Y-5063250D01*
G01X1479300D02*
X1573780D01*
G01X1762760Y-4745750D02*
Y-5063250D01*
X1920240D01*
G01X2077720Y-4745750D02*
Y-5063250D01*
X2235200D01*
G01X2424180Y-4745750D02*
X2518660D01*
G01X2471420D02*
Y-5063250D01*
G01X2424180D02*
X2518660D01*
G01X2684010D02*
Y-4745750D01*
X2786380Y-5010330D01*
X2888750Y-4745750D01*
Y-5063250D01*
G01X3180080D02*
X3022600D01*
Y-4745750D01*
X3180080D01*
G01X3117090Y-4899200D02*
X3022600D01*
G01X3416300Y-4745750D02*
Y-5063250D01*
G01X3325750Y-4745750D02*
X3506850D01*
G01X3810000Y-5063250D02*
X3652520D01*
Y-4745750D01*
X3810000D01*
G01X3747010Y-4899200D02*
X3652520D01*
G01X3967480Y-5063250D02*
Y-4745750D01*
X4065900D01*
X4097400Y-4761630D01*
X4117090Y-4782790D01*
X4124960Y-4825130D01*
X4117090Y-4867460D01*
X4093460Y-4893910D01*
X4065900Y-4909800D01*
X3967480D01*
G01X4065900D02*
X4124960Y-5063250D01*
G01X4278500Y-5020930D02*
X4310000Y-5047380D01*
X4345430Y-5063250D01*
X4376930D01*
X4408420Y-5047380D01*
X4432050Y-5020930D01*
X4443860Y-4983870D01*
X4435990Y-4946840D01*
X4416300Y-4915090D01*
X4380860Y-4893910D01*
X4333620Y-4883330D01*
X4306060Y-4862170D01*
X4294250Y-4825130D01*
X4302130Y-4788080D01*
X4321810Y-4761630D01*
X4349370Y-4745750D01*
X4376930D01*
X4404490Y-4756330D01*
X4428110Y-4782790D01*
G01X-3749040Y-5300740D02*
Y-12438140D01*
G01X-3914390Y-4413250D02*
Y-4095750D01*
X-3835660D01*
X-3804160Y-4111630D01*
X-3780540Y-4132790D01*
X-3760850Y-4164540D01*
X-3745100Y-4201590D01*
X-3741170Y-4254500D01*
X-3745100Y-4307420D01*
X-3760850Y-4344460D01*
X-3780540Y-4376220D01*
X-3804160Y-4397380D01*
X-3835660Y-4413250D01*
X-3914390D01*
G01X-3591560D02*
Y-4095750D01*
X-3493140D01*
X-3461640Y-4111630D01*
X-3441950Y-4132790D01*
X-3434080Y-4175130D01*
X-3441950Y-4217460D01*
X-3465580Y-4243910D01*
X-3493140Y-4259800D01*
X-3591560D01*
G01X-3493140D02*
X-3434080Y-4413250D01*
G01X-3245100Y-4095750D02*
X-3150620D01*
G01X-3197860D02*
Y-4413250D01*
G01X-3245100D02*
X-3150620D01*
G01X-2961640Y-4095750D02*
Y-4413250D01*
X-2804160D01*
G01X-2646680Y-4095750D02*
Y-4413250D01*
X-2489200D01*
G01X-1851410Y-4122210D02*
X-1875030Y-4106330D01*
X-1902580Y-4095750D01*
X-1934080D01*
X-1969520Y-4111630D01*
X-1997070Y-4138080D01*
X-2016760Y-4169840D01*
X-2032510Y-4222750D01*
X-2036450Y-4270380D01*
X-2028570Y-4318000D01*
X-2016760Y-4349750D01*
X-1993140Y-4381510D01*
X-1965580Y-4402670D01*
X-1938020Y-4413250D01*
X-1910460D01*
X-1882900Y-4402670D01*
X-1859280Y-4386800D01*
X-1839590Y-4365640D01*
G01X-1705740Y-4413250D02*
Y-4095750D01*
G01X-1540380D02*
Y-4413250D01*
G01Y-4254500D02*
X-1705740D01*
G01X-1406530Y-4413250D02*
X-1308100Y-4095750D01*
X-1209670Y-4413250D01*
G01X-1245110Y-4302130D02*
X-1371100D01*
G01X-1071880Y-4413250D02*
Y-4095750D01*
X-973460D01*
X-941960Y-4111630D01*
X-922270Y-4132790D01*
X-914400Y-4175130D01*
X-922270Y-4217460D01*
X-945900Y-4243910D01*
X-973460Y-4259800D01*
X-1071880D01*
G01X-973460D02*
X-914400Y-4413250D01*
G01X-678180Y-4095750D02*
Y-4413250D01*
G01X-768730Y-4095750D02*
X-587630D01*
G01X-363220Y-4423830D02*
X-371100Y-4418540D01*
Y-4407960D01*
X-363220Y-4402670D01*
X-355340Y-4407960D01*
Y-4418540D01*
X-363220Y-4423830D01*
G01Y-4280970D02*
X-371100Y-4275670D01*
Y-4265090D01*
X-363220Y-4259800D01*
X-355340Y-4265090D01*
Y-4275670D01*
X-363220Y-4280970D01*
G01X266700Y-4095750D02*
Y-4413250D01*
G01X176150Y-4095750D02*
X357250D01*
G01X581660Y-4413250D02*
X550160Y-4407960D01*
X522610Y-4386800D01*
X498980Y-4355040D01*
X483230Y-4318000D01*
X475360Y-4275670D01*
Y-4233330D01*
X483230Y-4191000D01*
X498980Y-4153960D01*
X522610Y-4122210D01*
X550160Y-4101040D01*
X581660Y-4095750D01*
X613150Y-4101040D01*
X640710Y-4122210D01*
X664340Y-4153960D01*
X680090Y-4191000D01*
X687960Y-4233330D01*
Y-4275670D01*
X680090Y-4318000D01*
X664340Y-4355040D01*
X640710Y-4386800D01*
X613150Y-4407960D01*
X581660Y-4413250D01*
G01X817880D02*
Y-4095750D01*
X912370D01*
X943860Y-4111630D01*
X967490Y-4148670D01*
X975360Y-4191000D01*
X967490Y-4233330D01*
X947800Y-4265090D01*
X912370Y-4280970D01*
X817880D01*
G01X1526540Y-4095750D02*
Y-4413250D01*
G01X1471420Y-4201590D02*
X1581660D01*
G01X1841500Y-4413250D02*
X1817880Y-4407960D01*
X1794260Y-4386800D01*
X1778500Y-4349750D01*
X1770630Y-4307420D01*
X1778500Y-4265090D01*
X1794260Y-4228040D01*
X1817880Y-4206880D01*
X1841500Y-4201590D01*
X1865120Y-4206880D01*
X1888740Y-4228040D01*
X1904490Y-4265090D01*
X1908430Y-4307420D01*
X1904490Y-4349750D01*
X1888740Y-4386800D01*
X1865120Y-4407960D01*
X1841500Y-4413250D01*
G01X2502910Y-4243910D02*
X2518660Y-4228040D01*
X2530470Y-4201590D01*
X2538350Y-4164540D01*
X2530470Y-4132790D01*
X2514730Y-4111630D01*
X2487170Y-4095750D01*
X2380870D01*
Y-4413250D01*
X2510790D01*
X2538350Y-4392090D01*
X2554100Y-4360330D01*
X2561970Y-4323290D01*
X2554100Y-4286260D01*
X2530470Y-4254500D01*
X2502910Y-4243910D01*
X2380870D01*
G01X2786380Y-4413250D02*
X2754880Y-4407960D01*
X2727330Y-4386800D01*
X2703700Y-4355040D01*
X2687950Y-4318000D01*
X2680080Y-4275670D01*
Y-4233330D01*
X2687950Y-4191000D01*
X2703700Y-4153960D01*
X2727330Y-4122210D01*
X2754880Y-4101040D01*
X2786380Y-4095750D01*
X2817870Y-4101040D01*
X2845430Y-4122210D01*
X2869060Y-4153960D01*
X2884810Y-4191000D01*
X2892680Y-4233330D01*
Y-4275670D01*
X2884810Y-4318000D01*
X2869060Y-4355040D01*
X2845430Y-4386800D01*
X2817870Y-4407960D01*
X2786380Y-4413250D01*
G01X3101340Y-4095750D02*
Y-4413250D01*
G01X3010790Y-4095750D02*
X3191890D01*
G01X3416300D02*
Y-4413250D01*
G01X3325750Y-4095750D02*
X3506850D01*
G01X3731260Y-4413250D02*
X3699760Y-4407960D01*
X3672210Y-4386800D01*
X3648580Y-4355040D01*
X3632830Y-4318000D01*
X3624960Y-4275670D01*
Y-4233330D01*
X3632830Y-4191000D01*
X3648580Y-4153960D01*
X3672210Y-4122210D01*
X3699760Y-4101040D01*
X3731260Y-4095750D01*
X3762750Y-4101040D01*
X3790310Y-4122210D01*
X3813940Y-4153960D01*
X3829690Y-4191000D01*
X3837560Y-4233330D01*
Y-4275670D01*
X3829690Y-4318000D01*
X3813940Y-4355040D01*
X3790310Y-4386800D01*
X3762750Y-4407960D01*
X3731260Y-4413250D01*
G01X3943850D02*
Y-4095750D01*
X4046220Y-4360330D01*
X4148590Y-4095750D01*
Y-4413250D01*
G01X-2997080Y-10547960D02*
X-2973450Y-10516210D01*
X-2945890Y-10500330D01*
X-2914390Y-10495040D01*
X-2875030Y-10505620D01*
X-2847460Y-10532080D01*
X-2839590Y-10563830D01*
X-2843530Y-10595590D01*
X-2859280Y-10622040D01*
X-2938020Y-10674960D01*
X-2973450Y-10712000D01*
X-2997080Y-10764930D01*
X-3004950Y-10812540D01*
X-2839590D01*
G01X-2607310Y-10823120D02*
X-2615190Y-10817830D01*
Y-10807250D01*
X-2607310Y-10801960D01*
X-2599430Y-10807250D01*
Y-10817830D01*
X-2607310Y-10823120D01*
G01X-2378960Y-10749040D02*
X-2355350Y-10786090D01*
X-2323850Y-10807250D01*
X-2288410Y-10812540D01*
X-2256910Y-10807250D01*
X-2225420Y-10780800D01*
X-2205740Y-10749040D01*
X-2201800Y-10717290D01*
X-2209670Y-10680260D01*
X-2237230Y-10653790D01*
X-2264790Y-10643200D01*
X-2300230D01*
G01X-2264790D02*
X-2241170Y-10627330D01*
X-2221480Y-10600880D01*
X-2213610Y-10569130D01*
X-2221480Y-10537370D01*
X-2241170Y-10510920D01*
X-2276600Y-10495040D01*
X-2312030Y-10500330D01*
X-2347470Y-10521500D01*
G01X-2064000Y-10764930D02*
X-2040390Y-10791380D01*
X-2012830Y-10807250D01*
X-1977390Y-10812540D01*
X-1941950Y-10801960D01*
X-1914400Y-10780800D01*
X-1894710Y-10743750D01*
X-1890780Y-10701420D01*
X-1898650Y-10659090D01*
X-1918340Y-10632620D01*
X-1945900Y-10611460D01*
X-1973450Y-10606170D01*
X-2001010Y-10611460D01*
X-2036440Y-10632620D01*
X-2024630Y-10495040D01*
X-1918340D01*
G01X-1615190Y-10812540D02*
Y-10495040D01*
X-1760860Y-10722580D01*
X-1564000D01*
G01X-1406520Y-10600880D02*
X-1288420Y-10812540D01*
G01Y-10600880D02*
X-1406520Y-10812540D01*
G01X-1032510D02*
Y-10495040D01*
X-1079750Y-10558540D01*
G01Y-10812540D02*
X-985270D01*
G01X-717550Y-10823120D02*
X-725430Y-10817830D01*
Y-10807250D01*
X-717550Y-10801960D01*
X-709670Y-10807250D01*
Y-10817830D01*
X-717550Y-10823120D01*
G01X-402590Y-10812540D02*
Y-10495040D01*
X-449830Y-10558540D01*
G01Y-10812540D02*
X-355350D01*
G01X-174240Y-10764930D02*
X-150630Y-10791380D01*
X-123070Y-10807250D01*
X-87630Y-10812540D01*
X-52190Y-10801960D01*
X-24640Y-10780800D01*
X-4950Y-10743750D01*
X-1020Y-10701420D01*
X-8890Y-10659090D01*
X-28580Y-10632620D01*
X-56140Y-10611460D01*
X-83690Y-10606170D01*
X-111250Y-10611460D01*
X-146680Y-10632620D01*
X-134870Y-10495040D01*
X-28580D01*
G01X274570Y-10812540D02*
Y-10495040D01*
X128900Y-10722580D01*
X325760D01*
G01X-2378960Y-12176520D02*
X-2355350Y-12213570D01*
X-2323850Y-12234730D01*
X-2288410Y-12240020D01*
X-2256910Y-12234730D01*
X-2225420Y-12208280D01*
X-2205740Y-12176520D01*
X-2201800Y-12144770D01*
X-2209670Y-12107740D01*
X-2237230Y-12081270D01*
X-2264790Y-12070680D01*
X-2300230D01*
G01X-2264790D02*
X-2241170Y-12054810D01*
X-2221480Y-12028360D01*
X-2213610Y-11996610D01*
X-2221480Y-11964850D01*
X-2241170Y-11938400D01*
X-2276600Y-11922520D01*
X-2312030Y-11927810D01*
X-2347470Y-11948980D01*
G01X-1977390Y-12250600D02*
X-1985270Y-12245310D01*
Y-12234730D01*
X-1977390Y-12229440D01*
X-1969510Y-12234730D01*
Y-12245310D01*
X-1977390Y-12250600D01*
G01X-1729360Y-12202990D02*
X-1701800Y-12229440D01*
X-1670310Y-12240020D01*
X-1638810Y-12229440D01*
X-1611250Y-12197700D01*
X-1591560Y-12150060D01*
X-1583690Y-12102440D01*
Y-12044230D01*
X-1591560Y-11996610D01*
X-1611250Y-11954270D01*
X-1634870Y-11933100D01*
X-1662430Y-11922520D01*
X-1693930Y-11933100D01*
X-1717550Y-11954270D01*
X-1733300Y-11986020D01*
X-1741170Y-12028360D01*
X-1733300Y-12065390D01*
X-1713610Y-12102440D01*
X-1689990Y-12123610D01*
X-1662430Y-12128900D01*
X-1630940Y-12118320D01*
X-1607310Y-12091860D01*
X-1583690Y-12044230D01*
G01X-1406520Y-12028360D02*
X-1288420Y-12240020D01*
G01Y-12028360D02*
X-1406520Y-12240020D01*
G01X-1032510D02*
Y-11922520D01*
X-1079750Y-11986020D01*
G01Y-12240020D02*
X-985270D01*
G01X-717550Y-12250600D02*
X-725430Y-12245310D01*
Y-12234730D01*
X-717550Y-12229440D01*
X-709670Y-12234730D01*
Y-12245310D01*
X-717550Y-12250600D01*
G01X-469520Y-12202990D02*
X-441960Y-12229440D01*
X-410470Y-12240020D01*
X-378970Y-12229440D01*
X-351410Y-12197700D01*
X-331720Y-12150060D01*
X-323850Y-12102440D01*
Y-12044230D01*
X-331720Y-11996610D01*
X-351410Y-11954270D01*
X-375030Y-11933100D01*
X-402590Y-11922520D01*
X-434090Y-11933100D01*
X-457710Y-11954270D01*
X-473460Y-11986020D01*
X-481330Y-12028360D01*
X-473460Y-12065390D01*
X-453770Y-12102440D01*
X-430150Y-12123610D01*
X-402590Y-12128900D01*
X-371100Y-12118320D01*
X-347470Y-12091860D01*
X-323850Y-12044230D01*
G01X-2378960Y-11462780D02*
X-2355350Y-11499830D01*
X-2323850Y-11520990D01*
X-2288410Y-11526280D01*
X-2256910Y-11520990D01*
X-2225420Y-11494540D01*
X-2205740Y-11462780D01*
X-2201800Y-11431030D01*
X-2209670Y-11394000D01*
X-2237230Y-11367530D01*
X-2264790Y-11356940D01*
X-2300230D01*
G01X-2264790D02*
X-2241170Y-11341070D01*
X-2221480Y-11314620D01*
X-2213610Y-11282870D01*
X-2221480Y-11251110D01*
X-2241170Y-11224660D01*
X-2276600Y-11208780D01*
X-2312030Y-11214070D01*
X-2347470Y-11235240D01*
G01X-1977390Y-11536860D02*
X-1985270Y-11531570D01*
Y-11520990D01*
X-1977390Y-11515700D01*
X-1969510Y-11520990D01*
Y-11531570D01*
X-1977390Y-11536860D01*
G01X-1729360Y-11489250D02*
X-1701800Y-11515700D01*
X-1670310Y-11526280D01*
X-1638810Y-11515700D01*
X-1611250Y-11483960D01*
X-1591560Y-11436320D01*
X-1583690Y-11388700D01*
Y-11330490D01*
X-1591560Y-11282870D01*
X-1611250Y-11240530D01*
X-1634870Y-11219360D01*
X-1662430Y-11208780D01*
X-1693930Y-11219360D01*
X-1717550Y-11240530D01*
X-1733300Y-11272280D01*
X-1741170Y-11314620D01*
X-1733300Y-11351650D01*
X-1713610Y-11388700D01*
X-1689990Y-11409870D01*
X-1662430Y-11415160D01*
X-1630940Y-11404580D01*
X-1607310Y-11378120D01*
X-1583690Y-11330490D01*
G01X-1406520Y-11314620D02*
X-1288420Y-11526280D01*
G01Y-11314620D02*
X-1406520Y-11526280D01*
G01X-1032510D02*
Y-11208780D01*
X-1079750Y-11272280D01*
G01Y-11526280D02*
X-985270D01*
G01X-717550Y-11536860D02*
X-725430Y-11531570D01*
Y-11520990D01*
X-717550Y-11515700D01*
X-709670Y-11520990D01*
Y-11531570D01*
X-717550Y-11536860D01*
G01X-469520Y-11489250D02*
X-441960Y-11515700D01*
X-410470Y-11526280D01*
X-378970Y-11515700D01*
X-351410Y-11483960D01*
X-331720Y-11436320D01*
X-323850Y-11388700D01*
Y-11330490D01*
X-331720Y-11282870D01*
X-351410Y-11240530D01*
X-375030Y-11219360D01*
X-402590Y-11208780D01*
X-434090Y-11219360D01*
X-457710Y-11240530D01*
X-473460Y-11272280D01*
X-481330Y-11314620D01*
X-473460Y-11351650D01*
X-453770Y-11388700D01*
X-430150Y-11409870D01*
X-402590Y-11415160D01*
X-371100Y-11404580D01*
X-347470Y-11378120D01*
X-323850Y-11330490D01*
G01X-1749040Y-10035300D02*
X-1725430Y-10072350D01*
X-1693930Y-10093510D01*
X-1658490Y-10098800D01*
X-1626990Y-10093510D01*
X-1595500Y-10067060D01*
X-1575820Y-10035300D01*
X-1571880Y-10003550D01*
X-1579750Y-9966520D01*
X-1607310Y-9940050D01*
X-1634870Y-9929460D01*
X-1670310D01*
G01X-1634870D02*
X-1611250Y-9913590D01*
X-1591560Y-9887140D01*
X-1583690Y-9855390D01*
X-1591560Y-9823630D01*
X-1611250Y-9797180D01*
X-1646680Y-9781300D01*
X-1682110Y-9786590D01*
X-1717550Y-9807760D01*
G01X-1347470Y-10109380D02*
X-1355350Y-10104090D01*
Y-10093510D01*
X-1347470Y-10088220D01*
X-1339590Y-10093510D01*
Y-10104090D01*
X-1347470Y-10109380D01*
G01X-1107320Y-9834220D02*
X-1083690Y-9802470D01*
X-1056130Y-9786590D01*
X-1024630Y-9781300D01*
X-985270Y-9791880D01*
X-957700Y-9818340D01*
X-949830Y-9850090D01*
X-953770Y-9881850D01*
X-969520Y-9908300D01*
X-1048260Y-9961220D01*
X-1083690Y-9998260D01*
X-1107320Y-10051190D01*
X-1115190Y-10098800D01*
X-949830D01*
G01X-1819910Y-9385060D02*
Y-9067560D01*
X-1867150Y-9131060D01*
G01Y-9385060D02*
X-1772670D01*
G01X-1504950Y-9395640D02*
X-1512830Y-9390350D01*
Y-9379770D01*
X-1504950Y-9374480D01*
X-1497070Y-9379770D01*
Y-9390350D01*
X-1504950Y-9395640D01*
G01X-1189990Y-9067560D02*
X-1221490Y-9078140D01*
X-1245110Y-9104600D01*
X-1260860Y-9136350D01*
X-1272670Y-9178690D01*
X-1276600Y-9226310D01*
X-1272670Y-9273940D01*
X-1260860Y-9316270D01*
X-1245110Y-9348030D01*
X-1221490Y-9374480D01*
X-1189990Y-9385060D01*
X-1158500Y-9374480D01*
X-1134870Y-9348030D01*
X-1119120Y-9316270D01*
X-1107310Y-9273940D01*
X-1103380Y-9226310D01*
X-1107310Y-9178690D01*
X-1119120Y-9136350D01*
X-1134870Y-9104600D01*
X-1158500Y-9078140D01*
X-1189990Y-9067560D01*
G01X-961640Y-9337450D02*
X-938030Y-9363900D01*
X-910470Y-9379770D01*
X-875030Y-9385060D01*
X-839590Y-9374480D01*
X-812040Y-9353320D01*
X-792350Y-9316270D01*
X-788420Y-9273940D01*
X-796290Y-9231610D01*
X-815980Y-9205140D01*
X-843540Y-9183980D01*
X-871090Y-9178690D01*
X-898650Y-9183980D01*
X-934080Y-9205140D01*
X-922270Y-9067560D01*
X-815980D01*
G01X-1662430Y-8671320D02*
Y-8353820D01*
X-1709670Y-8417320D01*
G01Y-8671320D02*
X-1615190D01*
G01X-1347470Y-8681900D02*
X-1355350Y-8676610D01*
Y-8666030D01*
X-1347470Y-8660740D01*
X-1339590Y-8666030D01*
Y-8676610D01*
X-1347470Y-8681900D01*
G01X-1032510Y-8353820D02*
X-1064010Y-8364400D01*
X-1087630Y-8390860D01*
X-1103380Y-8422610D01*
X-1115190Y-8464950D01*
X-1119120Y-8512570D01*
X-1115190Y-8560200D01*
X-1103380Y-8602530D01*
X-1087630Y-8634290D01*
X-1064010Y-8660740D01*
X-1032510Y-8671320D01*
X-1001020Y-8660740D01*
X-977390Y-8634290D01*
X-961640Y-8602530D01*
X-949830Y-8560200D01*
X-945900Y-8512570D01*
X-949830Y-8464950D01*
X-961640Y-8422610D01*
X-977390Y-8390860D01*
X-1001020Y-8364400D01*
X-1032510Y-8353820D01*
G01X-1662430Y-7640080D02*
X-1693930Y-7650660D01*
X-1717550Y-7677120D01*
X-1733300Y-7708870D01*
X-1745110Y-7751210D01*
X-1749040Y-7798830D01*
X-1745110Y-7846460D01*
X-1733300Y-7888790D01*
X-1717550Y-7920550D01*
X-1693930Y-7947000D01*
X-1662430Y-7957580D01*
X-1630940Y-7947000D01*
X-1607310Y-7920550D01*
X-1591560Y-7888790D01*
X-1579750Y-7846460D01*
X-1575820Y-7798830D01*
X-1579750Y-7751210D01*
X-1591560Y-7708870D01*
X-1607310Y-7677120D01*
X-1630940Y-7650660D01*
X-1662430Y-7640080D01*
G01X-1347470Y-7968160D02*
X-1355350Y-7962870D01*
Y-7952290D01*
X-1347470Y-7947000D01*
X-1339590Y-7952290D01*
Y-7962870D01*
X-1347470Y-7968160D01*
G01X-1032510Y-7957580D02*
X-1004950Y-7952290D01*
X-973460Y-7936420D01*
X-953770Y-7909970D01*
X-945900Y-7872910D01*
X-953770Y-7835880D01*
X-977390Y-7804130D01*
X-1012830Y-7788240D01*
X-1052190D01*
X-1075820Y-7777660D01*
X-1095510Y-7751210D01*
X-1103380Y-7714170D01*
X-1091560Y-7677120D01*
X-1064010Y-7650660D01*
X-1032510Y-7640080D01*
X-1001020Y-7650660D01*
X-973460Y-7677120D01*
X-961640Y-7714170D01*
X-969520Y-7751210D01*
X-989200Y-7777660D01*
X-1012830Y-7788240D01*
X-1052190D01*
X-1087630Y-7804130D01*
X-1111250Y-7835880D01*
X-1119120Y-7872910D01*
X-1111250Y-7909970D01*
X-1091560Y-7936420D01*
X-1060070Y-7952290D01*
X-1032510Y-7957580D01*
G01X-2134870Y-6926340D02*
X-2166370Y-6936920D01*
X-2189990Y-6963380D01*
X-2205740Y-6995130D01*
X-2217550Y-7037470D01*
X-2221480Y-7085090D01*
X-2217550Y-7132720D01*
X-2205740Y-7175050D01*
X-2189990Y-7206810D01*
X-2166370Y-7233260D01*
X-2134870Y-7243840D01*
X-2103380Y-7233260D01*
X-2079750Y-7206810D01*
X-2064000Y-7175050D01*
X-2052190Y-7132720D01*
X-2048260Y-7085090D01*
X-2052190Y-7037470D01*
X-2064000Y-6995130D01*
X-2079750Y-6963380D01*
X-2103380Y-6936920D01*
X-2134870Y-6926340D01*
G01X-1819910Y-7254420D02*
X-1827790Y-7249130D01*
Y-7238550D01*
X-1819910Y-7233260D01*
X-1812030Y-7238550D01*
Y-7249130D01*
X-1819910Y-7254420D01*
G01X-1579760Y-7111560D02*
X-1552190Y-7074500D01*
X-1528570Y-7053340D01*
X-1497070Y-7042760D01*
X-1469510Y-7053340D01*
X-1449830Y-7074500D01*
X-1434080Y-7106260D01*
X-1430140Y-7143300D01*
X-1434080Y-7175050D01*
X-1449830Y-7206810D01*
X-1473460Y-7233260D01*
X-1501010Y-7243840D01*
X-1532510Y-7233260D01*
X-1560070Y-7201520D01*
X-1575820Y-7153880D01*
X-1579760Y-7100970D01*
X-1571880Y-7032180D01*
X-1560070Y-6995130D01*
X-1540390Y-6958090D01*
X-1512830Y-6931630D01*
X-1485270Y-6926340D01*
X-1457710Y-6936920D01*
X-1438020Y-6963380D01*
G01X-1189990Y-6926340D02*
X-1221490Y-6936920D01*
X-1245110Y-6963380D01*
X-1260860Y-6995130D01*
X-1272670Y-7037470D01*
X-1276600Y-7085090D01*
X-1272670Y-7132720D01*
X-1260860Y-7175050D01*
X-1245110Y-7206810D01*
X-1221490Y-7233260D01*
X-1189990Y-7243840D01*
X-1158500Y-7233260D01*
X-1134870Y-7206810D01*
X-1119120Y-7175050D01*
X-1107310Y-7132720D01*
X-1103380Y-7085090D01*
X-1107310Y-7037470D01*
X-1119120Y-6995130D01*
X-1134870Y-6963380D01*
X-1158500Y-6936920D01*
X-1189990Y-6926340D01*
G01X-941960Y-7206810D02*
X-914400Y-7233260D01*
X-882910Y-7243840D01*
X-851410Y-7233260D01*
X-823850Y-7201520D01*
X-804160Y-7153880D01*
X-796290Y-7106260D01*
Y-7048050D01*
X-804160Y-7000430D01*
X-823850Y-6958090D01*
X-847470Y-6936920D01*
X-875030Y-6926340D01*
X-906530Y-6936920D01*
X-930150Y-6958090D01*
X-945900Y-6989840D01*
X-953770Y-7032180D01*
X-945900Y-7069210D01*
X-926210Y-7106260D01*
X-902590Y-7127430D01*
X-875030Y-7132720D01*
X-843540Y-7122140D01*
X-819910Y-7095680D01*
X-796290Y-7048050D01*
G01X-634880Y-7111560D02*
X-607310Y-7074500D01*
X-583690Y-7053340D01*
X-552190Y-7042760D01*
X-524630Y-7053340D01*
X-504950Y-7074500D01*
X-489200Y-7106260D01*
X-485260Y-7143300D01*
X-489200Y-7175050D01*
X-504950Y-7206810D01*
X-528580Y-7233260D01*
X-556130Y-7243840D01*
X-587630Y-7233260D01*
X-615190Y-7201520D01*
X-630940Y-7153880D01*
X-634880Y-7100970D01*
X-627000Y-7032180D01*
X-615190Y-6995130D01*
X-595510Y-6958090D01*
X-567950Y-6931630D01*
X-540390Y-6926340D01*
X-512830Y-6936920D01*
X-493140Y-6963380D01*
G01X-2134870Y-6212600D02*
X-2166370Y-6223180D01*
X-2189990Y-6249640D01*
X-2205740Y-6281390D01*
X-2217550Y-6323730D01*
X-2221480Y-6371350D01*
X-2217550Y-6418980D01*
X-2205740Y-6461310D01*
X-2189990Y-6493070D01*
X-2166370Y-6519520D01*
X-2134870Y-6530100D01*
X-2103380Y-6519520D01*
X-2079750Y-6493070D01*
X-2064000Y-6461310D01*
X-2052190Y-6418980D01*
X-2048260Y-6371350D01*
X-2052190Y-6323730D01*
X-2064000Y-6281390D01*
X-2079750Y-6249640D01*
X-2103380Y-6223180D01*
X-2134870Y-6212600D01*
G01X-1819910Y-6540680D02*
X-1827790Y-6535390D01*
Y-6524810D01*
X-1819910Y-6519520D01*
X-1812030Y-6524810D01*
Y-6535390D01*
X-1819910Y-6540680D01*
G01X-1591560Y-6466600D02*
X-1567950Y-6503650D01*
X-1536450Y-6524810D01*
X-1501010Y-6530100D01*
X-1469510Y-6524810D01*
X-1438020Y-6498360D01*
X-1418340Y-6466600D01*
X-1414400Y-6434850D01*
X-1422270Y-6397820D01*
X-1449830Y-6371350D01*
X-1477390Y-6360760D01*
X-1512830D01*
G01X-1477390D02*
X-1453770Y-6344890D01*
X-1434080Y-6318440D01*
X-1426210Y-6286690D01*
X-1434080Y-6254930D01*
X-1453770Y-6228480D01*
X-1489200Y-6212600D01*
X-1524630Y-6217890D01*
X-1560070Y-6239060D01*
G01X-1189990Y-6212600D02*
X-1221490Y-6223180D01*
X-1245110Y-6249640D01*
X-1260860Y-6281390D01*
X-1272670Y-6323730D01*
X-1276600Y-6371350D01*
X-1272670Y-6418980D01*
X-1260860Y-6461310D01*
X-1245110Y-6493070D01*
X-1221490Y-6519520D01*
X-1189990Y-6530100D01*
X-1158500Y-6519520D01*
X-1134870Y-6493070D01*
X-1119120Y-6461310D01*
X-1107310Y-6418980D01*
X-1103380Y-6371350D01*
X-1107310Y-6323730D01*
X-1119120Y-6281390D01*
X-1134870Y-6249640D01*
X-1158500Y-6223180D01*
X-1189990Y-6212600D01*
G01X-827790Y-6530100D02*
Y-6212600D01*
X-973460Y-6440140D01*
X-776600D01*
G01X-560070Y-6530100D02*
X-532510Y-6524810D01*
X-501020Y-6508940D01*
X-481330Y-6482490D01*
X-473460Y-6445430D01*
X-481330Y-6408400D01*
X-504950Y-6376650D01*
X-540390Y-6360760D01*
X-579750D01*
X-603380Y-6350180D01*
X-623070Y-6323730D01*
X-630940Y-6286690D01*
X-619120Y-6249640D01*
X-591570Y-6223180D01*
X-560070Y-6212600D01*
X-528580Y-6223180D01*
X-501020Y-6249640D01*
X-489200Y-6286690D01*
X-497080Y-6323730D01*
X-516760Y-6350180D01*
X-540390Y-6360760D01*
X-579750D01*
X-615190Y-6376650D01*
X-638810Y-6408400D01*
X-646680Y-6445430D01*
X-638810Y-6482490D01*
X-619120Y-6508940D01*
X-587630Y-6524810D01*
X-560070Y-6530100D01*
G01X-1902590Y-5734670D02*
X-1871090Y-5761120D01*
X-1835660Y-5776990D01*
X-1804160D01*
X-1772670Y-5761120D01*
X-1749040Y-5734670D01*
X-1737230Y-5697610D01*
X-1745100Y-5660580D01*
X-1764790Y-5628830D01*
X-1800230Y-5607650D01*
X-1847470Y-5597070D01*
X-1875030Y-5575910D01*
X-1886840Y-5538870D01*
X-1878960Y-5501820D01*
X-1859280Y-5475370D01*
X-1831720Y-5459490D01*
X-1804160D01*
X-1776600Y-5470070D01*
X-1752980Y-5496530D01*
G01X-1552190Y-5459490D02*
X-1457710D01*
G01X-1504950D02*
Y-5776990D01*
G01X-1552190D02*
X-1457710D01*
G01X-1264800Y-5459490D02*
X-1115180D01*
X-1264800Y-5776990D01*
X-1115180D01*
G01X-796290D02*
X-953770D01*
Y-5459490D01*
X-796290D01*
G01X-859280Y-5612940D02*
X-953770D01*
G01X-1072770Y4120080D02*
X-1045210Y4093630D01*
X-1013720Y4083050D01*
X-982220Y4093630D01*
X-954660Y4125370D01*
X-934970Y4173010D01*
X-927100Y4220630D01*
Y4278840D01*
X-934970Y4326460D01*
X-954660Y4368800D01*
X-978280Y4389970D01*
X-1005840Y4400550D01*
X-1037340Y4389970D01*
X-1060960Y4368800D01*
X-1076710Y4337050D01*
X-1084580Y4294710D01*
X-1076710Y4257680D01*
X-1057020Y4220630D01*
X-1033400Y4199460D01*
X-1005840Y4194170D01*
X-974350Y4204750D01*
X-950720Y4231210D01*
X-927100Y4278840D01*
G01X-690880Y4083050D02*
X-663320Y4088340D01*
X-631830Y4104210D01*
X-612140Y4130660D01*
X-604270Y4167720D01*
X-612140Y4204750D01*
X-635760Y4236500D01*
X-671200Y4252390D01*
X-710560D01*
X-734190Y4262970D01*
X-753880Y4289420D01*
X-761750Y4326460D01*
X-749930Y4363510D01*
X-722380Y4389970D01*
X-690880Y4400550D01*
X-659390Y4389970D01*
X-631830Y4363510D01*
X-620010Y4326460D01*
X-627890Y4289420D01*
X-647570Y4262970D01*
X-671200Y4252390D01*
X-710560D01*
X-746000Y4236500D01*
X-769620Y4204750D01*
X-777490Y4167720D01*
X-769620Y4130660D01*
X-749930Y4104210D01*
X-718440Y4088340D01*
X-690880Y4083050D01*
G01X-375920Y4072470D02*
X-383800Y4077760D01*
Y4088340D01*
X-375920Y4093630D01*
X-368040Y4088340D01*
Y4077760D01*
X-375920Y4072470D01*
G01X-13720Y4083050D02*
Y4400550D01*
X-159390Y4173010D01*
X37470D01*
G01X295270Y4241800D02*
X4920000D01*
G01X1054100Y-5300740D02*
Y-12438140D01*
G01X1160400Y-10098800D02*
Y-9781300D01*
X1341500Y-10098800D01*
Y-9781300D01*
G01X1565910Y-10098800D02*
X1534410Y-10093510D01*
X1506860Y-10072350D01*
X1483230Y-10040590D01*
X1467480Y-10003550D01*
X1459610Y-9961220D01*
Y-9918880D01*
X1467480Y-9876550D01*
X1483230Y-9839510D01*
X1506860Y-9807760D01*
X1534410Y-9786590D01*
X1565910Y-9781300D01*
X1597400Y-9786590D01*
X1624960Y-9807760D01*
X1648590Y-9839510D01*
X1664340Y-9876550D01*
X1672210Y-9918880D01*
Y-9961220D01*
X1664340Y-10003550D01*
X1648590Y-10040590D01*
X1624960Y-10072350D01*
X1597400Y-10093510D01*
X1565910Y-10098800D01*
G01X1790320D02*
Y-9781300D01*
X1971420Y-10098800D01*
Y-9781300D01*
G01X2144650Y-9992970D02*
X2247010D01*
G01X2432050Y-10098800D02*
Y-9781300D01*
X2526540D01*
X2558030Y-9797180D01*
X2581660Y-9834220D01*
X2589530Y-9876550D01*
X2581660Y-9918880D01*
X2561970Y-9950640D01*
X2526540Y-9966520D01*
X2432050D01*
G01X2747010Y-9781300D02*
Y-10098800D01*
X2904490D01*
G01X3042280D02*
X3140710Y-9781300D01*
X3239140Y-10098800D01*
G01X3203700Y-9987680D02*
X3077710D01*
G01X3455670Y-9781300D02*
Y-10098800D01*
G01X3365120Y-9781300D02*
X3546220D01*
G01X3849370Y-10098800D02*
X3691890D01*
Y-9781300D01*
X3849370D01*
G01X3786380Y-9934750D02*
X3691890D01*
G01X3998980Y-10098800D02*
Y-9781300D01*
X4077710D01*
X4109210Y-9797180D01*
X4132830Y-9818340D01*
X4152520Y-9850090D01*
X4168270Y-9887140D01*
X4172200Y-9940050D01*
X4168270Y-9992970D01*
X4152520Y-10030010D01*
X4132830Y-10061770D01*
X4109210Y-10082930D01*
X4077710Y-10098800D01*
X3998980D01*
G01X1802130Y-12240020D02*
Y-11922520D01*
X1896620D01*
X1928110Y-11938400D01*
X1951740Y-11975440D01*
X1959610Y-12017770D01*
X1951740Y-12060100D01*
X1932050Y-12091860D01*
X1896620Y-12107740D01*
X1802130D01*
G01X2117090Y-11922520D02*
Y-12240020D01*
X2274570D01*
G01X2412360D02*
X2510790Y-11922520D01*
X2609220Y-12240020D01*
G01X2573780Y-12128900D02*
X2447790D01*
G01X2825750Y-11922520D02*
Y-12240020D01*
G01X2735200Y-11922520D02*
X2916300D01*
G01X3219450Y-12240020D02*
X3061970D01*
Y-11922520D01*
X3219450D01*
G01X3156460Y-12075970D02*
X3061970D01*
G01X3369060Y-12240020D02*
Y-11922520D01*
X3447790D01*
X3479290Y-11938400D01*
X3502910Y-11959560D01*
X3522600Y-11991310D01*
X3538350Y-12028360D01*
X3542280Y-12081270D01*
X3538350Y-12134190D01*
X3522600Y-12171230D01*
X3502910Y-12202990D01*
X3479290Y-12224150D01*
X3447790Y-12240020D01*
X3369060D01*
G01X1802130Y-11526280D02*
Y-11208780D01*
X1896620D01*
X1928110Y-11224660D01*
X1951740Y-11261700D01*
X1959610Y-11304030D01*
X1951740Y-11346360D01*
X1932050Y-11378120D01*
X1896620Y-11394000D01*
X1802130D01*
G01X2117090Y-11208780D02*
Y-11526280D01*
X2274570D01*
G01X2412360D02*
X2510790Y-11208780D01*
X2609220Y-11526280D01*
G01X2573780Y-11415160D02*
X2447790D01*
G01X2825750Y-11208780D02*
Y-11526280D01*
G01X2735200Y-11208780D02*
X2916300D01*
G01X3219450Y-11526280D02*
X3061970D01*
Y-11208780D01*
X3219450D01*
G01X3156460Y-11362230D02*
X3061970D01*
G01X3369060Y-11526280D02*
Y-11208780D01*
X3447790D01*
X3479290Y-11224660D01*
X3502910Y-11245820D01*
X3522600Y-11277570D01*
X3538350Y-11314620D01*
X3542280Y-11367530D01*
X3538350Y-11420450D01*
X3522600Y-11457490D01*
X3502910Y-11489250D01*
X3479290Y-11510410D01*
X3447790Y-11526280D01*
X3369060D01*
G01X1802130Y-10812540D02*
Y-10495040D01*
X1896620D01*
X1928110Y-10510920D01*
X1951740Y-10547960D01*
X1959610Y-10590290D01*
X1951740Y-10632620D01*
X1932050Y-10664380D01*
X1896620Y-10680260D01*
X1802130D01*
G01X2117090Y-10495040D02*
Y-10812540D01*
X2274570D01*
G01X2412360D02*
X2510790Y-10495040D01*
X2609220Y-10812540D01*
G01X2573780Y-10701420D02*
X2447790D01*
G01X2825750Y-10495040D02*
Y-10812540D01*
G01X2735200Y-10495040D02*
X2916300D01*
G01X3219450Y-10812540D02*
X3061970D01*
Y-10495040D01*
X3219450D01*
G01X3156460Y-10648490D02*
X3061970D01*
G01X3369060Y-10812540D02*
Y-10495040D01*
X3447790D01*
X3479290Y-10510920D01*
X3502910Y-10532080D01*
X3522600Y-10563830D01*
X3538350Y-10600880D01*
X3542280Y-10653790D01*
X3538350Y-10706710D01*
X3522600Y-10743750D01*
X3502910Y-10775510D01*
X3479290Y-10796670D01*
X3447790Y-10812540D01*
X3369060D01*
G01X1802130Y-9385060D02*
Y-9067560D01*
X1896620D01*
X1928110Y-9083440D01*
X1951740Y-9120480D01*
X1959610Y-9162810D01*
X1951740Y-9205140D01*
X1932050Y-9236900D01*
X1896620Y-9252780D01*
X1802130D01*
G01X2117090Y-9067560D02*
Y-9385060D01*
X2274570D01*
G01X2412360D02*
X2510790Y-9067560D01*
X2609220Y-9385060D01*
G01X2573780Y-9273940D02*
X2447790D01*
G01X2825750Y-9067560D02*
Y-9385060D01*
G01X2735200Y-9067560D02*
X2916300D01*
G01X3219450Y-9385060D02*
X3061970D01*
Y-9067560D01*
X3219450D01*
G01X3156460Y-9221010D02*
X3061970D01*
G01X3369060Y-9385060D02*
Y-9067560D01*
X3447790D01*
X3479290Y-9083440D01*
X3502910Y-9104600D01*
X3522600Y-9136350D01*
X3538350Y-9173400D01*
X3542280Y-9226310D01*
X3538350Y-9279230D01*
X3522600Y-9316270D01*
X3502910Y-9348030D01*
X3479290Y-9369190D01*
X3447790Y-9385060D01*
X3369060D01*
G01X1802130Y-8671320D02*
Y-8353820D01*
X1896620D01*
X1928110Y-8369700D01*
X1951740Y-8406740D01*
X1959610Y-8449070D01*
X1951740Y-8491400D01*
X1932050Y-8523160D01*
X1896620Y-8539040D01*
X1802130D01*
G01X2117090Y-8353820D02*
Y-8671320D01*
X2274570D01*
G01X2412360D02*
X2510790Y-8353820D01*
X2609220Y-8671320D01*
G01X2573780Y-8560200D02*
X2447790D01*
G01X2825750Y-8353820D02*
Y-8671320D01*
G01X2735200Y-8353820D02*
X2916300D01*
G01X3219450Y-8671320D02*
X3061970D01*
Y-8353820D01*
X3219450D01*
G01X3156460Y-8507270D02*
X3061970D01*
G01X3369060Y-8671320D02*
Y-8353820D01*
X3447790D01*
X3479290Y-8369700D01*
X3502910Y-8390860D01*
X3522600Y-8422610D01*
X3538350Y-8459660D01*
X3542280Y-8512570D01*
X3538350Y-8565490D01*
X3522600Y-8602530D01*
X3502910Y-8634290D01*
X3479290Y-8655450D01*
X3447790Y-8671320D01*
X3369060D01*
G01X1802130Y-7957580D02*
Y-7640080D01*
X1896620D01*
X1928110Y-7655960D01*
X1951740Y-7693000D01*
X1959610Y-7735330D01*
X1951740Y-7777660D01*
X1932050Y-7809420D01*
X1896620Y-7825300D01*
X1802130D01*
G01X2117090Y-7640080D02*
Y-7957580D01*
X2274570D01*
G01X2412360D02*
X2510790Y-7640080D01*
X2609220Y-7957580D01*
G01X2573780Y-7846460D02*
X2447790D01*
G01X2825750Y-7640080D02*
Y-7957580D01*
G01X2735200Y-7640080D02*
X2916300D01*
G01X3219450Y-7957580D02*
X3061970D01*
Y-7640080D01*
X3219450D01*
G01X3156460Y-7793530D02*
X3061970D01*
G01X3369060Y-7957580D02*
Y-7640080D01*
X3447790D01*
X3479290Y-7655960D01*
X3502910Y-7677120D01*
X3522600Y-7708870D01*
X3538350Y-7745920D01*
X3542280Y-7798830D01*
X3538350Y-7851750D01*
X3522600Y-7888790D01*
X3502910Y-7920550D01*
X3479290Y-7941710D01*
X3447790Y-7957580D01*
X3369060D01*
G01X1802130Y-7243840D02*
Y-6926340D01*
X1896620D01*
X1928110Y-6942220D01*
X1951740Y-6979260D01*
X1959610Y-7021590D01*
X1951740Y-7063920D01*
X1932050Y-7095680D01*
X1896620Y-7111560D01*
X1802130D01*
G01X2117090Y-6926340D02*
Y-7243840D01*
X2274570D01*
G01X2412360D02*
X2510790Y-6926340D01*
X2609220Y-7243840D01*
G01X2573780Y-7132720D02*
X2447790D01*
G01X2825750Y-6926340D02*
Y-7243840D01*
G01X2735200Y-6926340D02*
X2916300D01*
G01X3219450Y-7243840D02*
X3061970D01*
Y-6926340D01*
X3219450D01*
G01X3156460Y-7079790D02*
X3061970D01*
G01X3369060Y-7243840D02*
Y-6926340D01*
X3447790D01*
X3479290Y-6942220D01*
X3502910Y-6963380D01*
X3522600Y-6995130D01*
X3538350Y-7032180D01*
X3542280Y-7085090D01*
X3538350Y-7138010D01*
X3522600Y-7175050D01*
X3502910Y-7206810D01*
X3479290Y-7227970D01*
X3447790Y-7243840D01*
X3369060D01*
G01X1802130Y-6530100D02*
Y-6212600D01*
X1896620D01*
X1928110Y-6228480D01*
X1951740Y-6265520D01*
X1959610Y-6307850D01*
X1951740Y-6350180D01*
X1932050Y-6381940D01*
X1896620Y-6397820D01*
X1802130D01*
G01X2117090Y-6212600D02*
Y-6530100D01*
X2274570D01*
G01X2412360D02*
X2510790Y-6212600D01*
X2609220Y-6530100D01*
G01X2573780Y-6418980D02*
X2447790D01*
G01X2825750Y-6212600D02*
Y-6530100D01*
G01X2735200Y-6212600D02*
X2916300D01*
G01X3219450Y-6530100D02*
X3061970D01*
Y-6212600D01*
X3219450D01*
G01X3156460Y-6366050D02*
X3061970D01*
G01X3369060Y-6530100D02*
Y-6212600D01*
X3447790D01*
X3479290Y-6228480D01*
X3502910Y-6249640D01*
X3522600Y-6281390D01*
X3538350Y-6318440D01*
X3542280Y-6371350D01*
X3538350Y-6424270D01*
X3522600Y-6461310D01*
X3502910Y-6493070D01*
X3479290Y-6514230D01*
X3447790Y-6530100D01*
X3369060D01*
G01X1802130Y-5776990D02*
Y-5459490D01*
X1896620D01*
X1928110Y-5475370D01*
X1951740Y-5512410D01*
X1959610Y-5554740D01*
X1951740Y-5597070D01*
X1932050Y-5628830D01*
X1896620Y-5644710D01*
X1802130D01*
G01X2117090Y-5459490D02*
Y-5776990D01*
X2274570D01*
G01X2412360D02*
X2510790Y-5459490D01*
X2609220Y-5776990D01*
G01X2573780Y-5665870D02*
X2447790D01*
G01X2825750Y-5459490D02*
Y-5776990D01*
G01X2735200Y-5459490D02*
X2916300D01*
G01X3219450Y-5776990D02*
X3061970D01*
Y-5459490D01*
X3219450D01*
G01X3156460Y-5612940D02*
X3061970D01*
G01X3369060Y-5776990D02*
Y-5459490D01*
X3447790D01*
X3479290Y-5475370D01*
X3502910Y-5496530D01*
X3522600Y-5528280D01*
X3538350Y-5565330D01*
X3542280Y-5618240D01*
X3538350Y-5671160D01*
X3522600Y-5708200D01*
X3502910Y-5739960D01*
X3479290Y-5761120D01*
X3447790Y-5776990D01*
X3369060D01*
G01X4282440Y-5300740D02*
Y-12438140D01*
G01X4520000Y4179300D02*
X4920000Y4241800D01*
X4520000Y4304300D01*
Y4179300D01*
G01X5266690Y-12240020D02*
Y-11922520D01*
X5219450Y-11986020D01*
G01Y-12240020D02*
X5313930D01*
G01X5266690Y-11526280D02*
Y-11208780D01*
X5219450Y-11272280D01*
G01Y-11526280D02*
X5313930D01*
G01X5180080Y-10749040D02*
X5203690Y-10786090D01*
X5235190Y-10807250D01*
X5270630Y-10812540D01*
X5302130Y-10807250D01*
X5333620Y-10780800D01*
X5353300Y-10749040D01*
X5357240Y-10717290D01*
X5349370Y-10680260D01*
X5321810Y-10653790D01*
X5294250Y-10643200D01*
X5258810D01*
G01X5294250D02*
X5317870Y-10627330D01*
X5337560Y-10600880D01*
X5345430Y-10569130D01*
X5337560Y-10537370D01*
X5317870Y-10510920D01*
X5282440Y-10495040D01*
X5247010Y-10500330D01*
X5211570Y-10521500D01*
G01X5313930Y-10098800D02*
Y-9781300D01*
X5168260Y-10008840D01*
X5365120D01*
G01X5199760Y-9348030D02*
X5227320Y-9374480D01*
X5258810Y-9385060D01*
X5290310Y-9374480D01*
X5317870Y-9342740D01*
X5337560Y-9295100D01*
X5345430Y-9247480D01*
Y-9189270D01*
X5337560Y-9141650D01*
X5317870Y-9099310D01*
X5294250Y-9078140D01*
X5266690Y-9067560D01*
X5235190Y-9078140D01*
X5211570Y-9099310D01*
X5195820Y-9131060D01*
X5187950Y-9173400D01*
X5195820Y-9210430D01*
X5215510Y-9247480D01*
X5239130Y-9268650D01*
X5266690Y-9273940D01*
X5298180Y-9263360D01*
X5321810Y-9236900D01*
X5345430Y-9189270D01*
G01X5034400Y-8539040D02*
X5061970Y-8501980D01*
X5085590Y-8480820D01*
X5117090Y-8470240D01*
X5144650Y-8480820D01*
X5164330Y-8501980D01*
X5180080Y-8533740D01*
X5184020Y-8570780D01*
X5180080Y-8602530D01*
X5164330Y-8634290D01*
X5140700Y-8660740D01*
X5113150Y-8671320D01*
X5081650Y-8660740D01*
X5054090Y-8629000D01*
X5038340Y-8581360D01*
X5034400Y-8528450D01*
X5042280Y-8459660D01*
X5054090Y-8422610D01*
X5073770Y-8385570D01*
X5101330Y-8359110D01*
X5128890Y-8353820D01*
X5156450Y-8364400D01*
X5176140Y-8390860D01*
G01X5349360Y-8539040D02*
X5376930Y-8501980D01*
X5400550Y-8480820D01*
X5432050Y-8470240D01*
X5459610Y-8480820D01*
X5479290Y-8501980D01*
X5495040Y-8533740D01*
X5498980Y-8570780D01*
X5495040Y-8602530D01*
X5479290Y-8634290D01*
X5455660Y-8660740D01*
X5428110Y-8671320D01*
X5396610Y-8660740D01*
X5369050Y-8629000D01*
X5353300Y-8581360D01*
X5349360Y-8528450D01*
X5357240Y-8459660D01*
X5369050Y-8422610D01*
X5388730Y-8385570D01*
X5416290Y-8359110D01*
X5443850Y-8353820D01*
X5471410Y-8364400D01*
X5491100Y-8390860D01*
G01X5191880Y-7825300D02*
X5219450Y-7788240D01*
X5243070Y-7767080D01*
X5274570Y-7756500D01*
X5302130Y-7767080D01*
X5321810Y-7788240D01*
X5337560Y-7820000D01*
X5341500Y-7857040D01*
X5337560Y-7888790D01*
X5321810Y-7920550D01*
X5298180Y-7947000D01*
X5270630Y-7957580D01*
X5239130Y-7947000D01*
X5211570Y-7915260D01*
X5195820Y-7867620D01*
X5191880Y-7814710D01*
X5199760Y-7745920D01*
X5211570Y-7708870D01*
X5231250Y-7671830D01*
X5258810Y-7645370D01*
X5286370Y-7640080D01*
X5313930Y-7650660D01*
X5333620Y-7677120D01*
G01X5199760Y-7206810D02*
X5227320Y-7233260D01*
X5258810Y-7243840D01*
X5290310Y-7233260D01*
X5317870Y-7201520D01*
X5337560Y-7153880D01*
X5345430Y-7106260D01*
Y-7048050D01*
X5337560Y-7000430D01*
X5317870Y-6958090D01*
X5294250Y-6936920D01*
X5266690Y-6926340D01*
X5235190Y-6936920D01*
X5211570Y-6958090D01*
X5195820Y-6989840D01*
X5187950Y-7032180D01*
X5195820Y-7069210D01*
X5215510Y-7106260D01*
X5239130Y-7127430D01*
X5266690Y-7132720D01*
X5298180Y-7122140D01*
X5321810Y-7095680D01*
X5345430Y-7048050D01*
G01X4876920Y-6265520D02*
X4900550Y-6233770D01*
X4928110Y-6217890D01*
X4959610Y-6212600D01*
X4998970Y-6223180D01*
X5026540Y-6249640D01*
X5034410Y-6281390D01*
X5030470Y-6313150D01*
X5014720Y-6339600D01*
X4935980Y-6392520D01*
X4900550Y-6429560D01*
X4876920Y-6482490D01*
X4869050Y-6530100D01*
X5034410D01*
G01X5313930D02*
Y-6212600D01*
X5168260Y-6440140D01*
X5365120D01*
G01X5573770Y-6530100D02*
X5581650Y-6461310D01*
X5593460Y-6403110D01*
X5609210Y-6350180D01*
X5628890Y-6291980D01*
X5660390Y-6212600D01*
X5502910D01*
G01X4951730Y-5776990D02*
X4920230Y-5771700D01*
X4892680Y-5750540D01*
X4869050Y-5718780D01*
X4853300Y-5681740D01*
X4845430Y-5639410D01*
Y-5597070D01*
X4853300Y-5554740D01*
X4869050Y-5517700D01*
X4892680Y-5485950D01*
X4920230Y-5464780D01*
X4951730Y-5459490D01*
X4983220Y-5464780D01*
X5010780Y-5485950D01*
X5034410Y-5517700D01*
X5050160Y-5554740D01*
X5058030Y-5597070D01*
Y-5639410D01*
X5050160Y-5681740D01*
X5034410Y-5718780D01*
X5010780Y-5750540D01*
X4983220Y-5771700D01*
X4951730Y-5776990D01*
G01X4983220Y-5692320D02*
X5030470Y-5776990D01*
G01X5266690Y-5459490D02*
Y-5776990D01*
G01X5176140Y-5459490D02*
X5357240D01*
G01X5581650Y-5776990D02*
Y-5634120D01*
X5502910Y-5459490D01*
G01X5660390D02*
X5581650Y-5634120D01*
G01X4920000Y3370000D02*
Y4491800D01*
M02*
