G04 ================== begin FILE IDENTIFICATION RECORD ==================*
G04 Layout Name:  F:/Cadence Boards/STM32F4-BALANCE/Board/balance_new.brd*
G04 Film Name:    PASTEMASK_BOTTOM*
G04 File Format:  Gerber RS274X*
G04 File Origin:  Cadence Allegro 16.6-P004*
G04 Origin Date:  Thu Mar 03 17:48:13 2016*
G04 *
G04 Layer:  PIN/PASTEMASK_BOTTOM*
G04 Layer:  PACKAGE GEOMETRY/PASTEMASK_BOTTOM*
G04 Layer:  BOARD GEOMETRY/OUTLINE*
G04 *
G04 Offset:    (0.0000 0.0000)*
G04 Mirror:    No*
G04 Mode:      Positive*
G04 Rotation:  0*
G04 FullContactRelief:  No*
G04 UndefLineWidth:     0.2540*
G04 ================== end FILE IDENTIFICATION RECORD ====================*
%FSLAX25Y25*MOMM*%
%IR0*IPPOS*OFA0.00000B0.00000*MIA0B0*SFA1.00000B1.00000*%
%ADD12R,3.X5.8*%
%ADD13R,5.8X3.*%
%ADD14C,1.4*%
%ADD10C,1.6*%
%ADD11R,3.754X2.554*%
%ADD15C,.254*%
G75*
%LPD*%
G75*
G54D10*
X-4216400Y-1778000D03*
X-3911600D03*
X-2895600Y1270000D03*
X-3200400D03*
X-1752600Y-2032000D03*
X-2057400D03*
G54D11*
X-4064000Y1054000D03*
Y1524000D03*
Y1994000D03*
G54D12*
X-3098800Y2286000D03*
G54D13*
X-2489200Y2311400D03*
G54D14*
X-1304500Y-2738000D03*
Y-2088000D03*
X-1143000Y2032000D03*
X-1397000D03*
X-1651000D03*
X-854500Y-2738000D03*
Y-2088000D03*
X-635000Y2032000D03*
X-889000D03*
X-127000Y-2476500D03*
X-381000D03*
X-127000Y-1778000D03*
X-381000D03*
Y1000000D03*
X-127000D03*
X-381000Y2032000D03*
X381000Y-2476500D03*
X127000D03*
X635000Y-1778000D03*
X381000D03*
X127000D03*
Y1000000D03*
X381000D03*
X635000Y2032000D03*
X381000D03*
X889000Y-1778000D03*
X1143000Y2032000D03*
X889000D03*
X1651000D03*
X1397000D03*
X2921000Y-2667000D03*
X2667000D03*
X2921000Y-2413000D03*
X2667000D03*
X2921000Y2413000D03*
X2667000D03*
X2921000Y2032000D03*
Y2667000D03*
X2667000D03*
X3429000Y-2667000D03*
X3175000D03*
X3429000Y-2413000D03*
X3175000D03*
X3302000Y0D03*
X3048000D03*
X3302000Y254000D03*
Y508000D03*
X3048000Y254000D03*
Y508000D03*
X3302000Y762000D03*
X3048000D03*
X3429000Y2413000D03*
X3175000D03*
X3429000Y2032000D03*
X3175000D03*
X3429000Y2667000D03*
X3175000D03*
X3937000Y-2667000D03*
X3683000D03*
X3937000Y-2413000D03*
X3683000D03*
X3937000Y2413000D03*
X3683000D03*
Y2032000D03*
X3937000Y2667000D03*
X3683000D03*
G54D15*
G01X-4920000Y-3120000D02*
Y3120000D01*
X4920000D01*
Y-3120000D01*
X-4920000D01*
M02*
