G04 ================== begin FILE IDENTIFICATION RECORD ==================*
G04 Layout Name:  F:/Cadence Boards/STM32F4-BALANCE/Board/balance_new.brd*
G04 Film Name:    SOLDERMASK_TOP*
G04 File Format:  Gerber RS274X*
G04 File Origin:  Cadence Allegro 16.6-P004*
G04 Origin Date:  Thu Mar 03 17:48:13 2016*
G04 *
G04 Layer:  PIN/SOLDERMASK_TOP*
G04 Layer:  PACKAGE GEOMETRY/SOLDERMASK_TOP*
G04 Layer:  BOARD GEOMETRY/OUTLINE*
G04 Layer:  BOARD GEOMETRY/SOLDERMASK_TOP*
G04 *
G04 Offset:    (0.0000 0.0000)*
G04 Mirror:    No*
G04 Mode:      Positive*
G04 Rotation:  0*
G04 FullContactRelief:  No*
G04 UndefLineWidth:     0.2540*
G04 ================== end FILE IDENTIFICATION RECORD ====================*
%FSLAX25Y25*MOMM*%
%IR0*IPPOS*OFA0.00000B0.00000*MIA0B0*SFA1.00000B1.00000*%
%AMMACRO44*
4,1,44,.4321,-.635,
.4321,.635,
.430549,.652729,
.425943,.66992,
.418421,.68605,
.408213,.700629,
.395629,.713213,
.38105,.723421,
.36492,.730943,
.347729,.735549,
.33,.7371,
.3299,.7371,
-.3299,.7371,
-.347631,.735566,
-.364826,.730977,
-.380963,.723471,
-.395552,.713277,
-.408149,.700705,
-.418371,.686137,
-.425908,.670014,
-.430531,.652828,
-.4321,.6351,
-.4321,.635,
-.4321,-.635,
-.430549,-.652729,
-.425943,-.66992,
-.418421,-.68605,
-.408213,-.700629,
-.395629,-.713213,
-.38105,-.723421,
-.36492,-.730943,
-.347729,-.735549,
-.33,-.7371,
-.3299,-.7371,
.3299,-.7371,
.347631,-.735566,
.364826,-.730977,
.380963,-.723471,
.395552,-.713277,
.408149,-.700705,
.418371,-.686137,
.425908,-.670014,
.430531,-.652828,
.4321,-.6351,
.4321,-.635,
0.0*
%
%ADD44MACRO44*%
%ADD28O,.4X1.5*%
%ADD33R,.3X1.5*%
%ADD34R,1.5X.3*%
%ADD12R,10.5X9.*%
%ADD45R,.838X1.1*%
%ADD16R,.95X2.15*%
%AMMACRO42*
4,1,21,.25,-.15,
-.1,-.15,
-.126047,-.147721,
-.151303,-.140954,
-.175,-.129904,
-.196418,-.114907,
-.214907,-.096418,
-.229904,-.075,
-.240954,-.051303,
-.247721,-.026047,
-.25,0.0,
-.247721,.026047,
-.240954,.051303,
-.229904,.075,
-.214907,.096418,
-.196418,.114907,
-.175,.129904,
-.151303,.140954,
-.126047,.147721,
-.1,.15,
.25,.15,
.25,-.15,
0.0*
%
%ADD42MACRO42*%
%AMMACRO40*
4,1,21,.15,.25,
.15,-.1,
.147721,-.126047,
.140954,-.151303,
.129904,-.175,
.114907,-.196418,
.096418,-.214907,
.075,-.229904,
.051303,-.240954,
.026047,-.247721,
0.0,-.25,
-.026047,-.247721,
-.051303,-.240954,
-.075,-.229904,
-.096418,-.214907,
-.114907,-.196418,
-.129904,-.175,
-.140954,-.151303,
-.147721,-.126047,
-.15,-.1,
-.15,.25,
.15,.25,
0.0*
%
%ADD40MACRO40*%
%AMMACRO25*
4,1,44,-.5329,.3051,
-.5329,-.3051,
-.53137,-.322603,
-.526823,-.339574,
-.519398,-.355498,
-.509321,-.369891,
-.496898,-.382315,
-.482507,-.392394,
-.466583,-.39982,
-.449612,-.404368,
-.43211,-.4059,
-.4321,-.4059,
.4321,-.4059,
.449603,-.40437,
.466574,-.399823,
.482498,-.392398,
.496891,-.382321,
.509315,-.369898,
.519394,-.355507,
.52682,-.339583,
.531368,-.322612,
.5329,-.30511,
.5329,-.3051,
.5329,.3051,
.53137,.322603,
.526823,.339574,
.519398,.355498,
.509321,.369891,
.496898,.382315,
.482507,.392394,
.466583,.39982,
.449612,.404368,
.43211,.4059,
.4321,.4059,
-.4321,.4059,
-.449603,.40437,
-.466574,.399823,
-.482498,.392398,
-.496891,.382321,
-.509315,.369898,
-.519394,.355507,
-.52682,.339583,
-.531368,.322612,
-.5329,.30511,
-.5329,.3051,
0.0*
%
%ADD25MACRO25*%
%AMMACRO10*
4,1,44,.3051,.5329,
-.3051,.5329,
-.322603,.53137,
-.339574,.526823,
-.355498,.519398,
-.369891,.509321,
-.382315,.496898,
-.392394,.482507,
-.39982,.466583,
-.404368,.449612,
-.4059,.43211,
-.4059,.4321,
-.4059,-.4321,
-.40437,-.449603,
-.399823,-.466574,
-.392398,-.482498,
-.382321,-.496891,
-.369898,-.509315,
-.355507,-.519394,
-.339583,-.52682,
-.322612,-.531368,
-.30511,-.5329,
-.3051,-.5329,
.3051,-.5329,
.322603,-.53137,
.339574,-.526823,
.355498,-.519398,
.369891,-.509321,
.382315,-.496898,
.392394,-.482507,
.39982,-.466583,
.404368,-.449612,
.4059,-.43211,
.4059,-.4321,
.4059,.4321,
.40437,.449603,
.399823,.466574,
.392398,.482498,
.382321,.496891,
.369898,.509315,
.355507,.519394,
.339583,.52682,
.322612,.531368,
.30511,.5329,
.3051,.5329,
0.0*
%
%ADD10MACRO10*%
%AMMACRO29*
4,1,44,.4321,.381,
-.4321,.381,
-.449604,.37947,
-.466576,.374925,
-.482501,.367501,
-.496894,.357424,
-.50932,.345001,
-.519399,.330609,
-.526826,.314686,
-.531375,.297715,
-.532908,.280212,
-.5329,.2789,
-.5329,-.2789,
-.531595,-.296422,
-.527267,-.313451,
-.520048,-.329469,
-.510156,-.343991,
-.497894,-.356575,
-.483632,-.366837,
-.467805,-.374468,
-.450894,-.379234,
-.433412,-.380992,
-.4321,-.381,
.4321,-.381,
.449604,-.37947,
.466576,-.374925,
.482501,-.367501,
.496894,-.357424,
.50932,-.345001,
.519399,-.330609,
.526826,-.314686,
.531375,-.297715,
.532908,-.280212,
.5329,-.2789,
.5329,.2789,
.531595,.296422,
.527267,.313451,
.520048,.329469,
.510156,.343991,
.497894,.356575,
.483632,.366837,
.467805,.374468,
.450894,.379234,
.433412,.380992,
.4321,.381,
0.0*
%
%ADD29MACRO29*%
%AMMACRO27*
4,1,44,-.381,.4321,
-.381,-.4321,
-.37947,-.449604,
-.374925,-.466576,
-.367501,-.482501,
-.357424,-.496894,
-.345001,-.50932,
-.330609,-.519399,
-.314686,-.526826,
-.297715,-.531375,
-.280212,-.532908,
-.2789,-.5329,
.2789,-.5329,
.296422,-.531595,
.313451,-.527267,
.329469,-.520048,
.343991,-.510156,
.356575,-.497894,
.366837,-.483632,
.374468,-.467805,
.379234,-.450894,
.380992,-.433412,
.381,-.4321,
.381,.4321,
.37947,.449604,
.374925,.466576,
.367501,.482501,
.357424,.496894,
.345001,.50932,
.330609,.519399,
.314686,.526826,
.297715,.531375,
.280212,.532908,
.2789,.5329,
-.2789,.5329,
-.296422,.531595,
-.313451,.527267,
-.329469,.520048,
-.343991,.510156,
-.356575,.497894,
-.366837,.483632,
-.374468,.467805,
-.379234,.450894,
-.380992,.433412,
-.381,.4321,
0.0*
%
%ADD27MACRO27*%
%AMMACRO24*
4,1,44,-.4321,.635,
-.4321,-.635,
-.430549,-.652729,
-.425943,-.66992,
-.418421,-.68605,
-.408213,-.700629,
-.395629,-.713213,
-.38105,-.723421,
-.36492,-.730943,
-.347729,-.735549,
-.33,-.7371,
-.3299,-.7371,
.3299,-.7371,
.347631,-.735566,
.364826,-.730977,
.380963,-.723471,
.395552,-.713277,
.408149,-.700705,
.418371,-.686137,
.425908,-.670014,
.430531,-.652828,
.4321,-.6351,
.4321,-.635,
.4321,.635,
.430549,.652729,
.425943,.66992,
.418421,.68605,
.408213,.700629,
.395629,.713213,
.38105,.723421,
.36492,.730943,
.347729,.735549,
.33,.7371,
.3299,.7371,
-.3299,.7371,
-.347631,.735566,
-.364826,.730977,
-.380963,.723471,
-.395552,.713277,
-.408149,.700705,
-.418371,.686137,
-.425908,.670014,
-.430531,.652828,
-.4321,.6351,
-.4321,.635,
0.0*
%
%ADD24MACRO24*%
%ADD43R,1.1X2.6*%
%ADD21R,2.1X2.4*%
%ADD18R,3.1X6.*%
%ADD23R,6.X3.1*%
%ADD20R,3.3X2.7*%
%ADD13R,1.05X3.15*%
%ADD32C,2.*%
%ADD31R,2.5X1.8*%
%ADD15R,3.25X2.15*%
%ADD26C,1.5*%
%ADD35C,1.6*%
%ADD11C,1.7*%
%ADD36R,1.6X1.6*%
%ADD14R,3.904X2.704*%
%AMMACRO41*
4,1,21,-.15,-.25,
-.15,.1,
-.147721,.126047,
-.140954,.151303,
-.129904,.175,
-.114907,.196418,
-.096418,.214907,
-.075,.229904,
-.051303,.240954,
-.026047,.247721,
0.0,.25,
.026047,.247721,
.051303,.240954,
.075,.229904,
.096418,.214907,
.114907,.196418,
.129904,.175,
.140954,.151303,
.147721,.126047,
.15,.1,
.15,-.25,
-.15,-.25,
0.0*
%
%ADD41MACRO41*%
%AMMACRO39*
4,1,21,-.25,.15,
.1,.15,
.126047,.147721,
.151303,.140954,
.175,.129904,
.196418,.114907,
.214907,.096418,
.229904,.075,
.240954,.051303,
.247721,.026047,
.25,0.0,
.247721,-.026047,
.240954,-.051303,
.229904,-.075,
.214907,-.096418,
.196418,-.114907,
.175,-.129904,
.151303,-.140954,
.126047,-.147721,
.1,-.15,
-.25,-.15,
-.25,.15,
0.0*
%
%ADD39MACRO39*%
%AMMACRO38*
4,1,5,-1.,-1.35,
-1.35,-1.,
-1.35,1.35,
1.35,1.35,
1.35,-1.35,
-1.,-1.35,
0.0*
%
%ADD38MACRO38*%
%ADD30R,1.5489X1.2451*%
%AMMACRO19*
4,1,44,.5329,-.3051,
.5329,.3051,
.53137,.322603,
.526823,.339574,
.519398,.355498,
.509321,.369891,
.496898,.382315,
.482507,.392394,
.466583,.39982,
.449612,.404368,
.43211,.4059,
.4321,.4059,
-.4321,.4059,
-.449603,.40437,
-.466574,.399823,
-.482498,.392398,
-.496891,.382321,
-.509315,.369898,
-.519394,.355507,
-.52682,.339583,
-.531368,.322612,
-.5329,.30511,
-.5329,.3051,
-.5329,-.3051,
-.53137,-.322603,
-.526823,-.339574,
-.519398,-.355498,
-.509321,-.369891,
-.496898,-.382315,
-.482507,-.392394,
-.466583,-.39982,
-.449612,-.404368,
-.43211,-.4059,
-.4321,-.4059,
.4321,-.4059,
.449603,-.40437,
.466574,-.399823,
.482498,-.392398,
.496891,-.382321,
.509315,-.369898,
.519394,-.355507,
.52682,-.339583,
.531368,-.322612,
.5329,-.30511,
.5329,-.3051,
0.0*
%
%ADD19MACRO19*%
%AMMACRO17*
4,1,44,-.3051,-.5329,
.3051,-.5329,
.322603,-.53137,
.339574,-.526823,
.355498,-.519398,
.369891,-.509321,
.382315,-.496898,
.392394,-.482507,
.39982,-.466583,
.404368,-.449612,
.4059,-.43211,
.4059,-.4321,
.4059,.4321,
.40437,.449603,
.399823,.466574,
.392398,.482498,
.382321,.496891,
.369898,.509315,
.355507,.519394,
.339583,.52682,
.322612,.531368,
.30511,.5329,
.3051,.5329,
-.3051,.5329,
-.322603,.53137,
-.339574,.526823,
-.355498,.519398,
-.369891,.509321,
-.382315,.496898,
-.392394,.482507,
-.39982,.466583,
-.404368,.449612,
-.4059,.43211,
-.4059,.4321,
-.4059,-.4321,
-.40437,-.449603,
-.399823,-.466574,
-.392398,-.482498,
-.382321,-.496891,
-.369898,-.509315,
-.355507,-.519394,
-.339583,-.52682,
-.322612,-.531368,
-.30511,-.5329,
-.3051,-.5329,
0.0*
%
%ADD17MACRO17*%
%AMMACRO37*
4,1,44,.381,-.4321,
.381,.4321,
.37947,.449604,
.374925,.466576,
.367501,.482501,
.357424,.496894,
.345001,.50932,
.330609,.519399,
.314686,.526826,
.297715,.531375,
.280212,.532908,
.2789,.5329,
-.2789,.5329,
-.296422,.531595,
-.313451,.527267,
-.329469,.520048,
-.343991,.510156,
-.356575,.497894,
-.366837,.483632,
-.374468,.467805,
-.379234,.450894,
-.380992,.433412,
-.381,.4321,
-.381,-.4321,
-.37947,-.449604,
-.374925,-.466576,
-.367501,-.482501,
-.357424,-.496894,
-.345001,-.50932,
-.330609,-.519399,
-.314686,-.526826,
-.297715,-.531375,
-.280212,-.532908,
-.2789,-.5329,
.2789,-.5329,
.296422,-.531595,
.313451,-.527267,
.329469,-.520048,
.343991,-.510156,
.356575,-.497894,
.366837,-.483632,
.374468,-.467805,
.379234,-.450894,
.380992,-.433412,
.381,-.4321,
0.0*
%
%ADD37MACRO37*%
%AMMACRO22*
4,1,44,-.4321,-.381,
.4321,-.381,
.449604,-.37947,
.466576,-.374925,
.482501,-.367501,
.496894,-.357424,
.50932,-.345001,
.519399,-.330609,
.526826,-.314686,
.531375,-.297715,
.532908,-.280212,
.5329,-.2789,
.5329,.2789,
.531595,.296422,
.527267,.313451,
.520048,.329469,
.510156,.343991,
.497894,.356575,
.483632,.366837,
.467805,.374468,
.450894,.379234,
.433412,.380992,
.4321,.381,
-.4321,.381,
-.449604,.37947,
-.466576,.374925,
-.482501,.367501,
-.496894,.357424,
-.50932,.345001,
-.519399,.330609,
-.526826,.314686,
-.531375,.297715,
-.532908,.280212,
-.5329,.2789,
-.5329,-.2789,
-.531595,-.296422,
-.527267,-.313451,
-.520048,-.329469,
-.510156,-.343991,
-.497894,-.356575,
-.483632,-.366837,
-.467805,-.374468,
-.450894,-.379234,
-.433412,-.380992,
-.4321,-.381,
0.0*
%
%ADD22MACRO22*%
%ADD46C,.254*%
G75*
%LPD*%
G75*
G54D10*
X-4144000Y-2349500D03*
X-3984000D03*
X-1194000Y-737000D03*
X-1354000D03*
X-1194000Y-152000D03*
X-1354000D03*
X-1190000Y254000D03*
X-1350000D03*
X-1190000Y1778000D03*
X-1350000D03*
X-588000Y190500D03*
X-174000Y-1333500D03*
X-334000D03*
X-428000Y190500D03*
X461000Y1270000D03*
X301000D03*
X1126500D03*
X842000Y1778000D03*
X682000D03*
X1286500Y1270000D03*
X2810500Y-127000D03*
X2650500D03*
G54D11*
X-4216400Y-1778000D03*
X-3911600D03*
X-2895600Y1270000D03*
X-3200400D03*
X-1752600Y-2032000D03*
X-2057400D03*
G54D20*
X-2540000Y-1063000D03*
Y47000D03*
G54D30*
X-952500Y-1079500D03*
Y-899500D03*
G54D21*
X-2320000Y508000D03*
X-2760000D03*
G54D12*
X-4000500Y-584000D03*
G54D22*
X-2476500Y1098500D03*
Y933500D03*
Y1606500D03*
Y1441500D03*
X-1206500Y-362000D03*
Y-527000D03*
X3048000Y-1886000D03*
Y-2051000D03*
G54D31*
X-889000Y-639940D03*
Y-269940D03*
G54D13*
X-4340500Y366000D03*
X-4170500D03*
X-4000500D03*
X-3830500D03*
X-3660500D03*
G54D40*
X1081500Y1132500D03*
X1131500D03*
X1181500D03*
X1231500D03*
X1281500D03*
X1331500D03*
G54D41*
X1181500Y772500D03*
X1131500D03*
X1081500D03*
X1331500D03*
X1281500D03*
X1231500D03*
G54D14*
X-4064000Y1054000D03*
Y1524000D03*
Y1994000D03*
G54D32*
X-443000Y-1141500D03*
X697000Y-1500D03*
G54D23*
X-2489200Y2311400D03*
G54D15*
X-3111500Y-2322000D03*
G54D24*
X-1871000Y-1460500D03*
X-2066000D03*
G54D42*
X1386500Y1077500D03*
Y1027500D03*
Y977500D03*
Y927500D03*
Y877500D03*
Y827500D03*
G54D33*
X2000Y-1141500D03*
X-48000D03*
X-98000D03*
X-148000D03*
X-198000D03*
X-248000D03*
Y-1500D03*
X-198000D03*
X-148000D03*
X-98000D03*
X-48000D03*
X2000D03*
X502000Y-1141500D03*
X452000D03*
X402000D03*
X352000D03*
X302000D03*
X252000D03*
X202000D03*
X152000D03*
X102000D03*
X52000D03*
Y-1500D03*
X102000D03*
X152000D03*
X202000D03*
X252000D03*
X302000D03*
X352000D03*
X402000D03*
X452000D03*
X502000D03*
G54D43*
X2869500Y-1641000D03*
X2719500D03*
Y-391000D03*
X2869500D03*
X3469500Y-1641000D03*
X3319500D03*
X3169500D03*
X3019500D03*
Y-391000D03*
X3169500D03*
X3319500D03*
X3469500D03*
X4069500Y-1641000D03*
X3919500D03*
X3769500D03*
X3619500D03*
Y-391000D03*
X3769500D03*
X3919500D03*
X4069500D03*
X4519500Y-1641000D03*
X4369500D03*
X4219500D03*
Y-391000D03*
X4369500D03*
X4519500D03*
G54D25*
X-2222500Y1096000D03*
Y936000D03*
X3556000Y842000D03*
Y682000D03*
G54D16*
X-3341500Y-1742000D03*
X-3111500D03*
X-2881500D03*
G54D34*
X-443000Y-946500D03*
Y-896500D03*
Y-846500D03*
Y-796500D03*
Y-746500D03*
Y-696500D03*
Y-646500D03*
Y-596500D03*
Y-546500D03*
Y-496500D03*
Y-446500D03*
Y-396500D03*
Y-346500D03*
Y-296500D03*
Y-246500D03*
Y-196500D03*
X697000Y-596500D03*
Y-646500D03*
Y-696500D03*
Y-746500D03*
Y-796500D03*
Y-846500D03*
Y-896500D03*
Y-946500D03*
Y-196500D03*
Y-246500D03*
Y-296500D03*
Y-346500D03*
Y-396500D03*
Y-446500D03*
Y-496500D03*
Y-546500D03*
G54D17*
X-3382000Y-1460500D03*
X-3222000D03*
X-3128000Y508000D03*
X-2968000D03*
X936000Y-1206500D03*
X1096000D03*
X936000Y-1397000D03*
X1096000D03*
X936000Y0D03*
X1096000D03*
X936000Y-190500D03*
X1096000D03*
X682000Y1079500D03*
X842000D03*
X1571000Y698500D03*
X1731000D03*
X1571000Y1270000D03*
X1731000D03*
G54D35*
X1270000Y-2286000D03*
Y-2540000D03*
X1016000Y-2286000D03*
Y-2540000D03*
X762000Y-2286000D03*
X4445000Y1206500D03*
Y1460500D03*
G54D26*
X-1304500Y-2738000D03*
Y-2088000D03*
X-1143000Y2032000D03*
X-1397000D03*
X-1651000D03*
X-854500Y-2738000D03*
Y-2088000D03*
X-635000Y2032000D03*
X-889000D03*
X-127000Y-2476500D03*
X-381000D03*
X-127000Y-1778000D03*
X-381000D03*
Y1000000D03*
X-127000D03*
X-381000Y2032000D03*
X381000Y-2476500D03*
X127000D03*
X635000Y-1778000D03*
X381000D03*
X127000D03*
Y1000000D03*
X381000D03*
X635000Y2032000D03*
X381000D03*
X889000Y-1778000D03*
X1143000Y2032000D03*
X889000D03*
X1651000D03*
X1397000D03*
X2921000Y-2667000D03*
X2667000D03*
X2921000Y-2413000D03*
X2667000D03*
X2921000Y2413000D03*
X2667000D03*
X2921000Y2032000D03*
Y2667000D03*
X2667000D03*
X3429000Y-2667000D03*
X3175000D03*
X3429000Y-2413000D03*
X3175000D03*
X3302000Y0D03*
X3048000D03*
X3302000Y254000D03*
Y508000D03*
X3048000Y254000D03*
Y508000D03*
X3302000Y762000D03*
X3048000D03*
X3429000Y2413000D03*
X3175000D03*
X3429000Y2032000D03*
X3175000D03*
X3429000Y2667000D03*
X3175000D03*
X3937000Y-2667000D03*
X3683000D03*
X3937000Y-2413000D03*
X3683000D03*
X3937000Y2413000D03*
X3683000D03*
Y2032000D03*
X3937000Y2667000D03*
X3683000D03*
G54D44*
X2633000Y-1968500D03*
X2828000D03*
X3014000Y1143000D03*
X3209000D03*
X3014000Y1651000D03*
X3209000D03*
X3014000Y1397000D03*
X3209000D03*
G54D36*
X762000Y-2540000D03*
X4445000Y1714500D03*
G54D18*
X-3098800Y2286000D03*
G54D27*
X-1187500Y-1270000D03*
X-1352500D03*
X844500Y-2794000D03*
X679500D03*
X1124000Y1460500D03*
X1289000D03*
X3473500Y1143000D03*
Y1651000D03*
Y1397000D03*
X3638500Y1143000D03*
Y1651000D03*
Y1397000D03*
G54D45*
X2519500Y-1541000D03*
Y-1391000D03*
Y-1241000D03*
Y-1091000D03*
Y-941000D03*
Y-791000D03*
Y-641000D03*
Y-491000D03*
G54D46*
G01X-4920000Y-3120000D02*
Y3120000D01*
X4920000D01*
Y-3120000D01*
X-4920000D01*
G54D37*
X679500Y-2032000D03*
X844500D03*
X679500Y698500D03*
X844500D03*
X679500Y889000D03*
X844500D03*
X1568500Y1079500D03*
X1733500D03*
X1568500Y889000D03*
X1733500D03*
X1568500Y1460500D03*
X1733500D03*
G54D19*
X-2540000Y-2366000D03*
Y-2206000D03*
X-1206500Y-1858000D03*
Y-1698000D03*
X-762000Y-1096000D03*
Y-936000D03*
G54D28*
X-1177000Y724500D03*
X-1242000D03*
X-1307000D03*
X-1372000D03*
X-1437000D03*
Y1434500D03*
X-1372000D03*
X-1307000D03*
X-1242000D03*
X-1177000D03*
X-722000Y724500D03*
X-787000D03*
X-852000D03*
X-917000D03*
X-982000D03*
X-1047000D03*
X-1112000D03*
Y1434500D03*
X-1047000D03*
X-982000D03*
X-917000D03*
X-852000D03*
X-787000D03*
X-722000D03*
G54D38*
X1206500Y952500D03*
G54D29*
X-762000Y-1860500D03*
Y-1695500D03*
G54D39*
X1026500Y827500D03*
Y877500D03*
Y927500D03*
Y977500D03*
Y1027500D03*
Y1077500D03*
M02*
