G04 ================== begin FILE IDENTIFICATION RECORD ==================*
G04 Layout Name:  F:/Cadence Boards/STM32F4-BALANCE/Board/balance_new.brd*
G04 Film Name:    TOP*
G04 File Format:  Gerber RS274X*
G04 File Origin:  Cadence Allegro 16.6-P004*
G04 Origin Date:  Thu Mar 03 17:48:13 2016*
G04 *
G04 Layer:  BOARD GEOMETRY/OUTLINE*
G04 Layer:  ETCH/TOP*
G04 Layer:  PIN/TOP*
G04 Layer:  VIA CLASS/TOP*
G04 *
G04 Offset:    (0.0000 0.0000)*
G04 Mirror:    No*
G04 Mode:      Positive*
G04 Rotation:  0*
G04 FullContactRelief:  No*
G04 UndefLineWidth:     0.2540*
G04 ================== end FILE IDENTIFICATION RECORD ====================*
%FSLAX25Y25*MOMM*%
%IR0*IPPOS*OFA0.00000B0.00000*MIA0B0*SFA1.00000B1.00000*%
%AMMACRO39*
4,1,40,.3299,-.381,
.3299,.381,
.328349,.398731,
.323742,.415923,
.31622,.432054,
.306011,.446634,
.293426,.45922,
.278846,.469428,
.262715,.47695,
.245523,.481557,
.2291,.4831,
-.2291,.4831,
-.24681,.481322,
-.263941,.476495,
-.279975,.468767,
-.294423,.458372,
-.306846,.445626,
-.316867,.430917,
-.324182,.414691,
-.328568,.397441,
-.3299,.381,
-.3299,-.381,
-.328349,-.398731,
-.323742,-.415923,
-.31622,-.432054,
-.306011,-.446634,
-.293426,-.45922,
-.278846,-.469428,
-.262715,-.47695,
-.245523,-.481557,
-.2291,-.4831,
.2291,-.4831,
.24681,-.481322,
.263941,-.476495,
.279975,-.468767,
.294423,-.458372,
.306846,-.445626,
.316867,-.430917,
.324182,-.414691,
.328568,-.397441,
.3299,-.381,
0.0*
%
%ADD39MACRO39*%
%AMMACRO25*
4,1,40,-.381,-.3299,
.381,-.3299,
.398731,-.328349,
.415923,-.323742,
.432054,-.31622,
.446634,-.306011,
.45922,-.293426,
.469428,-.278846,
.47695,-.262715,
.481557,-.245523,
.4831,-.2291,
.4831,.2291,
.481322,.24681,
.476495,.263941,
.468767,.279975,
.458372,.294423,
.445626,.306846,
.430917,.316867,
.414691,.324182,
.397441,.328568,
.381,.3299,
-.381,.3299,
-.398731,.328349,
-.415923,.323742,
-.432054,.31622,
-.446634,.306011,
-.45922,.293426,
-.469428,.278846,
-.47695,.262715,
-.481557,.245523,
-.4831,.2291,
-.4831,-.2291,
-.481322,-.24681,
-.476495,-.263941,
-.468767,-.279975,
-.458372,-.294423,
-.445626,-.306846,
-.430917,-.316867,
-.414691,-.324182,
-.397441,-.328568,
-.381,-.3299,
0.0*
%
%ADD25MACRO25*%
%ADD31O,.4X1.5*%
%ADD36R,.3X1.5*%
%ADD37R,1.5X.3*%
%ADD14R,10.5X9.*%
%ADD47R,.738X1.*%
%ADD18R,.95X2.15*%
%ADD13C,.635*%
%AMMACRO44*
4,1,21,.25,-.15,
-.1,-.15,
-.126047,-.147721,
-.151303,-.140954,
-.175,-.129904,
-.196418,-.114907,
-.214907,-.096418,
-.229904,-.075,
-.240954,-.051303,
-.247721,-.026047,
-.25,0.0,
-.247721,.026047,
-.240954,.051303,
-.229904,.075,
-.214907,.096418,
-.196418,.114907,
-.175,.129904,
-.151303,.140954,
-.126047,.147721,
-.1,.15,
.25,.15,
.25,-.15,
0.0*
%
%ADD44MACRO44*%
%AMMACRO42*
4,1,21,.15,.25,
.15,-.1,
.147721,-.126047,
.140954,-.151303,
.129904,-.175,
.114907,-.196418,
.096418,-.214907,
.075,-.229904,
.051303,-.240954,
.026047,-.247721,
0.0,-.25,
-.026047,-.247721,
-.051303,-.240954,
-.075,-.229904,
-.096418,-.214907,
-.114907,-.196418,
-.129904,-.175,
-.140954,-.151303,
-.147721,-.126047,
-.15,-.1,
-.15,.25,
.15,.25,
0.0*
%
%ADD42MACRO42*%
%AMMACRO28*
4,1,40,-.4831,.254,
-.4831,-.254,
-.481549,-.271729,
-.476943,-.28892,
-.469421,-.30505,
-.459213,-.319629,
-.446629,-.332213,
-.43205,-.342421,
-.41592,-.349943,
-.398729,-.354549,
-.381,-.3561,
.381,-.3561,
.398729,-.354549,
.41592,-.349943,
.43205,-.342421,
.446629,-.332213,
.459213,-.319629,
.469421,-.30505,
.476943,-.28892,
.481549,-.271729,
.4831,-.254,
.4831,.254,
.481549,.271729,
.476943,.28892,
.469421,.30505,
.459213,.319629,
.446629,.332213,
.43205,.342421,
.41592,.349943,
.398729,.354549,
.381,.3561,
-.381,.3561,
-.398729,.354549,
-.41592,.349943,
-.43205,.342421,
-.446629,.332213,
-.459213,.319629,
-.469421,.30505,
-.476943,.28892,
-.481549,.271729,
-.4831,.254,
0.0*
%
%ADD28MACRO28*%
%AMMACRO27*
4,1,44,-.381,.5839,
-.381,-.5839,
-.379465,-.601632,
-.374874,-.618828,
-.367367,-.634966,
-.357172,-.649555,
-.344598,-.662151,
-.330028,-.672374,
-.313904,-.67991,
-.296716,-.684532,
-.278987,-.6861,
-.2789,-.6861,
.2789,-.6861,
.296631,-.684548,
.313822,-.67994,
.329952,-.672417,
.344531,-.662208,
.357116,-.649621,
.367324,-.635041,
.374844,-.61891,
.37945,-.601718,
.381,-.583987,
.381,-.5839,
.381,.5839,
.379465,.601632,
.374874,.618828,
.367367,.634966,
.357172,.649555,
.344598,.662151,
.330028,.672374,
.313904,.67991,
.296716,.684532,
.278987,.6861,
.2789,.6861,
-.2789,.6861,
-.296631,.684548,
-.313822,.67994,
-.329952,.672417,
-.344531,.662208,
-.357116,.649621,
-.367324,.635041,
-.374844,.61891,
-.37945,.601718,
-.381,.583987,
-.381,.5839,
0.0*
%
%ADD27MACRO27*%
%AMMACRO10*
4,1,40,.254,.4831,
-.254,.4831,
-.271729,.481549,
-.28892,.476943,
-.30505,.469421,
-.319629,.459213,
-.332213,.446629,
-.342421,.43205,
-.349943,.41592,
-.354549,.398729,
-.3561,.381,
-.3561,-.381,
-.354549,-.398729,
-.349943,-.41592,
-.342421,-.43205,
-.332213,-.446629,
-.319629,-.459213,
-.30505,-.469421,
-.28892,-.476943,
-.271729,-.481549,
-.254,-.4831,
.254,-.4831,
.271729,-.481549,
.28892,-.476943,
.30505,-.469421,
.319629,-.459213,
.332213,-.446629,
.342421,-.43205,
.349943,-.41592,
.354549,-.398729,
.3561,-.381,
.3561,.381,
.354549,.398729,
.349943,.41592,
.342421,.43205,
.332213,.446629,
.319629,.459213,
.30505,.469421,
.28892,.476943,
.271729,.481549,
.254,.4831,
0.0*
%
%ADD10MACRO10*%
%AMMACRO32*
4,1,40,.381,.3299,
-.381,.3299,
-.398731,.328349,
-.415923,.323742,
-.432054,.31622,
-.446634,.306011,
-.45922,.293426,
-.469428,.278846,
-.47695,.262715,
-.481557,.245523,
-.4831,.2291,
-.4831,-.2291,
-.481322,-.24681,
-.476495,-.263941,
-.468767,-.279975,
-.458372,-.294423,
-.445626,-.306846,
-.430917,-.316867,
-.414691,-.324182,
-.397441,-.328568,
-.381,-.3299,
.381,-.3299,
.398731,-.328349,
.415923,-.323742,
.432054,-.31622,
.446634,-.306011,
.45922,-.293426,
.469428,-.278846,
.47695,-.262715,
.481557,-.245523,
.4831,-.2291,
.4831,.2291,
.481322,.24681,
.476495,.263941,
.468767,.279975,
.458372,.294423,
.445626,.306846,
.430917,.316867,
.414691,.324182,
.397441,.328568,
.381,.3299,
0.0*
%
%ADD32MACRO32*%
%AMMACRO30*
4,1,40,-.3299,.381,
-.3299,-.381,
-.328349,-.398731,
-.323742,-.415923,
-.31622,-.432054,
-.306011,-.446634,
-.293426,-.45922,
-.278846,-.469428,
-.262715,-.47695,
-.245523,-.481557,
-.2291,-.4831,
.2291,-.4831,
.24681,-.481322,
.263941,-.476495,
.279975,-.468767,
.294423,-.458372,
.306846,-.445626,
.316867,-.430917,
.324182,-.414691,
.328568,-.397441,
.3299,-.381,
.3299,.381,
.328349,.398731,
.323742,.415923,
.31622,.432054,
.306011,.446634,
.293426,.45922,
.278846,.469428,
.262715,.47695,
.245523,.481557,
.2291,.4831,
-.2291,.4831,
-.24681,.481322,
-.263941,.476495,
-.279975,.468767,
-.294423,.458372,
-.306846,.445626,
-.316867,.430917,
-.324182,.414691,
-.328568,.397441,
-.3299,.381,
0.0*
%
%ADD30MACRO30*%
%ADD45R,1.X2.5*%
%ADD24R,2.X2.3*%
%ADD23R,3.2X2.6*%
%ADD34R,2.4X1.7*%
%ADD35C,1.*%
%ADD15R,1.05X3.15*%
%ADD21R,3.X5.8*%
%ADD26R,5.8X3.*%
%ADD29C,1.4*%
%ADD17R,3.25X2.15*%
%ADD11C,4.2*%
%ADD12C,1.6*%
%ADD20C,1.016*%
%ADD33R,1.4481X1.143*%
%ADD38R,1.6X1.6*%
%AMMACRO43*
4,1,21,-.15,-.25,
-.15,.1,
-.147721,.126047,
-.140954,.151303,
-.129904,.175,
-.114907,.196418,
-.096418,.214907,
-.075,.229904,
-.051303,.240954,
-.026047,.247721,
0.0,.25,
.026047,.247721,
.051303,.240954,
.075,.229904,
.096418,.214907,
.114907,.196418,
.129904,.175,
.140954,.151303,
.147721,.126047,
.15,.1,
.15,-.25,
-.15,-.25,
0.0*
%
%ADD43MACRO43*%
%AMMACRO41*
4,1,21,-.25,.15,
.1,.15,
.126047,.147721,
.151303,.140954,
.175,.129904,
.196418,.114907,
.214907,.096418,
.229904,.075,
.240954,.051303,
.247721,.026047,
.25,0.0,
.247721,-.026047,
.240954,-.051303,
.229904,-.075,
.214907,-.096418,
.196418,-.114907,
.175,-.129904,
.151303,-.140954,
.126047,-.147721,
.1,-.15,
-.25,-.15,
-.25,.15,
0.0*
%
%ADD41MACRO41*%
%AMMACRO40*
4,1,5,-1.,-1.35,
-1.35,-1.,
-1.35,1.35,
1.35,1.35,
1.35,-1.35,
-1.,-1.35,
0.0*
%
%ADD40MACRO40*%
%ADD16R,3.754X2.554*%
%AMMACRO46*
4,1,44,.381,-.5839,
.381,.5839,
.379465,.601632,
.374874,.618828,
.367367,.634966,
.357172,.649555,
.344598,.662151,
.330028,.672374,
.313904,.67991,
.296716,.684532,
.278987,.6861,
.2789,.6861,
-.2789,.6861,
-.296631,.684548,
-.313822,.67994,
-.329952,.672417,
-.344531,.662208,
-.357116,.649621,
-.367324,.635041,
-.374844,.61891,
-.37945,.601718,
-.381,.583987,
-.381,.5839,
-.381,-.5839,
-.379465,-.601632,
-.374874,-.618828,
-.367367,-.634966,
-.357172,-.649555,
-.344598,-.662151,
-.330028,-.672374,
-.313904,-.67991,
-.296716,-.684532,
-.278987,-.6861,
-.2789,-.6861,
.2789,-.6861,
.296631,-.684548,
.313822,-.67994,
.329952,-.672417,
.344531,-.662208,
.357116,-.649621,
.367324,-.635041,
.374844,-.61891,
.37945,-.601718,
.381,-.583987,
.381,-.5839,
0.0*
%
%ADD46MACRO46*%
%AMMACRO22*
4,1,40,.4831,-.254,
.4831,.254,
.481549,.271729,
.476943,.28892,
.469421,.30505,
.459213,.319629,
.446629,.332213,
.43205,.342421,
.41592,.349943,
.398729,.354549,
.381,.3561,
-.381,.3561,
-.398729,.354549,
-.41592,.349943,
-.43205,.342421,
-.446629,.332213,
-.459213,.319629,
-.469421,.30505,
-.476943,.28892,
-.481549,.271729,
-.4831,.254,
-.4831,-.254,
-.481549,-.271729,
-.476943,-.28892,
-.469421,-.30505,
-.459213,-.319629,
-.446629,-.332213,
-.43205,-.342421,
-.41592,-.349943,
-.398729,-.354549,
-.381,-.3561,
.381,-.3561,
.398729,-.354549,
.41592,-.349943,
.43205,-.342421,
.446629,-.332213,
.459213,-.319629,
.469421,-.30505,
.476943,-.28892,
.481549,-.271729,
.4831,-.254,
0.0*
%
%ADD22MACRO22*%
%AMMACRO19*
4,1,40,-.254,-.4831,
.254,-.4831,
.271729,-.481549,
.28892,-.476943,
.30505,-.469421,
.319629,-.459213,
.332213,-.446629,
.342421,-.43205,
.349943,-.41592,
.354549,-.398729,
.3561,-.381,
.3561,.381,
.354549,.398729,
.349943,.41592,
.342421,.43205,
.332213,.446629,
.319629,.459213,
.30505,.469421,
.28892,.476943,
.271729,.481549,
.254,.4831,
-.254,.4831,
-.271729,.481549,
-.28892,.476943,
-.30505,.469421,
-.319629,.459213,
-.332213,.446629,
-.342421,.43205,
-.349943,.41592,
-.354549,.398729,
-.3561,.381,
-.3561,-.381,
-.354549,-.398729,
-.349943,-.41592,
-.342421,-.43205,
-.332213,-.446629,
-.319629,-.459213,
-.30505,-.469421,
-.28892,-.476943,
-.271729,-.481549,
-.254,-.4831,
0.0*
%
%ADD19MACRO19*%
%ADD48C,.2032*%
%ADD49C,.254*%
%ADD50C,.381*%
%ADD51C,.508*%
%ADD52C,.762*%
%ADD53C,1.27*%
%ADD57R,.9924X1.2544*%
%ADD60R,1.2044X2.4044*%
%ADD58C,1.6544*%
%ADD54R,4.2624X3.0624*%
%ADD62C,1.8544*%
%ADD55C,4.7084*%
%ADD61R,2.2544X2.5544*%
%ADD56R,1.2544X2.7544*%
%ADD59R,1.8544X1.8544*%
G75*
%LPD*%
G75*
G36*
G01X-4191000Y-2413000D02*
Y-2349500D01*
X-4699990D01*
Y1206500D01*
X-4381500D01*
Y889000D01*
X-3619500D01*
Y635000D01*
X-3937000D01*
Y190500D01*
X-4064000D01*
Y635000D01*
X-4318000D01*
Y-127000D01*
X-3492500D01*
Y-1016000D01*
X-4127500D01*
Y-2413000D01*
X-4191000D01*
G37*
G36*
G01X-4699000Y1714500D02*
X-3556000D01*
X-3492500D01*
Y1778000D01*
Y2730500D01*
X-2857500D01*
Y1841500D01*
X-3365500D01*
Y1524000D01*
X-3619500D01*
Y1333500D01*
X-4699000D01*
Y1714500D01*
G37*
G36*
G01X3953340Y-2192980D02*
X3993950Y-2152370D01*
X3996820Y-2152550D01*
G03X3948540Y-2071650I3679J57052D01*
G01X3946840Y-2075350D01*
X3927160D01*
X3925460Y-2071650D01*
G03X3821540I-51960J-23850D01*
G01X3819840Y-2075350D01*
X3800160D01*
X3798460Y-2071650D01*
G03X3701750Y-2059920I-51959J-23849D01*
G01X3109030D01*
Y-2028020D01*
G03X3086100Y-2005290I-22930J-201D01*
G01X3009900D01*
G03X2995090Y-2010710I0J-22944D01*
G01X2990630Y-2014480D01*
X2909070Y-1932920D01*
X2878820D01*
Y-1910090D01*
G03X2855890Y-1887170I-22931J-11D01*
G01X2800110D01*
G03X2777180Y-1910090I1J-22931D01*
G01Y-2026910D01*
G03X2800110Y-2049830I22931J11D01*
G01X2855890D01*
G03X2878820Y-2026910I-1J22931D01*
G01Y-2014390D01*
X2886650Y-2011140D01*
X2946570Y-2071060D01*
X2943320Y-2078890D01*
X2307670D01*
X2286000Y-2057220D01*
Y-304320D01*
X2298220Y-292100D01*
X2656780D01*
Y-528720D01*
X2782220D01*
Y-368710D01*
X2790050Y-365460D01*
X2806780Y-382190D01*
Y-528720D01*
X2932220D01*
Y-292100D01*
X2956780D01*
Y-528720D01*
X3082220D01*
Y-292100D01*
X3106780D01*
Y-528720D01*
X3232220D01*
Y-292100D01*
X3256780D01*
Y-528720D01*
X3382220D01*
Y-292100D01*
X3406780D01*
Y-528720D01*
X3532220D01*
Y-292100D01*
X3556780D01*
Y-528720D01*
X3682220D01*
Y-292100D01*
X3706780D01*
Y-528720D01*
X3832220D01*
Y-292100D01*
X3856780D01*
Y-528720D01*
X3982220D01*
Y-253280D01*
X3848100D01*
Y916920D01*
X4205740D01*
X4399920Y1111110D01*
X4403870Y1109440D01*
G03X4349670Y1161490I41124J97067D01*
G01X4176260Y988080D01*
X4033980D01*
X4030730Y995910D01*
X4399990Y1365170D01*
G03X4349670Y1415490I45010J95330D01*
G01X3962900Y1028720D01*
X3848100D01*
Y2324100D01*
X3735860D01*
X3729140Y2344190D01*
X3732790Y2346940D01*
G03X3633210I-49790J66060D01*
G01X3636860Y2344190D01*
X3630140Y2324100D01*
X3481860D01*
X3475140Y2344190D01*
X3478790Y2346940D01*
G03X3379210I-49790J66060D01*
G01X3382860Y2344190D01*
X3376140Y2324100D01*
X3247470D01*
X3239710Y2342750D01*
X3242690Y2345750D01*
G03X3225820Y2493760I-67691J67251D01*
G01Y2586240D01*
G03X3107530Y2734470I-50817J80761D01*
G01X2988470D01*
G03X2853750Y2734690I-67470J-67471D01*
G01X2850750Y2731710D01*
X2832100Y2739470D01*
Y2832100D01*
X-2070100D01*
Y1816100D01*
X-2755900D01*
Y2148680D01*
X-2186480D01*
Y2474120D01*
X-2755900D01*
Y2832100D01*
X-3594100D01*
Y1816100D01*
X-4699960D01*
Y2899960D01*
X4699960D01*
Y-1342580D01*
X4692130Y-1345830D01*
X4500400Y-1154100D01*
Y-602330D01*
X4555080Y-547650D01*
Y-528720D01*
X4582220D01*
Y-253280D01*
X4456780D01*
Y-528720D01*
X4462290D01*
X4465540Y-536550D01*
X4444500Y-557590D01*
X4423460Y-536550D01*
X4426710Y-528720D01*
X4432220D01*
Y-253280D01*
X4306780D01*
Y-528720D01*
X4333920D01*
Y-547650D01*
X4388600Y-602330D01*
Y-1200420D01*
X4599920Y-1411740D01*
Y-1890260D01*
X4289370Y-2200810D01*
X3956590D01*
X3953340Y-2192980D01*
G37*
G36*
G01X-4127500Y-2603500D02*
X-3746500D01*
Y-2095500D01*
X-3365500D01*
Y-2603500D01*
X-1968500D01*
X-1905000D01*
Y-2540000D01*
Y-1587500D01*
X-1079500D01*
Y-1778000D01*
X-1397000D01*
Y-1968500D01*
X-1079500D01*
Y-2540000D01*
Y-2603500D01*
X-1143000D01*
X-1397000D01*
X-1460500D01*
Y-2667000D01*
Y-2857500D01*
X-4064000D01*
X-4127500D01*
Y-2794000D01*
Y-2603500D01*
G37*
G36*
G01X-4000500Y-2413000D02*
Y-1143000D01*
X-3365500D01*
Y-63500D01*
X-4254500D01*
Y571500D01*
X-4127500D01*
Y0D01*
X-2857500D01*
Y-825500D01*
X-2349500D01*
Y-1270000D01*
X-3302000D01*
Y-2032000D01*
X-3810000D01*
Y-2413000D01*
X-4000500D01*
G37*
G36*
G01X-3683000Y317500D02*
X-3111500D01*
Y1524000D01*
Y1587500D01*
X-3048000D01*
X-1778000D01*
X-1714500D01*
Y1524000D01*
Y825500D01*
X-1651000Y762000D01*
X-1397000D01*
Y1079500D01*
X-1333500D01*
X-762000D01*
X-698500D01*
Y1270000D01*
Y1333500D01*
X-762000D01*
X-1524000D01*
X-1587500D01*
Y1397000D01*
Y1714500D01*
X-1841500D01*
Y2540000D01*
Y2603500D01*
X-1778000D01*
X2413000D01*
X2540000D01*
Y2476500D01*
Y2349500D01*
X2730500D01*
X2794000Y2413000D01*
Y2794000D01*
X-1905000D01*
X-2032000D01*
Y2667000D01*
Y1714500D01*
X-3238500D01*
X-3302000D01*
Y1651000D01*
Y1460500D01*
X-3492500D01*
X-3556000D01*
Y1397000D01*
Y1333500D01*
Y1270000D01*
Y1206500D01*
X-4254500D01*
Y1016000D01*
Y952500D01*
X-3873500D01*
Y1016000D01*
X-3556000D01*
Y698500D01*
Y571500D01*
X-3683000D01*
Y317500D01*
G37*
G36*
G01X-2730500Y-190500D02*
Y63500D01*
X-3873500D01*
Y571500D01*
X-3746500D01*
Y127000D01*
X-3556000D01*
Y254000D01*
X-3048000D01*
Y444500D01*
X-2857500D01*
Y698500D01*
X-2603500D01*
Y190500D01*
X-2349500D01*
Y-190500D01*
X-2730500D01*
G37*
G36*
G01X-3238500Y-1587500D02*
X-3048000D01*
Y-2286000D01*
X-2286000D01*
Y-1524000D01*
X-2095500D01*
X-2032000D01*
X-1968500D01*
Y-2540000D01*
X-3238500D01*
Y-1587500D01*
G37*
G36*
G01X-1244600Y-481290D02*
G03X-1267530Y-504020I0J-22931D01*
G01Y-549980D01*
G03X-1247600Y-572510I22929J203D01*
G01X-1242940Y-573130D01*
Y-668420D01*
X-1236010Y-675360D01*
X-1235930Y-683010D01*
G03X-1242330Y-698900I16526J-15890D01*
G01Y-775100D01*
G03X-1219400Y-798030I22930J0D01*
G01X-1168600D01*
G03X-1145670Y-775100I0J22930D01*
G01Y-726290D01*
X-1094900Y-675520D01*
X-1021720D01*
Y-737660D01*
X-756280D01*
Y-592540D01*
X-645820Y-482080D01*
X-546100D01*
Y-758380D01*
X-556650D01*
X-673120Y-874850D01*
Y-977900D01*
X-691300D01*
X-701400Y-966660D01*
X-701100Y-963850D01*
G03X-700970Y-961420I-22801J2438D01*
G01Y-910600D01*
G03X-723900Y-887670I-22930J0D01*
G01X-800100D01*
G03X-823030Y-910600I0J-22930D01*
G01Y-961420D01*
G03X-822900Y-963850I22931J8D01*
G01X-822600Y-966660D01*
X-832700Y-977900D01*
X-867380D01*
Y-829630D01*
X-1037620D01*
Y-977900D01*
X-1882070D01*
G03X-1927930I-22930J-38100D01*
G01X-2070100D01*
Y-1379170D01*
X-2093890D01*
G03X-2116820Y-1402090I1J-22931D01*
G01Y-1428900D01*
G03X-2132410Y-1470030I21320J-31601D01*
G01X-2131630Y-1473040D01*
X-2141590Y-1485900D01*
X-2324100D01*
Y-2247900D01*
X-2469300D01*
X-2479400Y-2236660D01*
X-2479100Y-2233850D01*
G03X-2478970Y-2231420I-22801J2438D01*
G01Y-2180600D01*
G03X-2501900Y-2157670I-22930J0D01*
G01X-2578100D01*
G03X-2601030Y-2180600I0J-22930D01*
G01Y-2231420D01*
G03X-2600900Y-2233850I22931J8D01*
G01X-2600600Y-2236660D01*
X-2610700Y-2247900D01*
X-2936280D01*
Y-2201780D01*
X-3009900D01*
Y-1485900D01*
X-3173670D01*
Y-1422400D01*
G03X-3196600Y-1399470I-22930J0D01*
G01X-3247420D01*
G03X-3249850Y-1399600I8J-22931D01*
G01X-3252660Y-1399900D01*
X-3263900Y-1389800D01*
Y-1308100D01*
X-2247900D01*
Y-723900D01*
X-2755900D01*
Y-292100D01*
X-2247900D01*
Y292100D01*
X-2501900D01*
Y800100D01*
X-3009900D01*
Y1485900D01*
X-2545980D01*
X-2536020Y1473040D01*
X-2536800Y1470020D01*
G03X-2537530Y1464480I22200J-5743D01*
G01Y1418520D01*
G03X-2517600Y1395990I22929J203D01*
G01X-2512080Y1395260D01*
Y1144740D01*
X-2517600Y1144010D01*
G03X-2537530Y1121480I2999J-22733D01*
G01Y1075520D01*
G03X-2514600Y1052790I22930J201D01*
G01X-2438400D01*
G03X-2421320Y1060420I0J22932D01*
G01X-2281420D01*
X-2279530Y1057650D01*
G03X-2260600Y1047670I18930J12963D01*
G01X-2184400D01*
G03X-2165470Y1057650I0J22943D01*
G01X-2163580Y1060420D01*
X-2003560D01*
X-2003540Y1060400D01*
X-1999750D01*
X-1999730Y1060380D01*
X-1872760D01*
X-1828840Y1016460D01*
Y826020D01*
X-1816100Y813280D01*
Y723900D01*
X-1750080D01*
Y-776740D01*
X-1707870Y-818950D01*
X-1708050Y-821820D01*
G03X-1654680Y-768450I57050J-3680D01*
G01X-1657550Y-768630D01*
X-1678920Y-747260D01*
Y723900D01*
X-1488130D01*
X-1487440Y718320D01*
G03X-1469720Y685610I50444J6172D01*
G01Y669500D01*
G03X-1411860Y648560I32719J0D01*
G01X-1397140D01*
G03X-1359950Y639080I25141J20940D01*
G01X-1356830Y640320D01*
X-1342580Y630630D01*
Y536810D01*
X-1112070Y306300D01*
X-1115320Y298470D01*
X-1142210D01*
X-1143950Y302060D01*
G03X-1164600Y315030I-20650J-9954D01*
G01X-1215400D01*
G03X-1238330Y292100I0J-22930D01*
G01Y215900D01*
G03X-1215400Y192970I22930J0D01*
G01X-1164600D01*
G03X-1143950Y205940I0J22924D01*
G01X-1142210Y209530D01*
X-1097920D01*
X-1091270Y202880D01*
X-1091650Y199810D01*
G03X-947120Y223140I75650J-9308D01*
G01X-948620Y226300D01*
X-939140Y241280D01*
X-635640D01*
Y234240D01*
X-635790Y233560D01*
G03X-636330Y228630I22391J-4947D01*
G01Y152400D01*
G03X-613400Y129470I22930J0D01*
G01X-562600D01*
G03X-539670Y152400I0J22930D01*
G01Y228630D01*
G03X-540210Y233560I-22931J-17D01*
G01X-540360Y234240D01*
Y241280D01*
X-475640D01*
Y234240D01*
X-475790Y233560D01*
G03X-476330Y228630I22391J-4947D01*
G01Y152400D01*
G03X-453400Y129470I22930J0D01*
G01X-402600D01*
G03X-380220Y147400I0J22932D01*
G01X-379110Y152360D01*
X-333300D01*
X-286140Y105200D01*
Y83130D01*
X-286120Y83110D01*
Y38100D01*
X-546100D01*
Y-360920D01*
X-712700D01*
X-756280Y-317340D01*
Y-172220D01*
X-1021720D01*
Y-234360D01*
X-1074020D01*
X-1145670Y-162710D01*
Y-113900D01*
G03X-1168600Y-90970I-22930J0D01*
G01X-1219400D01*
G03X-1242330Y-113900I0J-22930D01*
G01Y-190100D01*
G03X-1235930Y-205990I22926J0D01*
G01X-1236010Y-213640D01*
X-1242940Y-220580D01*
Y-315870D01*
X-1247600Y-316490D01*
G03X-1267530Y-339020I2999J-22733D01*
G01Y-384980D01*
G03X-1244600Y-407710I22930J201D01*
G01X-1168400D01*
G03X-1145470Y-384980I0J22931D01*
G01Y-339020D01*
G03X-1165400Y-316490I-22929J-203D01*
G01X-1170060Y-315870D01*
Y-250760D01*
X-1166740Y-247450D01*
X-1163090Y-245930D01*
X-1103500Y-305520D01*
X-1021720D01*
Y-367660D01*
X-806600D01*
X-742180Y-432080D01*
X-707540D01*
X-704290Y-439910D01*
X-806600Y-542220D01*
X-1021720D01*
Y-604360D01*
X-1124380D01*
X-1163090Y-643070D01*
X-1166740Y-641550D01*
X-1170060Y-638240D01*
Y-573130D01*
X-1165400Y-572510D01*
G03X-1145470Y-549980I-2999J22733D01*
G01Y-504020D01*
G03X-1168400Y-481290I-22930J-201D01*
G01X-1244600D01*
G37*
G36*
G01X-647720Y-1942600D02*
X-195000Y-2395320D01*
X-194790Y-2409290D01*
X-196550Y-2411170D01*
G03X-221760Y-2487710I69550J-65329D01*
G01X-221420Y-2490550D01*
X-231520Y-2501900D01*
X-289310D01*
X-299400Y-2490370D01*
X-299020Y-2487510D01*
G03X-462980I-81980J11010D01*
G01X-462600Y-2490370D01*
X-472690Y-2501900D01*
X-977900D01*
Y-1893580D01*
X-871800D01*
X-868550Y-1901410D01*
X-890080Y-1922940D01*
Y-1999460D01*
G03X-818920I35580J-88540D01*
G01Y-1952420D01*
X-772710Y-1906210D01*
X-723900D01*
G03X-700970Y-1883480I0J22931D01*
G01Y-1837520D01*
G03X-723900Y-1814790I-22930J-201D01*
G01X-800100D01*
G03X-817180Y-1822420I0J-22932D01*
G01X-977900D01*
Y-1485900D01*
X-1820180D01*
Y-1402090D01*
G03X-1843110Y-1379170I-22931J-11D01*
G01X-1898890D01*
G03X-1921820Y-1402090I1J-22931D01*
G01Y-1485900D01*
X-1993900D01*
Y-1054100D01*
X-1947620D01*
G03X-1862380I42620J38100D01*
G01X-1037620D01*
Y-1110720D01*
X-1141120Y-1214210D01*
X-1149600Y-1214520D01*
X-1151360Y-1213260D01*
G03X-1164520Y-1208970I-13356J-18641D01*
G01X-1210480D01*
G03X-1233210Y-1231900I201J-22930D01*
G01Y-1246490D01*
G03Y-1293510I26710J-23510D01*
G01Y-1308100D01*
G03X-1210480Y-1331030I22931J0D01*
G01X-1164520D01*
G03X-1162060Y-1330880I-164J22931D01*
G03X-1142340Y-1313090I-2663J22777D01*
G01X-1141230Y-1308120D01*
X-1127210D01*
X-968460Y-1149370D01*
X-867380D01*
Y-1134120D01*
X-819180D01*
G03X-800100Y-1144330I19080J12723D01*
G01X-723900D01*
G03X-704820Y-1134120I0J22933D01*
G01X-675040D01*
X-595020Y-1054100D01*
X-530830D01*
X-527580Y-1061930D01*
X-559060Y-1093410D01*
Y-1178480D01*
X-647720Y-1267140D01*
Y-1942600D01*
G37*
G36*
G01X-1307000Y1516100D02*
Y1561000D01*
X-1335160Y1591960D01*
X-1369410Y1551590D01*
X-1320470Y1502630D01*
X-1307000Y1516100D01*
G37*
G36*
G01X-1301110Y1816100D02*
X-1302220Y1821070D01*
G03X-1324600Y1839030I-22380J-4964D01*
G01X-1375400D01*
G03X-1386130Y1836360I8J-22928D01*
G01X-1390280Y1834170D01*
X-1559800Y2003690D01*
X-1558850Y2007240D01*
G03X-1718250Y2099690I-92151J24758D01*
G01X-1721250Y2096710D01*
X-1739900Y2104470D01*
Y2501900D01*
X2501900D01*
Y2070100D01*
X1738480D01*
G03X1563520I-87480J-38100D01*
G01X1484480D01*
G03X1309520I-87480J-38100D01*
G01X1230480D01*
G03X1055520I-87480J-38100D01*
G01X976480D01*
G03X801520I-87480J-38100D01*
G01X708420D01*
G03X561580I-73420J-38100D01*
G01X468480D01*
G03X293520I-87480J-38100D01*
G01X-293520D01*
G03X-468480I-87480J-38100D01*
G01X-547520D01*
G03X-722480I-87480J-38100D01*
G01X-801520D01*
G03X-976480I-87480J-38100D01*
G01X-1055520D01*
G03X-1075750Y1964310I-87481J-38100D01*
G01X-1072750Y1967290D01*
X-1054100Y1959530D01*
Y1828820D01*
X-1145520D01*
G03X-1164600Y1839030I-19080J-12723D01*
G01X-1215400D01*
G03X-1237780Y1821070I0J-22924D01*
G01X-1238890Y1816100D01*
X-1301110D01*
G37*
G36*
G01X-635000Y-2603500D02*
X444500D01*
Y-2857500D01*
X-635000D01*
Y-2603500D01*
G37*
G36*
G01X-826150Y-888930D02*
X-880100Y-842350D01*
X-957260Y-899500D01*
X-880100Y-956650D01*
X-826150Y-910070D01*
G03Y-888930I-15850J10570D01*
G37*
G36*
G01X389300Y431900D02*
X360200Y460990D01*
X359980Y469730D01*
G03X260330Y508020I-42478J38266D01*
G01X253980Y501670D01*
G03X248820Y501430I73J-57168D01*
G01X246030Y501180D01*
X234970Y511280D01*
Y942350D01*
X214830Y962490D01*
X216280Y966320D01*
G03X148280Y906980I-89281J33678D01*
G01X151260Y907660D01*
X163810Y897660D01*
Y770590D01*
X155980Y767340D01*
X-39170Y962490D01*
X-37720Y966320D01*
G03X-93320Y910720I-89280J33680D01*
G01X-89490Y912170D01*
X123170Y699510D01*
Y573210D01*
X115340Y569960D01*
X14730Y670580D01*
X-395740D01*
X-522740Y543580D01*
X-747260D01*
X-751420Y547740D01*
Y630630D01*
X-737170Y640320D01*
X-734050Y639080D01*
G03X-689280Y669500I12050J30420D01*
G01Y685610D01*
G03X-671560Y718320I-32724J38882D01*
G01X-670870Y723900D01*
X-469900D01*
Y947140D01*
X-449810Y953860D01*
X-447060Y950210D01*
G03Y1049790I66060J49790D01*
G01X-449810Y1046140D01*
X-469900Y1052860D01*
Y1390030D01*
X944920D01*
X1074550Y1519660D01*
X1082140Y1512060D01*
X1080330Y1508060D01*
G03X1078290Y1498600I20892J-9455D01*
G01Y1462360D01*
X930400Y1314470D01*
X797930D01*
G03X723900Y1227380I-35920J-44476D01*
G01Y1150200D01*
X712660Y1140100D01*
X709850Y1140400D01*
G03X707400Y1140530I-2438J-22801D01*
G01X656600D01*
G03X633670Y1117600I0J-22930D01*
G01Y1041400D01*
G03X656600Y1018470I22930J0D01*
G01X707400D01*
G03X709850Y1018600I12J22931D01*
G01X712660Y1018900D01*
X723900Y1008800D01*
Y958480D01*
X711040Y948520D01*
X708020Y949300D01*
G03X702480Y950030I-5743J-22200D01*
G01X656520D01*
G03X633790Y927100I201J-22930D01*
G01Y850900D01*
G03X637510Y838370I22933J-9D01*
G01X640330Y834060D01*
X580450Y774180D01*
Y694270D01*
X400030Y513850D01*
Y442630D01*
X389300Y431900D01*
G37*
G36*
G01X-982000Y518900D02*
Y474000D01*
X-950740Y440070D01*
X-916590Y480410D01*
X-968530Y532370D01*
X-982000Y518900D01*
G37*
G36*
G01X-1103020Y857140D02*
X-1043590Y916590D01*
X-1078380Y955470D01*
X-1112000Y920000D01*
Y866120D01*
X-1103020Y857140D01*
G37*
G36*
G01X726470Y1901660D02*
X689260Y1938870D01*
X690310Y1954190D01*
X692610Y1955930D01*
G03X722480Y1993900I-57618J76060D01*
G01X801520D01*
G03X976480I87480J38100D01*
G01X1055520D01*
G03X1230480I87480J38100D01*
G01X1323580D01*
G03X1470420I73420J38100D01*
G01X1538930D01*
X1542180Y1986070D01*
X1378580Y1822470D01*
X1251580D01*
X908080Y1478970D01*
X-469900D01*
Y1562100D01*
X-887190D01*
X-890440Y1569930D01*
X-853840Y1606530D01*
X272420D01*
X425470Y1759580D01*
Y1947580D01*
G03X468480Y1993900I-44471J84421D01*
G01X547520D01*
G03X590530Y1947580I87481J38101D01*
G01Y1911820D01*
X637530Y1864820D01*
Y1828940D01*
X636690Y1827480D01*
G03X633670Y1816100I19911J-11375D01*
G01Y1739900D01*
G03X656600Y1716970I22930J0D01*
G01X707400D01*
G03X730330Y1739900I0J22930D01*
G01Y1816100D01*
G03X727310Y1827480I-22931J5D01*
G01X726470Y1828940D01*
Y1901660D01*
G37*
G36*
G01X-977900Y1763070D02*
Y1959530D01*
X-959250Y1967290D01*
X-956250Y1964310D01*
G03X-801520Y1993900I67249J67692D01*
G01X-708420D01*
G03X-561580I73420J38100D01*
G01X-493070D01*
X-489820Y1986070D01*
X-653420Y1822470D01*
X-907420D01*
X-970070Y1759820D01*
X-977900Y1763070D01*
G37*
G36*
G01X-617040Y1950970D02*
X-585510Y1982500D01*
X-635000Y2038350D01*
X-684490Y1982500D01*
X-652960Y1950970D01*
G03X-617040I17960J17960D01*
G37*
G36*
G01X-389980Y-2386490D02*
X-430480Y-2427010D01*
X-381000Y-2479680D01*
X-331520Y-2427010D01*
X-372020Y-2386490D01*
G03X-389980I-8980J-8980D01*
G37*
G36*
G01X-144360Y-1394300D02*
X-133580Y-1404400D01*
Y-1504240D01*
X-120370Y-1517450D01*
X-120550Y-1520320D01*
G03X-58320Y-1580930I57050J-3677D01*
G01X-55530Y-1580680D01*
X-44470Y-1590780D01*
Y-1656850D01*
X39170Y-1740490D01*
X37720Y-1744320D01*
G03X200190Y-1839220I89275J-33685D01*
G03X218670Y-1804500I-73184J61231D01*
G01X219670Y-1801020D01*
X237280Y-1796490D01*
X254370Y-1813580D01*
X292460D01*
G03X344670Y-1866230I88536J35584D01*
G03X450470Y-1843410I36330J88231D01*
G01X453430Y-1840270D01*
X472420Y-1847800D01*
Y-1856240D01*
X556760Y-1940580D01*
X874260D01*
X977900Y-2044220D01*
Y-2186500D01*
X970070Y-2189750D01*
X880080Y-2099760D01*
Y-2089130D01*
G03X890210Y-2070100I-12810J19030D01*
G01Y-1993900D01*
G03X867480Y-1970970I-22931J0D01*
G01X821520D01*
G03X798790Y-1993900I201J-22930D01*
G01Y-2070100D01*
G03X808920Y-2089130I22940J0D01*
G01Y-2129240D01*
X920610Y-2240920D01*
X918940Y-2244870D01*
G03X977900Y-2384290I97062J-41130D01*
G01Y-2441710D01*
G03X917710Y-2501900I38100J-98290D01*
G01X854720D01*
Y-2447280D01*
X669280D01*
Y-2501900D01*
X543580D01*
Y-2203750D01*
G03X472420I-35580J44750D01*
G01Y-2406700D01*
X453430Y-2414230D01*
X450470Y-2411090D01*
G03X292730Y-2440250I-69473J-65410D01*
G03X286240Y-2487710I88269J-36244D01*
G01X286580Y-2490550D01*
X276480Y-2501900D01*
X231520D01*
X221420Y-2490550D01*
X221760Y-2487710D01*
G03X93320Y-2387220I-94760J11211D01*
G01X89490Y-2388670D01*
X14740Y-2313920D01*
X-118280D01*
X-535920Y-1896280D01*
Y-1313460D01*
X-480020Y-1257560D01*
X-394910D01*
X-326940Y-1189590D01*
Y-1123960D01*
X-319110Y-1120710D01*
X-275720Y-1164100D01*
Y-1229220D01*
X-133580D01*
Y-1262600D01*
X-144360Y-1272700D01*
X-147100Y-1272520D01*
G03X-148600Y-1272470I-1513J-22880D01*
G01X-199400D01*
G03X-222330Y-1295400I0J-22930D01*
G01Y-1371600D01*
G03X-199400Y-1394530I22930J0D01*
G01X-148600D01*
G03X-147100Y-1394480I-13J22930D01*
G01X-144360Y-1394300D01*
G37*
G36*
G01X-44890Y-1231000D02*
X-33000Y-1216500D01*
X-48000Y-1138960D01*
X-63000Y-1216500D01*
X-51110Y-1231000D01*
G03X-44890I3110J9670D01*
G37*
G36*
G01X-94890D02*
X-83000Y-1216500D01*
X-98000Y-1138960D01*
X-113000Y-1216500D01*
X-101110Y-1231000D01*
G03X-94890I3110J9670D01*
G37*
G36*
G01X-146080Y-1231340D02*
X-133000Y-1216500D01*
X-148000Y-1138320D01*
X-163000Y-1216500D01*
X-149920Y-1231340D01*
G03X-146080I1920J12550D01*
G37*
G36*
G01X-353500Y-843390D02*
X-368000Y-831500D01*
X-445540Y-846500D01*
X-368000Y-861500D01*
X-353500Y-849610D01*
G03Y-843390I-9670J3110D01*
G37*
G36*
G01Y-893390D02*
X-368000Y-881500D01*
X-445540Y-896500D01*
X-368000Y-911500D01*
X-353500Y-899610D01*
G03Y-893390I-9670J3110D01*
G37*
G36*
G01X-199920Y-1051660D02*
X-213000Y-1066500D01*
X-198000Y-1144680D01*
X-183000Y-1066500D01*
X-196080Y-1051660D01*
G03X-199920I-1920J-12550D01*
G37*
G36*
G01X-189020Y-1059420D02*
X-175560Y-1045940D01*
X-198000Y-1020320D01*
X-220440Y-1045940D01*
X-206980Y-1059420D01*
G03X-189020I8980J8980D01*
G37*
G36*
G01X-532840Y-748420D02*
X-518000Y-761500D01*
X-439820Y-746500D01*
X-518000Y-731500D01*
X-532840Y-744580D01*
G03Y-748420I12550J-1920D01*
G37*
G36*
G01X-164720Y-578680D02*
X-149450Y-593940D01*
X-124460Y-571500D01*
X-149450Y-549060D01*
X-164720Y-564320D01*
G03Y-578680I7190J-7180D01*
G37*
G36*
G01X-373040Y-1007810D02*
X-372940Y-933640D01*
X-444800Y-944700D01*
X-518000Y-961500D01*
X-386310Y-1016040D01*
G03X-373040Y-1007810I3209J9640D01*
G37*
G36*
G01X-532840Y-798420D02*
X-518000Y-811500D01*
X-439820Y-796500D01*
X-518000Y-781500D01*
X-532840Y-794580D01*
G03Y-798420I12550J-1920D01*
G37*
G36*
G01X-1110Y-1052000D02*
X-13000Y-1066500D01*
X2000Y-1144040D01*
X17000Y-1066500D01*
X5110Y-1052000D01*
G03X-1110I-3110J-9670D01*
G37*
G36*
G01X-353500Y-693390D02*
X-368000Y-681500D01*
X-445540Y-696500D01*
X-368000Y-711500D01*
X-353500Y-699610D01*
G03Y-693390I-9670J3110D01*
G37*
G36*
G01Y-593390D02*
X-368000Y-581500D01*
X-445540Y-596500D01*
X-368000Y-611500D01*
X-353500Y-599610D01*
G03Y-593390I-9670J3110D01*
G37*
G36*
G01Y-643390D02*
X-368000Y-631500D01*
X-445540Y-646500D01*
X-368000Y-661500D01*
X-353500Y-649610D01*
G03Y-643390I-9670J3110D01*
G37*
G36*
G01Y-293390D02*
X-368000Y-281500D01*
X-445540Y-296500D01*
X-368000Y-311500D01*
X-353500Y-299610D01*
G03Y-293390I-9670J3110D01*
G37*
G36*
G01Y-343390D02*
X-368000Y-331500D01*
X-445540Y-346500D01*
X-368000Y-361500D01*
X-353500Y-349610D01*
G03Y-343390I-9670J3110D01*
G37*
G36*
G01X-1110Y88000D02*
X-13000Y73500D01*
X2000Y-4040D01*
X17000Y73500D01*
X5110Y88000D01*
G03X-1110I-3110J-9670D01*
G37*
G36*
G01X-532500Y-399610D02*
X-518000Y-411500D01*
X-440460Y-396500D01*
X-518000Y-381500D01*
X-532500Y-393390D01*
G03Y-399610I9670J-3110D01*
G37*
G36*
G01Y-449610D02*
X-518000Y-461500D01*
X-440460Y-446500D01*
X-518000Y-431500D01*
X-532500Y-443390D01*
G03Y-449610I9670J-3110D01*
G37*
G36*
G01X-353500Y-493390D02*
X-368000Y-481500D01*
X-445540Y-496500D01*
X-368000Y-511500D01*
X-353500Y-499610D01*
G03Y-493390I-9670J3110D01*
G37*
G36*
G01X-31750Y-549910D02*
Y-571500D01*
X1800Y-573300D01*
X0Y-539750D01*
X-21590D01*
G03X-31750Y-549910I0J-10160D01*
G37*
G36*
G01X-101110Y88000D02*
X-113000Y73500D01*
X-98000Y-4040D01*
X-83000Y73500D01*
X-94890Y88000D01*
G03X-101110I-3110J-9670D01*
G37*
G36*
G01X-151110D02*
X-163000Y73500D01*
X-148000Y-4040D01*
X-133000Y73500D01*
X-144890Y88000D01*
G03X-151110I-3110J-9670D01*
G37*
G36*
G01X-199920Y88340D02*
X-213000Y73500D01*
X-198000Y-4680D01*
X-183000Y73500D01*
X-196080Y88340D01*
G03X-199920I-1920J-12550D01*
G37*
G36*
G01X-353500Y-543390D02*
X-368000Y-531500D01*
X-445540Y-546500D01*
X-368000Y-561500D01*
X-353500Y-549610D01*
G03Y-543390I-9670J3110D01*
G37*
G36*
G01X-44890Y-91000D02*
X-33000Y-76500D01*
X-48000Y1040D01*
X-63000Y-76500D01*
X-51110Y-91000D01*
G03X-44890I3110J9670D01*
G37*
G36*
G01X1219800Y-63380D02*
X1204420Y-78760D01*
X1200270Y-76540D01*
G03X1116290Y-124080I-26882J-50458D01*
G01X1115960Y-129470D01*
X1070600D01*
G03X1047670Y-152400I0J-22930D01*
G01Y-215900D01*
X984330D01*
Y-152400D01*
G03X961400Y-129470I-22930J0D01*
G01X910600D01*
G03X887820Y-149750I0J-22934D01*
G01X887140Y-154920D01*
X862790D01*
X806790Y-210920D01*
X784720D01*
Y-168780D01*
X609280D01*
Y-800180D01*
X601450Y-803430D01*
X538500Y-740480D01*
Y-615180D01*
X538490Y-615170D01*
Y-472090D01*
X433510Y-367110D01*
Y-365410D01*
X341130Y-273030D01*
X196350D01*
X134240Y-210920D01*
X66600D01*
X56510Y-199640D01*
X56820Y-196820D01*
G03X55280Y-175920I-56819J6320D01*
G03X-3680Y-133450I-55279J-14581D01*
G01X-6550Y-133630D01*
X-12420Y-127760D01*
Y-89220D01*
X529720D01*
Y-38100D01*
X603920D01*
G03X790080I93080J36600D01*
G01X800100D01*
Y91420D01*
X903730D01*
X1030730Y218420D01*
X1490520D01*
X1493770Y210590D01*
X1281810Y-1370D01*
X1263620Y4620D01*
X1263040Y8490D01*
G03X1230530Y51880I-56538J-8487D01*
G03X1165680Y40020I-24022J-51878D01*
G01X1163810Y38120D01*
X1144890D01*
X1143780Y43090D01*
G03X1121400Y61030I-22380J-4989D01*
G01X1070600D01*
G03X1047670Y38100I0J-22930D01*
G01Y-38100D01*
G03X1070600Y-61030I22930J0D01*
G01X1121400D01*
G03X1143780Y-43090I0J22929D01*
G01X1144890Y-38120D01*
X1163810D01*
X1165680Y-40020D01*
G03X1190700Y-54940I40823J40020D01*
G03X1210390Y-57040I15816J54937D01*
G01X1213270Y-56840D01*
X1219800Y-63380D01*
G37*
G36*
G01X-355280Y-210920D02*
Y-168780D01*
X-469900D01*
Y-38100D01*
X-275720D01*
Y-89220D01*
X-83580D01*
Y-157240D01*
X-56870Y-183950D01*
X-57050Y-186820D01*
G03X-56820Y-196820I57050J-3690D01*
G01X-56510Y-199640D01*
X-66600Y-210920D01*
X-355280D01*
G37*
G36*
G01X-249920Y88340D02*
X-263000Y73500D01*
X-248000Y-4680D01*
X-233000Y73500D01*
X-246080Y88340D01*
G03X-249920I-1920J-12550D01*
G37*
G36*
G01X-246080Y-91340D02*
X-233000Y-76500D01*
X-248000Y1680D01*
X-263000Y-76500D01*
X-249920Y-91340D01*
G03X-246080I1920J12550D01*
G37*
G36*
G01X-353500Y-243390D02*
X-368000Y-231500D01*
X-445540Y-246500D01*
X-368000Y-261500D01*
X-353500Y-249610D01*
G03Y-243390I-9670J3110D01*
G37*
G36*
G01X-295910Y476250D02*
X-317500D01*
X-319300Y442700D01*
X-285750Y444500D01*
Y466090D01*
G03X-295910Y476250I-10160J0D01*
G37*
G36*
G01X-184200Y396960D02*
X-168940Y412230D01*
X-191380Y437220D01*
X-213820Y412230D01*
X-198560Y396960D01*
G03X-184200I7180J7190D01*
G37*
G36*
G01X-213590Y180110D02*
Y199160D01*
X-247590Y201410D01*
X-245340Y167410D01*
X-226290D01*
G03X-213590Y180110I0J12700D01*
G37*
G36*
G01X-355220Y246820D02*
X-339950Y231560D01*
X-314960Y254000D01*
X-339950Y276440D01*
X-355220Y261180D01*
G03Y246820I7190J-7180D01*
G37*
G36*
G01X-40600Y404280D02*
Y425870D01*
X-74150Y427670D01*
X-72350Y394120D01*
X-50760D01*
G03X-40600Y404280I0J10160D01*
G37*
G36*
G01X-31750Y529590D02*
Y508000D01*
X1800Y506200D01*
X0Y539750D01*
X-21590D01*
G03X-31750Y529590I0J-10160D01*
G37*
G36*
G01X-431950Y1962000D02*
X-381000D01*
X-377630Y2035370D01*
X-451000Y2032000D01*
Y1981050D01*
G03X-431950Y1962000I19050J0D01*
G37*
G36*
G01X401870Y-1235010D02*
X417000Y-1216500D01*
X402140Y-1138960D01*
X387000Y-1216500D01*
X390720Y-1233430D01*
G03X401870Y-1235010I6761J7581D01*
G37*
G36*
G01X363280Y-1233430D02*
X367000Y-1216500D01*
X351860Y-1138960D01*
X337000Y-1216500D01*
X352130Y-1235010D01*
G03X363280Y-1233430I4389J9161D01*
G37*
G36*
G01X105110Y-1231000D02*
X117000Y-1216500D01*
X102000Y-1138960D01*
X87000Y-1216500D01*
X98890Y-1231000D01*
G03X105110I3110J9670D01*
G37*
G36*
G01X155110D02*
X167000Y-1216500D01*
X152000Y-1138960D01*
X137000Y-1216500D01*
X148890Y-1231000D01*
G03X155110I3110J9670D01*
G37*
G36*
G01X158750Y-1438910D02*
Y-1460500D01*
X192300Y-1462300D01*
X190500Y-1428750D01*
X168910D01*
G03X158750Y-1438910I0J-10160D01*
G37*
G36*
G01X55110Y-1231000D02*
X67000Y-1216500D01*
X52000Y-1138960D01*
X37000Y-1216500D01*
X48890Y-1231000D01*
G03X55110I3110J9670D01*
G37*
G36*
G01X205110D02*
X217000Y-1216500D01*
X202000Y-1138960D01*
X187000Y-1216500D01*
X198890Y-1231000D01*
G03X205110I3110J9670D01*
G37*
G36*
G01X627820Y-1686190D02*
X585510Y-1728500D01*
X635000Y-1780540D01*
X684490Y-1728500D01*
X642180Y-1686190D01*
G03X627820I-7180J-7180D01*
G37*
G36*
G01X255110Y-1231000D02*
X267000Y-1216500D01*
X252000Y-1138960D01*
X237000Y-1216500D01*
X248890Y-1231000D01*
G03X255110I3110J9670D01*
G37*
G36*
G01X305110D02*
X317000Y-1216500D01*
X302000Y-1138960D01*
X287000Y-1216500D01*
X298890Y-1231000D01*
G03X305110I3110J9670D01*
G37*
G36*
G01X344180Y-1481100D02*
X328920Y-1496370D01*
X351360Y-1521360D01*
X373800Y-1496370D01*
X358540Y-1481100D01*
G03X344180I-7180J-7190D01*
G37*
G36*
G01X977900Y-1326300D02*
X966660Y-1336400D01*
X963850Y-1336100D01*
G03X961420Y-1335970I-2438J-22801D01*
G01X910600D01*
G03X887820Y-1356250I0J-22934D01*
G01X887140Y-1361420D01*
X624380D01*
X500010Y-1237050D01*
X503260Y-1229220D01*
X529720D01*
Y-1088700D01*
X537550Y-1085450D01*
X560940Y-1108840D01*
X560950D01*
X575330Y-1123220D01*
X977900D01*
Y-1135800D01*
X966660Y-1145900D01*
X963850Y-1145600D01*
G03X961420Y-1145470I-2438J-22801D01*
G01X910600D01*
G03X887670Y-1168400I0J-22930D01*
G01Y-1244600D01*
G03X910600Y-1267530I22930J0D01*
G01X961420D01*
G03X963850Y-1267400I-8J22931D01*
G01X966660Y-1267100D01*
X977900Y-1277200D01*
Y-1326300D01*
G37*
G36*
G01X553360Y-1135080D02*
X516990Y-1098140D01*
X498820Y-1141500D01*
X516990Y-1184860D01*
X553360Y-1147920D01*
G03Y-1135080I-10960J6420D01*
G37*
G36*
G01X455110Y-1231000D02*
X467000Y-1216500D01*
X452000Y-1138960D01*
X437000Y-1216500D01*
X448890Y-1231000D01*
G03X455110I3110J9670D01*
G37*
G36*
G01X168910Y-793750D02*
X190500D01*
X192300Y-760200D01*
X158750Y-762000D01*
Y-783590D01*
G03X168910Y-793750I10160J0D01*
G37*
G36*
G01X232410Y-857250D02*
X254000D01*
X255800Y-823700D01*
X222250Y-825500D01*
Y-847090D01*
G03X232410Y-857250I10160J0D01*
G37*
G36*
G01X279780Y-959680D02*
X295050Y-974940D01*
X320040Y-952500D01*
X295050Y-930060D01*
X279780Y-945320D01*
G03Y-959680I7190J-7180D01*
G37*
G36*
G01X373820Y-787780D02*
X358560Y-803050D01*
X381000Y-828040D01*
X403440Y-803050D01*
X388180Y-787780D01*
G03X373820I-7180J-7190D01*
G37*
G36*
G01X48890Y88000D02*
X37000Y73500D01*
X52000Y-4040D01*
X67000Y73500D01*
X55110Y88000D01*
G03X48890I-3110J-9670D01*
G37*
G36*
G01X198890D02*
X187000Y73500D01*
X202000Y-4040D01*
X217000Y73500D01*
X205110Y88000D01*
G03X198890I-3110J-9670D01*
G37*
G36*
G01X248890D02*
X237000Y73500D01*
X252000Y-4040D01*
X267000Y73500D01*
X255110Y88000D01*
G03X248890I-3110J-9670D01*
G37*
G36*
G01X398890D02*
X387000Y73500D01*
X402000Y-4040D01*
X417000Y73500D01*
X405110Y88000D01*
G03X398890I-3110J-9670D01*
G37*
G36*
G01X448890D02*
X437000Y73500D01*
X452000Y-4040D01*
X467000Y73500D01*
X455110Y88000D01*
G03X448890I-3110J-9670D01*
G37*
G36*
G01X148890D02*
X137000Y73500D01*
X152000Y-4040D01*
X167000Y73500D01*
X155110Y88000D01*
G03X148890I-3110J-9670D01*
G37*
G36*
G01X98890D02*
X87000Y73500D01*
X102000Y-4040D01*
X117000Y73500D01*
X105110Y88000D01*
G03X98890I-3110J-9670D01*
G37*
G36*
G01X298890D02*
X287000Y73500D01*
X302000Y-4040D01*
X317000Y73500D01*
X305110Y88000D01*
G03X298890I-3110J-9670D01*
G37*
G36*
G01X348890D02*
X337000Y73500D01*
X352000Y-4040D01*
X367000Y73500D01*
X355110Y88000D01*
G03X348890I-3110J-9670D01*
G37*
G36*
G01X105410Y-476250D02*
X127000D01*
X128800Y-442700D01*
X95250Y-444500D01*
Y-466090D01*
G03X105410Y-476250I10160J0D01*
G37*
G36*
G01X25780Y437320D02*
X41050Y422060D01*
X66040Y444500D01*
X41050Y466940D01*
X25780Y451680D01*
G03Y437320I7190J-7180D01*
G37*
G36*
G01X285750Y422910D02*
Y444500D01*
X252200Y446300D01*
X254000Y412750D01*
X275590D01*
G03X285750Y422910I0J10160D01*
G37*
G36*
G01X324680Y470280D02*
X339940Y485550D01*
X317500Y510540D01*
X295060Y485550D01*
X310320Y470280D01*
G03X324680I7180J7190D01*
G37*
G36*
G01X621530Y2117520D02*
X585510Y2081500D01*
X635000Y2027240D01*
X684490Y2081500D01*
X648470Y2117520D01*
G03X621530I-13470J-13470D01*
G37*
G36*
G01X946160Y-2620000D02*
X1016000D01*
X1017800Y-2538200D01*
X936000Y-2540000D01*
Y-2609840D01*
G03X946160Y-2620000I10160J0D01*
G37*
G36*
G01X1180720Y-1961320D02*
X1165450Y-1946060D01*
X1140460Y-1968500D01*
X1165450Y-1990940D01*
X1180720Y-1975680D01*
G03Y-1961320I-7190J7180D01*
G37*
G36*
G01X881820Y-1686190D02*
X839510Y-1728500D01*
X889000Y-1780540D01*
X938490Y-1728500D01*
X896180Y-1686190D01*
G03X881820I-7180J-7180D01*
G37*
G36*
G01X1174750Y-1799590D02*
Y-1778000D01*
X1141200Y-1776200D01*
X1143000Y-1809750D01*
X1164590D01*
G03X1174750Y-1799590I0J10160D01*
G37*
G36*
G01X1028700Y-1546860D02*
Y-1587500D01*
X1081300Y-1589300D01*
X1079500Y-1536700D01*
X1038860D01*
G03X1028700Y-1546860I0J-10160D01*
G37*
G36*
G01X1191860Y-1514610D02*
X1133070Y-1455860D01*
X1137570Y-1451360D01*
Y-1451350D01*
G03X1144330Y-1435100I-16167J16257D01*
G01Y-1358900D01*
G03X1121400Y-1335970I-22930J0D01*
G01X1070600D01*
G03X1068150Y-1336100I-12J-22931D01*
G01X1065340Y-1336400D01*
X1054100Y-1326300D01*
Y-1277200D01*
X1065340Y-1267100D01*
X1068150Y-1267400D01*
G03X1070600Y-1267530I2438J22801D01*
G01X1121400D01*
G03X1144330Y-1244600I0J22930D01*
G01Y-1168400D01*
G03X1121400Y-1145470I-22930J0D01*
G01X1070600D01*
G03X1068150Y-1145600I-12J-22931D01*
G01X1065340Y-1145900D01*
X1054100Y-1135800D01*
Y-1123220D01*
X1580900D01*
X1805920Y-1348240D01*
Y-1744520D01*
X1798090Y-1747770D01*
X1721340Y-1671020D01*
Y-1655950D01*
X1667390Y-1602000D01*
X1668300Y-1598490D01*
G03X1534060Y-1532990I-73799J19062D01*
G01X1532300Y-1535280D01*
X1516950Y-1536210D01*
X1514930Y-1534140D01*
G03X1400640Y-1540310I-54431J-53358D01*
G01X1397850Y-1543860D01*
X1377970Y-1536970D01*
Y-1369430D01*
G03X1289030I-44470J35930D01*
G01Y-1527850D01*
X1270510Y-1535690D01*
X1267490Y-1532760D01*
G03X1195370Y-1513710I-53036J-54742D01*
G01X1191860Y-1514610D01*
G37*
G36*
G01X786500Y-743390D02*
X772000Y-731500D01*
X694460Y-746500D01*
X772000Y-761500D01*
X786500Y-749610D01*
G03Y-743390I-9670J3110D01*
G37*
G36*
G01Y-693390D02*
X772000Y-681500D01*
X694460Y-696500D01*
X772000Y-711500D01*
X786500Y-699610D01*
G03Y-693390I-9670J3110D01*
G37*
G36*
G01Y-643390D02*
X772000Y-631500D01*
X694460Y-646500D01*
X772000Y-661500D01*
X786500Y-649610D01*
G03Y-643390I-9670J3110D01*
G37*
G36*
G01Y-893390D02*
X772000Y-881500D01*
X694460Y-896500D01*
X772000Y-911500D01*
X786500Y-899610D01*
G03Y-893390I-9670J3110D01*
G37*
G36*
G01Y-793390D02*
X772000Y-781500D01*
X694460Y-796500D01*
X772000Y-811500D01*
X786500Y-799610D01*
G03Y-793390I-9670J3110D01*
G37*
G36*
G01Y-843390D02*
X772000Y-831500D01*
X694460Y-846500D01*
X772000Y-861500D01*
X786500Y-849610D01*
G03Y-843390I-9670J3110D01*
G37*
G36*
G01Y-943390D02*
X772000Y-931500D01*
X694460Y-946500D01*
X772000Y-961500D01*
X786500Y-949610D01*
G03Y-943390I-9670J3110D01*
G37*
G36*
G01Y-593390D02*
X772000Y-581500D01*
X694460Y-596500D01*
X772000Y-611500D01*
X786500Y-599610D01*
G03Y-593390I-9670J3110D01*
G37*
G36*
G01Y-243390D02*
X772000Y-231500D01*
X694460Y-246500D01*
X772000Y-261500D01*
X786500Y-249610D01*
G03Y-243390I-9670J3110D01*
G37*
G36*
G01Y-493390D02*
X772000Y-481500D01*
X694460Y-496500D01*
X772000Y-511500D01*
X786500Y-499610D01*
G03Y-493390I-9670J3110D01*
G37*
G36*
G01Y-443390D02*
X772000Y-431500D01*
X694460Y-446500D01*
X772000Y-461500D01*
X786500Y-449610D01*
G03Y-443390I-9670J3110D01*
G37*
G36*
G01X1170580Y-8980D02*
X1184060Y-22440D01*
X1209680Y0D01*
X1184060Y22440D01*
X1170580Y8980D01*
G03Y-8980I8980J-8980D01*
G37*
G36*
G01X786500Y-293390D02*
X772000Y-281500D01*
X694460Y-296500D01*
X772000Y-311500D01*
X786500Y-299610D01*
G03Y-293390I-9670J3110D01*
G37*
G36*
G01X786840Y-194580D02*
X772000Y-181500D01*
X693820Y-196500D01*
X772000Y-211500D01*
X786840Y-198420D01*
G03Y-194580I-12550J1920D01*
G37*
G36*
G01X786500Y-393390D02*
X772000Y-381500D01*
X694460Y-396500D01*
X772000Y-411500D01*
X786500Y-399610D01*
G03Y-393390I-9670J3110D01*
G37*
G36*
G01Y-343390D02*
X772000Y-331500D01*
X694460Y-346500D01*
X772000Y-361500D01*
X786500Y-349610D01*
G03Y-343390I-9670J3110D01*
G37*
G36*
G01Y-543390D02*
X772000Y-531500D01*
X694460Y-546500D01*
X772000Y-561500D01*
X786500Y-549610D01*
G03Y-543390I-9670J3110D01*
G37*
G36*
G01X818320Y291720D02*
X803060Y276450D01*
X825500Y251460D01*
X847940Y276450D01*
X832680Y291720D01*
G03X818320I-7180J-7190D01*
G37*
G36*
G01X896180Y406780D02*
X911440Y422050D01*
X889000Y447040D01*
X866560Y422050D01*
X881820Y406780D01*
G03X896180I7180J7190D01*
G37*
G36*
G01X923300Y285750D02*
X901710D01*
X899910Y252200D01*
X933460Y254000D01*
Y275590D01*
G03X923300Y285750I-10160J0D01*
G37*
G36*
G01X1557270Y337590D02*
X1509260Y289580D01*
X998690D01*
X995440Y297410D01*
X1000780Y302750D01*
Y399750D01*
G03X938120Y494850I-35569J44757D01*
G03X927100Y487120I27092J-50342D01*
G03X915090Y495370I-38111J-42613D01*
G03X846520Y406230I-26101J-50865D01*
G01X846290Y397490D01*
X807930Y359130D01*
X800100Y362380D01*
Y588460D01*
X849110Y637470D01*
X867480D01*
G03X890210Y660400I-201J22930D01*
G01Y736600D01*
G03X886040Y749800I-22947J10D01*
G01X884800Y751560D01*
X885150Y760000D01*
X917070Y791920D01*
X1026500D01*
G03X1029590Y792050I51J35582D01*
G01X1032370Y792290D01*
X1043380Y782190D01*
Y772500D01*
G03X1053780Y746330I38126J0D01*
G01Y734780D01*
X1075960D01*
X1076380Y734720D01*
G03X1086620I5120J37780D01*
G01X1087040Y734780D01*
X1359220D01*
Y782530D01*
G03X1359020Y785840I-27721J-14D01*
G01X1358640Y788910D01*
X1370090Y800360D01*
X1373160Y799980D01*
G03X1376470Y799780I3324J27521D01*
G01X1424220D01*
Y841920D01*
X1448430D01*
X1528980Y761370D01*
X1529060Y752490D01*
G03X1522670Y736600I16543J-15882D01*
G01Y660400D01*
G03X1545600Y637470I22930J0D01*
G01X1596400D01*
G03X1619330Y660400I0J22930D01*
G01Y736600D01*
G03X1609350Y755530I-22943J0D01*
G01X1606580Y757420D01*
Y784410D01*
X1570850Y820140D01*
X1574100Y827970D01*
X1591480D01*
G03X1614210Y850900I-201J22930D01*
G01Y927100D01*
G03X1591480Y950030I-22931J0D01*
G01X1571600D01*
X1568350Y957860D01*
X1604080Y993590D01*
Y1022370D01*
G03X1614210Y1041400I-12810J19030D01*
G01Y1117600D01*
G03X1591480Y1140530I-22931J0D01*
G01X1540610D01*
Y1176590D01*
X1572990Y1208970D01*
X1593570D01*
X1593900Y1203580D01*
G03X1611430Y1165240I57096J2928D01*
G01X1612880Y1163810D01*
Y1161530D01*
X1687790Y1086620D01*
Y1041400D01*
G03X1710520Y1018470I22931J0D01*
G01X1756480D01*
G03X1779210Y1041400I-201J22930D01*
G01Y1117600D01*
G03X1756480Y1140530I-22931J0D01*
G01X1741700D01*
X1701970Y1180260D01*
X1703640Y1184200D01*
G03X1708100Y1203580I-52636J22317D01*
G01X1708430Y1208970D01*
X1756400D01*
G03X1778880Y1227360I0J22935D01*
G01X1779890Y1231900D01*
X1869420D01*
Y760210D01*
X1787160Y677950D01*
X1779330Y681200D01*
Y736600D01*
G03X1756400Y759530I-22930J0D01*
G01X1705600D01*
G03X1682670Y736600I0J-22930D01*
G01Y660400D01*
G03X1682680Y659870I22927J167D01*
G01X1682740Y657150D01*
X1654230Y628640D01*
X1651560Y628670D01*
G03X1615670Y526550I-563J-57169D01*
G01X1617910Y524790D01*
X1618820Y509610D01*
X1525790Y416580D01*
X1251250D01*
G03Y345420I-44750J-35580D01*
G01X1554020D01*
X1557270Y337590D01*
G37*
G36*
G01X726080Y880020D02*
X739560Y866560D01*
X765180Y889000D01*
X739560Y911440D01*
X726080Y897980D01*
G03Y880020I8980J-8980D01*
G37*
G36*
G01Y689520D02*
X739560Y676060D01*
X765180Y698500D01*
X739560Y720940D01*
X726080Y707480D01*
G03Y689520I8980J-8980D01*
G37*
G36*
G01X2652260Y1750080D02*
X2210280Y1308100D01*
X1940580D01*
Y1411740D01*
X1856240Y1496080D01*
X1779740D01*
X1779010Y1501600D01*
G03X1756480Y1521530I-22733J-2999D01*
G01X1710520D01*
G03X1687790Y1498600I201J-22930D01*
G01Y1422400D01*
G03X1710520Y1399470I22931J0D01*
G01X1756480D01*
G03X1779010Y1419400I-203J22929D01*
G01X1779740Y1424920D01*
X1826760D01*
X1869420Y1382260D01*
Y1308100D01*
X1779890D01*
X1778780Y1313070D01*
G03X1756400Y1331030I-22380J-4964D01*
G01X1705600D01*
G03X1683220Y1313070I0J-22924D01*
G01X1682110Y1308100D01*
X1619890D01*
X1618780Y1313070D01*
G03X1596400Y1331030I-22380J-4964D01*
G01X1571600D01*
X1568350Y1338860D01*
X1604080Y1374590D01*
Y1403370D01*
G03X1614210Y1422400I-12810J19030D01*
G01Y1498600D01*
G03X1591480Y1521530I-22931J0D01*
G01X1545520D01*
G03X1522790Y1498600I201J-22930D01*
G01Y1422400D01*
G03X1528210Y1407590I22944J0D01*
G01X1527850Y1399000D01*
X1436950Y1308100D01*
X1335390D01*
X1334280Y1313070D01*
G03X1324580Y1327210I-22387J-4960D01*
G01Y1403370D01*
G03X1334710Y1422400I-12810J19030D01*
G01Y1498600D01*
G03X1311980Y1521530I-22931J0D01*
G01X1266020D01*
G03X1243290Y1498600I201J-22930D01*
G01Y1422400D01*
G03X1253420Y1403370I22940J0D01*
G01Y1358410D01*
X1250920Y1355910D01*
Y1328920D01*
X1248150Y1327030D01*
G03X1238720Y1313070I12958J-18918D01*
G01X1237610Y1308100D01*
X1175390D01*
X1174280Y1313070D01*
G03X1151900Y1331030I-22380J-4964D01*
G01X1101100D01*
G03X1078720Y1313070I0J-22924D01*
G01X1077610Y1308100D01*
X1060890D01*
X1057640Y1315930D01*
X1141180Y1399470D01*
X1146980D01*
G03X1169710Y1422400I-201J22930D01*
G01Y1458640D01*
X1317600Y1606530D01*
X1478920D01*
X1605920Y1733530D01*
X2367920D01*
X2748920Y2114530D01*
X2860300D01*
X2867790Y2095480D01*
X2864630Y2092540D01*
G03X2921000Y1949280I56370J-60540D01*
G01Y1891820D01*
X2779260Y1750080D01*
X2652260D01*
G37*
G36*
G01X793430Y1283470D02*
X784440Y1292440D01*
X757240Y1270000D01*
X784440Y1247560D01*
X793430Y1256530D01*
G03Y1283470I-13470J13470D01*
G37*
G36*
G01X1511300Y-1628140D02*
Y-1587500D01*
X1458700Y-1585700D01*
X1460500Y-1638300D01*
X1501140D01*
G03X1511300Y-1628140I0J10160D01*
G37*
G36*
G01X1346970Y-1364930D02*
X1355940Y-1355940D01*
X1333500Y-1328740D01*
X1311060Y-1355940D01*
X1320030Y-1364930D01*
G03X1346970I13470J13470D01*
G37*
G36*
G01X1531180Y-609220D02*
X1546440Y-593950D01*
X1524000Y-568960D01*
X1501560Y-593950D01*
X1516820Y-609220D01*
G03X1531180I7180J7190D01*
G37*
G36*
G01X1375410Y-666750D02*
X1397000D01*
X1398800Y-633200D01*
X1365250Y-635000D01*
Y-656590D01*
G03X1375410Y-666750I10160J0D01*
G37*
G36*
G01X1232280Y-515180D02*
X1247550Y-530440D01*
X1272540Y-508000D01*
X1247550Y-485560D01*
X1232280Y-500820D01*
G03Y-515180I7190J-7180D01*
G37*
G36*
G01X1502070Y848760D02*
Y877500D01*
X1463170D01*
X1491910Y848760D01*
X1502070D01*
G37*
G36*
G01X1600050Y1962000D02*
X1651000D01*
X1654370Y2035370D01*
X1581000Y2032000D01*
Y1981050D01*
G03X1600050Y1962000I19050J0D01*
G37*
G36*
G01X1414960Y1950970D02*
X1446490Y1982500D01*
X1397000Y2038350D01*
X1347510Y1982500D01*
X1379040Y1950970D01*
G03X1414960I17960J17960D01*
G37*
G36*
G01X1873250Y-2082800D02*
Y-2095500D01*
X1908370Y-2098870D01*
X1905000Y-2063750D01*
X1892300D01*
G03X1873250Y-2082800I0J-19050D01*
G37*
G36*
G01X2327910Y-95250D02*
X2349500D01*
X2351300Y-61700D01*
X2317750Y-63500D01*
Y-85090D01*
G03X2327910Y-95250I10160J0D01*
G37*
G36*
G01X2575190Y-2674180D02*
X2617500Y-2716490D01*
X2669540Y-2667000D01*
X2617500Y-2617510D01*
X2575190Y-2659820D01*
G03Y-2674180I7180J-7180D01*
G37*
G36*
G01X2829190Y-2420180D02*
X2871500Y-2462490D01*
X2923540Y-2413000D01*
X2871500Y-2363510D01*
X2829190Y-2405820D01*
G03Y-2420180I7180J-7180D01*
G37*
G36*
G01X2575190D02*
X2617500Y-2462490D01*
X2669540Y-2413000D01*
X2617500Y-2363510D01*
X2575190Y-2405820D01*
G03Y-2420180I7180J-7180D01*
G37*
G36*
G01X2631770Y-325460D02*
X2676900Y-464950D01*
X2722870Y-394370D01*
X2749870Y-302950D01*
X2646910Y-303290D01*
G03X2631770Y-325460I3592J-18708D01*
G37*
G36*
G01X3494350Y886470D02*
X3471730Y909090D01*
X3474980Y916920D01*
X3771900D01*
Y-215900D01*
X2694970D01*
Y-177950D01*
X2695810Y-176490D01*
G03X2698830Y-165110I-19913J11375D01*
G01Y-83790D01*
X2762170D01*
Y-165100D01*
G03X2785100Y-188030I22930J0D01*
G01X2835900D01*
G03X2858830Y-165100I0J22930D01*
G01Y-127000D01*
X2887210D01*
X2922790Y-162580D01*
X3189740D01*
X3264490Y-87830D01*
X3268320Y-89280D01*
G03X3212720Y-33680I33680J89280D01*
G01X3214170Y-37510D01*
X3182830Y-68850D01*
X3175000Y-65600D01*
Y91420D01*
X3189740D01*
X3264490Y166170D01*
X3268320Y164720D01*
G03X3212720Y220320I33680J89280D01*
G01X3214170Y216490D01*
X3182830Y185150D01*
X3175000Y188400D01*
Y572900D01*
X3186780D01*
X3214170Y545510D01*
X3212720Y541680D01*
G03X3367690Y438790I89276J-33686D01*
G03X3268320Y597280I-65688J69211D01*
G01X3264490Y595830D01*
X3227280Y633040D01*
X3216260Y644060D01*
X3175000D01*
Y826110D01*
X3193420Y844530D01*
X3241300D01*
X3248790Y825480D01*
X3245630Y822540D01*
G03X3358370I56370J-60540D01*
G01X3355210Y825480D01*
X3362700Y844530D01*
X3410510D01*
X3457510Y797530D01*
X3505050D01*
X3506510Y796690D01*
G03X3517890Y793670I11375J19913D01*
G01X3594100D01*
G03X3617030Y816600I0J22930D01*
G01Y867400D01*
G03X3594100Y890330I-22930J0D01*
G01X3517890D01*
G03X3506510Y887310I-5J-22933D01*
G01X3505050Y886470D01*
X3494350D01*
G37*
G36*
G01X2830990Y2023020D02*
X2871510Y1982520D01*
X2924180Y2032000D01*
X2871510Y2081480D01*
X2830990Y2040980D01*
G03Y2023020I8980J-8980D01*
G37*
G36*
G01X2876400Y2343000D02*
X2921000D01*
X2925490Y2417490D01*
X2851000Y2413000D01*
Y2368400D01*
G03X2876400Y2343000I25400J0D01*
G37*
G36*
G01X2938960Y2585970D02*
X2970490Y2617500D01*
X2921000Y2673350D01*
X2871510Y2617500D01*
X2903040Y2585970D01*
G03X2938960I17960J17960D01*
G37*
G36*
G01X2903040Y2494030D02*
X2871510Y2462500D01*
X2921000Y2406650D01*
X2970490Y2462500D01*
X2938960Y2494030D01*
G03X2903040I-17960J-17960D01*
G37*
G36*
G01X2956190Y-7180D02*
X2998500Y-49490D01*
X3050540Y0D01*
X2998500Y49490D01*
X2956190Y7180D01*
G03Y-7180I7180J-7180D01*
G37*
G36*
G01X2988160Y438000D02*
X3048000D01*
X3049800Y509800D01*
X2978000Y508000D01*
Y448160D01*
G03X2988160Y438000I10160J0D01*
G37*
G36*
G01X3098950Y832000D02*
X3048000D01*
X3044630Y758630D01*
X3118000Y762000D01*
Y812950D01*
G03X3098950Y832000I-19050J0D01*
G37*
G36*
G01X3751810Y1985860D02*
X3771900Y1979140D01*
Y1028720D01*
X3365500D01*
Y1107420D01*
X3427260D01*
X3427940Y1102250D01*
G03X3450070Y1081980I22778J2652D01*
G03X3450520Y1081970I734J22917D01*
G01X3496480D01*
G03X3519210Y1104900I-201J22930D01*
G01Y1181100D01*
G03X3496480Y1204030I-22931J0D01*
G01X3450520D01*
G03X3450070Y1204020I284J-22927D01*
G03X3427940Y1183750I648J-22922D01*
G01X3427260Y1178580D01*
X3365500D01*
Y1361420D01*
X3427260D01*
X3427940Y1356250D01*
G03X3450070Y1335980I22778J2652D01*
G03X3450520Y1335970I734J22917D01*
G01X3496480D01*
G03X3519210Y1358900I-201J22930D01*
G01Y1435100D01*
G03X3496480Y1458030I-22931J0D01*
G01X3450520D01*
G03X3450070Y1458020I284J-22927D01*
G03X3427940Y1437750I648J-22922D01*
G01X3427260Y1432580D01*
X3365500D01*
Y1615420D01*
X3427260D01*
X3427940Y1610250D01*
G03X3450070Y1589980I22778J2652D01*
G03X3450520Y1589970I734J22917D01*
G01X3496480D01*
G03X3519210Y1612900I-201J22930D01*
G01Y1689100D01*
G03X3496480Y1712030I-22931J0D01*
G01X3450520D01*
G03X3450070Y1712020I284J-22927D01*
G03X3427940Y1691750I648J-22922D01*
G01X3427260Y1686580D01*
X3365500D01*
Y1727180D01*
X3386550D01*
X3606820Y1947450D01*
Y1964870D01*
X3624900Y1972980D01*
X3627970Y1970240D01*
G03X3749060Y1982210I55032J61760D01*
G01X3751810Y1985860D01*
G37*
G36*
G01X3392010Y770980D02*
X3351490Y811480D01*
X3298820Y762000D01*
X3351490Y712520D01*
X3392010Y753020D01*
G03Y770980I-8980J8980D01*
G37*
G36*
G01X2984500Y1587500D02*
Y1778000D01*
X3048000D01*
X3111500D01*
Y1807150D01*
X3254470D01*
X3256070Y1808750D01*
X3263900Y1805500D01*
Y1738590D01*
X3249250Y1729020D01*
X3246100Y1730400D01*
G03X3236890Y1732330I-9208J-21001D01*
G01X3181110D01*
G03X3158750Y1714500I-3J-22932D01*
G01X3111500D01*
Y1587500D01*
X2984500D01*
G37*
G36*
G01X3519010Y2421980D02*
X3478490Y2462480D01*
X3425820Y2413000D01*
X3478490Y2363520D01*
X3519010Y2404020D01*
G03Y2421980I-8980J8980D01*
G37*
G36*
G01X3369160Y1962000D02*
X3429000D01*
X3430800Y2033800D01*
X3359000Y2032000D01*
Y1972160D01*
G03X3369160Y1962000I10160J0D01*
G37*
G36*
G01X3115160D02*
X3175000D01*
X3176800Y2033800D01*
X3105000Y2032000D01*
Y1972160D01*
G03X3115160Y1962000I10160J0D01*
G37*
G36*
G01X3124050Y2343000D02*
X3175000D01*
X3178370Y2416370D01*
X3105000Y2413000D01*
Y2362050D01*
G03X3124050Y2343000I19050J0D01*
G37*
G36*
G01X3420020Y2503010D02*
X3379520Y2462490D01*
X3429000Y2409820D01*
X3478480Y2462490D01*
X3437980Y2503010D01*
G03X3420020I-8980J-8980D01*
G37*
G36*
G01X3851910Y-2127250D02*
X3873500D01*
X3875300Y-2093700D01*
X3841750Y-2095500D01*
Y-2117090D01*
G03X3851910Y-2127250I10160J0D01*
G37*
G36*
G01X3638400Y2343000D02*
X3683000D01*
X3687490Y2417490D01*
X3613000Y2413000D01*
Y2368400D01*
G03X3638400Y2343000I25400J0D01*
G37*
G36*
G01X3773010Y2421980D02*
X3732490Y2462480D01*
X3679820Y2413000D01*
X3732490Y2363520D01*
X3773010Y2404020D01*
G03Y2421980I-8980J8980D01*
G37*
G36*
G01X3592990Y2404020D02*
X3633510Y2363520D01*
X3686180Y2413000D01*
X3633510Y2462480D01*
X3592990Y2421980D01*
G03Y2404020I8980J-8980D01*
G37*
G36*
G01X3691980Y1941990D02*
X3732480Y1982510D01*
X3683000Y2035180D01*
X3633520Y1982510D01*
X3674020Y1941990D01*
G03X3691980I8980J8980D01*
G37*
G36*
G01X3674020Y2503010D02*
X3633520Y2462490D01*
X3683000Y2409820D01*
X3732480Y2462490D01*
X3691980Y2503010D01*
G03X3674020I-8980J-8980D01*
G37*
%LPC*%
G75*
G36*
G01X2660890Y-2049830D02*
X2605110D01*
G02X2582180Y-2026910I1J22931D01*
G01Y-1910090D01*
G02X2605110Y-1887170I22931J-11D01*
G01X2660890D01*
G02X2683820Y-1910090I-1J-22931D01*
G01Y-2026910D01*
G02X2660890Y-2049830I-22931J11D01*
G37*
G36*
G01X3109030Y-1908980D02*
G02X3086100Y-1931710I-22930J201D01*
G01X3009900D01*
G02X2986970Y-1908980I0J22931D01*
G01Y-1863020D01*
G02X2999540Y-1842770I22928J-206D01*
G01X3002430Y-1841300D01*
X3005070Y-1824750D01*
X2983920Y-1803600D01*
Y-1778720D01*
X2956780D01*
Y-1503280D01*
X3082220D01*
Y-1778720D01*
X3070760D01*
X3067510Y-1786550D01*
X3083580Y-1802620D01*
Y-1839760D01*
X3089100Y-1840490D01*
G02X3109030Y-1863020I-2999J-22733D01*
G01Y-1908980D01*
G37*
G36*
G01X-1398330Y215900D02*
Y292100D01*
G02X-1375400Y315030I22930J0D01*
G01X-1324600D01*
G02X-1301670Y292100I0J-22930D01*
G01Y215900D01*
G02X-1324600Y192970I-22930J0D01*
G01X-1375400D01*
G02X-1398330Y215900I0J22930D01*
G37*
G36*
G01X-1402330Y-775100D02*
Y-698900D01*
G02X-1379400Y-675970I22930J0D01*
G01X-1328600D01*
G02X-1305670Y-698900I0J-22930D01*
G01Y-775100D01*
G02X-1328600Y-798030I-22930J0D01*
G01X-1379400D01*
G02X-1402330Y-775100I0J22930D01*
G37*
G36*
G01Y-190100D02*
Y-113900D01*
G02X-1379400Y-90970I22930J0D01*
G01X-1328600D01*
G02X-1305670Y-113900I0J-22930D01*
G01Y-190100D01*
G02X-1328600Y-213030I-22930J0D01*
G01X-1379400D01*
G02X-1402330Y-190100I0J22930D01*
G37*
G36*
G01X-2184400Y887670D02*
X-2260600D01*
G02X-2283530Y910600I0J22930D01*
G01Y961400D01*
G02X-2260600Y984330I22930J0D01*
G01X-2184400D01*
G02X-2161470Y961400I0J-22930D01*
G01Y910600D01*
G02X-2184400Y887670I-22930J0D01*
G37*
G36*
G01X-2415470Y956480D02*
Y910520D01*
G02X-2438400Y887790I-22930J201D01*
G01X-2514600D01*
G02X-2537530Y910520I0J22931D01*
G01Y956480D01*
G02X-2514600Y979210I22930J-201D01*
G01X-2438400D01*
G02X-2415470Y956480I0J-22931D01*
G37*
G36*
G01X-823030Y-1718480D02*
Y-1672520D01*
G02X-800100Y-1649790I22930J-201D01*
G01X-723900D01*
G02X-700970Y-1672520I0J-22931D01*
G01Y-1718480D01*
G02X-723900Y-1741210I-22930J201D01*
G01X-800100D01*
G02X-823030Y-1718480I0J22931D01*
G37*
G36*
G01X-1329520Y-1331030D02*
X-1375480D01*
G02X-1398210Y-1308100I201J22930D01*
G01Y-1231900D01*
G02X-1375480Y-1208970I22931J0D01*
G01X-1329520D01*
G02X-1306790Y-1231900I-201J-22930D01*
G01Y-1308100D01*
G02X-1329520Y-1331030I-22931J0D01*
G37*
G36*
G01X252670Y1231900D02*
Y1308100D01*
G02X275600Y1331030I22930J0D01*
G01X326400D01*
G02X349330Y1308100I0J-22930D01*
G01Y1231900D01*
G02X326400Y1208970I-22930J0D01*
G01X275600D01*
G02X252670Y1231900I0J22930D01*
G37*
G36*
G01X405760Y1092150D02*
X409310Y1091200D01*
X416530Y1098420D01*
Y1219060D01*
X415690Y1220520D01*
G02X412670Y1231900I19911J11375D01*
G01Y1308100D01*
G02X435600Y1331030I22930J0D01*
G01X486400D01*
G02X509330Y1308100I0J-22930D01*
G01Y1231900D01*
G02X506310Y1220520I-22931J-5D01*
G01X505470Y1219060D01*
Y1061580D01*
X472200Y1028310D01*
X473150Y1024760D01*
G02X405760Y1092150I-92150J-24760D01*
G37*
G36*
G01X793670Y1739900D02*
Y1816100D01*
G02X816600Y1839030I22930J0D01*
G01X867400D01*
G02X890330Y1816100I0J-22930D01*
G01Y1739900D01*
G02X867400Y1716970I-22930J0D01*
G01X816600D01*
G02X793670Y1739900I0J22930D01*
G37*
G36*
G01X-288690Y-1382980D02*
X-289530Y-1384440D01*
Y-1647660D01*
X-326740Y-1684870D01*
X-325690Y-1700190D01*
X-323390Y-1701930D01*
G02X-425470Y-1693580I-57604J-76071D01*
G01Y-1657820D01*
X-378470Y-1610820D01*
Y-1384440D01*
X-379310Y-1382980D01*
G02X-382330Y-1371600I19911J11375D01*
G01Y-1295400D01*
G02X-359400Y-1272470I22930J0D01*
G01X-308600D01*
G02X-285670Y-1295400I0J-22930D01*
G01Y-1371600D01*
G02X-288690Y-1382980I-22931J-5D01*
G37*
G36*
G01X725210Y-2070100D02*
G02X702480Y-2093030I-22931J0D01*
G01X656520D01*
G02X633990Y-2073100I203J22929D01*
G01X633260Y-2067580D01*
X489250D01*
G02Y-1996420I-44750J35580D01*
G01X633260D01*
X633990Y-1990900D01*
G02X656520Y-1970970I22733J-2999D01*
G01X702480D01*
G02X725210Y-1993900I-201J-22930D01*
G01Y-2070100D01*
G37*
G36*
G01X984330Y38100D02*
Y-38100D01*
G02X961400Y-61030I-22930J0D01*
G01X910600D01*
G02X887670Y-38100I0J22930D01*
G01Y38100D01*
G02X910600Y61030I22930J0D01*
G01X961400D01*
G02X984330Y38100I0J-22930D01*
G37*
G36*
G01X1710520Y950030D02*
X1756480D01*
G02X1779210Y927100I-201J-22930D01*
G01Y850900D01*
G02X1756480Y827970I-22931J0D01*
G01X1710520D01*
G02X1687790Y850900I201J22930D01*
G01Y927100D01*
G02X1710520Y950030I22931J0D01*
G37*
G36*
G01X3594100Y633670D02*
X3517900D01*
G02X3494970Y656600I0J22930D01*
G01Y707400D01*
G02X3517900Y730330I22930J0D01*
G01X3594100D01*
G02X3617030Y707400I0J-22930D01*
G01Y656600D01*
G02X3594100Y633670I-22930J0D01*
G37*
G36*
G01X3661480Y1589970D02*
X3615520D01*
G02X3592790Y1612900I201J22930D01*
G01Y1689100D01*
G02X3615520Y1712030I22931J0D01*
G01X3661480D01*
G02X3684210Y1689100I-201J-22930D01*
G01Y1612900D01*
G02X3661480Y1589970I-22931J0D01*
G37*
G36*
G01Y1335970D02*
X3615520D01*
G02X3592790Y1358900I201J22930D01*
G01Y1435100D01*
G02X3615520Y1458030I22931J0D01*
G01X3661480D01*
G02X3684210Y1435100I-201J-22930D01*
G01Y1358900D01*
G02X3661480Y1335970I-22931J0D01*
G37*
G36*
G01Y1081970D02*
X3615520D01*
G02X3592790Y1104900I201J22930D01*
G01Y1181100D01*
G02X3615520Y1204030I22931J0D01*
G01X3661480D01*
G02X3684210Y1181100I-201J-22930D01*
G01Y1104900D01*
G02X3661480Y1081970I-22931J0D01*
G37*
G54D57*
X2519500Y-1541000D03*
Y-1391000D03*
Y-1241000D03*
Y-1091000D03*
Y-941000D03*
Y-791000D03*
Y-641000D03*
Y-491000D03*
G54D60*
X-2881500Y-1742000D03*
G54D58*
X3683000Y2667000D03*
X3429000D03*
X3937000Y2413000D03*
Y2667000D03*
X-1397000Y2032000D03*
X-127000Y-1778000D03*
G54D54*
X-4064000Y1994000D03*
G54D62*
X-2895600Y1270000D03*
X762000Y-2286000D03*
G54D55*
X-4400000Y2640000D03*
X4400000D03*
G54D61*
X-2320000Y508000D03*
G54D56*
X2869500Y-1641000D03*
X2719500D03*
X3769500D03*
X3619500D03*
X3469500D03*
X3319500D03*
X3169500D03*
X4519500D03*
X4369500D03*
X4219500D03*
X4069500D03*
X3919500D03*
X4069500Y-391000D03*
X4219500D03*
G54D59*
X4445000Y1714500D03*
%LPD*%
G75*
G36*
G01X-1383530Y1946480D02*
X-1347510Y1982500D01*
X-1397000Y2036760D01*
X-1446490Y1982500D01*
X-1410470Y1946480D01*
G03X-1383530I13470J13470D01*
G37*
G36*
G01X-135980Y-1687990D02*
X-176480Y-1728510D01*
X-127000Y-1781180D01*
X-77520Y-1728510D01*
X-118020Y-1687990D01*
G03X-135980I-8980J-8980D01*
G37*
G36*
G01X3519010Y2675980D02*
X3478490Y2716480D01*
X3425820Y2667000D01*
X3478490Y2617520D01*
X3519010Y2658020D01*
G03Y2675980I-8980J8980D01*
G37*
G36*
G01X3437980Y2576990D02*
X3478480Y2617510D01*
X3429000Y2670180D01*
X3379520Y2617510D01*
X3420020Y2576990D01*
G03X3437980I8980J8980D01*
G37*
G36*
G01X3846990Y2404020D02*
X3887510Y2363520D01*
X3940180Y2413000D01*
X3887510Y2462480D01*
X3846990Y2421980D01*
G03Y2404020I8980J-8980D01*
G37*
G36*
G01Y2658020D02*
X3887510Y2617520D01*
X3940180Y2667000D01*
X3887510Y2716480D01*
X3846990Y2675980D01*
G03Y2658020I8980J-8980D01*
G37*
G36*
G01X3945980Y2576990D02*
X3986480Y2617510D01*
X3937000Y2670180D01*
X3887520Y2617510D01*
X3928020Y2576990D01*
G03X3945980I8980J8980D01*
G37*
G36*
G01X3928020Y2503010D02*
X3887520Y2462490D01*
X3937000Y2409820D01*
X3986480Y2462490D01*
X3945980Y2503010D01*
G03X3928020I-8980J-8980D01*
G37*
G36*
G01X3691980Y2576990D02*
X3732480Y2617510D01*
X3683000Y2670180D01*
X3633520Y2617510D01*
X3674020Y2576990D01*
G03X3691980I8980J8980D01*
G37*
G36*
G01X3773010Y2675980D02*
X3732490Y2716480D01*
X3679820Y2667000D01*
X3732490Y2617520D01*
X3773010Y2658020D01*
G03Y2675980I-8980J8980D01*
G37*
G36*
G01X3592990Y2658020D02*
X3633510Y2617520D01*
X3686180Y2667000D01*
X3633510Y2716480D01*
X3592990Y2675980D01*
G03Y2658020I8980J-8980D01*
G37*
G54D10*
X-4144000Y-2349500D03*
X-3984000D03*
X-1194000Y-737000D03*
X-1354000D03*
X-1194000Y-152000D03*
X-1354000D03*
X-1190000Y254000D03*
X-1350000D03*
X-1190000Y1778000D03*
X-1350000D03*
X-588000Y190500D03*
X-174000Y-1333500D03*
X-334000D03*
X-428000Y190500D03*
X461000Y1270000D03*
X301000D03*
X1126500D03*
X842000Y1778000D03*
X682000D03*
X1286500Y1270000D03*
X2810500Y-127000D03*
X2650500D03*
G54D20*
X-2921000Y-571500D03*
X-1333500Y1587500D03*
X-952500Y444500D03*
X-1016000Y190500D03*
X-1079500Y952500D03*
X1214450Y-1587500D03*
X1079500D03*
X1460500D03*
X1594500Y-1579430D03*
G54D11*
X-4400000Y-2640000D03*
Y2640000D03*
X4400000Y-2640000D03*
Y2640000D03*
G54D12*
X-4216400Y-1778000D03*
X-3911600D03*
X-2895600Y1270000D03*
X-3200400D03*
X-1752600Y-2032000D03*
X-2057400D03*
X1270000Y-2286000D03*
Y-2540000D03*
X1016000Y-2286000D03*
Y-2540000D03*
X762000Y-2286000D03*
X4445000Y1206500D03*
Y1460500D03*
G54D21*
X-3098800Y2286000D03*
G54D30*
X-1187500Y-1270000D03*
X-1352500D03*
X844500Y-2794000D03*
X679500D03*
X1124000Y1460500D03*
X1289000D03*
X3473500Y1143000D03*
Y1651000D03*
Y1397000D03*
X3638500Y1143000D03*
Y1651000D03*
Y1397000D03*
G54D22*
X-2540000Y-2366000D03*
Y-2206000D03*
X-1206500Y-1858000D03*
Y-1698000D03*
X-762000Y-1096000D03*
Y-936000D03*
G54D40*
X1206500Y952500D03*
G54D13*
X-4381500Y-1905000D03*
Y-2159000D03*
X-4635500Y-1905000D03*
Y-2159000D03*
X-4381500Y-1143000D03*
Y-1397000D03*
X-4635500Y-1143000D03*
Y-1397000D03*
X-4381500Y-1651000D03*
X-4635500D03*
Y-698500D03*
Y-952500D03*
X-4127500D03*
X-4381500D03*
X-4127500Y-698500D03*
X-4381500D03*
X-4635500Y-190500D03*
Y-444500D03*
X-4127500D03*
X-4381500D03*
X-4127500Y-190500D03*
X-4381500D03*
Y571500D03*
Y63500D03*
X-4635500Y571500D03*
Y317500D03*
Y63500D03*
X-4381500Y317500D03*
Y1079500D03*
Y825500D03*
X-4635500Y1079500D03*
Y825500D03*
X-4381500Y2349500D03*
X-4635500D03*
X-4381500Y2095500D03*
Y1841500D03*
X-4635500Y2095500D03*
Y1841500D03*
X-4127500Y2349500D03*
Y2857500D03*
Y2603500D03*
X-3810000Y-2730500D03*
X-3556000D03*
X-4064000D03*
X-3619500Y-952500D03*
X-3873500D03*
X-3619500Y-698500D03*
X-3873500D03*
X-3619500Y-444500D03*
X-3873500D03*
X-3619500Y-190500D03*
X-3873500D03*
X-3619500Y2095500D03*
Y1841500D03*
Y2349500D03*
X-3873500D03*
X-3619500Y2857500D03*
Y2603500D03*
X-3873500Y2857500D03*
Y2603500D03*
X-3048000Y-2730500D03*
X-3302000D03*
X-2984500Y-1905000D03*
Y-2159000D03*
Y-1397000D03*
Y-1651000D03*
X-2794000Y-2730500D03*
X-2540000D03*
X-2730500Y-1905000D03*
X-2476500D03*
X-2730500Y-2159000D03*
X-2476500D03*
X-2730500Y-1397000D03*
X-2476500D03*
X-2730500Y-1651000D03*
X-2476500D03*
X-2667000Y-317500D03*
X-2413000D03*
X-2730500Y2095500D03*
X-2476500D03*
X-2730500Y1841500D03*
X-2476500D03*
X-2730500Y2857500D03*
X-2476500D03*
X-2730500Y2603500D03*
X-2476500D03*
X-1841500Y-2413000D03*
X-2286000Y-2730500D03*
X-2032000D03*
X-1778000D03*
X-1841500Y-1905000D03*
Y-2159000D03*
Y-1651000D03*
X-2222500Y-1397000D03*
X-2159000Y-762000D03*
X-1905000D03*
X-2159000Y-1016000D03*
X-1905000D03*
X-2159000Y-571500D03*
X-1905000D03*
X-2159000Y-63500D03*
X-1905000Y-317500D03*
X-2159000Y444500D03*
X-1905000D03*
X-2159000Y190500D03*
X-1905000D03*
X-2159000Y698500D03*
X-1905000D03*
X-2222500Y2095500D03*
Y1841500D03*
Y2857500D03*
Y2603500D03*
X-1333500Y-2413000D03*
X-1587500D03*
X-1333500Y-1905000D03*
X-1587500D03*
Y-2159000D03*
X-1333500Y-1651000D03*
X-1587500D03*
X-1397000Y-571500D03*
X-1651000D03*
Y-825500D03*
X-1397000Y-317500D03*
X-1651000D03*
X-1397000Y444500D03*
Y190500D03*
X-1651000Y444500D03*
Y190500D03*
X-698500Y-2730500D03*
X-635000Y-127000D03*
X-889000D03*
X-635000Y127000D03*
X-889000D03*
X-444500Y-2730500D03*
X-190500D03*
X-63500Y-1524000D03*
X0Y-571500D03*
X-198000Y-1023500D03*
X-127000Y-571500D03*
X0Y-190500D03*
X-254000Y-133670D03*
X-317500Y444500D03*
X-191380Y434680D03*
X-245340Y199160D03*
X-72350Y425870D03*
X-317500Y254000D03*
X0Y508000D03*
X63500Y-2730500D03*
X317500D03*
X508000Y-2159000D03*
X444500Y-2032000D03*
X127000Y-2159000D03*
X190500Y-1460500D03*
X351360Y-1518820D03*
X190500Y-762000D03*
X254000Y-825500D03*
X571500Y-635000D03*
X317500Y-952500D03*
X381000Y-825500D03*
X127000Y-444500D03*
X190500Y-508000D03*
X254000Y444500D03*
X63500D03*
X317500Y508000D03*
X1016000Y-2730500D03*
X1143000Y-1968500D03*
Y-1778000D03*
X762000Y-1167670D03*
X1206500Y0D03*
X1173390Y-127000D03*
X889000Y444500D03*
X825500Y254000D03*
X965200Y444500D03*
X901710Y254000D03*
X1206500Y381000D03*
X812800Y444500D03*
X1206500Y127000D03*
X762000Y698500D03*
Y889000D03*
Y1270000D03*
X1524000Y-2730500D03*
X1778000D03*
X1270000D03*
X1397000Y-1270000D03*
Y-1397000D03*
X1651000D03*
Y-1270000D03*
X1524000Y-1397000D03*
Y-1270000D03*
Y-1167670D03*
X1333500Y-1333500D03*
X1524000Y-571500D03*
X1397000Y-635000D03*
X1270000Y-508000D03*
X1651000Y571500D03*
X1333500D03*
X1651000Y1206500D03*
X2032000Y-2730500D03*
X1905000Y-2095500D03*
X2349500Y-63500D03*
X2667000Y-1143000D03*
X2921000D03*
X2667000Y-635000D03*
X2921000D03*
X2667000Y-889000D03*
X2921000D03*
X3175000Y-1143000D03*
X3429000D03*
X3175000Y-635000D03*
X3429000D03*
X3175000Y-889000D03*
X3429000D03*
X3873500Y-2095500D03*
X4000500D03*
X3746500D03*
X3937000Y-1143000D03*
X3683000D03*
X3937000Y-635000D03*
X3683000D03*
X3937000Y-889000D03*
X3683000D03*
X4000500Y0D03*
Y508000D03*
Y254000D03*
Y762000D03*
Y1778000D03*
Y1524000D03*
X3683000Y1270000D03*
X4000500Y2286000D03*
Y2032000D03*
X4191000Y-1143000D03*
Y-635000D03*
Y-889000D03*
X4254500Y0D03*
X4508500D03*
X4254500Y508000D03*
X4508500D03*
X4254500Y254000D03*
X4508500D03*
X4254500Y762000D03*
X4508500D03*
X4254500Y1778000D03*
Y1524000D03*
Y2286000D03*
X4508500D03*
X4254500Y2032000D03*
X4508500D03*
G54D31*
X-1177000Y724500D03*
X-1242000D03*
X-1307000D03*
X-1372000D03*
X-1437000D03*
Y1434500D03*
X-1372000D03*
X-1307000D03*
X-1242000D03*
X-1177000D03*
X-722000Y724500D03*
X-787000D03*
X-852000D03*
X-917000D03*
X-982000D03*
X-1047000D03*
X-1112000D03*
Y1434500D03*
X-1047000D03*
X-982000D03*
X-917000D03*
X-852000D03*
X-787000D03*
X-722000D03*
G54D50*
G01X-3984000Y-2349500D02*
X-3937000D01*
G01X-3984000D02*
Y-2269430D01*
G01X-3911600Y-1778000D02*
Y-1625600D01*
G01Y-1778000D02*
Y-1879600D01*
G01Y-1778000D02*
X-3746500D01*
G01X-2540000Y-1063000D02*
X-2366000D01*
G01X-2540000D02*
Y-889000D01*
G01Y-1063000D02*
X-2841000D01*
G01X-2476500Y933500D02*
X-2305070D01*
G01D02*
X-2302570Y936000D01*
G01D02*
X-2222500D01*
G01X-1354000Y-737000D02*
Y-655500D01*
G01Y-152000D02*
Y-233500D01*
G01X-1016000Y190500D02*
X-1079500Y254000D01*
X-1190000D01*
G01X-1112000Y1434500D02*
X-1177000D01*
G01X-1372000D02*
X-1437000D01*
G01X-1651000Y2032000D02*
X-1437000Y1818000D01*
Y1434500D01*
G01X-1333500Y1587500D02*
X-1307000Y1561000D01*
Y1434500D01*
G01X-1242000D02*
X-1307000D01*
G01X-1350000Y1778000D02*
Y1883240D01*
G01D02*
X-1397000Y1930240D01*
G01D02*
Y2032000D01*
G01D02*
Y2121070D01*
G01X-1486070Y2032000D02*
X-1397000D01*
G01D02*
X-1307930D01*
G01X-952500Y-899500D02*
X-836000D01*
G01X-762000Y-936000D02*
Y-825500D01*
G01X-952500Y444500D02*
X-982000Y474000D01*
Y724500D01*
G01X-1047000D02*
X-982000D01*
G01X-722000Y1434500D02*
X-787000D01*
G01X-722000D02*
X926500D01*
X1270000Y1778000D01*
X1397000D01*
X1651000Y2032000D01*
G01X381000D02*
Y1778000D01*
X254000Y1651000D01*
X-872260D01*
X-982000Y1541260D01*
Y1434500D01*
G01D02*
X-1047000D01*
G01X-381000Y2032000D02*
X-635000Y1778000D01*
X-889000D01*
X-1112000Y1555000D01*
Y1434500D01*
G01X-852000D02*
X-917000D01*
G01X-852000D02*
Y1587500D01*
G01X-334000Y-1333500D02*
Y-1629240D01*
X-381000Y-1676240D01*
Y-1778000D01*
G01X461000Y1270000D02*
Y1080000D01*
X381000Y1000000D01*
G01X635000Y2032000D02*
Y1930240D01*
X682000Y1883240D01*
Y1778000D01*
G01X3175000Y2413000D02*
X2921000Y2159000D01*
X2730500D01*
X2349500Y1778000D01*
X1587500D01*
X1460500Y1651000D01*
X1299180D01*
X1124000Y1475820D01*
Y1460500D01*
G01X762000Y1270000D02*
X948820D01*
X1124000Y1445180D01*
Y1460500D01*
G01X635000Y2032000D02*
Y2286000D01*
G01X1905000Y-2095500D02*
X1587500Y-1778000D01*
X1460500D01*
X1333500Y-1651000D01*
Y-1333500D01*
G01X2719500Y-391000D02*
X2650500Y-322000D01*
G01D02*
Y-127000D01*
G01X3048000Y762000D02*
X3175000Y889000D01*
X3428930D01*
X3475930Y842000D01*
X3556000D01*
G54D41*
X1026500Y827500D03*
Y877500D03*
Y927500D03*
Y977500D03*
Y1027500D03*
Y1077500D03*
G54D23*
X-2540000Y-1063000D03*
Y47000D03*
G54D32*
X-762000Y-1860500D03*
Y-1695500D03*
G54D14*
X-4000500Y-584000D03*
G54D51*
G01X-1871000Y-1460500D02*
Y-1270000D01*
G01X-1352500D02*
X-1460500D01*
G01X-1372000Y724500D02*
X-1437000D01*
G01D02*
Y889000D01*
G01X-952500Y1841500D02*
X-1016000Y1778000D01*
X-1190000D01*
G01X-722000Y724500D02*
Y1119500D01*
G01X-635000Y2032000D02*
Y1905000D01*
G01X1397000Y2032000D02*
Y1905000D01*
G01X2231820Y2276680D02*
X2784050D01*
X2848410Y2341040D01*
X2849040D01*
X2921000Y2413000D01*
G01D02*
Y2667000D01*
G01X3110490Y1778000D02*
X3365500D01*
X3556000Y1968500D01*
Y2286000D01*
X3683000Y2413000D01*
G01X3014000Y1651000D02*
Y1748500D01*
G01X3175000Y2413000D02*
Y2667000D01*
G54D33*
X-952500Y-1079500D03*
Y-899500D03*
G54D15*
X-4340500Y366000D03*
X-4170500D03*
X-4000500D03*
X-3830500D03*
X-3660500D03*
G54D24*
X-2320000Y508000D03*
X-2760000D03*
G54D42*
X1081500Y1132500D03*
X1131500D03*
X1181500D03*
X1231500D03*
X1281500D03*
X1331500D03*
G54D52*
G01X-3660500Y366000D02*
X-3507500D01*
G01X381000Y-2476500D02*
Y-2730500D01*
G01X762000Y-2286000D02*
Y-2540000D01*
G54D16*
X-4064000Y1054000D03*
Y1524000D03*
Y1994000D03*
G54D43*
X1181500Y772500D03*
X1131500D03*
X1081500D03*
X1331500D03*
X1281500D03*
X1231500D03*
G54D34*
X-889000Y-639940D03*
Y-269940D03*
G54D25*
X-2476500Y1098500D03*
Y933500D03*
Y1606500D03*
Y1441500D03*
X-1206500Y-362000D03*
Y-527000D03*
X3048000Y-1886000D03*
Y-2051000D03*
G54D53*
G01X-4000500Y-584000D02*
X-4623000D01*
G54D17*
X-3111500Y-2322000D03*
G54D26*
X-2489200Y2311400D03*
G54D35*
X-443000Y-1141500D03*
X697000Y-1500D03*
G54D44*
X1386500Y1077500D03*
Y1027500D03*
Y977500D03*
Y927500D03*
Y877500D03*
Y827500D03*
G54D45*
X2869500Y-1641000D03*
X2719500D03*
Y-391000D03*
X2869500D03*
X3469500Y-1641000D03*
X3319500D03*
X3169500D03*
X3019500D03*
Y-391000D03*
X3169500D03*
X3319500D03*
X3469500D03*
X4069500Y-1641000D03*
X3919500D03*
X3769500D03*
X3619500D03*
Y-391000D03*
X3769500D03*
X3919500D03*
X4069500D03*
X4519500Y-1641000D03*
X4369500D03*
X4219500D03*
Y-391000D03*
X4369500D03*
X4519500D03*
G54D27*
X-1871000Y-1460500D03*
X-2066000D03*
G54D18*
X-3341500Y-1742000D03*
X-3111500D03*
X-2881500D03*
G54D36*
X2000Y-1141500D03*
X-48000D03*
X-98000D03*
X-148000D03*
X-198000D03*
X-248000D03*
Y-1500D03*
X-198000D03*
X-148000D03*
X-98000D03*
X-48000D03*
X2000D03*
X502000Y-1141500D03*
X452000D03*
X402000D03*
X352000D03*
X302000D03*
X252000D03*
X202000D03*
X152000D03*
X102000D03*
X52000D03*
Y-1500D03*
X102000D03*
X152000D03*
X202000D03*
X252000D03*
X302000D03*
X352000D03*
X402000D03*
X452000D03*
X502000D03*
G54D19*
X-3382000Y-1460500D03*
X-3222000D03*
X-3128000Y508000D03*
X-2968000D03*
X936000Y-1206500D03*
X1096000D03*
X936000Y-1397000D03*
X1096000D03*
X936000Y0D03*
X1096000D03*
X936000Y-190500D03*
X1096000D03*
X682000Y1079500D03*
X842000D03*
X1571000Y698500D03*
X1731000D03*
X1571000Y1270000D03*
X1731000D03*
G54D46*
X2633000Y-1968500D03*
X2828000D03*
X3014000Y1143000D03*
X3209000D03*
X3014000Y1651000D03*
X3209000D03*
X3014000Y1397000D03*
X3209000D03*
G54D28*
X-2222500Y1096000D03*
Y936000D03*
X3556000Y842000D03*
Y682000D03*
G54D37*
X-443000Y-946500D03*
Y-896500D03*
Y-846500D03*
Y-796500D03*
Y-746500D03*
Y-696500D03*
Y-646500D03*
Y-596500D03*
Y-546500D03*
Y-496500D03*
Y-446500D03*
Y-396500D03*
Y-346500D03*
Y-296500D03*
Y-246500D03*
Y-196500D03*
X697000Y-596500D03*
Y-646500D03*
Y-696500D03*
Y-746500D03*
Y-796500D03*
Y-846500D03*
Y-896500D03*
Y-946500D03*
Y-196500D03*
Y-246500D03*
Y-296500D03*
Y-346500D03*
Y-396500D03*
Y-446500D03*
Y-496500D03*
Y-546500D03*
G54D38*
X762000Y-2540000D03*
X4445000Y1714500D03*
G54D29*
X-1304500Y-2738000D03*
Y-2088000D03*
X-1143000Y2032000D03*
X-1397000D03*
X-1651000D03*
X-854500Y-2738000D03*
Y-2088000D03*
X-635000Y2032000D03*
X-889000D03*
X-127000Y-2476500D03*
X-381000D03*
X-127000Y-1778000D03*
X-381000D03*
Y1000000D03*
X-127000D03*
X-381000Y2032000D03*
X381000Y-2476500D03*
X127000D03*
X635000Y-1778000D03*
X381000D03*
X127000D03*
Y1000000D03*
X381000D03*
X635000Y2032000D03*
X381000D03*
X889000Y-1778000D03*
X1143000Y2032000D03*
X889000D03*
X1651000D03*
X1397000D03*
X2921000Y-2667000D03*
X2667000D03*
X2921000Y-2413000D03*
X2667000D03*
X2921000Y2413000D03*
X2667000D03*
X2921000Y2032000D03*
Y2667000D03*
X2667000D03*
X3429000Y-2667000D03*
X3175000D03*
X3429000Y-2413000D03*
X3175000D03*
X3302000Y0D03*
X3048000D03*
X3302000Y254000D03*
Y508000D03*
X3048000Y254000D03*
Y508000D03*
X3302000Y762000D03*
X3048000D03*
X3429000Y2413000D03*
X3175000D03*
X3429000Y2032000D03*
X3175000D03*
X3429000Y2667000D03*
X3175000D03*
X3937000Y-2667000D03*
X3683000D03*
X3937000Y-2413000D03*
X3683000D03*
X3937000Y2413000D03*
X3683000D03*
Y2032000D03*
X3937000Y2667000D03*
X3683000D03*
G54D47*
X2519500Y-1541000D03*
Y-1391000D03*
Y-1241000D03*
Y-1091000D03*
Y-941000D03*
Y-791000D03*
Y-641000D03*
Y-491000D03*
G54D48*
G01X-2476500Y1441500D02*
Y1098500D01*
G01X-2222500Y1096000D02*
X-2402830D01*
X-2405330Y1098500D01*
X-2476500D01*
G01X-2222500Y1096000D02*
X-1988820D01*
X-1988800Y1095980D01*
X-1985010D01*
X-1984990Y1095960D01*
X-1858020D01*
X-1793260Y1031200D01*
Y840760D01*
X-1714500Y762000D01*
Y-762000D01*
X-1651000Y-825500D01*
G01X-1206500Y-1858000D02*
X-762000D01*
Y-1860500D01*
G01X-1206500Y-1270000D02*
X-1187500D01*
G01X-889000Y-639940D02*
X-1109640D01*
X-1194000Y-724300D01*
G01D02*
Y-737000D01*
G01X-1206500Y-527000D02*
Y-653330D01*
X-1194000Y-665830D01*
Y-724300D01*
G01X-889000Y-269940D02*
X-1088760D01*
X-1194000Y-164700D01*
G01D02*
Y-152000D01*
G01X-1206500Y-362000D02*
Y-235670D01*
X-1194000Y-223170D01*
Y-164700D01*
G01X-98000Y-1500D02*
Y230140D01*
X-231080Y363220D01*
X-998210D01*
X-1177000Y542010D01*
Y724500D01*
G01X-148000Y-1500D02*
Y222660D01*
X-242840Y317500D01*
X-1015470D01*
X-1242000Y544030D01*
Y724500D01*
G01X-1307000D02*
Y551550D01*
X-1032310Y276860D01*
X-394980D01*
X-372120Y254000D01*
X-317500D01*
G01X-762000Y-1860500D02*
X-777320D01*
X-854500Y-1937680D01*
Y-2088000D01*
G01X-127000Y-2476500D02*
Y-2413000D01*
X-612140Y-1927860D01*
Y-1281880D01*
X-523480Y-1193220D01*
Y-1108150D01*
X-476350Y-1061020D01*
X-391280D01*
X-374250Y-1043990D01*
Y-1015250D01*
X-443000Y-946500D01*
G01X127000Y-2476500D02*
X0Y-2349500D01*
X-133020D01*
X-571500Y-1911020D01*
Y-1298720D01*
X-494760Y-1221980D01*
X-409650D01*
X-362520Y-1174850D01*
Y-1089740D01*
X-345510Y-1072730D01*
X-316770D01*
X-248000Y-1141500D01*
G01X-443000Y-446500D02*
X-660560D01*
X-854000Y-639940D01*
X-889000D01*
G01Y-269940D02*
X-854000D01*
X-727440Y-396500D01*
X-443000D01*
G01X152000Y-1500D02*
Y292500D01*
X118110Y326390D01*
Y516870D01*
X-10Y635000D01*
X-381000D01*
X-508000Y508000D01*
X-762000D01*
X-787000Y533000D01*
Y724500D01*
G01X-917000D02*
Y536000D01*
X-784860Y403860D01*
X-497180D01*
X-361290Y539750D01*
X-108990D01*
X-13740Y444500D01*
X63500D01*
G01X0Y508000D02*
X-81280Y589280D01*
X-369240D01*
X-514020Y444500D01*
X-762000D01*
X-852000Y534500D01*
Y724500D01*
G01X-48000Y-1141500D02*
Y-1412500D01*
X-8890Y-1451610D01*
Y-1642110D01*
X127000Y-1778000D01*
G01X-98000Y-1141500D02*
Y-1489500D01*
X-63500Y-1524000D01*
G01X-443000Y-846500D02*
X106000D01*
X190500Y-762000D01*
G01X254000Y-825500D02*
X183000Y-896500D01*
X-443000D01*
G01X0Y-571500D02*
X-75000Y-496500D01*
X-443000D01*
G01X-127000Y-571500D02*
X-194320D01*
X-219320Y-546500D01*
X-443000D01*
G01X317500Y-952500D02*
X93140D01*
X2000Y-1043640D01*
Y-1141500D01*
G01X381000Y-825500D02*
Y-762000D01*
X317500Y-698500D01*
X176760D01*
X113260Y-762000D01*
X-272320D01*
X-337820Y-696500D01*
X-443000D01*
G01Y-596500D02*
X-292500D01*
X-254000Y-635000D01*
X13740D01*
X54610Y-594130D01*
Y-516890D01*
X127000Y-444500D01*
G01X190500Y-508000D02*
X158750D01*
X95250Y-571500D01*
Y-610970D01*
X30040Y-676180D01*
X-276320D01*
X-306000Y-646500D01*
X-443000D01*
G01Y-296500D02*
X112020D01*
X164770Y-349250D01*
X309550D01*
X357290Y-396990D01*
Y-398690D01*
X462270Y-503670D01*
Y-733690D01*
X462280Y-733700D01*
Y-772060D01*
X530870Y-840650D01*
Y-874310D01*
X530860Y-874320D01*
Y-970960D01*
X554650Y-994750D01*
X554660D01*
X592540Y-1032630D01*
X626200D01*
X626210Y-1032620D01*
X1604120D01*
X1905000Y-1333500D01*
Y-1784020D01*
X2276090Y-2155110D01*
X3813890D01*
X3873500Y-2095500D01*
G01X-443000Y-346500D02*
X104540D01*
X147930Y-389890D01*
X291010D01*
X421600Y-520480D01*
X421630Y-750530D01*
X421640Y-750540D01*
Y-788900D01*
X490220Y-857480D01*
Y-987800D01*
X575680Y-1073260D01*
X575690D01*
X590070Y-1087640D01*
X1595640D01*
X1841500Y-1333500D01*
Y-1778000D01*
X2259250Y-2195750D01*
X3900250D01*
X4000500Y-2095500D01*
G01X2000Y-1500D02*
Y187620D01*
X-191380Y381000D01*
Y434680D01*
G01X-48000Y-1500D02*
Y-142500D01*
X0Y-190500D01*
G01X-443000Y-246500D02*
X119500D01*
X181610Y-308610D01*
X326390D01*
X397930Y-380150D01*
Y-381850D01*
X502910Y-486830D01*
Y-629910D01*
X502920Y-629920D01*
Y-755220D01*
X571510Y-823810D01*
Y-891150D01*
X571500Y-891160D01*
Y-954110D01*
X609370Y-991980D01*
X1626980D01*
X1968500Y-1333500D01*
Y-1790040D01*
X2292930Y-2114470D01*
X3108940D01*
X3127910Y-2095500D01*
X3746500D01*
G01X-317500Y444500D02*
X-262890Y499110D01*
X-147280D01*
X-126960Y478790D01*
Y403240D01*
X52000Y224280D01*
Y-1500D01*
G01X-72350Y425870D02*
X102000Y251520D01*
Y-1500D01*
G01X202000D02*
Y306000D01*
X158750Y349250D01*
Y714250D01*
X-127000Y1000000D01*
G01X679500Y-2794000D02*
X592800D01*
X508000Y-2709200D01*
Y-2159000D01*
G01X2667000Y-2667000D02*
X2222500D01*
X1587500Y-2032000D01*
X1016000D01*
X889000Y-1905000D01*
X571500D01*
X508000Y-1841500D01*
Y-1714500D01*
X448210Y-1654710D01*
X203310D01*
X102000Y-1553400D01*
Y-1141500D01*
G01X52000D02*
Y-1560890D01*
X269110Y-1778000D01*
X381000D01*
G01X679500Y-2032000D02*
X444500D01*
G01X1214450Y-1587500D02*
X1110260Y-1483360D01*
X524840D01*
X397160Y-1355680D01*
Y-1229130D01*
X397480Y-1228810D01*
Y-1146020D01*
X402000Y-1141500D01*
G01X1079500Y-1587500D02*
X1016000Y-1524000D01*
X508000D01*
X356520Y-1372520D01*
Y-1146020D01*
X352000Y-1141500D01*
G01X152000D02*
Y-1422000D01*
X190500Y-1460500D01*
G01X202000Y-1141500D02*
Y-1394760D01*
X245110Y-1437870D01*
Y-1578610D01*
X280570Y-1614070D01*
X563930D01*
X635000Y-1685140D01*
Y-1778000D01*
G01X252000Y-1141500D02*
Y-1387280D01*
X285750Y-1421030D01*
Y-1541690D01*
X317500Y-1573430D01*
X777290D01*
X889000Y-1685140D01*
Y-1778000D01*
G01X302000Y-1141500D02*
Y-1379800D01*
X326390Y-1404190D01*
Y-1405890D01*
X351360Y-1430860D01*
Y-1518820D01*
G01X936000Y-1397000D02*
X609640D01*
X452000Y-1239360D01*
Y-1141500D01*
G01X252000Y-1500D02*
Y319500D01*
X199390Y372110D01*
Y927610D01*
X127000Y1000000D01*
G01X844500Y889000D02*
Y873680D01*
X781030Y810210D01*
X666800D01*
X616030Y759440D01*
Y679530D01*
X435610Y499110D01*
Y427890D01*
X402000Y394280D01*
Y-1500D01*
G01X452000D02*
Y290680D01*
X844500Y683180D01*
Y698500D01*
G01X3175000Y2032000D02*
X3048000Y1905000D01*
X2984500D01*
X2794000Y1714500D01*
X2667000D01*
X1968500Y1016000D01*
Y751490D01*
X1778000Y560990D01*
Y508000D01*
X1524000Y254000D01*
X1015990D01*
X888990Y127000D01*
X668360D01*
X539860Y-1500D01*
X502000D01*
G01X254000Y444500D02*
X302000Y396500D01*
Y-1500D01*
G01X317500Y508000D02*
Y453380D01*
X352000Y418880D01*
Y-1500D01*
G01X844500Y-2794000D02*
Y-2711500D01*
X1016000Y-2540000D01*
G01X1143000Y-1968500D02*
X1270000D01*
X1292860Y-1991360D01*
X1610360D01*
X2159000Y-2540000D01*
X2682110D01*
X2809110Y-2413000D01*
X2921000D01*
G01X1016000Y-2286000D02*
X844500Y-2114500D01*
Y-2032000D01*
G01X2667000Y-2413000D02*
X2095500D01*
X1633220Y-1950720D01*
X1315720D01*
X1143000Y-1778000D01*
G01X1524000Y-571500D02*
Y-635000D01*
X1412500Y-746500D01*
X697000D01*
G01X1397000Y-635000D02*
X1335500Y-696500D01*
X697000D01*
G01Y-646500D02*
X1266220D01*
X1365260Y-547460D01*
Y-470220D01*
X2152970Y317500D01*
X2857500D01*
X3048000Y508000D01*
G01X2349500Y-63500D02*
X1516500Y-896500D01*
X697000D01*
G01Y-796500D02*
X1433720D01*
X2357220Y127000D01*
X3175000D01*
X3302000Y254000D01*
G01X697000Y-846500D02*
X1441200D01*
X2287700Y0D01*
X3048000D01*
G01X697000Y-946500D02*
X1593500D01*
X2413000Y-127000D01*
X2523470D01*
X2602260Y-48210D01*
X2858740D01*
X2937530Y-127000D01*
X3175000D01*
X3302000Y0D01*
G01X697000Y-596500D02*
X1258740D01*
X1324610Y-530630D01*
Y-485370D01*
X1324600Y-485360D01*
Y-453390D01*
X2222490Y444500D01*
X2793990D01*
X2957970Y608480D01*
X3201520D01*
X3302000Y508000D01*
G01X936000Y-190500D02*
X877530D01*
X821530Y-246500D01*
X697000D01*
G01X4445000Y1206500D02*
X4191000Y952500D01*
X2857500D01*
X2540000Y635000D01*
X2281180D01*
X1233430Y-412750D01*
X1230530D01*
X1151460Y-491820D01*
X809230D01*
X804550Y-496500D01*
X697000D01*
G01X4445000Y1460500D02*
X3977640Y993140D01*
X2840660D01*
X2523160Y675640D01*
X2264340D01*
X1216590Y-372110D01*
X1213690D01*
X1134620Y-451180D01*
X809230D01*
X804550Y-446500D01*
X697000D01*
G01Y-296500D02*
X1116860D01*
X1163170Y-250190D01*
X1163340D01*
X1229360Y-184170D01*
Y-104140D01*
X2222500Y889000D01*
Y1079500D01*
X2985730Y1842730D01*
X3239730D01*
X3429000Y2032000D01*
G01X697000Y-396500D02*
X1131820D01*
X1196850Y-331470D01*
X1199750D01*
X2674220Y1143000D01*
X3014000D01*
G01X697000Y-346500D02*
X1124340D01*
X1180010Y-290830D01*
X1180180D01*
X1270000Y-201010D01*
Y-127000D01*
X2794000Y1397000D01*
X3014000D01*
G01X1270000Y-508000D02*
X1215380D01*
X1176880Y-546500D01*
X697000D01*
G01X825500Y254000D02*
Y326380D01*
X889000Y389880D01*
Y444500D01*
G01X965200D02*
Y317490D01*
X901710Y254000D01*
G01X842000Y1079500D02*
X926640D01*
X978640Y1027500D01*
X1026500D01*
G01X844500Y889000D02*
X900350D01*
X911850Y877500D01*
X1026500D01*
G01X844500Y698500D02*
Y769670D01*
X902330Y827500D01*
X1026500D01*
G01X1460500Y-1587500D02*
X1587500Y-1714500D01*
X1657020D01*
X2219550Y-2277030D01*
X4320950D01*
X4676140Y-1921840D01*
Y-1380160D01*
X4464820Y-1168840D01*
Y-587590D01*
X4519500Y-532910D01*
Y-391000D01*
G01X1594500Y-1579430D02*
X1685760Y-1670690D01*
Y-1685760D01*
X2236390Y-2236390D01*
X4304110D01*
X4635500Y-1905000D01*
Y-1397000D01*
X4424180Y-1185680D01*
Y-587590D01*
X4369500Y-532910D01*
Y-391000D01*
G01X1206500Y381000D02*
X1540530D01*
X1905000Y745470D01*
Y1397000D01*
X1841500Y1460500D01*
X1733500D01*
G01X1568500Y1079500D02*
Y1008330D01*
X1487670Y927500D01*
X1386500D01*
G01Y977500D02*
X1434360D01*
X1505030Y1048170D01*
Y1191330D01*
X1571000Y1257300D01*
Y1270000D01*
G01X1568500Y889000D02*
X1557000Y877500D01*
X1463170D01*
G01D02*
X1386500D01*
G01X1571000Y698500D02*
Y769670D01*
X1463170Y877500D01*
G01X1331500Y1132500D02*
Y1212300D01*
X1286500Y1257300D01*
Y1270000D01*
G01X1568500Y1460500D02*
Y1389330D01*
X1460500Y1281330D01*
Y1097820D01*
X1440180Y1077500D01*
X1386500D01*
G01X1289000Y1460500D02*
Y1343670D01*
X1286500Y1341170D01*
Y1270000D01*
G01X2828000Y-1968500D02*
X2894330D01*
X2976830Y-2051000D01*
X3048000D01*
G01Y-1886000D02*
Y-1817360D01*
X3019500Y-1788860D01*
Y-1641000D01*
G01X3209000Y1143000D02*
X3473500D01*
G01X3209000Y1651000D02*
X3473500D01*
G01X3209000Y1397000D02*
X3473500D01*
G54D39*
X679500Y-2032000D03*
X844500D03*
X679500Y698500D03*
X844500D03*
X679500Y889000D03*
X844500D03*
X1568500Y1079500D03*
X1733500D03*
X1568500Y889000D03*
X1733500D03*
X1568500Y1460500D03*
X1733500D03*
G54D49*
G01X-2948070Y-1742000D02*
X-2881500D01*
G01X-3222000Y-1460500D02*
Y-1393120D01*
G01Y-1460500D02*
X-3167320D01*
G01X-2968000Y508000D02*
Y889000D01*
G01X-2994670Y1270000D02*
X-2895600D01*
G01X-2881500Y-1868570D02*
Y-1742000D01*
G01X-2607380Y-2206000D02*
X-2540000D01*
G01D02*
X-2472620D01*
G01X-2540000D02*
Y-2151320D01*
G01X-2881500Y-1742000D02*
Y-1615430D01*
G01Y-1742000D02*
X-2814930D01*
G01X-2439070Y508000D02*
X-2320000D01*
G01X-2895600Y1170930D02*
Y1270000D01*
G01X-2476500Y881440D02*
Y933500D01*
G01D02*
Y985560D01*
G01X-2543880Y933500D02*
X-2476500D01*
G01X-2895600Y1270000D02*
Y1369070D01*
G01Y1270000D02*
X-2796530D01*
G01X-2489200Y2142330D02*
Y2311400D01*
G01D02*
Y2480470D01*
G01Y2311400D02*
X-2180130D01*
G01X-2066000Y-1460500D02*
Y-1558000D01*
G01X-1928170Y-1460500D02*
X-1871000D01*
G01D02*
X-1813830D01*
G01X-2320000Y373930D02*
Y508000D01*
G01D02*
Y642070D01*
G01Y508000D02*
X-2200930D01*
G01X-2222500Y936000D02*
X-2155120D01*
G01X-2222500Y881320D02*
Y936000D01*
G01D02*
Y990680D01*
G01X-1187500Y-1270000D02*
X-1143000D01*
X-952500Y-1079500D01*
G01X-1352500Y-1270000D02*
X-1300440D01*
G01X-1352500Y-1337380D02*
Y-1270000D01*
G01D02*
Y-1202620D01*
G01X-1354000Y-804380D02*
Y-737000D01*
G01X-1408680D02*
X-1354000D01*
G01D02*
X-1299320D01*
G01X-1354000Y-152000D02*
Y-84620D01*
G01X-1408680Y-152000D02*
X-1354000D01*
G01D02*
X-1299320D01*
G01X-1350000Y186620D02*
Y254000D01*
G01D02*
Y321380D01*
G01X-1404680Y254000D02*
X-1350000D01*
G01D02*
X-1295320D01*
G01X-762000Y-1747560D02*
Y-1695500D01*
G01D02*
Y-1643440D01*
G01X-829380Y-1695500D02*
X-762000D01*
G01D02*
X-694620D01*
G01X-829380Y-936000D02*
X-762000D01*
G01D02*
X-694620D01*
G01X-952500Y-899500D02*
Y-823280D01*
G01X-1043980Y-899500D02*
X-952500D01*
G01X-762000Y-1096000D02*
X-690830D01*
X-635000Y-1040170D01*
Y-890640D01*
X-540860Y-796500D01*
X-443000D01*
G01X-762000Y-1096000D02*
X-936000D01*
X-952500Y-1079500D01*
G01X-588000Y123120D02*
Y190500D01*
G01X-642680D02*
X-588000D01*
G01D02*
X-533320D01*
G01X-1112000Y724500D02*
Y920000D01*
X-1079500Y952500D01*
G01X-381000Y-2349500D02*
Y-2476500D01*
G01X-470070D02*
X-381000D01*
G01D02*
X-291930D01*
G01X-127000Y-1778000D02*
Y-1604830D01*
G01Y-1867070D02*
Y-1778000D01*
G01X-216070D02*
X-127000D01*
G01D02*
X-37930D01*
G01X-174000Y-1333500D02*
Y-1444000D01*
G01Y-1333500D02*
X-254000D01*
G01X-174000D02*
Y-1254200D01*
G01D02*
X-149980Y-1230180D01*
Y-1229480D01*
G01D02*
X-148000Y-1227500D01*
Y-1141500D01*
G01X-198000D02*
Y-1023500D01*
G01X-443000Y-746500D02*
X-556000D01*
G01X-198000Y-1500D02*
Y151820D01*
X-245340Y199160D01*
G01X-248000Y-1500D02*
Y-121000D01*
G01Y98900D02*
Y-1500D01*
G01X-443000Y-196500D02*
Y-162430D01*
G01Y-196500D02*
X-348930D01*
G01X-248020Y119860D02*
X-248000Y119840D01*
Y98900D01*
G01X-248020Y119860D02*
Y98920D01*
X-248000Y98900D01*
G01X-366990Y190500D02*
X-317530D01*
X-248020Y120990D01*
Y119860D01*
G01X-428000Y190500D02*
X-366990D01*
G01D02*
X-366970Y190480D01*
X-317530D01*
G01X-381000Y910930D02*
Y1000000D01*
G01D02*
Y1089070D01*
G01Y1000000D02*
X-291930D01*
G01X542400Y-1141500D02*
X502000D01*
G01X602930Y-196500D02*
X697000D01*
G01X301000Y1202620D02*
Y1270000D01*
G01D02*
Y1337380D01*
G01X246320Y1270000D02*
X301000D01*
G01D02*
X355680D01*
G01X762000Y-2286000D02*
Y-2186930D01*
G01X662930Y-2286000D02*
X762000D01*
G01D02*
X861070D01*
G01X1096000Y-1273880D02*
Y-1206500D01*
G01D02*
Y-1139120D01*
G01Y-1206500D02*
X1150680D01*
G01X1096000Y-1397000D02*
Y-1329620D01*
G01Y-1397000D02*
X1150680D01*
G01X936000Y-1206500D02*
X825500D01*
G01X936000Y-1273880D02*
Y-1206500D01*
G01D02*
Y-1139120D01*
G01X1096000Y0D02*
X1206500D01*
G01X1173390Y-127000D02*
Y-160110D01*
X1143000Y-190500D01*
X1096000D01*
G01X697000Y-196500D02*
X800100D01*
G01D02*
X825500Y-171100D01*
Y-49490D01*
X874990Y0D01*
G01D02*
X936000D01*
G01Y-67380D02*
Y0D01*
G01D02*
Y67380D01*
G01Y0D02*
X990680D01*
G01X697000Y-196500D02*
Y-162430D01*
G01X1206500Y952500D02*
Y889000D01*
X1145700Y828200D01*
X1110300D01*
X1082200Y800100D01*
Y799780D01*
X1081500Y799080D01*
Y772500D01*
G01Y1132500D02*
Y1225000D01*
X1126500Y1270000D01*
G01X1081500Y1132500D02*
Y1105920D01*
X1082200Y1105220D01*
Y1076800D01*
X1206500Y952500D01*
G01X682000Y1012120D02*
Y1079500D01*
G01D02*
Y1146880D01*
G01X627320Y1079500D02*
X682000D01*
G01X762000Y889000D02*
X679500D01*
G01Y698500D02*
X762000D01*
G01X1126500Y1270000D02*
Y1364990D01*
G01X842000Y1710620D02*
Y1778000D01*
G01D02*
Y1845380D01*
G01X787320Y1778000D02*
X842000D01*
G01D02*
X896680D01*
G01X1651000Y571500D02*
X1731000Y651500D01*
Y698500D01*
G01X1651000Y1206500D02*
Y1177320D01*
X1733500Y1094820D01*
Y1079500D01*
G01X1386500Y1027500D02*
X1281500D01*
X1206500Y952500D01*
G01X1681440Y889000D02*
X1733500D01*
G01D02*
X1785560D01*
G01X1733500Y821620D02*
Y889000D01*
G01D02*
Y956380D01*
G01X1731000Y1270000D02*
Y1364990D01*
G01X2719500Y-1785070D02*
Y-1641000D01*
G01X2575830Y-1968500D02*
X2633000D01*
G01D02*
X2690170D01*
G01X2633000Y-2056180D02*
Y-1968500D01*
G01D02*
Y-1880820D01*
G01X2519500Y-1610070D02*
Y-1541000D01*
G01D02*
Y-1471930D01*
G01X2463530Y-1541000D02*
X2519500D01*
G01D02*
X2575470D01*
G01X2719500Y-1641000D02*
Y-1496930D01*
G01X2650430Y-1641000D02*
X2719500D01*
G01D02*
X2788570D01*
G01X2719500Y-535070D02*
Y-391000D01*
G01X2650430D02*
X2719500D01*
G01D02*
X2788570D01*
G01X2810500Y-127000D02*
Y-332000D01*
X2869500Y-391000D01*
G01X2755820Y-127000D02*
X2810500D01*
G01D02*
X2865180D01*
G01X2921000Y2032000D02*
X2831930D01*
G01X3302000Y762000D02*
X3463300D01*
G01D02*
X3543300Y682000D01*
X3556000D01*
G01X3302000Y672930D02*
Y762000D01*
G01X3212930D02*
X3302000D01*
G01X3429000Y2413000D02*
Y2667000D01*
G01X3683000D02*
X3429000D01*
G01Y2413000D02*
X3683000D01*
G01X3429000Y2667000D02*
Y2756070D01*
G01X3339930Y2667000D02*
X3429000D01*
G01X3556000Y682000D02*
X3623380D01*
G01X3586440Y1143000D02*
X3638500D01*
G01D02*
X3690560D01*
G01X3638500Y1075620D02*
Y1143000D01*
G01D02*
Y1210380D01*
G01X3556000Y627320D02*
Y682000D01*
G01X3586440Y1651000D02*
X3638500D01*
G01D02*
X3690560D01*
G01X3638500Y1583620D02*
Y1651000D01*
G01D02*
Y1718380D01*
G01X3586440Y1397000D02*
X3638500D01*
G01D02*
X3690560D01*
G01X3638500Y1329620D02*
Y1397000D01*
G01D02*
Y1464380D01*
G01X3937000Y2323930D02*
Y2413000D01*
G01X3683000Y2032000D02*
Y1936600D01*
G01Y2413000D02*
Y2667000D01*
G01X3937000D02*
X3683000D01*
G01Y2413000D02*
X3937000D01*
G01D02*
Y2667000D01*
G01D02*
Y2756070D01*
G01Y2667000D02*
X4026070D01*
G01X3937000Y2413000D02*
X4026070D01*
G01X4445000Y1615430D02*
Y1714500D01*
G01D02*
Y1813570D01*
G01X4345930Y1714500D02*
X4445000D01*
G01D02*
X4544070D01*
G01X-4920000Y-3120000D02*
Y3120000D01*
X4920000D01*
Y-3120000D01*
X-4920000D01*
M02*
