G04 ================== begin FILE IDENTIFICATION RECORD ==================*
G04 Layout Name:  F:/Cadence Boards/Remote/board/testv2/Remote_T.brd*
G04 Film Name:    BOTTOM*
G04 File Format:  Gerber RS274X*
G04 File Origin:  Cadence Allegro 16.6-P004*
G04 Origin Date:  Fri Jul 01 15:30:26 2016*
G04 *
G04 Layer:  VIA CLASS/BOTTOM*
G04 Layer:  PIN/BOTTOM*
G04 Layer:  ETCH/BOTTOM*
G04 Layer:  BOARD GEOMETRY/OUTLINE*
G04 *
G04 Offset:    (0.0000 0.0000)*
G04 Mirror:    No*
G04 Mode:      Positive*
G04 Rotation:  0*
G04 FullContactRelief:  No*
G04 UndefLineWidth:     0.2540*
G04 ================== end FILE IDENTIFICATION RECORD ====================*
%FSLAX25Y25*MOMM*%
%IR0*IPPOS*OFA0.00000B0.00000*MIA0B0*SFA1.00000B1.00000*%
%ADD18C,.635*%
%ADD17C,.3048*%
%ADD10C,.6096*%
%ADD11C,1.016*%
%ADD15C,1.6002*%
%ADD20C,3.048*%
%ADD16R,1.6002X1.6002*%
%ADD13C,2.4155*%
%ADD14C,1.8542*%
%ADD19R,2.5552X3.7541*%
%ADD12C,1.3995*%
%ADD21C,.2032*%
%ADD22C,.127*%
%ADD23C,.508*%
%ADD24C,.762*%
%ADD25C,.254*%
%ADD33C,1.0164*%
%ADD32C,3.3024*%
%ADD30C,2.67*%
%ADD26C,1.654*%
%ADD31C,2.1086*%
%ADD27C,1.8546*%
%ADD29R,2.8096X4.0084*%
%ADD28R,1.8546X1.8546*%
G75*
%LPD*%
G75*
G36*
G01X4399310Y-4373890D02*
G02X1829290Y-4979990I-1575381J928198D01*
G01X1819420D01*
X1800160Y-4960730D01*
G02X1307440Y-4468010I1023489J1516209D01*
G01X1302620Y-4463180D01*
X1116010Y-4146710D01*
X944070Y-3850640D01*
X941940Y-3848500D01*
X862010Y-3709330D01*
X167450Y-2513330D01*
G03X-697300Y-2015520I-864755J-502185D01*
G01X-1388620D01*
G03X-1878010Y-2413070I0J-499998D01*
G01Y-2439990D01*
X-1882880D01*
G03X-1888580Y-2509250I494259J-75541D01*
G01X-1888660Y-2515520D01*
X-3052800D01*
G03X-3098530Y-2517620I48J-500005D01*
G01X-3098520Y-2517610D01*
X-3100610Y-2515520D01*
X-4237000D01*
X-5138620D01*
G02X-5238620Y-2415520I0J100000D01*
G03X-5638620Y-2015520I-400000J0D01*
G01X-6429940D01*
G03X-7294690Y-2513330I5J-999995D01*
G01X-8366540Y-4359000D01*
G02X-11727690Y-3009280I-1582523J919035D01*
G01X-11583990Y-2415850D01*
X-11474570Y-1964000D01*
X-11329990Y-1366930D01*
X-11231090Y-958520D01*
X-11075990Y-318010D01*
X-10987610Y46960D01*
X-10821990Y730910D01*
X-10724610Y1071960D01*
G02X-10567990Y1412530I2161000J-787494D01*
G01X-10439420Y1615420D01*
G02X-7761240Y2439990I1875658J-1330472D01*
G01X-7589400Y2367970D01*
G02X-7378940Y2255920I-974210J-2083503D01*
G03X-6760850Y2084480I618107J1028535D01*
G01X-348300D01*
G03X252410Y2256340I-9463J1168852D01*
G02X490340Y2380910I1183963J-1971872D01*
G01X634020Y2439990D01*
G02X2238740I802360J-2155520D01*
G01X2258060D01*
X2269930Y2428120D01*
G02X2584350Y2277510I-833547J-2143653D01*
G01X2732770Y2204180D01*
X2900680Y2085340D01*
X2971800Y2026920D01*
X3014970Y1982720D01*
X3209610Y1772320D01*
X3455990Y1385020D01*
G02X3671780Y825780I-2019615J-1100547D01*
G01X3692330Y740920D01*
X3709990Y667990D01*
X3855500Y67070D01*
X3857400Y65180D01*
X3963990Y-380940D01*
X4098980Y-938410D01*
X4217990Y-1429870D01*
X4342460Y-1943890D01*
X4471990Y-2478800D01*
X4601590Y-3014000D01*
G02X4477500Y-4226310I-1777940J-430519D01*
G01X4399300Y-4373890D01*
X4399310D01*
G37*
%LPC*%
G75*
G36*
G01X-9477400Y-486980D02*
G02X-9581530Y-242190I-62591J117917D01*
G02X-9477310Y-486930I41535J-126873D01*
G03X-9477400Y-486980I6122J-11125D01*
G37*
G36*
G01X-6951960Y-595020D02*
G02X-7012960I-30500J-32360D01*
G01Y-157410D01*
X-7277030Y106660D01*
X-7708830D01*
X-7890170Y288000D01*
X-7894230Y286040D01*
G02X-7845080Y335190I-45810J94960D01*
G01X-7847040Y331130D01*
X-7683570Y167660D01*
X-7251770D01*
X-6951960Y-132150D01*
Y-595020D01*
G37*
G36*
G01X-6183750Y-1465560D02*
G02Y-1582440I87750J-58440D01*
G01X-6780610D01*
X-7424440Y-938610D01*
Y-471250D01*
X-7919270Y23580D01*
X-7922500Y23040D01*
G02X-7836080Y109460I-17540J103960D01*
G01X-7836620Y106230D01*
X-7307560Y-422830D01*
Y-890190D01*
X-6732190Y-1465560D01*
X-6183750D01*
G37*
G36*
G01X407840Y-1475530D02*
G02X359450Y-1523920I29040J-77430D01*
G01X360880Y-1520090D01*
X29920Y-1189130D01*
Y-588670D01*
X-137180Y-421570D01*
Y-147250D01*
X-556190Y271760D01*
X-802570D01*
X-1025550Y494740D01*
X-1501750D01*
X-1585570Y410920D01*
X-2226970D01*
X-2278310Y462260D01*
X-3121590D01*
X-3540780Y881450D01*
Y965860D01*
G02X-3549380Y977030I30491J32371D01*
G01X-3551130Y980260D01*
X-3569470Y980730D01*
X-3571380Y977590D01*
G02X-3608190Y956300I-37961J23168D01*
G01X-3610730Y956240D01*
X-3825310Y741660D01*
X-4879410D01*
X-4889140Y731930D01*
X-4907060Y714000D01*
X-4907090Y713970D01*
X-4903850Y706140D01*
X-4498410D01*
X-3921830Y129560D01*
X-3824580D01*
G02X-3785260Y142980I32360J-30501D01*
G01X-3782470Y142540D01*
X-3770730Y152010D01*
X-3770580Y154830D01*
G02X-3726160Y196880I44406J-2422D01*
G01X-3726180D01*
G02X-3681770Y154830I4J-44472D01*
G02X-3681720Y153550I-44407J-2376D01*
G01X-3681660Y151010D01*
X-3667180Y136530D01*
X-3648340Y145070D01*
X-3648630Y149460D01*
G02X-3559800Y153550I44374J2940D01*
G01X-3559740Y151010D01*
X-3515340Y106610D01*
Y-292170D01*
X-3263970Y-543540D01*
X-2382450D01*
X-2363540Y-524630D01*
X-2363480Y-522090D01*
G02X-2317870Y-567700I44460J-1150D01*
G01X-2320410Y-567760D01*
X-2328990Y-576350D01*
X-2325750Y-584180D01*
X-2263070D01*
X-2228920Y-550030D01*
X-2228860Y-547490D01*
G02X-2183250Y-593100I44460J-1150D01*
G01X-2185790Y-593160D01*
X-2221280Y-628650D01*
X-2190870Y-659060D01*
X-2188330Y-659120D01*
G02X-2233940Y-704730I-1150J-44460D01*
G01X-2234000Y-702190D01*
X-2250370Y-685820D01*
X-2315590D01*
X-2318830Y-693650D01*
X-2310250Y-702240D01*
X-2307710Y-702300D01*
G02X-2353320Y-747910I-1150J-44460D01*
G01X-2353380Y-745370D01*
X-2372290Y-726460D01*
X-3362210D01*
X-3774460Y-314210D01*
Y-149790D01*
X-3821310Y-102940D01*
X-3823850Y-102880D01*
G02X-3850830Y-23980I1150J44456D01*
G01X-3848580Y-22140D01*
X-3848130Y-6750D01*
X-3850260Y-4790D01*
G02X-3858970Y49660I30099J32736D01*
G01X-3857190Y52830D01*
Y52840D01*
X-3866410Y68560D01*
X-3947090D01*
X-4523670Y645140D01*
X-4918450D01*
X-4918460Y645130D01*
X-5011060D01*
X-5011070Y645140D01*
X-5268030D01*
X-5284400Y628770D01*
X-5284460Y626230D01*
G02X-5330070Y671840I-44460J1150D01*
G01X-5327530Y671900D01*
X-5321490Y677950D01*
X-5324730Y685780D01*
X-5453450D01*
X-5704820Y434410D01*
Y-591750D01*
X-5829280Y-716210D01*
Y-782980D01*
G02X-5890280I-30500J-32360D01*
G01Y-712090D01*
X-5898110Y-708850D01*
X-5898120Y-708860D01*
X-5937180Y-747910D01*
X-5937240Y-750450D01*
G02X-5982850Y-704840I-44460J1150D01*
G01X-5980310Y-704780D01*
X-5806460Y-530930D01*
Y476510D01*
X-5537220Y745750D01*
Y745760D01*
X-5495560Y787420D01*
X-4977390D01*
X-4921510Y843300D01*
X-3893750D01*
X-3794800Y942260D01*
X-3797770Y959030D01*
X-3800770Y960420D01*
G02X-3814420Y970260I18709J40341D01*
G01X-3849310D01*
X-3855140Y976090D01*
X-3860470Y970760D01*
X-3860940Y969710D01*
G02X-3933800Y957560I-40503J18352D01*
G01X-3968690D01*
X-4061480Y1050350D01*
Y1105560D01*
G02X-4064720Y1166890I30500J32362D01*
G01X-4062220Y1169800D01*
X-4069170Y1187370D01*
X-4072980Y1187790D01*
G02X-4017390Y1201680I8989J82211D01*
G01X-4020560Y1199520D01*
X-4018410Y1180750D01*
X-4014840Y1179360D01*
G02X-4000480Y1105560I-16140J-41438D01*
G01Y1075610D01*
X-3943430Y1018560D01*
X-3933900D01*
X-3932060Y1020310D01*
G02X-3925870Y1025220I30622J-32248D01*
G01X-3923350Y1026880D01*
X-3921730Y1042680D01*
X-3967500Y1088450D01*
Y1714570D01*
X-4048690Y1795760D01*
X-7042530D01*
X-7045770Y1787930D01*
X-6865600Y1607750D01*
Y1348670D01*
X-6652330Y1135400D01*
X-5534730D01*
X-5330310Y930980D01*
X-5327770Y930920D01*
G02X-5373380Y885310I-1150J-44460D01*
G01X-5373440Y887850D01*
X-5559990Y1074400D01*
X-6677590D01*
X-6926600Y1323410D01*
Y1582490D01*
X-7071290Y1727180D01*
X-7597210D01*
X-7715180Y1609210D01*
X-7715240Y1606670D01*
G02X-7760850Y1652280I-44460J1150D01*
G01X-7758310Y1652340D01*
X-7622470Y1788180D01*
X-7422780D01*
X-7419540Y1796010D01*
X-7429030Y1805500D01*
G02X-7429370Y1805850I21708J21428D01*
G01X-7753230Y2129720D01*
X-7755770Y2129780D01*
G02X-7710160Y2175390I1150J44460D01*
G01X-7710100Y2172850D01*
X-7394010Y1856760D01*
X-4023430D01*
X-3906500Y1739830D01*
Y1113710D01*
X-3824050Y1031260D01*
X-3814520D01*
X-3812680Y1033010D01*
G02X-3745700Y1026370I30622J-32249D01*
G01X-3729520D01*
G02X-3658790Y1028970I36354J-25611D01*
G01X-3643710D01*
G02X-3570240Y1021950I34375J-28211D01*
G01X-3568490Y1018720D01*
X-3550150Y1018250D01*
X-3548240Y1021390D01*
G02X-3473040Y1022530I37960J-23168D01*
G01X-3471230Y1019750D01*
X-3462680Y1019520D01*
X-3454140Y1019280D01*
X-3454130D01*
X-3452170Y1021970D01*
G02X-3385800Y963320I35867J-26290D01*
G01Y888930D01*
X-3129780Y632920D01*
X-3111510Y639160D01*
X-3111000Y643080D01*
G02X-3003920Y680740I63004J-8079D01*
G01X-2771510D01*
X-2763070Y698210D01*
X-2765540Y701340D01*
Y701350D01*
G02X-2736120Y773120I34836J27635D01*
G01X-2735580Y773190D01*
G02X-2733880Y773340I4758J-44217D01*
G01X-2733820Y773400D01*
X-2728740Y778850D01*
Y923430D01*
X-2419490Y1232680D01*
X-2302890D01*
X-2302240Y1233330D01*
X-2302170Y1234170D01*
X-2302100Y1234240D01*
X-2301850Y1237820D01*
G02X-2298210Y1252520I44357J-3183D01*
G02X-2286920Y1267990I40724J-17866D01*
G01X-2286580Y1268290D01*
G02X-2284840Y1269720I29098J-33632D01*
G01X-2284590Y1279530D01*
G02X-2287880Y1282680I29068J33653D01*
G01X-2534990D01*
X-2758420Y1059250D01*
Y880720D01*
G02X-2819420I-30500J-32360D01*
G01Y1084510D01*
X-2560250Y1343680D01*
X-2287880D01*
G02X-2280320Y1350090I32359J-30502D01*
G01X-2277420Y1352040D01*
X-2277890Y1369740D01*
X-2280880Y1371530D01*
G02X-2290420Y1379200I22829J38163D01*
G01X-2590870D01*
X-3009880Y960190D01*
Y883260D01*
G02X-3070880I-30500J-32360D01*
G01Y985450D01*
X-2616130Y1440200D01*
X-2290420D01*
G02X-2233260Y1372790I32364J-30496D01*
G01X-2236160Y1370840D01*
X-2235690Y1353140D01*
X-2232700Y1351350D01*
G02X-2223980Y1281830I-22820J-38169D01*
G01X-2225760Y1280040D01*
X-2226110Y1266260D01*
X-2224420Y1264380D01*
G02X-2255370Y1190230I-33070J-29731D01*
G01X-2255940Y1190200D01*
G02X-2256340Y1190190I-1311J44452D01*
G01X-2257780Y1190160D01*
X-2257830Y1190110D01*
X-2269370Y1178560D01*
X-2257830Y1167010D01*
X-2257780Y1166960D01*
X-2256340Y1166930D01*
G02X-2255940Y1166920I-911J-44464D01*
G01X-2255370Y1166890D01*
G02X-2226720Y1090360I-2122J-44422D01*
G02X-2301850Y1119300I-30770J32111D01*
G01X-2302100Y1122880D01*
X-2302170Y1122950D01*
X-2302240Y1123790D01*
X-2302890Y1124440D01*
X-2374650D01*
X-2620500Y878590D01*
Y778850D01*
X-2615420Y773400D01*
X-2615360Y773340D01*
G02X-2613660Y773190I-3058J-44367D01*
G01X-2613120Y773120D01*
G02X-2583700Y701350I-5416J-44135D01*
G01Y701340D01*
X-2586170Y698210D01*
X-2577730Y680740D01*
X-2221060D01*
X-2213430Y699590D01*
X-2216510Y702570D01*
G02X-2101490I57510J59430D01*
G01X-2104570Y699590D01*
X-2096940Y680740D01*
X-2050950D01*
X-1986120Y745570D01*
X-1986640Y748780D01*
G02X-1918220Y680360I81640J13220D01*
G01X-1921430Y680880D01*
X-2013050Y589260D01*
X-3003920D01*
G02X-3007180Y586330I-44066J45751D01*
G01X-3010590Y583470D01*
X-3003470Y563900D01*
X-2217490D01*
X-2179390Y525800D01*
X-1633150D01*
X-1549330Y609620D01*
X-977970D01*
X-754450Y386100D01*
X-502990D01*
X-10140Y-106750D01*
Y-386150D01*
X144800Y-541090D01*
Y-977960D01*
X309820Y-1142980D01*
X1086030D01*
X1420010Y-1476960D01*
X1423840Y-1475530D01*
G02X1375450Y-1523920I29040J-77430D01*
G01X1376880Y-1520090D01*
X1060770Y-1203980D01*
X284560D01*
X98750Y-1018180D01*
X90920Y-1021420D01*
Y-1163870D01*
X404010Y-1476960D01*
X407840Y-1475530D01*
G37*
G36*
G01X1805430Y-3360440D02*
G02Y-3243560I-154430J58440D01*
G01X1855390D01*
X2125960Y-2972990D01*
Y-2337990D01*
X2456160Y-2007790D01*
Y-1345010D01*
X2210990Y-1099840D01*
X1652180D01*
X1465560Y-913220D01*
Y-641720D01*
G02X1582440I58440J87750D01*
G01Y-864800D01*
X1700600Y-982960D01*
X2259410D01*
X2573040Y-1296590D01*
Y-2056210D01*
X2242840Y-2386410D01*
Y-3021410D01*
X1903810Y-3360440D01*
X1805430D01*
G37*
G36*
G01X-8319880Y-3597070D02*
G02X-8391730Y-3668920I-36720J-35130D01*
G01X-8319880Y-3597070D01*
G37*
G36*
G01X-8573880Y-3851070D02*
G02X-8645730Y-3922920I-36720J-35130D01*
G01X-8573880Y-3851070D01*
G37*
G36*
G01X-8827880Y-4105070D02*
G02X-8887460Y-4185590I-36721J-35131D01*
G01Y-4164650D01*
X-8827880Y-4105070D01*
G37*
G36*
G01X-8887460Y-4348810D02*
G02Y-4439590I22860J-45390D01*
G01Y-4348810D01*
G37*
G36*
G01Y-4602810D02*
G02Y-4693590I22860J-45390D01*
G01Y-4602810D01*
G37*
G54D33*
X-8356600Y-3886200D03*
Y-4140200D03*
X-8610600D03*
Y-4394200D03*
G54D32*
X2413000Y-3302000D03*
G54D30*
X2427990Y1131060D03*
X1128010D03*
X-8240010D03*
X-9539990D03*
X2427990Y-369060D03*
X1128010D03*
X-8240010D03*
G54D26*
X2570480Y2044700D03*
X2316480D03*
X2062480D03*
X1808480D03*
X-3302000Y1524000D03*
X-3556000D03*
X-3810000D03*
X-4064000D03*
X-7239000D03*
X-7493000D03*
X-3302000Y1270000D03*
X-3556000D03*
X-3810000D03*
X-889000Y762000D03*
X-1143000D03*
X-1397000D03*
X-1651000D03*
X947930Y706120D03*
X547880D03*
X-1402080Y287020D03*
X-1656080D03*
X-1910080D03*
X-2164080D03*
X947930Y55880D03*
X547880D03*
X2103120Y-1552960D03*
X1087120D03*
X-7421880D03*
X-8072120D03*
X-8437880D03*
X-9088120D03*
X-9834880D03*
X-10485120D03*
X2103120Y-2003040D03*
X1452880D03*
X1087120D03*
X436880D03*
X-7421880D03*
X-8072120D03*
X-8437880D03*
X-9088120D03*
X-9834880D03*
X-10485120D03*
X3247900Y-3302000D03*
X3048000D03*
X2848100D03*
G54D31*
X2727960Y635000D03*
X-7940040D03*
X2727960Y381000D03*
Y127000D03*
X2032000Y-553970D03*
X1778000D03*
X-8636000D03*
X-8890000D03*
X-9144000D03*
X-1016000Y-1524000D03*
X-1524000D03*
X-2032000D03*
X-3048000D03*
X-3556000D03*
X-4064000D03*
X-5080000D03*
X-5588000D03*
G54D27*
X1270000Y2032000D03*
X1016000D03*
X-8382000D03*
X-8636000D03*
X-8890000D03*
X-8382000Y1778000D03*
X-8636000D03*
G54D29*
X-5626100Y1524000D03*
X-6096000D03*
X-6565900D03*
G54D28*
X762000Y2032000D03*
X-8890000Y1778000D03*
%LPD*%
G75*
G36*
G01X-7738110Y1639570D02*
X-7759700D01*
X-7761500Y1606020D01*
X-7727950Y1607820D01*
Y1629410D01*
G03X-7738110Y1639570I-10160J0D01*
G37*
G36*
G01X-7722870Y2152650D02*
Y2174240D01*
X-7756420Y2176040D01*
X-7754620Y2142490D01*
X-7733030D01*
G03X-7722870Y2152650I0J10160D01*
G37*
G36*
G01X-6989640Y-589660D02*
X-7004900Y-604930D01*
X-6982460Y-629920D01*
X-6960020Y-604930D01*
X-6975280Y-589660D01*
G03X-6989640I-7180J-7190D01*
G37*
G36*
G01X-5960110Y-717550D02*
X-5981700D01*
X-5983500Y-751100D01*
X-5949950Y-749300D01*
Y-727710D01*
G03X-5960110Y-717550I-10160J0D01*
G37*
G36*
G01X-5866960Y-777620D02*
X-5882220Y-792890D01*
X-5859780Y-817880D01*
X-5837340Y-792890D01*
X-5852600Y-777620D01*
G03X-5866960I-7180J-7190D01*
G37*
G36*
G01X-5307330Y659130D02*
X-5328920D01*
X-5330720Y625580D01*
X-5297170Y627380D01*
Y648970D01*
G03X-5307330Y659130I-10160J0D01*
G37*
G36*
G01X-5360670Y908050D02*
Y886460D01*
X-5327120Y884660D01*
X-5328920Y918210D01*
X-5350510D01*
G03X-5360670Y908050I0J-10160D01*
G37*
G36*
G01X-3788410Y6350D02*
Y27940D01*
X-3821960Y29740D01*
X-3820160Y-3810D01*
X-3798570D01*
G03X-3788410Y6350I0J10160D01*
G37*
G36*
G01X-3790950Y-80010D02*
Y-58420D01*
X-3824500Y-56620D01*
X-3822700Y-90170D01*
X-3801110D01*
G03X-3790950Y-80010I0J10160D01*
G37*
G36*
G01X-3829940Y91880D02*
X-3814670Y76620D01*
X-3789680Y99060D01*
X-3814670Y121500D01*
X-3829940Y106240D01*
G03Y91880I7190J-7180D01*
G37*
G36*
G01X-3819780Y993580D02*
X-3804510Y978320D01*
X-3779520Y1000760D01*
X-3804510Y1023200D01*
X-3819780Y1007940D01*
G03Y993580I7190J-7180D01*
G37*
G36*
G01X-3939160Y980880D02*
X-3923890Y965620D01*
X-3898900Y988060D01*
X-3923890Y1010500D01*
X-3939160Y995240D01*
G03Y980880I7190J-7180D01*
G37*
G36*
G01X-4023800Y1100200D02*
X-4008540Y1115470D01*
X-4030980Y1140460D01*
X-4053420Y1115470D01*
X-4038160Y1100200D01*
G03X-4023800I7180J7190D01*
G37*
G36*
G01X-3572510Y130810D02*
Y152400D01*
X-3606060Y154200D01*
X-3604260Y120650D01*
X-3582670D01*
G03X-3572510Y130810I0J10160D01*
G37*
G36*
G01X-3694430D02*
Y152400D01*
X-3727980Y154200D01*
X-3726180Y120650D01*
X-3704590D01*
G03X-3694430Y130810I0J10160D01*
G37*
G36*
G01X-3714750Y969010D02*
X-3693160D01*
X-3691360Y1002560D01*
X-3724910Y1000760D01*
Y979170D01*
G03X-3714750Y969010I10160J0D01*
G37*
G36*
G01X-3630930D02*
X-3609340D01*
X-3607540Y1002560D01*
X-3641090Y1000760D01*
Y979170D01*
G03X-3630930Y969010I10160J0D01*
G37*
G36*
G01X-3503100Y960500D02*
X-3487840Y975770D01*
X-3510280Y1000760D01*
X-3532720Y975770D01*
X-3517460Y960500D01*
G03X-3503100I7180J7190D01*
G37*
G36*
G01X-3409120Y957960D02*
X-3393860Y973230D01*
X-3416300Y998220D01*
X-3438740Y973230D01*
X-3423480Y957960D01*
G03X-3409120I7180J7190D01*
G37*
G36*
G01X-2994120Y652960D02*
X-3012090Y670910D01*
X-3054350Y635000D01*
X-3012090Y599090D01*
X-2994120Y617040D01*
G03Y652960I-17960J17960D01*
G37*
G36*
G01X-2650280Y750570D02*
Y728980D01*
X-2616730Y727180D01*
X-2618530Y760730D01*
X-2640120D01*
G03X-2650280Y750570I0J-10160D01*
G37*
G36*
G01X-2796100Y886080D02*
X-2811360Y870810D01*
X-2788920Y845820D01*
X-2766480Y870810D01*
X-2781740Y886080D01*
G03X-2796100I-7180J-7190D01*
G37*
G36*
G01X-2709120Y760730D02*
X-2730710D01*
X-2732510Y727180D01*
X-2698960Y728980D01*
Y750570D01*
G03X-2709120Y760730I-10160J0D01*
G37*
G36*
G01X-3047560Y888620D02*
X-3062820Y873350D01*
X-3040380Y848360D01*
X-3017940Y873350D01*
X-3033200Y888620D01*
G03X-3047560I-7180J-7190D01*
G37*
G36*
G01X-2221230Y-681990D02*
Y-703580D01*
X-2187680Y-705380D01*
X-2189480Y-671830D01*
X-2211070D01*
G03X-2221230Y-681990I0J-10160D01*
G37*
G36*
G01X-2340610Y-725170D02*
Y-746760D01*
X-2307060Y-748560D01*
X-2308860Y-715010D01*
X-2330450D01*
G03X-2340610Y-725170I0J-10160D01*
G37*
G36*
G01Y-554990D02*
X-2319020D01*
X-2317220Y-521440D01*
X-2350770Y-523240D01*
Y-544830D01*
G03X-2340610Y-554990I10160J0D01*
G37*
G36*
G01X-2205990Y-580390D02*
X-2184400D01*
X-2182600Y-546840D01*
X-2216150Y-548640D01*
Y-570230D01*
G03X-2205990Y-580390I10160J0D01*
G37*
G36*
G01X-2289240Y1144060D02*
Y1122470D01*
X-2255690Y1120670D01*
X-2257490Y1154220D01*
X-2279080D01*
G03X-2289240Y1144060I0J-10160D01*
G37*
G36*
G01X-2293240Y1306000D02*
X-2277970Y1290740D01*
X-2252980Y1313180D01*
X-2277970Y1335620D01*
X-2293240Y1320360D01*
G03Y1306000I7190J-7180D01*
G37*
G36*
G01X-2279080Y1202900D02*
X-2257490D01*
X-2255690Y1236450D01*
X-2289240Y1234650D01*
Y1213060D01*
G03X-2279080Y1202900I10160J0D01*
G37*
G36*
G01X-2295780Y1402520D02*
X-2280510Y1387260D01*
X-2255520Y1409700D01*
X-2280510Y1432140D01*
X-2295780Y1416880D01*
G03Y1402520I7190J-7180D01*
G37*
G54D10*
X-10896600Y-4648200D03*
Y-4394200D03*
X-11150600D03*
X-10896600Y-4140200D03*
X-11150600D03*
X-10896600Y-3886200D03*
X-11150600D03*
X-10896600Y-3632200D03*
X-11150600D03*
X-10896600Y-3378200D03*
X-11150600D03*
X-10896600Y-3124200D03*
X-11150600D03*
X-10896600Y-2870200D03*
X-11150600D03*
X-10896600Y-2616200D03*
X-11150600D03*
X-10896600Y-2362200D03*
X-11150600D03*
X-10134600Y-4648200D03*
X-10388600D03*
X-10642600D03*
X-10134600Y-4394200D03*
X-10388600D03*
X-10642600D03*
X-10134600Y-4140200D03*
X-10388600D03*
X-10642600D03*
X-10134600Y-3886200D03*
X-10388600D03*
X-10642600D03*
X-10134600Y-3632200D03*
X-10388600D03*
X-10642600D03*
X-10134600Y-3378200D03*
X-10388600D03*
X-10642600D03*
X-10134600Y-3124200D03*
X-10388600D03*
X-10642600D03*
X-10134600Y-2870200D03*
X-10388600D03*
X-10642600D03*
X-10134600Y-2616200D03*
X-10388600D03*
X-10642600D03*
X-10134600Y-2362200D03*
X-10388600D03*
X-10642600D03*
X-10290200Y-958800D03*
X-10490200D03*
X-10290200Y-758800D03*
X-10490200D03*
X-10290200Y-558800D03*
X-10490200D03*
X-10290200Y-374600D03*
X-10490200D03*
X-10290200Y-174600D03*
X-10490200Y25400D03*
X-10290200Y184200D03*
X-10490200D03*
X-10290200Y384200D03*
X-10490200D03*
X-10290200Y584200D03*
X-10490200D03*
X-10290200Y768400D03*
X-10490200D03*
X-10290200Y968400D03*
X-10490200D03*
X-10290200Y1168400D03*
X-10490200D03*
X-9626600Y-4648200D03*
X-9880600D03*
X-9626600Y-4394200D03*
X-9880600D03*
X-9626600Y-4140200D03*
X-9880600D03*
X-9626600Y-3886200D03*
X-9880600D03*
X-9626600Y-3632200D03*
X-9880600D03*
X-9626600Y-3378200D03*
X-9880600D03*
X-9626600Y-3124200D03*
X-9880600D03*
X-9626600Y-2870200D03*
X-9880600D03*
X-9626600Y-2616200D03*
X-9880600D03*
X-9626600Y-2362200D03*
X-9880600D03*
X-10090200Y-958800D03*
X-9690200D03*
X-9890200D03*
X-10090200Y-758800D03*
Y-558800D03*
Y-374600D03*
X-9690200Y-758800D03*
X-9890200D03*
X-9690200Y-558800D03*
X-9890200D03*
Y-374600D03*
X-10090200Y-174600D03*
X-9690200D03*
X-9890200D03*
X-10090200Y384200D03*
Y584200D03*
X-9690200Y384200D03*
X-9890200D03*
X-9690200Y584200D03*
X-9890200D03*
X-10090200Y768400D03*
X-9690200D03*
X-9890200D03*
X-10090200Y968400D03*
Y1168400D03*
X-9690200Y968400D03*
X-9890200D03*
Y1168400D03*
X-10058400Y1428800D03*
X-9658400D03*
X-9858400D03*
X-10058400Y1628800D03*
Y1828800D03*
X-9658400Y1628800D03*
X-9858400D03*
X-9658400Y1828800D03*
X-9858400D03*
X-9372600Y-4648200D03*
Y-4394200D03*
X-9118600Y-4648200D03*
Y-4394200D03*
X-9372600Y-4140200D03*
X-9118600D03*
X-9372600Y-3886200D03*
X-9118600D03*
X-9372600Y-3632200D03*
Y-3378200D03*
X-9118600Y-3632200D03*
Y-3378200D03*
X-9372600Y-3124200D03*
Y-2870200D03*
Y-2616200D03*
X-9118600Y-3124200D03*
Y-2870200D03*
Y-2616200D03*
X-9372600Y-2362200D03*
X-9118600D03*
X-9290200Y-958800D03*
X-9490200D03*
X-9090200D03*
X-9290200Y-758800D03*
X-9490200D03*
Y-558800D03*
X-9290200Y-374600D03*
X-9090200Y-758800D03*
Y-374600D03*
X-9290200Y-174600D03*
X-9490200D03*
X-9090200D03*
X-9290200Y384200D03*
X-9490200D03*
X-9290200Y584200D03*
X-9490200D03*
X-9090200Y384200D03*
Y584200D03*
X-9290200Y768400D03*
X-9490200D03*
X-9090200D03*
X-9290200Y968400D03*
Y1168400D03*
X-9090200Y968400D03*
Y1168400D03*
X-8864600Y-4394200D03*
X-8610600D03*
X-8864600Y-4648200D03*
X-8610600Y-4140200D03*
X-8864600D03*
X-8610600Y-3886200D03*
X-8864600D03*
X-8610600Y-3632200D03*
X-8864600D03*
X-8610600Y-3378200D03*
X-8864600D03*
X-8610600Y-3124200D03*
X-8864600D03*
X-8610600Y-2870200D03*
X-8864600D03*
X-8610600Y-2616200D03*
X-8864600D03*
X-8610600Y-2362200D03*
X-8864600D03*
X-8356600Y-3886200D03*
Y-4140200D03*
Y-3632200D03*
Y-3378200D03*
Y-3124200D03*
Y-2870200D03*
Y-2616200D03*
Y-2362200D03*
X-6858000Y-323800D03*
X-6658000D03*
X-6858000Y76200D03*
X-6658000D03*
X-6858000Y-123800D03*
X-6658000D03*
X-6458000Y-323800D03*
X-6258000D03*
X-6458000Y76200D03*
X-6258000D03*
X-6458000Y-123800D03*
X-6258000D03*
X-6477000Y759800D03*
X-6297000D03*
Y579800D03*
X-6477000D03*
X-6297000Y939800D03*
X-6477000D03*
X-6058000Y-323800D03*
X-5638800Y-393600D03*
X-6058000Y76200D03*
Y-123800D03*
X-5638800Y206400D03*
Y6400D03*
Y-193600D03*
Y406400D03*
X-5438800Y-393600D03*
Y206400D03*
Y6400D03*
Y-193600D03*
Y406400D03*
X-4368800Y939800D03*
X-4216400D03*
X-4089400D03*
X-3454400Y-812800D03*
X-3505200Y-685800D03*
X-2921000Y381000D03*
X-3048000Y635000D03*
X-1625600Y1320800D03*
X-1879600Y1574800D03*
Y1828800D03*
X-1625600Y1574800D03*
Y1828800D03*
X-1117600Y1320800D03*
X-863600D03*
X-1371600D03*
X-1117600Y1574800D03*
X-1371600D03*
X-1117600Y1828800D03*
X-1371600D03*
X-863600Y1574800D03*
Y1828800D03*
X1295400Y-4368800D03*
Y-4114800D03*
Y-3860800D03*
Y-3606800D03*
X1270000Y330200D03*
Y584200D03*
Y838200D03*
X1803400Y-4622800D03*
X1549400D03*
X1803400Y-4368800D03*
X1549400D03*
X1803400Y-4114800D03*
X1549400D03*
X1803400Y-3860800D03*
X1549400D03*
X1803400Y-3606800D03*
X1549400D03*
X2032000Y330200D03*
X1778000D03*
X1524000D03*
X2032000Y584200D03*
X1778000D03*
X1524000D03*
X2032000Y838200D03*
X1778000D03*
X1524000D03*
X2057400Y-4622800D03*
Y-4368800D03*
X2565400Y-4622800D03*
X2311400D03*
X2565400Y-4368800D03*
X2311400D03*
X2057400Y-4114800D03*
X2565400D03*
X2311400D03*
X2057400Y-3860800D03*
X2565400D03*
X2311400D03*
X2057400Y-3606800D03*
X2565400D03*
X2311400D03*
X2286000Y330200D03*
Y584200D03*
Y838200D03*
X2819400Y-4622800D03*
Y-4368800D03*
X3073400Y-4622800D03*
Y-4368800D03*
X2819400Y-4114800D03*
X3073400D03*
X2819400Y-3860800D03*
X3073400D03*
X2819400Y-3606800D03*
X3073400D03*
X3149600Y-2590800D03*
X2895600Y-2336800D03*
Y-2082800D03*
X2641600D03*
X3149600Y-2336800D03*
Y-2082800D03*
X2895600Y-1828800D03*
X2641600D03*
X3149600D03*
X2895600Y-1574800D03*
X2641600D03*
X3149600D03*
X2895600Y-1320800D03*
X2641600D03*
X2895600Y-1066800D03*
X2641600D03*
X3149600Y-1320800D03*
Y-1066800D03*
X2895600Y-609600D03*
X2641600D03*
X2895600Y-355600D03*
X2641600D03*
X2895600Y-812800D03*
X2641600D03*
X3149600Y-609600D03*
Y-355600D03*
Y-812800D03*
X2895600Y-101600D03*
X2641600D03*
X3149600D03*
X3581400Y-4622800D03*
X3327400D03*
X3581400Y-4368800D03*
X3327400D03*
X3581400Y-4114800D03*
X3327400D03*
X3581400Y-3860800D03*
X3327400D03*
X3581400Y-3606800D03*
X3327400D03*
X3657600Y-2590800D03*
X3403600D03*
X3657600Y-2336800D03*
X3403600D03*
X3657600Y-2082800D03*
X3403600D03*
X3657600Y-1828800D03*
X3403600D03*
X3657600Y-1574800D03*
X3403600D03*
X3657600Y-1320800D03*
X3403600D03*
X3657600Y-1066800D03*
X3403600D03*
X3657600Y-609600D03*
X3403600D03*
X3657600Y-355600D03*
X3403600D03*
X3657600Y-812800D03*
X3403600D03*
X3657600Y-101600D03*
X3403600D03*
X3835400Y-4622800D03*
X4089400Y-4368800D03*
X3835400D03*
X4089400Y-4114800D03*
X3835400D03*
X4089400Y-3860800D03*
X3835400D03*
X4089400Y-3606800D03*
X3835400D03*
X3911600Y-2590800D03*
Y-2336800D03*
Y-2082800D03*
Y-1828800D03*
Y-1574800D03*
Y-1320800D03*
Y-1066800D03*
Y-812800D03*
G54D20*
X1651000Y-3302000D03*
X2413000D03*
G54D11*
X-11150600Y-4394200D03*
X-10896600D03*
Y-4648200D03*
X-11150600Y-3886200D03*
X-10896600D03*
X-11150600Y-4140200D03*
X-10896600D03*
X-11150600Y-3378200D03*
X-10896600D03*
X-11150600Y-3632200D03*
X-10896600D03*
X-11150600Y-2616200D03*
X-10896600D03*
X-11150600Y-2870200D03*
X-10896600D03*
X-11150600Y-3124200D03*
X-10896600D03*
X-11150600Y-2362200D03*
X-10896600D03*
X-10642600Y-4394200D03*
X-10388600D03*
X-10134600D03*
X-10642600Y-4648200D03*
X-10388600D03*
X-10134600D03*
X-10642600Y-3886200D03*
X-10388600D03*
X-10134600D03*
X-10642600Y-4140200D03*
X-10388600D03*
X-10134600D03*
X-10642600Y-3378200D03*
X-10388600D03*
X-10134600D03*
X-10642600Y-3632200D03*
X-10388600D03*
X-10134600D03*
X-10642600Y-2616200D03*
X-10388600D03*
X-10134600D03*
X-10642600Y-2870200D03*
X-10388600D03*
X-10134600D03*
X-10642600Y-3124200D03*
X-10388600D03*
X-10134600D03*
X-10642600Y-2362200D03*
X-10388600D03*
X-10134600D03*
X-10490200Y-958800D03*
X-10290200D03*
X-10490200Y-374600D03*
X-10290200D03*
X-10490200Y-558800D03*
X-10290200D03*
X-10490200Y-758800D03*
X-10290200D03*
X-10490200Y184200D03*
X-10290200D03*
X-10490200Y25400D03*
X-10290200Y-174600D03*
X-10490200Y768400D03*
X-10290200D03*
X-10490200Y584200D03*
X-10290200D03*
X-10490200Y384200D03*
X-10290200D03*
X-10490200Y1168400D03*
X-10290200D03*
X-10490200Y968400D03*
X-10290200D03*
X-9880600Y-4394200D03*
X-9626600D03*
X-9880600Y-4648200D03*
X-9626600D03*
X-9880600Y-3886200D03*
X-9626600D03*
X-9880600Y-4140200D03*
X-9626600D03*
X-9880600Y-3378200D03*
X-9626600D03*
X-9880600Y-3632200D03*
X-9626600D03*
X-9880600Y-2616200D03*
X-9626600D03*
X-9880600Y-2870200D03*
X-9626600D03*
X-9880600Y-3124200D03*
X-9626600D03*
X-9880600Y-2362200D03*
X-9626600D03*
X-9890200Y-958800D03*
X-9690200D03*
X-10090200D03*
X-9890200Y-374600D03*
Y-558800D03*
X-9690200D03*
X-9890200Y-758800D03*
X-9690200D03*
X-10090200Y-374600D03*
Y-558800D03*
Y-758800D03*
X-9890200Y-174600D03*
X-9690200D03*
X-10090200D03*
X-9890200Y768400D03*
X-9690200D03*
X-10090200D03*
X-9890200Y584200D03*
X-9690200D03*
X-9890200Y384200D03*
X-9690200D03*
X-10090200Y584200D03*
Y384200D03*
X-9858400Y1428800D03*
X-9658400D03*
X-10058400D03*
X-9890200Y1168400D03*
Y968400D03*
X-9690200D03*
X-10090200Y1168400D03*
Y968400D03*
X-9858400Y1828800D03*
X-9658400D03*
X-9858400Y1628800D03*
X-9658400D03*
X-10058400Y1828800D03*
Y1628800D03*
X-9118600Y-4394200D03*
Y-4648200D03*
X-9372600Y-4394200D03*
Y-4648200D03*
X-9118600Y-3886200D03*
X-9372600D03*
X-9118600Y-4140200D03*
X-9372600D03*
X-9118600Y-3378200D03*
Y-3632200D03*
X-9372600Y-3378200D03*
Y-3632200D03*
X-9118600Y-2616200D03*
Y-2870200D03*
Y-3124200D03*
X-9372600Y-2616200D03*
Y-2870200D03*
Y-3124200D03*
X-9118600Y-2362200D03*
X-9372600D03*
X-9090200Y-958800D03*
X-9490200D03*
X-9290200D03*
X-9090200Y-374600D03*
Y-758800D03*
X-9290200Y-374600D03*
X-9490200Y-558800D03*
Y-758800D03*
X-9290200D03*
X-9090200Y-174600D03*
X-9490200D03*
X-9290200D03*
X-9090200Y768400D03*
X-9490200D03*
X-9290200D03*
X-9090200Y584200D03*
Y384200D03*
X-9490200Y584200D03*
X-9290200D03*
X-9490200Y384200D03*
X-9290200D03*
X-9090200Y1168400D03*
Y968400D03*
X-9290200Y1168400D03*
Y968400D03*
X-8864600Y-4394200D03*
Y-3886200D03*
X-8610600D03*
X-8864600Y-4140200D03*
X-8610600D03*
X-8864600Y-3378200D03*
X-8610600D03*
X-8864600Y-3632200D03*
X-8610600D03*
X-8864600Y-2616200D03*
X-8610600D03*
X-8864600Y-2870200D03*
X-8610600D03*
X-8864600Y-3124200D03*
X-8610600D03*
X-8864600Y-2362200D03*
X-8610600D03*
X-8356600Y-3886200D03*
Y-3378200D03*
Y-3632200D03*
Y-2616200D03*
Y-2870200D03*
Y-3124200D03*
Y-2362200D03*
X-6658000Y-323800D03*
X-6858000D03*
X-6658000Y-123800D03*
X-6858000D03*
X-6658000Y76200D03*
X-6858000D03*
X-6058000Y-323800D03*
X-6258000D03*
X-6458000D03*
X-6058000Y-123800D03*
X-6258000D03*
X-6458000D03*
X-6058000Y76200D03*
X-6258000D03*
X-6458000D03*
X-6477000Y579800D03*
X-6297000D03*
Y759800D03*
X-6477000D03*
Y939800D03*
X-6297000D03*
X-5638800Y-393600D03*
Y-193600D03*
Y6400D03*
Y206400D03*
Y406400D03*
X-5438800Y-393600D03*
Y-193600D03*
Y6400D03*
Y206400D03*
Y406400D03*
X-4368800Y939800D03*
X-4089400D03*
X-4216400D03*
X-3505200Y-685800D03*
X-3454400Y-812800D03*
X-3048000Y635000D03*
X-2921000Y381000D03*
X-1625600Y1320800D03*
Y1828800D03*
Y1574800D03*
X-1879600Y1828800D03*
Y1574800D03*
X-1117600Y1320800D03*
X-863600Y1828800D03*
Y1574800D03*
X-1371600Y1828800D03*
X-1117600D03*
X-1371600Y1574800D03*
X-1117600D03*
X1295400Y-3860800D03*
Y-4114800D03*
Y-3606800D03*
X1270000Y838200D03*
Y584200D03*
Y330200D03*
X1549400Y-4368800D03*
X1803400D03*
X2057400D03*
X1549400Y-4622800D03*
X1803400D03*
X2057400D03*
X1549400Y-3860800D03*
X1803400D03*
X2057400D03*
X1549400Y-4114800D03*
X1803400D03*
X2057400D03*
X1549400Y-3606800D03*
X1803400D03*
X2057400D03*
X1524000Y838200D03*
X1778000D03*
X2032000D03*
X1524000Y584200D03*
X1778000D03*
X2032000D03*
X1524000Y330200D03*
X1778000D03*
X2032000D03*
X2311400Y-4368800D03*
X2565400D03*
X2311400Y-4622800D03*
X2565400D03*
X2311400Y-3860800D03*
X2565400D03*
X2311400Y-4114800D03*
X2565400D03*
X2311400Y-3606800D03*
X2565400D03*
X2641600Y-2082800D03*
Y-1574800D03*
Y-1828800D03*
Y-1066800D03*
Y-1320800D03*
Y-812800D03*
Y-355600D03*
Y-609600D03*
Y-101600D03*
X2286000Y838200D03*
Y584200D03*
Y330200D03*
X3073400Y-4368800D03*
Y-4622800D03*
X2819400Y-4368800D03*
Y-4622800D03*
X3073400Y-3860800D03*
X2819400D03*
X3073400Y-4114800D03*
X2819400D03*
X3073400Y-3606800D03*
X2819400D03*
X3149600Y-2590800D03*
Y-2082800D03*
Y-2336800D03*
X2895600Y-2082800D03*
Y-2336800D03*
X3149600Y-1574800D03*
X2895600D03*
X3149600Y-1828800D03*
X2895600D03*
X3149600Y-1066800D03*
Y-1320800D03*
X2895600Y-1066800D03*
Y-1320800D03*
X3149600Y-812800D03*
Y-355600D03*
Y-609600D03*
X2895600Y-812800D03*
Y-355600D03*
Y-609600D03*
X3149600Y-101600D03*
X2895600D03*
X3327400Y-4368800D03*
X3581400D03*
X3327400Y-4622800D03*
X3581400D03*
X3327400Y-3860800D03*
X3581400D03*
X3327400Y-4114800D03*
X3581400D03*
X3327400Y-3606800D03*
X3581400D03*
X3403600Y-2590800D03*
X3657600D03*
X3403600Y-2082800D03*
X3657600D03*
X3403600Y-2336800D03*
X3657600D03*
X3403600Y-1574800D03*
X3657600D03*
X3403600Y-1828800D03*
X3657600D03*
X3403600Y-1066800D03*
X3657600D03*
X3403600Y-1320800D03*
X3657600D03*
X3403600Y-812800D03*
X3657600D03*
X3403600Y-355600D03*
X3657600D03*
X3403600Y-609600D03*
X3657600D03*
X3403600Y-101600D03*
X3657600D03*
X3835400Y-4368800D03*
X4089400D03*
X3835400Y-4622800D03*
Y-3860800D03*
X4089400D03*
X3835400Y-4114800D03*
X4089400D03*
X3835400Y-3606800D03*
X4089400D03*
X3911600Y-2590800D03*
Y-2082800D03*
Y-2336800D03*
Y-1574800D03*
Y-1828800D03*
Y-1066800D03*
Y-1320800D03*
Y-812800D03*
G54D21*
G01X-10485120Y-2092090D02*
Y-2003040D01*
G01D02*
Y-1913990D01*
G01X-10574170Y-2003040D02*
X-10485120D01*
G01D02*
X-10396070D01*
G01X-9088120Y-2092090D02*
Y-2003040D01*
G01D02*
Y-1913990D01*
G01X-9177170Y-2003040D02*
X-9088120D01*
G01D02*
X-8999070D01*
G01X-8481080Y1778000D02*
X-8382000D01*
G01X-8481080Y2032000D02*
X-8382000D01*
G01X-8072120Y-2092090D02*
Y-2003040D01*
G01D02*
Y-1913990D01*
G01X-8161170Y-2003040D02*
X-8072120D01*
G01D02*
X-7983070D01*
G01X-7940040Y381000D02*
X-7696200Y137160D01*
X-7264400D01*
X-6982460Y-144780D01*
Y-627380D01*
G01X-7940040Y523220D02*
Y635000D01*
G01D02*
Y746780D01*
G01X-8051820Y635000D02*
X-7940040D01*
G01D02*
X-7828260D01*
G01X-8382000Y1678920D02*
Y1778000D01*
G01D02*
Y1877080D01*
G01Y1778000D02*
X-8282920D01*
G01X-8382000Y1932920D02*
Y2032000D01*
G01D02*
Y2131080D01*
G01Y2032000D02*
X-8282920D01*
G01X-7328050Y1524000D02*
X-7239000D01*
G01X-7754620Y2174240D02*
X-7407460Y1827080D01*
Y1827070D01*
X-7406650Y1826260D01*
X-4036060D01*
X-3937000Y1727200D01*
Y1101080D01*
X-3836680Y1000760D01*
X-3782060D01*
G01X-5328920Y886460D02*
X-5547360Y1104900D01*
X-6664960D01*
X-6896100Y1336040D01*
Y1595120D01*
X-7058660Y1757680D01*
X-7609840D01*
X-7759700Y1607820D01*
G01X-7239000Y1434950D02*
Y1524000D01*
G01D02*
Y1613050D01*
G01Y1524000D02*
X-7149950D01*
G01X-3693160Y1000760D02*
X-3881120Y812800D01*
X-4908880D01*
X-4964760Y756920D01*
X-5482930D01*
X-5506720Y733130D01*
Y733120D01*
X-5775960Y463880D01*
Y-543560D01*
X-5981700Y-749300D01*
G01X-3609340Y1000760D02*
X-3837940Y772160D01*
X-4892040D01*
X-4947930Y716270D01*
X-4981590D01*
X-4981600Y716280D01*
X-5466080D01*
X-5735320Y447040D01*
Y-579120D01*
X-5859780Y-703580D01*
Y-815340D01*
G01X-5080000Y-1635780D02*
Y-1524000D01*
G01D02*
Y-1412220D01*
G01X-5191780Y-1524000D02*
X-5080000D01*
G01D02*
X-4968220D01*
G01X-3792220Y99060D02*
X-3934460D01*
X-4511040Y675640D01*
X-4931080D01*
X-4931090Y675630D01*
X-4998430D01*
X-4998440Y675640D01*
X-5280660D01*
X-5328920Y627380D01*
G01X-3820160Y27940D02*
X-3685540Y-106680D01*
Y-302520D01*
X-3332740Y-655320D01*
X-2237740D01*
X-2189480Y-703580D01*
G01X-3822700Y-58420D02*
X-3743960Y-137160D01*
Y-301580D01*
X-3349580Y-695960D01*
X-2359660D01*
X-2308860Y-746760D01*
G01X-4153050Y1270000D02*
X-4064000D01*
G01D02*
Y1359050D01*
G01X-3901440Y988060D02*
X-3956060D01*
X-4030980Y1062980D01*
Y1137920D01*
G01X-2319020Y-523240D02*
X-2369820Y-574040D01*
X-3276600D01*
X-3545840Y-304800D01*
Y93980D01*
X-3604260Y152400D01*
G01X-2184400Y-548640D02*
X-2250440Y-614680D01*
X-3302000D01*
X-3611880Y-304800D01*
Y38100D01*
X-3726180Y152400D01*
G01X-3510280Y998220D02*
Y894080D01*
X-3108960Y492760D01*
X-2265680D01*
X-2214340Y441420D01*
X-1598200D01*
X-1514380Y525240D01*
X-1012920D01*
X-789940Y302260D01*
X-543560D01*
X-106680Y-134620D01*
Y-408940D01*
X60420Y-576040D01*
Y-1176500D01*
X436880Y-1552960D01*
G01X-3416300Y995680D02*
Y876300D01*
X-3073400Y533400D01*
X-2230120D01*
X-2192020Y495300D01*
X-1620520D01*
X-1536700Y579120D01*
X-990600D01*
X-767080Y355600D01*
X-515620D01*
X-40640Y-119380D01*
Y-398780D01*
X114300Y-553720D01*
Y-990590D01*
X297190Y-1173480D01*
X1073400D01*
X1452880Y-1552960D01*
G01X-3048000Y-1635780D02*
Y-1524000D01*
G01D02*
Y-1412220D01*
G01X-3159780Y-1524000D02*
X-3048000D01*
G01D02*
X-2936220D01*
G01X-2257490Y1122470D02*
X-2290720Y1155700D01*
X-2387600D01*
X-2651760Y891540D01*
Y762210D01*
X-2618530Y728980D01*
G01X-2255520Y1313180D02*
X-2547620D01*
X-2788920Y1071880D01*
Y848360D01*
G01X-2257490Y1234650D02*
X-2290720Y1201420D01*
X-2406540D01*
X-2697480Y910480D01*
Y762210D01*
X-2730710Y728980D01*
G01X-2258060Y1409700D02*
X-2603500D01*
X-3040380Y972820D01*
Y850900D01*
G01X-2164080Y287020D02*
X-2075030D01*
G01X-2253130D02*
X-2164080D01*
G01D02*
Y376070D01*
G01Y197970D02*
Y287020D01*
G01X-2159000Y762000D02*
X-2069950D01*
G01X-2248050D02*
X-2159000D01*
G01D02*
Y851050D01*
G01X-1016000Y-1635780D02*
Y-1524000D01*
G01D02*
Y-1412220D01*
G01X-1127780Y-1524000D02*
X-1016000D01*
G01D02*
X-904220D01*
G01X436880Y-2092090D02*
Y-2003040D01*
G01D02*
Y-1913990D01*
G01X347830Y-2003040D02*
X436880D01*
G01D02*
X525930D01*
G01X858880Y55880D02*
X947930D01*
G01X858880Y706120D02*
X947930D01*
G01X762000Y1932920D02*
Y2032000D01*
G01D02*
Y2131080D01*
G01X662920Y2032000D02*
X762000D01*
G01D02*
X861080D01*
G01X1363830Y-2003040D02*
X1452880D01*
G01X947930Y-33170D02*
Y55880D01*
G01D02*
Y144930D01*
G01Y55880D02*
X1036980D01*
G01X947930Y617070D02*
Y706120D01*
G01D02*
Y795170D01*
G01Y706120D02*
X1036980D01*
G01X1452880Y-2092090D02*
Y-2003040D01*
G01D02*
Y-1913990D01*
G01Y-2003040D02*
X1541930D01*
G01X1920220Y-553970D02*
X2032000D01*
G01Y-665750D02*
Y-553970D01*
G01D02*
Y-442190D01*
G01Y-553970D02*
X2143780D01*
G01X2570480Y1955650D02*
Y2044700D01*
G01D02*
Y2133750D01*
G01X2481430Y2044700D02*
X2570480D01*
G01D02*
X2659530D01*
G01X3158850Y-3302000D02*
X3247900D01*
G01X2727960Y523220D02*
Y635000D01*
G01D02*
Y746780D01*
G01X2616180Y635000D02*
X2727960D01*
G01D02*
X2839740D01*
G01X3247900Y-3391050D02*
Y-3302000D01*
G01D02*
Y-3212950D01*
G01Y-3302000D02*
X3336950D01*
G54D12*
X-10485120Y-2003040D03*
Y-1552960D03*
X-9834880Y-2003040D03*
Y-1552960D03*
X-9088120Y-2003040D03*
Y-1552960D03*
X-8437880Y-2003040D03*
Y-1552960D03*
X-8072120Y-2003040D03*
Y-1552960D03*
X-7421880Y-2003040D03*
Y-1552960D03*
X-7239000Y1524000D03*
X-7493000D03*
X-3810000D03*
X-4064000D03*
X-3810000Y1270000D03*
X-4064000D03*
X-3302000Y1524000D03*
X-3556000D03*
X-3302000Y1270000D03*
X-3556000D03*
X-2164080Y287020D03*
X-2159000Y762000D03*
X-1910080Y287020D03*
X-1656080D03*
X-1402080D03*
X-1397000Y762000D03*
X-1651000D03*
X-1905000D03*
X-889000D03*
X-1143000D03*
X436880Y-2003040D03*
Y-1552960D03*
X547880Y55880D03*
Y706120D03*
X1452880Y-2003040D03*
X1087120D03*
X1452880Y-1552960D03*
X1087120D03*
X947930Y55880D03*
Y706120D03*
X2103120Y-2003040D03*
Y-1552960D03*
X1808480Y2044700D03*
X2062480D03*
X2316480D03*
X2570480D03*
X3247900Y-3302000D03*
X3048000D03*
X2848100D03*
G54D22*
G01X-10999750Y872850D02*
G03X-10987050I6350J3D01*
G03X-10999750I-6350J3D01*
G01Y872860D02*
G03X-10987050I6350J-3D01*
G03X-10999750I-6350J-3D01*
G01X1062430Y-4463650D02*
G03X1075130I6350J3D01*
G03X1062430I-6350J3D01*
G01D02*
G03X1075130I6350J4D01*
G03X1062430I-6350J4D01*
G01X4789620Y-2966930D02*
G03X4802320I6350J0D01*
G03X4789620I-6350J0D01*
G01D02*
G03X4802320I6350J0D01*
G03X4789620I-6350J0D01*
G54D13*
X-9539990Y-369060D03*
Y1131060D03*
X-8240010Y-369060D03*
Y1131060D03*
X1128010Y-369060D03*
Y1131060D03*
X2427990Y-369060D03*
Y1131060D03*
G54D23*
G01X-3048000Y635000D02*
X-2032000D01*
X-1905000Y762000D01*
G54D14*
X-9144000Y-553970D03*
X-8636000D03*
X-8890000D03*
X-7940040Y127000D03*
Y635000D03*
Y381000D03*
X-6096000Y-1524000D03*
X-5588000D03*
X-5080000D03*
X-4064000D03*
X-3556000D03*
X-3048000D03*
X-2032000D03*
X-1524000D03*
X-1016000D03*
X1524000Y-553970D03*
X2032000D03*
X1778000D03*
X2727960Y127000D03*
Y635000D03*
Y381000D03*
G54D24*
G01X-7940040Y127000D02*
X-7366000Y-447040D01*
Y-914400D01*
X-6756400Y-1524000D01*
X-6096000D01*
G01X1651000Y-3302000D02*
X1879600D01*
X2184400Y-2997200D01*
Y-2362200D01*
X2514600Y-2032000D01*
Y-1320800D01*
X2235200Y-1041400D01*
X1676390D01*
X1524000Y-889010D01*
Y-553970D01*
G54D15*
X-8382000Y2032000D03*
Y1778000D03*
X-8636000Y2032000D03*
Y1778000D03*
X-8890000Y2032000D03*
X1270000D03*
X1016000D03*
G54D25*
G01X-11922070Y-2962210D02*
X-10993400Y872850D01*
G02X-7275920Y2427340I2429788J-588385D01*
G03X-6760850Y2284480I515077J857117D01*
G01X-366390D01*
G03X148680Y2427340I8626J968852D01*
G02X3866160Y872860I1287696J-2142870D01*
G01X4795970Y-2966930D01*
G02X1068780Y-4463650I-1972322J-477604D01*
G01X-5520Y-2613760D01*
G03X-697320Y-2215520I-691803J-401763D01*
G01X-1388620D01*
G03X-1688620Y-2515520I0J-300000D01*
G02X-1888620Y-2715520I-200000J0D01*
G01X-3052800D01*
X-4237000D01*
X-5138620D01*
G02X-5438620Y-2415520I0J300000D01*
G03X-5638620Y-2215520I-200000J0D01*
G01X-6429920D01*
G03X-7121730Y-2613760I-9J-800000D01*
G01X-8193580Y-4459440D01*
G02X-11922070Y-2962210I-1755481J1019466D01*
G01X-5138620Y-2715520D02*
G02X-5438620Y-2415520I0J300000D01*
G03X-5638620Y-2215520I-200000J0D01*
G01X-6429940D01*
G03X-7121730Y-2613770I11J-799989D01*
G01X-8193580Y-4459440D01*
G02X-11922070Y-2962200I-1755483J1019463D01*
G01X-10993400Y872850D01*
G02X-7275920Y2427340I2429788J-588386D01*
G03X-6760850Y2284480I515079J857123D01*
G01X-366400D01*
X-365970D01*
G03X148680Y2427340I8214J968847D01*
G02X3866160Y872860I1287699J-2142864D01*
G01X4795970Y-2966940D01*
G02X1068780Y-4463650I-1972321J-477599D01*
G01X-5510Y-2613770D01*
G03X-697300Y-2215520I-691801J-401739D01*
G01X-1388620D01*
G03X-1688620Y-2515520I0J-300000D01*
G02X-1888620Y-2715520I-200000J0D01*
G01X-5138620D01*
G01D02*
G02X-5438620Y-2415520I0J300000D01*
G03X-5638620Y-2215520I-200000J0D01*
G01X-6429940D01*
G03X-7121730Y-2613770I11J-799989D01*
G01X-8193580Y-4459440D01*
G02X-11922070Y-2962200I-1755483J1019463D01*
G01X-10993400Y872850D01*
G02X-7275920Y2427340I2429788J-588386D01*
G03X-6760850Y2284480I515079J857123D01*
G01X-366400D01*
X-365970D01*
G03X148680Y2427340I8214J968847D01*
G02X3866160Y872860I1287699J-2142864D01*
G01X4795970Y-2966940D01*
G02X1068780Y-4463650I-1972321J-477599D01*
G01X-5510Y-2613770D01*
G03X-697300Y-2215520I-691801J-401739D01*
G01X-1388620D01*
G03X-1688620Y-2515520I0J-300000D01*
G02X-1888620Y-2715520I-200000J0D01*
G01X-5138620D01*
G01X-11928420Y-2962210D02*
G03X-11915720I6350J2D01*
G03X-11928420I-6350J2D01*
G01D02*
G03X-11915720I6350J0D01*
G03X-11928420I-6350J0D01*
G01D02*
G03X-11915720I6350J2D01*
G03X-11928420I-6350J2D01*
G01D02*
G03X-11915720I6350J0D01*
G03X-11928420I-6350J0D01*
G01D02*
G03X-11915720I6350J0D01*
G03X-11928420I-6350J0D01*
G01D02*
G03X-11915720I6350J2D01*
G03X-11928420I-6350J2D01*
G01D02*
G03X-11915720I6350J0D01*
G03X-11928420I-6350J0D01*
G01D02*
G03X-11915720I6350J2D01*
G03X-11928420I-6350J2D01*
G01X-10999750Y872860D02*
G03X-10987050I6350J-3D01*
G03X-10999750I-6350J-3D01*
G01Y872850D02*
G03X-10987050I6350J3D01*
G03X-10999750I-6350J3D01*
G01Y872860D02*
G03X-10987050I6350J-3D01*
G03X-10999750I-6350J-3D01*
G01Y872850D02*
G03X-10987050I6350J3D01*
G03X-10999750I-6350J3D01*
G01D02*
G03X-10987050I6350J3D01*
G03X-10999750I-6350J3D01*
G01Y872860D02*
G03X-10987050I6350J-3D01*
G03X-10999750I-6350J-3D01*
G01Y872850D02*
G03X-10987050I6350J3D01*
G03X-10999750I-6350J3D01*
G01Y872860D02*
G03X-10987050I6350J-3D01*
G03X-10999750I-6350J-3D01*
G01D02*
G03X-10987050I6350J-3D01*
G03X-10999750I-6350J-3D01*
G01Y872850D02*
G03X-10987050I6350J3D01*
G03X-10999750I-6350J3D01*
G01X-8199930Y-4459440D02*
G03X-8187230I6350J-2D01*
G03X-8199930I-6350J-2D01*
G01D02*
G03X-8187230I6350J-3D01*
G03X-8199930I-6350J-3D01*
G01D02*
G03X-8187230I6350J-2D01*
G03X-8199930I-6350J-2D01*
G01D02*
G03X-8187230I6350J-3D01*
G03X-8199930I-6350J-3D01*
G01D02*
G03X-8187230I6350J-3D01*
G03X-8199930I-6350J-3D01*
G01D02*
G03X-8187230I6350J-2D01*
G03X-8199930I-6350J-2D01*
G01D02*
G03X-8187230I6350J-3D01*
G03X-8199930I-6350J-3D01*
G01D02*
G03X-8187230I6350J-2D01*
G03X-8199930I-6350J-2D01*
G01X-7282270Y2427340D02*
G03X-7269580I6345J-2D01*
G03X-7282270I-6345J-2D01*
G01D02*
G03X-7269580I6345J-2D01*
G03X-7282270I-6345J-2D01*
G01D02*
G03X-7269580I6345J-2D01*
G03X-7282270I-6345J-2D01*
G01D02*
G03X-7269580I6345J-2D01*
G03X-7282270I-6345J-2D01*
G01X-7128080Y-2613770D02*
G03X-7115380I6350J2D01*
G03X-7128080I-6350J2D01*
G01D02*
G03X-7115380I6350J2D01*
G03X-7128080I-6350J2D01*
G01D02*
G03X-7115380I6350J2D01*
G03X-7128080I-6350J2D01*
G01D02*
G03X-7115380I6350J2D01*
G03X-7128080I-6350J2D01*
G01D02*
G03X-7115380I6350J2D01*
G03X-7128080I-6350J2D01*
G01D02*
G03X-7115380I6350J2D01*
G03X-7128080I-6350J2D01*
G01D02*
G03X-7115380I6350J2D01*
G03X-7128080I-6350J2D01*
G01D02*
G03X-7115380I6350J2D01*
G03X-7128080I-6350J2D01*
G01D02*
G03X-7115380I6350J2D01*
G03X-7128080I-6350J2D01*
G01D02*
G03X-7115380I6350J2D01*
G03X-7128080I-6350J2D01*
G01D02*
G03X-7115380I6350J2D01*
G03X-7128080I-6350J2D01*
G01D02*
G03X-7115380I6350J2D01*
G03X-7128080I-6350J2D01*
G01X-6767200Y2284480D02*
G03X-6754500I6350J1D01*
G03X-6767200I-6350J1D01*
G01D02*
G03X-6754500I6350J1D01*
G03X-6767200I-6350J1D01*
G01D02*
G03X-6754500I6350J1D01*
G03X-6767200I-6350J1D01*
G01D02*
G03X-6754500I6350J1D01*
G03X-6767200I-6350J1D01*
G01X-6436270Y-2215520D02*
G03X-6423570I6350J-1D01*
G03X-6436270I-6350J-1D01*
G01D02*
G03X-6423570I6350J-1D01*
G03X-6436270I-6350J-1D01*
G01D02*
G03X-6423570I6350J-1D01*
G03X-6436270I-6350J-1D01*
G01D02*
G03X-6423570I6350J-1D01*
G03X-6436270I-6350J-1D01*
G01D02*
G03X-6423570I6350J-1D01*
G03X-6436270I-6350J-1D01*
G01D02*
G03X-6423570I6350J-1D01*
G03X-6436270I-6350J-1D01*
G01D02*
G03X-6423570I6350J-1D01*
G03X-6436270I-6350J-1D01*
G01D02*
G03X-6423570I6350J-1D01*
G03X-6436270I-6350J-1D01*
G01D02*
G03X-6423570I6350J-1D01*
G03X-6436270I-6350J-1D01*
G01D02*
G03X-6423570I6350J-1D01*
G03X-6436270I-6350J-1D01*
G01D02*
G03X-6423570I6350J-1D01*
G03X-6436270I-6350J-1D01*
G01D02*
G03X-6423570I6350J-1D01*
G03X-6436270I-6350J-1D01*
G01X-703670D02*
G03X-690970I6350J-1D01*
G03X-703670I-6350J-1D01*
G01D02*
G03X-690970I6350J-1D01*
G03X-703670I-6350J-1D01*
G01D02*
G03X-690970I6350J-1D01*
G03X-703670I-6350J-1D01*
G01D02*
G03X-690970I6350J-1D01*
G03X-703670I-6350J-1D01*
G01D02*
G03X-690970I6350J-1D01*
G03X-703670I-6350J-1D01*
G01D02*
G03X-690970I6350J-1D01*
G03X-703670I-6350J-1D01*
G01D02*
G03X-690970I6350J-1D01*
G03X-703670I-6350J-1D01*
G01D02*
G03X-690970I6350J-1D01*
G03X-703670I-6350J-1D01*
G01D02*
G03X-690970I6350J-1D01*
G03X-703670I-6350J-1D01*
G01D02*
G03X-690970I6350J-1D01*
G03X-703670I-6350J-1D01*
G01D02*
G03X-690970I6350J-1D01*
G03X-703670I-6350J-1D01*
G01D02*
G03X-690970I6350J-1D01*
G03X-703670I-6350J-1D01*
G01X-372740Y2284480D02*
G03X-360040I6350J1D01*
G03X-372740I-6350J1D01*
G01D02*
G03X-360040I6350J1D01*
G03X-372740I-6350J1D01*
G01D02*
G03X-360040I6350J1D01*
G03X-372740I-6350J1D01*
G01D02*
G03X-360040I6350J1D01*
G03X-372740I-6350J1D01*
G01X-11860Y-2613770D02*
G03X840I6350J3D01*
G03X-11860I-6350J3D01*
G01D02*
G03X840I6350J3D01*
G03X-11860I-6350J3D01*
G01D02*
G03X840I6350J3D01*
G03X-11860I-6350J3D01*
G01D02*
G03X840I6350J3D01*
G03X-11860I-6350J3D01*
G01D02*
G03X840I6350J3D01*
G03X-11860I-6350J3D01*
G01D02*
G03X840I6350J3D01*
G03X-11860I-6350J3D01*
G01D02*
G03X840I6350J3D01*
G03X-11860I-6350J3D01*
G01D02*
G03X840I6350J3D01*
G03X-11860I-6350J3D01*
G01D02*
G03X840I6350J3D01*
G03X-11860I-6350J3D01*
G01D02*
G03X840I6350J3D01*
G03X-11860I-6350J3D01*
G01D02*
G03X840I6350J3D01*
G03X-11860I-6350J3D01*
G01D02*
G03X840I6350J3D01*
G03X-11860I-6350J3D01*
G01X142340Y2427340D02*
G03X155030I6345J-2D01*
G03X142340I-6345J-2D01*
G01D02*
G03X155030I6345J-2D01*
G03X142340I-6345J-2D01*
G01D02*
G03X155030I6345J-2D01*
G03X142340I-6345J-2D01*
G01D02*
G03X155030I6345J-2D01*
G03X142340I-6345J-2D01*
G01X1062430Y-4463650D02*
G03X1075130I6350J4D01*
G03X1062430I-6350J4D01*
G01D02*
G03X1075130I6350J3D01*
G03X1062430I-6350J3D01*
G01D02*
G03X1075130I6350J4D01*
G03X1062430I-6350J4D01*
G01D02*
G03X1075130I6350J3D01*
G03X1062430I-6350J3D01*
G01D02*
G03X1075130I6350J3D01*
G03X1062430I-6350J3D01*
G01D02*
G03X1075130I6350J4D01*
G03X1062430I-6350J4D01*
G01D02*
G03X1075130I6350J3D01*
G03X1062430I-6350J3D01*
G01D02*
G03X1075130I6350J4D01*
G03X1062430I-6350J4D01*
G01D02*
G03X1075130I6350J4D01*
G03X1062430I-6350J4D01*
G01D02*
G03X1075130I6350J3D01*
G03X1062430I-6350J3D01*
G01X3859810Y872860D02*
G03X3872510I6350J-3D01*
G03X3859810I-6350J-3D01*
G01D02*
G03X3872510I6350J-3D01*
G03X3859810I-6350J-3D01*
G01D02*
G03X3872510I6350J-3D01*
G03X3859810I-6350J-3D01*
G01D02*
G03X3872510I6350J-3D01*
G03X3859810I-6350J-3D01*
G01D02*
G03X3872510I6350J-3D01*
G03X3859810I-6350J-3D01*
G01D02*
G03X3872510I6350J-3D01*
G03X3859810I-6350J-3D01*
G01D02*
G03X3872510I6350J-3D01*
G03X3859810I-6350J-3D01*
G01D02*
G03X3872510I6350J-3D01*
G03X3859810I-6350J-3D01*
G01X4789620Y-2966930D02*
G03X4802320I6350J0D01*
G03X4789620I-6350J0D01*
G01D02*
G03X4802320I6350J0D01*
G03X4789620I-6350J0D01*
G01D02*
G03X4802320I6350J0D01*
G03X4789620I-6350J0D01*
G01D02*
G03X4802320I6350J0D01*
G03X4789620I-6350J0D01*
G01D02*
G03X4802320I6350J0D01*
G03X4789620I-6350J0D01*
G01D02*
G03X4802320I6350J0D01*
G03X4789620I-6350J0D01*
G01D02*
G03X4802320I6350J0D01*
G03X4789620I-6350J0D01*
G01D02*
G03X4802320I6350J0D01*
G03X4789620I-6350J0D01*
G01D02*
G03X4802320I6350J0D01*
G03X4789620I-6350J0D01*
G01D02*
G03X4802320I6350J0D01*
G03X4789620I-6350J0D01*
G54D16*
X-8890000Y1778000D03*
X762000Y2032000D03*
G54D17*
X-7759700Y1607820D03*
X-7754620Y2174240D03*
X-6982460Y-627380D03*
X-5859780Y-815340D03*
X-5981700Y-749300D03*
X-5328920Y627380D03*
Y886460D03*
X-3792220Y99060D03*
X-3822700Y-58420D03*
X-3820160Y27940D03*
X-3901440Y988060D03*
X-4030980Y1137920D03*
X-3782060Y1000760D03*
X-3726180Y152400D03*
X-3604260D03*
X-3416300Y995680D03*
X-3510280Y998220D03*
X-3609340Y1000760D03*
X-3693160D03*
X-3040380Y850900D03*
X-2730710Y728980D03*
X-2788920Y848360D03*
X-2618530Y728980D03*
X-2184400Y-548640D03*
X-2319020Y-523240D03*
X-2308860Y-746760D03*
X-2189480Y-703580D03*
X-2258060Y1409700D03*
X-2257490Y1234650D03*
X-2255520Y1313180D03*
X-2257490Y1122470D03*
G54D18*
X-7759700Y1607820D03*
X-7754620Y2174240D03*
X-6982460Y-627380D03*
X-5981700Y-749300D03*
X-5859780Y-815340D03*
X-5328920Y886460D03*
Y627380D03*
X-3820160Y27940D03*
X-3822700Y-58420D03*
X-3792220Y99060D03*
X-3782060Y1000760D03*
X-4030980Y1137920D03*
X-3901440Y988060D03*
X-3604260Y152400D03*
X-3726180D03*
X-3693160Y1000760D03*
X-3609340D03*
X-3510280Y998220D03*
X-3416300Y995680D03*
X-2618530Y728980D03*
X-2788920Y848360D03*
X-2730710Y728980D03*
X-3040380Y850900D03*
X-2189480Y-703580D03*
X-2308860Y-746760D03*
X-2319020Y-523240D03*
X-2184400Y-548640D03*
X-2257490Y1122470D03*
X-2255520Y1313180D03*
X-2257490Y1234650D03*
X-2258060Y1409700D03*
G54D19*
X-6565900Y1524000D03*
X-6096000D03*
X-5626100D03*
M02*
