G04 ================== begin FILE IDENTIFICATION RECORD ==================*
G04 Layout Name:  F:/Cadence Boards/Remote/board/testv2/Remote_T.brd*
G04 Film Name:    SILKSCREEN_TOP*
G04 File Format:  Gerber RS274X*
G04 File Origin:  Cadence Allegro 16.6-P004*
G04 Origin Date:  Fri Jul 01 15:30:26 2016*
G04 *
G04 Layer:  PACKAGE GEOMETRY/SILKSCREEN_TOP*
G04 *
G04 Offset:    (0.0000 0.0000)*
G04 Mirror:    No*
G04 Mode:      Positive*
G04 Rotation:  0*
G04 FullContactRelief:  No*
G04 UndefLineWidth:     0.2540*
G04 ================== end FILE IDENTIFICATION RECORD ====================*
%FSLAX25Y25*MOMM*%
%IR0*IPPOS*OFA0.00000B0.00000*MIA0B0*SFA1.00000B1.00000*%
%ADD10C,.5004*%
%ADD11C,.2007*%
%ADD12C,.254*%
%ADD13C,.2489*%
G75*
%LPD*%
G75*
G54D10*
G01X-6385050Y907000D02*
G03I-24950J-2D01*
G01X-3916170Y359700D02*
G03I-24930J0D01*
G54D11*
G01X-10772900Y-1981200D02*
X-10867900D01*
G01Y-1584710D02*
Y-1564900D01*
G01X-10772900Y-1584710D02*
Y-1564900D01*
G01X-9010910Y1655060D02*
Y2154930D01*
X-8261100D01*
Y1655060D01*
X-9010910D01*
G01X-8645900Y1571490D02*
X-8626090D01*
G01X-8645900Y1476500D02*
X-8626090D01*
G01X-8626100Y2238500D02*
X-8645910D01*
G01X-8626100Y2333500D02*
X-8645910D01*
G01X-7112000Y301500D02*
Y206500D01*
G01X-6510020Y516890D02*
Y1007110D01*
X-6189980D01*
Y516890D01*
X-6510020D01*
G01X-5591300Y863600D02*
X-5686300D01*
G01X-5207000Y-98300D02*
Y-3300D01*
G01X-5000500Y213100D02*
Y193290D01*
G01X-5207000Y409710D02*
Y504700D01*
G01X-5100070Y1337570D02*
X-5059930D01*
G01X-5100070Y1202440D02*
X-5059930D01*
G01X-5100070Y1845560D02*
X-5059930D01*
G01X-5100070Y1710430D02*
X-5059930D01*
G01X-5100070Y1591570D02*
X-5059930D01*
G01X-5100070Y1456440D02*
X-5059930D01*
G01X-4467100Y-254000D02*
X-4372100D01*
G01X-4905500Y213100D02*
Y193290D01*
G01X-4562100Y1222510D02*
X-4581910D01*
G01X-4562100Y1317500D02*
X-4581910D01*
G01X-4562100Y1730510D02*
X-4581910D01*
G01X-4562100Y1825500D02*
X-4581910D01*
G01X-4562100Y1476510D02*
X-4581910D01*
G01X-4562100Y1571500D02*
X-4581910D01*
G01X-4030980Y-170180D02*
Y449580D01*
X-3411220D01*
Y-170180D01*
X-4030980D01*
G01X-4318000Y739900D02*
Y834900D01*
G01X-3962400D02*
Y739900D01*
G01X-4340100Y1397000D02*
X-4245100D01*
G01X-3454400Y-580900D02*
Y-485900D01*
G01X-3000500Y381000D02*
X-3095500D01*
G01X645930Y1907040D02*
Y2156970D01*
X1386080D01*
Y1907040D01*
X645930D01*
G01X3038100Y-3000500D02*
X3057910D01*
G01X3038100Y-3095500D02*
X3057910D01*
G01X3546090Y-3000500D02*
X3565900D01*
G01X3546090Y-3095500D02*
X3565900D01*
G54D12*
G01X-10580370Y-1457700D02*
Y-2098290D01*
X-9739630D01*
Y-1457700D01*
X-10580370D01*
G01X-10606790Y-1480820D02*
G03I-20572J4D01*
G01X-7789930Y-669040D02*
Y1431040D01*
X-9940040D01*
Y-719070D01*
X-7789930D01*
Y-669040D01*
G01X-9183370Y-1457700D02*
Y-2098290D01*
X-8342630D01*
Y-1457700D01*
X-9183370D01*
G01X-9209790Y-1480820D02*
G03I-20572J4D01*
G01X-8167370Y-1457700D02*
Y-2098290D01*
X-7326630D01*
Y-1457700D01*
X-8167370D01*
G01X-8193790Y-1480820D02*
G03I-20572J4D01*
G01X-6971530Y1022350D02*
X-7252460D01*
Y501650D01*
X-6971530D01*
Y1022350D01*
G01X-7626100Y1654050D02*
Y1393950D01*
X-7105900D01*
Y1654050D01*
X-7626100D01*
G01X-7493000D02*
Y2254000D01*
G01X-5436110Y1123950D02*
Y1924050D01*
X-6755900D01*
Y1123950D01*
X-5436110D01*
G01X-6979160Y1061720D02*
G03I-15996J-2D01*
G01X-7239000Y1654050D02*
Y2254000D01*
G01X-4938010Y-1674110D02*
X-6237980D01*
G01D02*
G02Y-1373880I-18J150115D01*
G01D02*
X-4938010D01*
G01Y-1674110D02*
G03Y-1373880I0J150115D01*
G01X-5334000Y1117600D02*
Y1930400D01*
X-4394200D01*
Y1092200D01*
X-4648200D01*
Y685800D01*
X-5334000D01*
Y1117600D01*
G01X-4205990Y-1674110D02*
G02Y-1373880I0J150115D01*
G01X-4553710Y498600D02*
X-4844290D01*
Y-92200D01*
X-4553710D01*
Y498600D01*
G01X-4554730Y546100D02*
G03I-19810J0D01*
G01X-2906010Y-1674110D02*
X-4205990D01*
G01Y-1373880D02*
X-2906010D01*
G01X-4173990Y1633980D02*
Y1160020D01*
X-3192020D01*
Y1633980D01*
X-4173990D01*
G01X-4241800Y2235200D02*
Y1828800D01*
X-2717800D01*
Y2235200D01*
X-4241800D01*
G01Y1828800D02*
Y1701800D01*
X-4064000D01*
Y1651000D01*
G01X-2906010Y-1674110D02*
G03Y-1373880I0J150115D01*
G01X-874010Y-1674110D02*
X-2173990D01*
G01D02*
G02Y-1373890I-10J150110D01*
G01D02*
X-874010D01*
G01X-1293110Y177040D02*
Y397000D01*
X-2273050D01*
Y177040D01*
X-1293110D01*
G01X-2213610Y840740D02*
G03I-21590J0D01*
G01X-2274060Y871980D02*
Y652020D01*
X-773940D01*
Y871980D01*
X-2274060D01*
G01D02*
X-1193800D01*
Y1651000D01*
X-2133600D01*
Y965200D01*
X-1193800D01*
G01X-2108200Y1828800D02*
X-2133600D01*
Y2235200D01*
X-1117600D01*
Y1828800D01*
X-2108200D01*
G01X-874010Y-1674110D02*
G03Y-1373890I10J150110D01*
G01X-584200Y965200D02*
Y279400D01*
X-1270000D01*
G01X-1290830Y213360D02*
G03I-27430J0D01*
G01X-1016000Y1397000D02*
X-177800D01*
Y965200D01*
X-1016000D01*
Y1397000D01*
G01X-1117600Y1828800D02*
Y1752600D01*
X2209800D01*
Y1930400D01*
G01X-1041400Y2235200D02*
X-203200D01*
Y1828800D01*
X-1041400D01*
Y2235200D01*
G01X315210Y-1480820D02*
G03I-20574J4D01*
G01X-203200Y1828800D02*
X1016000D01*
Y1879600D01*
G01X341630Y-1457700D02*
Y-2098290D01*
X1182370D01*
Y-1457700D01*
X341630D01*
G01X427990Y1431040D02*
X3128010D01*
Y-669040D01*
X327910D01*
Y1431040D01*
X427990D01*
G01X1357630Y-1457700D02*
Y-2098290D01*
X2198370D01*
Y-1457700D01*
X1357630D01*
G01X1331210Y-1480820D02*
G03I-20572J4D01*
G01X2601970Y-3302000D02*
G03I-569974J-4D01*
G01X1651000Y-2438400D02*
Y-2692400D01*
G01X1549400Y-2565400D02*
X1752600D01*
G01X2679450Y1934720D02*
Y2154680D01*
X1699510D01*
Y1934720D01*
X2679450D01*
G01X3281680Y-3180080D02*
X2827020D01*
X2757930Y-3249170D01*
Y-3302000D01*
G03X3338070I290070J0D01*
G01Y-3236470D01*
X3281680Y-3180080D01*
G01X2681730Y1971040D02*
G03I-27430J0D01*
G01X-10296310Y-1371600D02*
Y-1244600D01*
X-10256100D01*
X-10243230Y-1250950D01*
X-10235180Y-1259420D01*
X-10231970Y-1276350D01*
X-10235180Y-1293280D01*
X-10244840Y-1303870D01*
X-10256100Y-1310220D01*
X-10296310D01*
G01X-10256100D02*
X-10231970Y-1371600D01*
G01X-10168380Y-1354670D02*
X-10155510Y-1365250D01*
X-10141030Y-1371600D01*
X-10128170D01*
X-10115300Y-1365250D01*
X-10105640Y-1354670D01*
X-10100820Y-1339850D01*
X-10104030Y-1325040D01*
X-10112080Y-1312330D01*
X-10126560Y-1303870D01*
X-10145860Y-1299630D01*
X-10157120Y-1291170D01*
X-10161950Y-1276350D01*
X-10158730Y-1261530D01*
X-10150690Y-1250950D01*
X-10139430Y-1244600D01*
X-10128170D01*
X-10116900Y-1248830D01*
X-10107250Y-1259420D01*
G01X-10005060Y-1244600D02*
Y-1371600D01*
G01X-10042060Y-1244600D02*
X-9968060D01*
G01X-8978730Y-1371600D02*
Y-1244600D01*
G01X-8917600D02*
X-8978730Y-1322920D01*
G01X-8907950Y-1371600D02*
X-8951380Y-1286940D01*
G01X-8781630Y-1371600D02*
X-8845970D01*
Y-1244600D01*
X-8781630D01*
G01X-8807370Y-1305980D02*
X-8845970D01*
G01X-8684260Y-1371600D02*
Y-1314450D01*
X-8716430Y-1244600D01*
G01X-8652090D02*
X-8684260Y-1314450D01*
G01X-8554720Y-1371600D02*
Y-1244600D01*
X-8574020Y-1270000D01*
G01Y-1371600D02*
X-8535420D01*
G01X-8416710Y1473200D02*
Y1600200D01*
X-8376500D01*
X-8363630Y1593850D01*
X-8355580Y1585380D01*
X-8352370Y1568450D01*
X-8355580Y1551520D01*
X-8365240Y1540930D01*
X-8376500Y1534580D01*
X-8416710D01*
G01X-8376500D02*
X-8352370Y1473200D01*
G01X-8290390Y1498600D02*
X-8280740Y1483780D01*
X-8267870Y1475320D01*
X-8253390Y1473200D01*
X-8240520Y1475320D01*
X-8227650Y1485900D01*
X-8219610Y1498600D01*
X-8218000Y1511300D01*
X-8221220Y1526110D01*
X-8232480Y1536700D01*
X-8243740Y1540930D01*
X-8258220D01*
G01X-8243740D02*
X-8234090Y1547280D01*
X-8226040Y1557860D01*
X-8222830Y1570570D01*
X-8226040Y1583270D01*
X-8234090Y1593850D01*
X-8248570Y1600200D01*
X-8263040Y1598080D01*
X-8277520Y1589620D01*
G01X-8442110Y2235200D02*
Y2362200D01*
X-8401900D01*
X-8389030Y2355850D01*
X-8380980Y2347380D01*
X-8377770Y2330450D01*
X-8380980Y2313520D01*
X-8390640Y2302930D01*
X-8401900Y2296580D01*
X-8442110D01*
G01X-8401900D02*
X-8377770Y2235200D01*
G01X-8280400D02*
Y2362200D01*
X-8299700Y2336800D01*
G01Y2235200D02*
X-8261100D01*
G01X-7962730Y-1371600D02*
Y-1244600D01*
G01X-7901600D02*
X-7962730Y-1322920D01*
G01X-7891950Y-1371600D02*
X-7935380Y-1286940D01*
G01X-7765630Y-1371600D02*
X-7829970D01*
Y-1244600D01*
X-7765630D01*
G01X-7791370Y-1305980D02*
X-7829970D01*
G01X-7668260Y-1371600D02*
Y-1314450D01*
X-7700430Y-1244600D01*
G01X-7636090D02*
X-7668260Y-1314450D01*
G01X-7569290Y-1265770D02*
X-7559630Y-1253070D01*
X-7548370Y-1246720D01*
X-7535500Y-1244600D01*
X-7519420Y-1248830D01*
X-7508150Y-1259420D01*
X-7504940Y-1272110D01*
X-7506550Y-1284820D01*
X-7512980Y-1295400D01*
X-7545150Y-1316570D01*
X-7559630Y-1331380D01*
X-7569290Y-1352550D01*
X-7572500Y-1371600D01*
X-7504940D01*
G01X-8140530Y1498600D02*
X-8130880Y1483780D01*
X-8118010Y1475320D01*
X-8103530Y1473200D01*
X-8090660Y1475320D01*
X-8077790Y1485900D01*
X-8069750Y1498600D01*
X-8068140Y1511300D01*
X-8071360Y1526110D01*
X-8082620Y1536700D01*
X-8093880Y1540930D01*
X-8108360D01*
G01X-8093880D02*
X-8084230Y1547280D01*
X-8076180Y1557860D01*
X-8072970Y1570570D01*
X-8076180Y1583270D01*
X-8084230Y1593850D01*
X-8098710Y1600200D01*
X-8113180Y1598080D01*
X-8127660Y1589620D01*
G01X-7975600Y1468970D02*
X-7978820Y1471080D01*
Y1475320D01*
X-7975600Y1477430D01*
X-7972380Y1475320D01*
Y1471080D01*
X-7975600Y1468970D01*
G01X-7849280Y1473200D02*
X-7846060Y1500710D01*
X-7841230Y1524000D01*
X-7834800Y1545170D01*
X-7826760Y1568450D01*
X-7813890Y1600200D01*
X-7878230D01*
G01X-7756740D02*
X-7716520Y1473200D01*
X-7676300Y1600200D01*
G01X-7434750Y319620D02*
X-7444400Y325970D01*
X-7455660Y330200D01*
X-7468530D01*
X-7483010Y323850D01*
X-7494270Y313270D01*
X-7502310Y300570D01*
X-7508750Y279400D01*
X-7510360Y260350D01*
X-7507140Y241300D01*
X-7502310Y228600D01*
X-7492660Y215900D01*
X-7481400Y207430D01*
X-7470140Y203200D01*
X-7458880D01*
X-7447620Y207430D01*
X-7437970Y213780D01*
X-7429920Y222250D01*
G01X-7340600Y203200D02*
X-7329340Y205320D01*
X-7316470Y211660D01*
X-7308430Y222250D01*
X-7305210Y237070D01*
X-7308430Y251880D01*
X-7318080Y264580D01*
X-7332560Y270930D01*
X-7348640D01*
X-7358300Y275170D01*
X-7366340Y285750D01*
X-7369560Y300570D01*
X-7364730Y315380D01*
X-7353470Y325970D01*
X-7340600Y330200D01*
X-7327730Y325970D01*
X-7316470Y315380D01*
X-7311640Y300570D01*
X-7314860Y285750D01*
X-7322900Y275170D01*
X-7332560Y270930D01*
X-7348640D01*
X-7363120Y264580D01*
X-7372770Y251880D01*
X-7375990Y237070D01*
X-7372770Y222250D01*
X-7364730Y211660D01*
X-7351860Y205320D01*
X-7340600Y203200D01*
G01X-7434750Y827620D02*
X-7444400Y833970D01*
X-7455660Y838200D01*
X-7468530D01*
X-7483010Y831850D01*
X-7494270Y821270D01*
X-7502310Y808570D01*
X-7508750Y787400D01*
X-7510360Y768350D01*
X-7507140Y749300D01*
X-7502310Y736600D01*
X-7492660Y723900D01*
X-7481400Y715430D01*
X-7470140Y711200D01*
X-7458880D01*
X-7447620Y715430D01*
X-7437970Y721780D01*
X-7429920Y730250D01*
G01X-7375990Y736600D02*
X-7366340Y721780D01*
X-7353470Y713320D01*
X-7338990Y711200D01*
X-7326120Y713320D01*
X-7313250Y723900D01*
X-7305210Y736600D01*
X-7303600Y749300D01*
X-7306820Y764110D01*
X-7318080Y774700D01*
X-7329340Y778930D01*
X-7343820D01*
G01X-7329340D02*
X-7319690Y785280D01*
X-7311640Y795860D01*
X-7308430Y808570D01*
X-7311640Y821270D01*
X-7319690Y831850D01*
X-7334170Y838200D01*
X-7348640Y836080D01*
X-7363120Y827620D01*
G01X-7584270Y1261530D02*
X-7577840Y1267880D01*
X-7573010Y1278460D01*
X-7569790Y1293290D01*
X-7573010Y1305980D01*
X-7579440Y1314450D01*
X-7590710Y1320800D01*
X-7634140D01*
Y1193800D01*
X-7581050D01*
X-7569790Y1202260D01*
X-7563360Y1214970D01*
X-7560140Y1229780D01*
X-7563360Y1244600D01*
X-7573010Y1257300D01*
X-7584270Y1261530D01*
X-7634140D01*
G01X-7507820Y1193800D02*
X-7467600Y1320800D01*
X-7427380Y1193800D01*
G01X-7441860Y1238250D02*
X-7493340D01*
G01X-7338060Y1320800D02*
Y1193800D01*
G01X-7375060Y1320800D02*
X-7301060D01*
G01X-7181090Y1257300D02*
X-7148910D01*
Y1219200D01*
X-7158570Y1206500D01*
X-7169830Y1198030D01*
X-7185910Y1193800D01*
X-7202000Y1198030D01*
X-7213260Y1206500D01*
X-7222910Y1219200D01*
X-7229350Y1234020D01*
X-7232570Y1250950D01*
Y1265770D01*
X-7229350Y1278460D01*
X-7222910Y1293290D01*
X-7213260Y1305980D01*
X-7203610Y1314450D01*
X-7190740Y1320800D01*
X-7179480D01*
X-7166610Y1316570D01*
X-7156960Y1308100D01*
G01X-7098200Y1193800D02*
Y1320800D01*
X-7024200Y1193800D01*
Y1320800D01*
G01X-6967050Y1193800D02*
Y1320800D01*
X-6934880D01*
X-6922010Y1314450D01*
X-6912360Y1305980D01*
X-6904310Y1293290D01*
X-6897880Y1278460D01*
X-6896270Y1257300D01*
X-6897880Y1236130D01*
X-6904310Y1221310D01*
X-6912360Y1208610D01*
X-6922010Y1200150D01*
X-6934880Y1193800D01*
X-6967050D01*
G01X-6413330Y457200D02*
Y366180D01*
X-6406900Y347130D01*
X-6394030Y334430D01*
X-6377940Y330200D01*
X-6361850Y334430D01*
X-6348980Y347130D01*
X-6342550Y366180D01*
Y457200D01*
G01X-6278970Y436030D02*
X-6269310Y448730D01*
X-6258050Y455080D01*
X-6245180Y457200D01*
X-6229100Y452970D01*
X-6217830Y442380D01*
X-6214620Y429690D01*
X-6216230Y416980D01*
X-6222660Y406400D01*
X-6254830Y385230D01*
X-6269310Y370420D01*
X-6278970Y349250D01*
X-6282180Y330200D01*
X-6214620D01*
G01X-6208520Y1972730D02*
X-6195650Y1962150D01*
X-6181170Y1955800D01*
X-6168310D01*
X-6155440Y1962150D01*
X-6145780Y1972730D01*
X-6140960Y1987550D01*
X-6144170Y2002360D01*
X-6152220Y2015070D01*
X-6166700Y2023530D01*
X-6186000Y2027770D01*
X-6197260Y2036230D01*
X-6202090Y2051050D01*
X-6198870Y2065870D01*
X-6190830Y2076450D01*
X-6179570Y2082800D01*
X-6168310D01*
X-6157040Y2078570D01*
X-6147390Y2067980D01*
G01X-6093460Y2082800D02*
X-6070940Y1955800D01*
X-6045200Y2082800D01*
X-6019460Y1955800D01*
X-5996940Y2082800D01*
G01X-5676730Y-1168400D02*
Y-1259420D01*
X-5670300Y-1278470D01*
X-5657430Y-1291170D01*
X-5641340Y-1295400D01*
X-5625250Y-1291170D01*
X-5612380Y-1278470D01*
X-5605950Y-1259420D01*
Y-1168400D01*
G01X-5515020Y-1295400D02*
X-5511800Y-1267890D01*
X-5506970Y-1244600D01*
X-5500540Y-1223430D01*
X-5492500Y-1200150D01*
X-5479630Y-1168400D01*
X-5543970D01*
G01X-5656750Y700620D02*
X-5666400Y706970D01*
X-5677660Y711200D01*
X-5690530D01*
X-5705010Y704850D01*
X-5716270Y694270D01*
X-5724310Y681570D01*
X-5730750Y660400D01*
X-5732360Y641350D01*
X-5729140Y622300D01*
X-5724310Y609600D01*
X-5714660Y596900D01*
X-5703400Y588430D01*
X-5692140Y584200D01*
X-5680880D01*
X-5669620Y588430D01*
X-5659970Y594780D01*
X-5651920Y603250D01*
G01X-5593170Y690030D02*
X-5583510Y702730D01*
X-5572250Y709080D01*
X-5559380Y711200D01*
X-5543300Y706970D01*
X-5532030Y696380D01*
X-5528820Y683690D01*
X-5530430Y670980D01*
X-5536860Y660400D01*
X-5569030Y639230D01*
X-5583510Y624420D01*
X-5593170Y603250D01*
X-5596380Y584200D01*
X-5528820D01*
G01X-5250350Y370420D02*
X-5260000Y376770D01*
X-5271260Y381000D01*
X-5284130D01*
X-5298610Y374650D01*
X-5309870Y364070D01*
X-5317910Y351370D01*
X-5324350Y330200D01*
X-5325960Y311150D01*
X-5322740Y292100D01*
X-5317910Y279400D01*
X-5308260Y266700D01*
X-5297000Y258230D01*
X-5285740Y254000D01*
X-5274480D01*
X-5263220Y258230D01*
X-5253570Y264580D01*
X-5245520Y273050D01*
G01X-5186770Y306910D02*
X-5175500Y321730D01*
X-5165850Y330200D01*
X-5152980Y334430D01*
X-5141720Y330200D01*
X-5133680Y321730D01*
X-5127240Y309030D01*
X-5125630Y294220D01*
X-5127240Y281510D01*
X-5133680Y268810D01*
X-5143330Y258230D01*
X-5154590Y254000D01*
X-5167460Y258230D01*
X-5178720Y270930D01*
X-5185160Y289980D01*
X-5186770Y311150D01*
X-5183550Y338660D01*
X-5178720Y353490D01*
X-5170680Y368300D01*
X-5159420Y378880D01*
X-5148160Y381000D01*
X-5136900Y376770D01*
X-5128850Y366180D01*
G01X-5250350Y141820D02*
X-5260000Y148170D01*
X-5271260Y152400D01*
X-5284130D01*
X-5298610Y146050D01*
X-5309870Y135470D01*
X-5317910Y122770D01*
X-5324350Y101600D01*
X-5325960Y82550D01*
X-5322740Y63500D01*
X-5317910Y50800D01*
X-5308260Y38100D01*
X-5297000Y29630D01*
X-5285740Y25400D01*
X-5274480D01*
X-5263220Y29630D01*
X-5253570Y35980D01*
X-5245520Y44450D01*
G01X-5183550Y40210D02*
X-5172290Y29630D01*
X-5159420Y25400D01*
X-5146550Y29630D01*
X-5135290Y42330D01*
X-5127240Y61380D01*
X-5124030Y80430D01*
Y103720D01*
X-5127240Y122770D01*
X-5135290Y139700D01*
X-5144940Y148170D01*
X-5156200Y152400D01*
X-5169070Y148170D01*
X-5178720Y139700D01*
X-5185160Y127000D01*
X-5188370Y110060D01*
X-5185160Y95250D01*
X-5177110Y80430D01*
X-5167460Y71960D01*
X-5156200Y69850D01*
X-5143330Y74080D01*
X-5133680Y84670D01*
X-5124030Y103720D01*
G01X-5063910Y355600D02*
Y482600D01*
X-5023700D01*
X-5010830Y476250D01*
X-5002780Y467780D01*
X-4999570Y450850D01*
X-5002780Y433920D01*
X-5012440Y423330D01*
X-5023700Y416980D01*
X-5063910D01*
G01X-5023700D02*
X-4999570Y355600D01*
G01X-4932770Y408510D02*
X-4921500Y423330D01*
X-4911850Y431800D01*
X-4898980Y436030D01*
X-4887720Y431800D01*
X-4879680Y423330D01*
X-4873240Y410630D01*
X-4871630Y395820D01*
X-4873240Y383110D01*
X-4879680Y370410D01*
X-4889330Y359830D01*
X-4900590Y355600D01*
X-4913460Y359830D01*
X-4924720Y372530D01*
X-4931160Y391580D01*
X-4932770Y412750D01*
X-4929550Y440260D01*
X-4924720Y455090D01*
X-4916680Y469900D01*
X-4905420Y480480D01*
X-4894160Y482600D01*
X-4882900Y478370D01*
X-4874850Y467780D01*
G01X-5285740Y533400D02*
X-5274480Y535520D01*
X-5261610Y541860D01*
X-5253570Y552450D01*
X-5250350Y567270D01*
X-5253570Y582080D01*
X-5263220Y594780D01*
X-5277700Y601130D01*
X-5293780D01*
X-5303440Y605370D01*
X-5311480Y615950D01*
X-5314700Y630770D01*
X-5309870Y645580D01*
X-5298610Y656170D01*
X-5285740Y660400D01*
X-5272870Y656170D01*
X-5261610Y645580D01*
X-5256780Y630770D01*
X-5260000Y615950D01*
X-5268040Y605370D01*
X-5277700Y601130D01*
X-5293780D01*
X-5308260Y594780D01*
X-5317910Y582080D01*
X-5321130Y567270D01*
X-5317910Y552450D01*
X-5309870Y541860D01*
X-5297000Y535520D01*
X-5285740Y533400D01*
G01X-5198030D02*
Y660400D01*
X-5156200Y554570D01*
X-5114370Y660400D01*
Y533400D01*
G01X-5060440D02*
Y660400D01*
G01X-4992880D02*
Y533400D01*
G01Y596900D02*
X-5060440D01*
G01X-4921250Y618060D02*
X-4872990D01*
X-4921250Y533400D01*
X-4872990D01*
G01X-5168730Y863600D02*
Y990600D01*
X-5136560D01*
X-5123690Y984250D01*
X-5114040Y975780D01*
X-5105990Y963090D01*
X-5099560Y948260D01*
X-5097950Y927100D01*
X-5099560Y905930D01*
X-5105990Y891110D01*
X-5114040Y878410D01*
X-5123690Y869950D01*
X-5136560Y863600D01*
X-5168730D01*
G01X-5034370Y969430D02*
X-5024710Y982130D01*
X-5013450Y988480D01*
X-5000580Y990600D01*
X-4984500Y986370D01*
X-4973230Y975780D01*
X-4970020Y963090D01*
X-4971630Y950380D01*
X-4978060Y939800D01*
X-5010230Y918630D01*
X-5024710Y903820D01*
X-5034370Y882650D01*
X-5037580Y863600D01*
X-4970020D01*
G01X-5168730Y711200D02*
Y838200D01*
X-5136560D01*
X-5123690Y831850D01*
X-5114040Y823380D01*
X-5105990Y810690D01*
X-5099560Y795860D01*
X-5097950Y774700D01*
X-5099560Y753530D01*
X-5105990Y738710D01*
X-5114040Y726010D01*
X-5123690Y717550D01*
X-5136560Y711200D01*
X-5168730D01*
G01X-5039190Y736600D02*
X-5029540Y721780D01*
X-5016670Y713320D01*
X-5002190Y711200D01*
X-4989320Y713320D01*
X-4976450Y723900D01*
X-4968410Y736600D01*
X-4966800Y749300D01*
X-4970020Y764110D01*
X-4981280Y774700D01*
X-4992540Y778930D01*
X-5007020D01*
G01X-4992540D02*
X-4982890Y785280D01*
X-4974840Y795860D01*
X-4971630Y808570D01*
X-4974840Y821270D01*
X-4982890Y831850D01*
X-4997370Y838200D01*
X-5011840Y836080D01*
X-5026320Y827620D01*
G01X-5168730Y1016000D02*
Y1143000D01*
X-5136560D01*
X-5123690Y1136650D01*
X-5114040Y1128180D01*
X-5105990Y1115490D01*
X-5099560Y1100660D01*
X-5097950Y1079500D01*
X-5099560Y1058330D01*
X-5105990Y1043510D01*
X-5114040Y1030810D01*
X-5123690Y1022350D01*
X-5136560Y1016000D01*
X-5168730D01*
G01X-5003800D02*
Y1143000D01*
X-5023100Y1117600D01*
G01Y1016000D02*
X-4984500D01*
G01X-4462950Y-467780D02*
X-4472600Y-461430D01*
X-4483860Y-457200D01*
X-4496730D01*
X-4511210Y-463550D01*
X-4522470Y-474130D01*
X-4530510Y-486830D01*
X-4536950Y-508000D01*
X-4538560Y-527050D01*
X-4535340Y-546100D01*
X-4530510Y-558800D01*
X-4520860Y-571500D01*
X-4509600Y-579970D01*
X-4498340Y-584200D01*
X-4487080D01*
X-4475820Y-579970D01*
X-4466170Y-573620D01*
X-4458120Y-565150D01*
G01X-4368800Y-584200D02*
Y-457200D01*
X-4388100Y-482600D01*
G01Y-584200D02*
X-4349500D01*
G01X-4239260Y-457200D02*
X-4252130Y-461430D01*
X-4261780Y-472020D01*
X-4268220Y-484710D01*
X-4273040Y-501650D01*
X-4274650Y-520700D01*
X-4273040Y-539750D01*
X-4268220Y-556690D01*
X-4261780Y-569390D01*
X-4252130Y-579970D01*
X-4239260Y-584200D01*
X-4226390Y-579970D01*
X-4216740Y-569390D01*
X-4210300Y-556690D01*
X-4205480Y-539750D01*
X-4203870Y-520700D01*
X-4205480Y-501650D01*
X-4210300Y-484710D01*
X-4216740Y-472020D01*
X-4226390Y-461430D01*
X-4239260Y-457200D01*
G01X-4335950Y1005420D02*
X-4345600Y1011770D01*
X-4356860Y1016000D01*
X-4369730D01*
X-4384210Y1009650D01*
X-4395470Y999070D01*
X-4403510Y986370D01*
X-4409950Y965200D01*
X-4411560Y946150D01*
X-4408340Y927100D01*
X-4403510Y914400D01*
X-4393860Y901700D01*
X-4382600Y893230D01*
X-4371340Y889000D01*
X-4360080D01*
X-4348820Y893230D01*
X-4339170Y899580D01*
X-4331120Y908050D01*
G01X-4222500Y889000D02*
Y1016000D01*
X-4282020Y924980D01*
X-4201580D01*
G01X-4911510Y863600D02*
Y990600D01*
X-4871300D01*
X-4858430Y984250D01*
X-4850380Y975780D01*
X-4847170Y958850D01*
X-4850380Y941920D01*
X-4860040Y931330D01*
X-4871300Y924980D01*
X-4911510D01*
G01X-4871300D02*
X-4847170Y863600D01*
G01X-4730500D02*
Y990600D01*
X-4790020Y899580D01*
X-4709580D01*
G01X-4911510Y711200D02*
Y838200D01*
X-4871300D01*
X-4858430Y831850D01*
X-4850380Y823380D01*
X-4847170Y806450D01*
X-4850380Y789520D01*
X-4860040Y778930D01*
X-4871300Y772580D01*
X-4911510D01*
G01X-4871300D02*
X-4847170Y711200D01*
G01X-4785190Y730250D02*
X-4775540Y719660D01*
X-4764280Y713320D01*
X-4749800Y711200D01*
X-4735320Y715430D01*
X-4724060Y723900D01*
X-4716020Y738710D01*
X-4714410Y755650D01*
X-4717630Y772580D01*
X-4725670Y783170D01*
X-4736930Y791630D01*
X-4748190Y793750D01*
X-4759450Y791630D01*
X-4773930Y783170D01*
X-4769100Y838200D01*
X-4725670D01*
G01X-4911510Y1016000D02*
Y1143000D01*
X-4871300D01*
X-4858430Y1136650D01*
X-4850380Y1128180D01*
X-4847170Y1111250D01*
X-4850380Y1094320D01*
X-4860040Y1083730D01*
X-4871300Y1077380D01*
X-4911510D01*
G01X-4871300D02*
X-4847170Y1016000D01*
G01X-4780370Y1121830D02*
X-4770710Y1134530D01*
X-4759450Y1140880D01*
X-4746580Y1143000D01*
X-4730500Y1138770D01*
X-4719230Y1128180D01*
X-4716020Y1115490D01*
X-4717630Y1102780D01*
X-4724060Y1092200D01*
X-4756230Y1071030D01*
X-4770710Y1056220D01*
X-4780370Y1035050D01*
X-4783580Y1016000D01*
X-4716020D01*
G01X-4310550Y1665820D02*
X-4320200Y1672170D01*
X-4331460Y1676400D01*
X-4344330D01*
X-4358810Y1670050D01*
X-4370070Y1659470D01*
X-4378110Y1646770D01*
X-4384550Y1625600D01*
X-4386160Y1606550D01*
X-4382940Y1587500D01*
X-4378110Y1574800D01*
X-4368460Y1562100D01*
X-4357200Y1553630D01*
X-4345940Y1549400D01*
X-4334680D01*
X-4323420Y1553630D01*
X-4313770Y1559980D01*
X-4305720Y1568450D01*
G01X-4216400Y1549400D02*
Y1676400D01*
X-4235700Y1651000D01*
G01Y1549400D02*
X-4197100D01*
G01X-3980350Y1005420D02*
X-3990000Y1011770D01*
X-4001260Y1016000D01*
X-4014130D01*
X-4028610Y1009650D01*
X-4039870Y999070D01*
X-4047910Y986370D01*
X-4054350Y965200D01*
X-4055960Y946150D01*
X-4052740Y927100D01*
X-4047910Y914400D01*
X-4038260Y901700D01*
X-4027000Y893230D01*
X-4015740Y889000D01*
X-4004480D01*
X-3993220Y893230D01*
X-3983570Y899580D01*
X-3975520Y908050D01*
G01X-3921590D02*
X-3911940Y897460D01*
X-3900680Y891120D01*
X-3886200Y889000D01*
X-3871720Y893230D01*
X-3860460Y901700D01*
X-3852420Y916510D01*
X-3850810Y933450D01*
X-3854030Y950380D01*
X-3862070Y960970D01*
X-3873330Y969430D01*
X-3884590Y971550D01*
X-3895850Y969430D01*
X-3910330Y960970D01*
X-3905500Y1016000D01*
X-3862070D01*
G01X-4107350Y2173820D02*
X-4117000Y2180170D01*
X-4128260Y2184400D01*
X-4141130D01*
X-4155610Y2178050D01*
X-4166870Y2167470D01*
X-4174910Y2154770D01*
X-4181350Y2133600D01*
X-4182960Y2114550D01*
X-4179740Y2095500D01*
X-4174910Y2082800D01*
X-4165260Y2070100D01*
X-4154000Y2061630D01*
X-4142740Y2057400D01*
X-4131480D01*
X-4120220Y2061630D01*
X-4110570Y2067980D01*
X-4102520Y2076450D01*
G01X-4046980Y2074330D02*
X-4034110Y2063750D01*
X-4019630Y2057400D01*
X-4006770D01*
X-3993900Y2063750D01*
X-3984240Y2074330D01*
X-3979420Y2089150D01*
X-3982630Y2103960D01*
X-3990680Y2116670D01*
X-4005160Y2125130D01*
X-4024460Y2129370D01*
X-4035720Y2137830D01*
X-4040550Y2152650D01*
X-4037330Y2167470D01*
X-4029290Y2178050D01*
X-4018030Y2184400D01*
X-4006770D01*
X-3995500Y2180170D01*
X-3985850Y2169580D01*
G01X-3920660Y2057400D02*
Y2184400D01*
X-3846660Y2057400D01*
Y2184400D01*
G01X-4107350Y2021420D02*
X-4117000Y2027770D01*
X-4128260Y2032000D01*
X-4141130D01*
X-4155610Y2025650D01*
X-4166870Y2015070D01*
X-4174910Y2002370D01*
X-4181350Y1981200D01*
X-4182960Y1962150D01*
X-4179740Y1943100D01*
X-4174910Y1930400D01*
X-4165260Y1917700D01*
X-4154000Y1909230D01*
X-4142740Y1905000D01*
X-4131480D01*
X-4120220Y1909230D01*
X-4110570Y1915580D01*
X-4102520Y1924050D01*
G01X-3981030Y1905000D02*
X-4045370D01*
Y2032000D01*
X-3981030D01*
G01X-4006770Y1970620D02*
X-4045370D01*
G01X-3770120Y1921930D02*
X-3757250Y1911350D01*
X-3742770Y1905000D01*
X-3729910D01*
X-3717040Y1911350D01*
X-3707380Y1921930D01*
X-3702560Y1936750D01*
X-3705770Y1951560D01*
X-3713820Y1964270D01*
X-3728300Y1972730D01*
X-3747600Y1976970D01*
X-3758860Y1985430D01*
X-3763690Y2000250D01*
X-3760470Y2015070D01*
X-3752430Y2025650D01*
X-3741170Y2032000D01*
X-3729910D01*
X-3718640Y2027770D01*
X-3708990Y2017180D01*
G01X-3571410Y2021420D02*
X-3581060Y2027770D01*
X-3592320Y2032000D01*
X-3605190D01*
X-3619670Y2025650D01*
X-3630930Y2015070D01*
X-3638970Y2002370D01*
X-3645410Y1981200D01*
X-3647020Y1962150D01*
X-3643800Y1943100D01*
X-3638970Y1930400D01*
X-3629320Y1917700D01*
X-3618060Y1909230D01*
X-3606800Y1905000D01*
X-3595540D01*
X-3584280Y1909230D01*
X-3574630Y1915580D01*
X-3566580Y1924050D01*
G01X-3512650Y1905000D02*
Y2032000D01*
G01X-3451520D02*
X-3512650Y1953680D01*
G01X-3441870Y1905000D02*
X-3485300Y1989660D01*
G01X-3644730Y-1168400D02*
Y-1259420D01*
X-3638300Y-1278470D01*
X-3625430Y-1291170D01*
X-3609340Y-1295400D01*
X-3593250Y-1291170D01*
X-3580380Y-1278470D01*
X-3573950Y-1259420D01*
Y-1168400D01*
G01X-3479800Y-1295400D02*
X-3468540Y-1293280D01*
X-3455670Y-1286940D01*
X-3447630Y-1276350D01*
X-3444410Y-1261530D01*
X-3447630Y-1246720D01*
X-3457280Y-1234020D01*
X-3471760Y-1227670D01*
X-3487840D01*
X-3497500Y-1223430D01*
X-3505540Y-1212850D01*
X-3508760Y-1198030D01*
X-3503930Y-1183220D01*
X-3492670Y-1172630D01*
X-3479800Y-1168400D01*
X-3466930Y-1172630D01*
X-3455670Y-1183220D01*
X-3450840Y-1198030D01*
X-3454060Y-1212850D01*
X-3462100Y-1223430D01*
X-3471760Y-1227670D01*
X-3487840D01*
X-3502320Y-1234020D01*
X-3511970Y-1246720D01*
X-3515190Y-1261530D01*
X-3511970Y-1276350D01*
X-3503930Y-1286940D01*
X-3491060Y-1293280D01*
X-3479800Y-1295400D01*
G01X-3192950Y-467780D02*
X-3202600Y-461430D01*
X-3213860Y-457200D01*
X-3226730D01*
X-3241210Y-463550D01*
X-3252470Y-474130D01*
X-3260510Y-486830D01*
X-3266950Y-508000D01*
X-3268560Y-527050D01*
X-3265340Y-546100D01*
X-3260510Y-558800D01*
X-3250860Y-571500D01*
X-3239600Y-579970D01*
X-3228340Y-584200D01*
X-3217080D01*
X-3205820Y-579970D01*
X-3196170Y-573620D01*
X-3188120Y-565150D01*
G01X-3098800Y-584200D02*
Y-457200D01*
X-3118100Y-482600D01*
G01Y-584200D02*
X-3079500D01*
G01X-2969260D02*
Y-457200D01*
X-2988560Y-482600D01*
G01Y-584200D02*
X-2949960D01*
G01X-3752770Y2057400D02*
Y2184400D01*
X-3710940Y2078570D01*
X-3669110Y2184400D01*
Y2057400D01*
G01X-3581400D02*
X-3594270Y2059520D01*
X-3605530Y2067980D01*
X-3615180Y2080680D01*
X-3621620Y2095500D01*
X-3624840Y2112430D01*
Y2129370D01*
X-3621620Y2146300D01*
X-3615180Y2161120D01*
X-3605530Y2173820D01*
X-3594270Y2182280D01*
X-3581400Y2184400D01*
X-3568530Y2182280D01*
X-3557270Y2173820D01*
X-3547620Y2161120D01*
X-3541180Y2146300D01*
X-3537960Y2129370D01*
Y2112430D01*
X-3541180Y2095500D01*
X-3547620Y2080680D01*
X-3557270Y2067980D01*
X-3568530Y2059520D01*
X-3581400Y2057400D01*
G01X-3485640Y2074330D02*
X-3472770Y2063750D01*
X-3458290Y2057400D01*
X-3445430D01*
X-3432560Y2063750D01*
X-3422900Y2074330D01*
X-3418080Y2089150D01*
X-3421290Y2103960D01*
X-3429340Y2116670D01*
X-3443820Y2125130D01*
X-3463120Y2129370D01*
X-3474380Y2137830D01*
X-3479210Y2152650D01*
X-3475990Y2167470D01*
X-3467950Y2178050D01*
X-3456690Y2184400D01*
X-3445430D01*
X-3434160Y2180170D01*
X-3424510Y2169580D01*
G01X-3341620Y2184400D02*
X-3303020D01*
G01X-3322320D02*
Y2057400D01*
G01X-3341620D02*
X-3303020D01*
G01X-3222240Y2184400D02*
X-3183640D01*
G01X-3202940D02*
Y2057400D01*
G01X-3222240D02*
X-3183640D01*
G01X-3105570D02*
Y2184400D01*
X-3065360D01*
X-3052490Y2178050D01*
X-3044440Y2169580D01*
X-3041230Y2152650D01*
X-3044440Y2135720D01*
X-3054100Y2125130D01*
X-3065360Y2118780D01*
X-3105570D01*
G01X-3065360D02*
X-3041230Y2057400D01*
G01X-2943860D02*
X-2956730Y2059520D01*
X-2967990Y2067980D01*
X-2977640Y2080680D01*
X-2984080Y2095500D01*
X-2987300Y2112430D01*
Y2129370D01*
X-2984080Y2146300D01*
X-2977640Y2161120D01*
X-2967990Y2173820D01*
X-2956730Y2182280D01*
X-2943860Y2184400D01*
X-2930990Y2182280D01*
X-2919730Y2173820D01*
X-2910080Y2161120D01*
X-2903640Y2146300D01*
X-2900420Y2129370D01*
Y2112430D01*
X-2903640Y2095500D01*
X-2910080Y2080680D01*
X-2919730Y2067980D01*
X-2930990Y2059520D01*
X-2943860Y2057400D01*
G01X-2930990Y2091270D02*
X-2911690Y2057400D01*
G01X-3219370Y1905000D02*
Y2032000D01*
X-3177540Y1926170D01*
X-3135710Y2032000D01*
Y1905000D01*
G01X-3067300Y2032000D02*
X-3028700D01*
G01X-3048000D02*
Y1905000D01*
G01X-3067300D02*
X-3028700D01*
G01X-2952240Y1921930D02*
X-2939370Y1911350D01*
X-2924890Y1905000D01*
X-2912030D01*
X-2899160Y1911350D01*
X-2889500Y1921930D01*
X-2884680Y1936750D01*
X-2887890Y1951560D01*
X-2895940Y1964270D01*
X-2910420Y1972730D01*
X-2929720Y1976970D01*
X-2940980Y1985430D01*
X-2945810Y2000250D01*
X-2942590Y2015070D01*
X-2934550Y2025650D01*
X-2923290Y2032000D01*
X-2912030D01*
X-2900760Y2027770D01*
X-2891110Y2017180D01*
G01X-2788920Y1905000D02*
X-2801790Y1907120D01*
X-2813050Y1915580D01*
X-2822700Y1928280D01*
X-2829140Y1943100D01*
X-2832360Y1960030D01*
Y1976970D01*
X-2829140Y1993900D01*
X-2822700Y2008720D01*
X-2813050Y2021420D01*
X-2801790Y2029880D01*
X-2788920Y2032000D01*
X-2776050Y2029880D01*
X-2764790Y2021420D01*
X-2755140Y2008720D01*
X-2748700Y1993900D01*
X-2745480Y1976970D01*
Y1960030D01*
X-2748700Y1943100D01*
X-2755140Y1928280D01*
X-2764790Y1915580D01*
X-2776050Y1907120D01*
X-2788920Y1905000D01*
G01X-2862750Y446620D02*
X-2872400Y452970D01*
X-2883660Y457200D01*
X-2896530D01*
X-2911010Y450850D01*
X-2922270Y440270D01*
X-2930310Y427570D01*
X-2936750Y406400D01*
X-2938360Y387350D01*
X-2935140Y368300D01*
X-2930310Y355600D01*
X-2920660Y342900D01*
X-2909400Y334430D01*
X-2898140Y330200D01*
X-2886880D01*
X-2875620Y334430D01*
X-2865970Y340780D01*
X-2857920Y349250D01*
G01X-2771820Y330200D02*
X-2768600Y357710D01*
X-2763770Y381000D01*
X-2757340Y402170D01*
X-2749300Y425450D01*
X-2736430Y457200D01*
X-2800770D01*
G01X-2050290Y1511300D02*
X-2018110D01*
Y1473200D01*
X-2027770Y1460500D01*
X-2039030Y1452030D01*
X-2055110Y1447800D01*
X-2071200Y1452030D01*
X-2082460Y1460500D01*
X-2092110Y1473200D01*
X-2098550Y1488020D01*
X-2101770Y1504950D01*
Y1519770D01*
X-2098550Y1532460D01*
X-2092110Y1547290D01*
X-2082460Y1559980D01*
X-2072810Y1568450D01*
X-2059940Y1574800D01*
X-2048680D01*
X-2035810Y1570570D01*
X-2026160Y1562100D01*
G01X-1967400Y1447800D02*
Y1574800D01*
X-1893400Y1447800D01*
Y1574800D01*
G01X-1836250Y1447800D02*
Y1574800D01*
X-1804080D01*
X-1791210Y1568450D01*
X-1781560Y1559980D01*
X-1773510Y1547290D01*
X-1767080Y1532460D01*
X-1765470Y1511300D01*
X-1767080Y1490130D01*
X-1773510Y1475310D01*
X-1781560Y1462610D01*
X-1791210Y1454150D01*
X-1804080Y1447800D01*
X-1836250D01*
G01X-1577170Y1473200D02*
X-1567520Y1458380D01*
X-1554650Y1449920D01*
X-1540170Y1447800D01*
X-1527300Y1449920D01*
X-1514430Y1460500D01*
X-1506390Y1473200D01*
X-1504780Y1485900D01*
X-1508000Y1500710D01*
X-1519260Y1511300D01*
X-1530520Y1515530D01*
X-1545000D01*
G01X-1530520D02*
X-1520870Y1521880D01*
X-1512820Y1532460D01*
X-1509610Y1545170D01*
X-1512820Y1557870D01*
X-1520870Y1568450D01*
X-1535350Y1574800D01*
X-1549820Y1572680D01*
X-1564300Y1564220D01*
G01X-1441200Y1532460D02*
X-1412240Y1447800D01*
X-1383280Y1532460D01*
G01X-1318090Y1473200D02*
X-1308440Y1458380D01*
X-1295570Y1449920D01*
X-1281090Y1447800D01*
X-1268220Y1449920D01*
X-1255350Y1460500D01*
X-1247310Y1473200D01*
X-1245700Y1485900D01*
X-1248920Y1500710D01*
X-1260180Y1511300D01*
X-1271440Y1515530D01*
X-1285920D01*
G01X-1271440D02*
X-1261790Y1521880D01*
X-1253740Y1532460D01*
X-1250530Y1545170D01*
X-1253740Y1557870D01*
X-1261790Y1568450D01*
X-1276270Y1574800D01*
X-1290740Y1572680D01*
X-1305220Y1564220D01*
G01X-2093720Y1261530D02*
X-2080850Y1250950D01*
X-2066370Y1244600D01*
X-2053510D01*
X-2040640Y1250950D01*
X-2030980Y1261530D01*
X-2026160Y1276350D01*
X-2029370Y1291160D01*
X-2037420Y1303870D01*
X-2051900Y1312330D01*
X-2071200Y1316570D01*
X-2082460Y1325030D01*
X-2087290Y1339850D01*
X-2084070Y1354670D01*
X-2076030Y1365250D01*
X-2064770Y1371600D01*
X-2053510D01*
X-2042240Y1367370D01*
X-2032590Y1356780D01*
G01X-1895010Y1361020D02*
X-1904660Y1367370D01*
X-1915920Y1371600D01*
X-1928790D01*
X-1943270Y1365250D01*
X-1954530Y1354670D01*
X-1962570Y1341970D01*
X-1969010Y1320800D01*
X-1970620Y1301750D01*
X-1967400Y1282700D01*
X-1962570Y1270000D01*
X-1952920Y1257300D01*
X-1941660Y1248830D01*
X-1930400Y1244600D01*
X-1919140D01*
X-1907880Y1248830D01*
X-1898230Y1255180D01*
X-1890180Y1263650D01*
G01X-1833030Y1371600D02*
Y1244600D01*
X-1768690D01*
G01X-1575560Y1261530D02*
X-1562690Y1250950D01*
X-1548210Y1244600D01*
X-1535350D01*
X-1522480Y1250950D01*
X-1512820Y1261530D01*
X-1508000Y1276350D01*
X-1511210Y1291160D01*
X-1519260Y1303870D01*
X-1533740Y1312330D01*
X-1553040Y1316570D01*
X-1564300Y1325030D01*
X-1569130Y1339850D01*
X-1565910Y1354670D01*
X-1557870Y1365250D01*
X-1546610Y1371600D01*
X-1535350D01*
X-1524080Y1367370D01*
X-1514430Y1356780D01*
G01X-1447630Y1244600D02*
Y1371600D01*
X-1415460D01*
X-1402590Y1365250D01*
X-1392940Y1356780D01*
X-1384890Y1344090D01*
X-1378460Y1329260D01*
X-1376850Y1308100D01*
X-1378460Y1286930D01*
X-1384890Y1272110D01*
X-1392940Y1259410D01*
X-1402590Y1250950D01*
X-1415460Y1244600D01*
X-1447630D01*
G01X-1322920D02*
X-1282700Y1371600D01*
X-1242480Y1244600D01*
G01X-1256960Y1289050D02*
X-1308440D01*
G01X-2092110Y1041400D02*
Y1168400D01*
X-2051900D01*
X-2039030Y1162050D01*
X-2030980Y1153580D01*
X-2027770Y1136650D01*
X-2030980Y1119720D01*
X-2040640Y1109130D01*
X-2051900Y1102780D01*
X-2092110D01*
G01X-2051900D02*
X-2027770Y1041400D01*
G01X-1964180Y1058330D02*
X-1951310Y1047750D01*
X-1936830Y1041400D01*
X-1923970D01*
X-1911100Y1047750D01*
X-1901440Y1058330D01*
X-1896620Y1073150D01*
X-1899830Y1087960D01*
X-1907880Y1100670D01*
X-1922360Y1109130D01*
X-1941660Y1113370D01*
X-1952920Y1121830D01*
X-1957750Y1136650D01*
X-1954530Y1151470D01*
X-1946490Y1162050D01*
X-1935230Y1168400D01*
X-1923970D01*
X-1912700Y1164170D01*
X-1903050Y1153580D01*
G01X-1800860Y1168400D02*
Y1041400D01*
G01X-1837860Y1168400D02*
X-1763860D01*
G01X-2120730Y2082800D02*
X-2111080Y2067980D01*
X-2098210Y2059520D01*
X-2083730Y2057400D01*
X-2070860Y2059520D01*
X-2057990Y2070100D01*
X-2049950Y2082800D01*
X-2048340Y2095500D01*
X-2051560Y2110310D01*
X-2062820Y2120900D01*
X-2074080Y2125130D01*
X-2088560D01*
G01X-2074080D02*
X-2064430Y2131480D01*
X-2056380Y2142060D01*
X-2053170Y2154770D01*
X-2056380Y2167470D01*
X-2064430Y2178050D01*
X-2078910Y2184400D01*
X-2093380Y2182280D01*
X-2107860Y2173820D01*
G01X-1984760Y2142060D02*
X-1955800Y2057400D01*
X-1926840Y2142060D01*
G01X-1861650Y2082800D02*
X-1852000Y2067980D01*
X-1839130Y2059520D01*
X-1824650Y2057400D01*
X-1811780Y2059520D01*
X-1798910Y2070100D01*
X-1790870Y2082800D01*
X-1789260Y2095500D01*
X-1792480Y2110310D01*
X-1803740Y2120900D01*
X-1815000Y2125130D01*
X-1829480D01*
G01X-1815000D02*
X-1805350Y2131480D01*
X-1797300Y2142060D01*
X-1794090Y2154770D01*
X-1797300Y2167470D01*
X-1805350Y2178050D01*
X-1819830Y2184400D01*
X-1834300Y2182280D01*
X-1848780Y2173820D01*
G01X-2119120Y1896530D02*
X-2106250Y1885950D01*
X-2091770Y1879600D01*
X-2078910D01*
X-2066040Y1885950D01*
X-2056380Y1896530D01*
X-2051560Y1911350D01*
X-2054770Y1926160D01*
X-2062820Y1938870D01*
X-2077300Y1947330D01*
X-2096600Y1951570D01*
X-2107860Y1960030D01*
X-2112690Y1974850D01*
X-2109470Y1989670D01*
X-2101430Y2000250D01*
X-2090170Y2006600D01*
X-2078910D01*
X-2067640Y2002370D01*
X-2057990Y1991780D01*
G01X-1920410Y1996020D02*
X-1930060Y2002370D01*
X-1941320Y2006600D01*
X-1954190D01*
X-1968670Y2000250D01*
X-1979930Y1989670D01*
X-1987970Y1976970D01*
X-1994410Y1955800D01*
X-1996020Y1936750D01*
X-1992800Y1917700D01*
X-1987970Y1905000D01*
X-1978320Y1892300D01*
X-1967060Y1883830D01*
X-1955800Y1879600D01*
X-1944540D01*
X-1933280Y1883830D01*
X-1923630Y1890180D01*
X-1915580Y1898650D01*
G01X-1858430Y2006600D02*
Y1879600D01*
X-1794090D01*
G01X-1732110D02*
Y2006600D01*
G01X-1670980D02*
X-1732110Y1928280D01*
G01X-1661330Y1879600D02*
X-1704760Y1964260D01*
G01X-1612730Y-1168400D02*
Y-1259420D01*
X-1606300Y-1278470D01*
X-1593430Y-1291170D01*
X-1577340Y-1295400D01*
X-1561250Y-1291170D01*
X-1548380Y-1278470D01*
X-1541950Y-1259420D01*
Y-1168400D01*
G01X-1475150Y-1280590D02*
X-1463890Y-1291170D01*
X-1451020Y-1295400D01*
X-1438150Y-1291170D01*
X-1426890Y-1278470D01*
X-1418840Y-1259420D01*
X-1415630Y-1240370D01*
Y-1217080D01*
X-1418840Y-1198030D01*
X-1426890Y-1181100D01*
X-1436540Y-1172630D01*
X-1447800Y-1168400D01*
X-1460670Y-1172630D01*
X-1470320Y-1181100D01*
X-1476760Y-1193800D01*
X-1479970Y-1210740D01*
X-1476760Y-1225550D01*
X-1468710Y-1240370D01*
X-1459060Y-1248840D01*
X-1447800Y-1250950D01*
X-1434930Y-1246720D01*
X-1425280Y-1236130D01*
X-1415630Y-1217080D01*
G01X-1561930Y1041400D02*
Y1168400D01*
X-1529760D01*
X-1516890Y1162050D01*
X-1507240Y1153580D01*
X-1499190Y1140890D01*
X-1492760Y1126060D01*
X-1491150Y1104900D01*
X-1492760Y1083730D01*
X-1499190Y1068910D01*
X-1507240Y1056210D01*
X-1516890Y1047750D01*
X-1529760Y1041400D01*
X-1561930D01*
G01X-1425960Y1037170D02*
X-1368040Y1168400D01*
G01X-1232070Y1157820D02*
X-1241720Y1164170D01*
X-1252980Y1168400D01*
X-1265850D01*
X-1280330Y1162050D01*
X-1291590Y1151470D01*
X-1299630Y1138770D01*
X-1306070Y1117600D01*
X-1307680Y1098550D01*
X-1304460Y1079500D01*
X-1299630Y1066800D01*
X-1289980Y1054100D01*
X-1278720Y1045630D01*
X-1267460Y1041400D01*
X-1256200D01*
X-1244940Y1045630D01*
X-1235290Y1051980D01*
X-1227240Y1060450D01*
G01X-1611120Y2074330D02*
X-1598250Y2063750D01*
X-1583770Y2057400D01*
X-1570910D01*
X-1558040Y2063750D01*
X-1548380Y2074330D01*
X-1543560Y2089150D01*
X-1546770Y2103960D01*
X-1554820Y2116670D01*
X-1569300Y2125130D01*
X-1588600Y2129370D01*
X-1599860Y2137830D01*
X-1604690Y2152650D01*
X-1601470Y2167470D01*
X-1593430Y2178050D01*
X-1582170Y2184400D01*
X-1570910D01*
X-1559640Y2180170D01*
X-1549990Y2169580D01*
G01X-1483190Y2057400D02*
Y2184400D01*
X-1451020D01*
X-1438150Y2178050D01*
X-1428500Y2169580D01*
X-1420450Y2156890D01*
X-1414020Y2142060D01*
X-1412410Y2120900D01*
X-1414020Y2099730D01*
X-1420450Y2084910D01*
X-1428500Y2072210D01*
X-1438150Y2063750D01*
X-1451020Y2057400D01*
X-1483190D01*
G01X-1337560Y2184400D02*
X-1298960D01*
G01X-1318260D02*
Y2057400D01*
G01X-1337560D02*
X-1298960D01*
G01X-1188720D02*
X-1201590Y2059520D01*
X-1212850Y2067980D01*
X-1222500Y2080680D01*
X-1228940Y2095500D01*
X-1232160Y2112430D01*
Y2129370D01*
X-1228940Y2146300D01*
X-1222500Y2161120D01*
X-1212850Y2173820D01*
X-1201590Y2182280D01*
X-1188720Y2184400D01*
X-1175850Y2182280D01*
X-1164590Y2173820D01*
X-1154940Y2161120D01*
X-1148500Y2146300D01*
X-1145280Y2129370D01*
Y2112430D01*
X-1148500Y2095500D01*
X-1154940Y2080680D01*
X-1164590Y2067980D01*
X-1175850Y2059520D01*
X-1188720Y2057400D01*
G01X-1567690Y1943100D02*
X-1535510D01*
Y1905000D01*
X-1545170Y1892300D01*
X-1556430Y1883830D01*
X-1572510Y1879600D01*
X-1588600Y1883830D01*
X-1599860Y1892300D01*
X-1609510Y1905000D01*
X-1615950Y1919820D01*
X-1619170Y1936750D01*
Y1951570D01*
X-1615950Y1964260D01*
X-1609510Y1979090D01*
X-1599860Y1991780D01*
X-1590210Y2000250D01*
X-1577340Y2006600D01*
X-1566080D01*
X-1553210Y2002370D01*
X-1543560Y1993900D01*
G01X-1484800Y1879600D02*
Y2006600D01*
X-1410800Y1879600D01*
Y2006600D01*
G01X-1353650Y1879600D02*
Y2006600D01*
X-1321480D01*
X-1308610Y2000250D01*
X-1298960Y1991780D01*
X-1290910Y1979090D01*
X-1284480Y1964260D01*
X-1282870Y1943100D01*
X-1284480Y1921930D01*
X-1290910Y1907110D01*
X-1298960Y1894410D01*
X-1308610Y1885950D01*
X-1321480Y1879600D01*
X-1353650D01*
G01X-932690Y1308100D02*
X-900510D01*
Y1270000D01*
X-910170Y1257300D01*
X-921430Y1248830D01*
X-937510Y1244600D01*
X-953600Y1248830D01*
X-964860Y1257300D01*
X-974510Y1270000D01*
X-980950Y1284820D01*
X-984170Y1301750D01*
Y1316570D01*
X-980950Y1329260D01*
X-974510Y1344090D01*
X-964860Y1356780D01*
X-955210Y1365250D01*
X-942340Y1371600D01*
X-931080D01*
X-918210Y1367370D01*
X-908560Y1358900D01*
G01X-849800Y1244600D02*
Y1371600D01*
X-775800Y1244600D01*
Y1371600D01*
G01X-718650Y1244600D02*
Y1371600D01*
X-686480D01*
X-673610Y1365250D01*
X-663960Y1356780D01*
X-655910Y1344090D01*
X-649480Y1329260D01*
X-647870Y1308100D01*
X-649480Y1286930D01*
X-655910Y1272110D01*
X-663960Y1259410D01*
X-673610Y1250950D01*
X-686480Y1244600D01*
X-718650D01*
G01X-942340Y1168400D02*
Y1041400D01*
G01X-979340Y1168400D02*
X-905340D01*
G01X-846580Y1041400D02*
X-779020Y1168400D01*
G01X-846580D02*
X-779020Y1041400D01*
G01X-718650Y1066800D02*
X-709000Y1051980D01*
X-696130Y1043520D01*
X-681650Y1041400D01*
X-668780Y1043520D01*
X-655910Y1054100D01*
X-647870Y1066800D01*
X-646260Y1079500D01*
X-649480Y1094310D01*
X-660740Y1104900D01*
X-672000Y1109130D01*
X-686480D01*
G01X-672000D02*
X-662350Y1115480D01*
X-654300Y1126060D01*
X-651090Y1138770D01*
X-654300Y1151470D01*
X-662350Y1162050D01*
X-676830Y1168400D01*
X-691300Y1166280D01*
X-705780Y1157820D01*
G01X-967740Y2006600D02*
Y1879600D01*
G01X-1004740Y2006600D02*
X-930740D01*
G01X-871980Y1879600D02*
X-804420Y2006600D01*
G01X-871980D02*
X-804420Y1879600D01*
G01X-708660D02*
Y2006600D01*
X-727960Y1981200D01*
G01Y1879600D02*
X-689360D01*
G01X-958090Y2120900D02*
X-925910D01*
Y2082800D01*
X-935570Y2070100D01*
X-946830Y2061630D01*
X-962910Y2057400D01*
X-979000Y2061630D01*
X-990260Y2070100D01*
X-999910Y2082800D01*
X-1006350Y2097620D01*
X-1009570Y2114550D01*
Y2129370D01*
X-1006350Y2142060D01*
X-999910Y2156890D01*
X-990260Y2169580D01*
X-980610Y2178050D01*
X-967740Y2184400D01*
X-956480D01*
X-943610Y2180170D01*
X-933960Y2171700D01*
G01X-875200Y2057400D02*
Y2184400D01*
X-801200Y2057400D01*
Y2184400D01*
G01X-744050Y2057400D02*
Y2184400D01*
X-711880D01*
X-699010Y2178050D01*
X-689360Y2169580D01*
X-681310Y2156890D01*
X-674880Y2142060D01*
X-673270Y2120900D01*
X-674880Y2099730D01*
X-681310Y2084910D01*
X-689360Y2072210D01*
X-699010Y2063750D01*
X-711880Y2057400D01*
X-744050D01*
G01X-542710Y1244600D02*
Y1371600D01*
X-502500D01*
X-489630Y1365250D01*
X-481580Y1356780D01*
X-478370Y1339850D01*
X-481580Y1322920D01*
X-491240Y1312330D01*
X-502500Y1305980D01*
X-542710D01*
G01X-502500D02*
X-478370Y1244600D01*
G01X-414780D02*
X-347220Y1371600D01*
G01X-414780D02*
X-347220Y1244600D01*
G01X-286850Y1270000D02*
X-277200Y1255180D01*
X-264330Y1246720D01*
X-249850Y1244600D01*
X-236980Y1246720D01*
X-224110Y1257300D01*
X-216070Y1270000D01*
X-214460Y1282700D01*
X-217680Y1297510D01*
X-228940Y1308100D01*
X-240200Y1312330D01*
X-254680D01*
G01X-240200D02*
X-230550Y1318680D01*
X-222500Y1329260D01*
X-219290Y1341970D01*
X-222500Y1354670D01*
X-230550Y1365250D01*
X-245030Y1371600D01*
X-259500Y1369480D01*
X-273980Y1361020D01*
G01X-571330Y1066800D02*
X-561680Y1051980D01*
X-548810Y1043520D01*
X-534330Y1041400D01*
X-521460Y1043520D01*
X-508590Y1054100D01*
X-500550Y1066800D01*
X-498940Y1079500D01*
X-502160Y1094310D01*
X-513420Y1104900D01*
X-524680Y1109130D01*
X-539160D01*
G01X-524680D02*
X-515030Y1115480D01*
X-506980Y1126060D01*
X-503770Y1138770D01*
X-506980Y1151470D01*
X-515030Y1162050D01*
X-529510Y1168400D01*
X-543980Y1166280D01*
X-558460Y1157820D01*
G01X-435360Y1126060D02*
X-406400Y1041400D01*
X-377440Y1126060D01*
G01X-312250Y1066800D02*
X-302600Y1051980D01*
X-289730Y1043520D01*
X-275250Y1041400D01*
X-262380Y1043520D01*
X-249510Y1054100D01*
X-241470Y1066800D01*
X-239860Y1079500D01*
X-243080Y1094310D01*
X-254340Y1104900D01*
X-265600Y1109130D01*
X-280080D01*
G01X-265600D02*
X-255950Y1115480D01*
X-247900Y1126060D01*
X-244690Y1138770D01*
X-247900Y1151470D01*
X-255950Y1162050D01*
X-270430Y1168400D01*
X-284900Y1166280D01*
X-299380Y1157820D01*
G01X-542710Y2057400D02*
Y2184400D01*
X-502500D01*
X-489630Y2178050D01*
X-481580Y2169580D01*
X-478370Y2152650D01*
X-481580Y2135720D01*
X-491240Y2125130D01*
X-502500Y2118780D01*
X-542710D01*
G01X-502500D02*
X-478370Y2057400D01*
G01X-414780D02*
X-347220Y2184400D01*
G01X-414780D02*
X-347220Y2057400D01*
G01X-251460D02*
Y2184400D01*
X-270760Y2159000D01*
G01Y2057400D02*
X-232160D01*
G01X546270Y-1371600D02*
Y-1244600D01*
G01X607400D02*
X546270Y-1322920D01*
G01X617050Y-1371600D02*
X573620Y-1286940D01*
G01X743370Y-1371600D02*
X679030D01*
Y-1244600D01*
X743370D01*
G01X717630Y-1305980D02*
X679030D01*
G01X840740Y-1371600D02*
Y-1314450D01*
X808570Y-1244600D01*
G01X872910D02*
X840740Y-1314450D01*
G01X934890Y-1346200D02*
X944540Y-1361020D01*
X957410Y-1369480D01*
X971890Y-1371600D01*
X984760Y-1369480D01*
X997630Y-1358900D01*
X1005670Y-1346200D01*
X1007280Y-1333500D01*
X1004060Y-1318690D01*
X992800Y-1308100D01*
X981540Y-1303870D01*
X967060D01*
G01X981540D02*
X991190Y-1297520D01*
X999240Y-1286940D01*
X1002450Y-1274230D01*
X999240Y-1261530D01*
X991190Y-1250950D01*
X976710Y-1244600D01*
X962240Y-1246720D01*
X947760Y-1255180D01*
G01X1562270Y-1371600D02*
Y-1244600D01*
G01X1623400D02*
X1562270Y-1322920D01*
G01X1633050Y-1371600D02*
X1589620Y-1286940D01*
G01X1759370Y-1371600D02*
X1695030D01*
Y-1244600D01*
X1759370D01*
G01X1733630Y-1305980D02*
X1695030D01*
G01X1856740Y-1371600D02*
Y-1314450D01*
X1824570Y-1244600D01*
G01X1888910D02*
X1856740Y-1314450D01*
G01X2005580Y-1371600D02*
Y-1244600D01*
X1946060Y-1335620D01*
X2026500D01*
G01X2953850Y-3668180D02*
X2944200Y-3661830D01*
X2932940Y-3657600D01*
X2920070D01*
X2905590Y-3663950D01*
X2894330Y-3674530D01*
X2886290Y-3687230D01*
X2879850Y-3708400D01*
X2878240Y-3727450D01*
X2881460Y-3746500D01*
X2886290Y-3759200D01*
X2895940Y-3771900D01*
X2907200Y-3780370D01*
X2918460Y-3784600D01*
X2929720D01*
X2940980Y-3780370D01*
X2950630Y-3774020D01*
X2958680Y-3765550D01*
G01X3060870Y-3716870D02*
X3067300Y-3710520D01*
X3072130Y-3699940D01*
X3075350Y-3685110D01*
X3072130Y-3672420D01*
X3065700Y-3663950D01*
X3054430Y-3657600D01*
X3011000D01*
Y-3784600D01*
X3064090D01*
X3075350Y-3776140D01*
X3081780Y-3763430D01*
X3085000Y-3748620D01*
X3081780Y-3733800D01*
X3072130Y-3721100D01*
X3060870Y-3716870D01*
X3011000D01*
G01X3209710Y-3784600D02*
X3145370D01*
Y-3657600D01*
X3209710D01*
G01X3183970Y-3718980D02*
X3145370D01*
G01X2937090Y-2921000D02*
Y-2794000D01*
X2977300D01*
X2990170Y-2800350D01*
X2998220Y-2808820D01*
X3001430Y-2825750D01*
X2998220Y-2842680D01*
X2988560Y-2853270D01*
X2977300Y-2859620D01*
X2937090D01*
G01X2977300D02*
X3001430Y-2921000D01*
G01X3098800D02*
X3110060Y-2918880D01*
X3122930Y-2912540D01*
X3130970Y-2901950D01*
X3134190Y-2887130D01*
X3130970Y-2872320D01*
X3121320Y-2859620D01*
X3106840Y-2853270D01*
X3090760D01*
X3081100Y-2849030D01*
X3073060Y-2838450D01*
X3069840Y-2823630D01*
X3074670Y-2808820D01*
X3085930Y-2798230D01*
X3098800Y-2794000D01*
X3111670Y-2798230D01*
X3122930Y-2808820D01*
X3127760Y-2823630D01*
X3124540Y-2838450D01*
X3116500Y-2849030D01*
X3106840Y-2853270D01*
X3090760D01*
X3076280Y-2859620D01*
X3066630Y-2872320D01*
X3063410Y-2887130D01*
X3066630Y-2901950D01*
X3074670Y-2912540D01*
X3087540Y-2918880D01*
X3098800Y-2921000D01*
G01X3470490D02*
Y-2794000D01*
X3510700D01*
X3523570Y-2800350D01*
X3531620Y-2808820D01*
X3534830Y-2825750D01*
X3531620Y-2842680D01*
X3521960Y-2853270D01*
X3510700Y-2859620D01*
X3470490D01*
G01X3510700D02*
X3534830Y-2921000D01*
G01X3604850Y-2906190D02*
X3616110Y-2916770D01*
X3628980Y-2921000D01*
X3641850Y-2916770D01*
X3653110Y-2904070D01*
X3661160Y-2885020D01*
X3664370Y-2865970D01*
Y-2842680D01*
X3661160Y-2823630D01*
X3653110Y-2806700D01*
X3643460Y-2798230D01*
X3632200Y-2794000D01*
X3619330Y-2798230D01*
X3609680Y-2806700D01*
X3603240Y-2819400D01*
X3600030Y-2836340D01*
X3603240Y-2851150D01*
X3611290Y-2865970D01*
X3620940Y-2874440D01*
X3632200Y-2876550D01*
X3645070Y-2872320D01*
X3654720Y-2861730D01*
X3664370Y-2842680D01*
G54D13*
G01X-9056120Y1778000D02*
G03I-12382J-2D01*
G01X-6657590Y1037000D02*
G03I-12410J-2D01*
G01X-4178550Y479700D02*
G03I-12550J0D01*
G01X600970Y2032000D02*
G03I-12466J4D01*
M02*
