G04 ================== begin FILE IDENTIFICATION RECORD ==================*
G04 Layout Name:  F:/Cadence Boards/Remote/board/testv2/Remote_T.brd*
G04 Film Name:    SOLDERMASK_TOP*
G04 File Format:  Gerber RS274X*
G04 File Origin:  Cadence Allegro 16.6-P004*
G04 Origin Date:  Fri Jul 01 15:30:26 2016*
G04 *
G04 Layer:  BOARD GEOMETRY/SOLDERMASK_TOP*
G04 Layer:  BOARD GEOMETRY/OUTLINE*
G04 Layer:  PACKAGE GEOMETRY/SOLDERMASK_TOP*
G04 Layer:  PIN/SOLDERMASK_TOP*
G04 *
G04 Offset:    (0.0000 0.0000)*
G04 Mirror:    No*
G04 Mode:      Positive*
G04 Rotation:  0*
G04 FullContactRelief:  No*
G04 UndefLineWidth:     0.2540*
G04 ================== end FILE IDENTIFICATION RECORD ====================*
%FSLAX25Y25*MOMM*%
%IR0*IPPOS*OFA0.00000B0.00000*MIA0B0*SFA1.00000B1.00000*%
%AMMACRO25*
4,1,40,.4318,-.635,
.4318,.635,
.430256,.652643,
.425673,.669749,
.418188,.6858,
.40803,.700307,
.395507,.71283,
.381,.722988,
.364949,.730473,
.347843,.735056,
.3302,.7366,
-.3302,.7366,
-.347843,.735056,
-.364949,.730473,
-.381,.722988,
-.395507,.71283,
-.40803,.700307,
-.418188,.6858,
-.425673,.669749,
-.430256,.652643,
-.4318,.635,
-.4318,-.635,
-.430256,-.652643,
-.425673,-.669749,
-.418188,-.6858,
-.40803,-.700307,
-.395507,-.71283,
-.381,-.722988,
-.364949,-.730473,
-.347843,-.735056,
-.3302,-.7366,
.3302,-.7366,
.347843,-.735056,
.364949,-.730473,
.381,-.722988,
.395507,-.71283,
.40803,-.700307,
.418188,-.6858,
.425673,-.669749,
.430256,-.652643,
.4318,-.635,
0.0*
%
%ADD25MACRO25*%
%ADD29R,.2997X1.5011*%
%ADD30R,1.5011X.2997*%
%AMMACRO23*
4,1,44,.3048,.5334,
-.3048,.5334,
-.322394,.531914,
-.339463,.527395,
-.355488,.519981,
-.369983,.509897,
-.382506,.49745,
-.392677,.483016,
-.400187,.467036,
-.404808,.449995,
-.4064,.43241,
-.4064,.4318,
-.4064,-.4318,
-.404914,-.449394,
-.400395,-.466463,
-.392981,-.482488,
-.382897,-.496983,
-.37045,-.509506,
-.356016,-.519677,
-.340036,-.527187,
-.322995,-.531808,
-.30541,-.5334,
-.3048,-.5334,
.3048,-.5334,
.322394,-.531914,
.339463,-.527395,
.355488,-.519981,
.369983,-.509897,
.382506,-.49745,
.392677,-.483016,
.400187,-.467036,
.404808,-.449995,
.4064,-.43241,
.4064,-.4318,
.4064,.4318,
.404914,.449394,
.400395,.466463,
.392981,.482488,
.382897,.496983,
.37045,.509506,
.356016,.519677,
.340036,.527187,
.322995,.531808,
.30541,.5334,
.3048,.5334,
0.0*
%
%ADD23MACRO23*%
%AMMACRO10*
4,1,44,-.5334,.3048,
-.5334,-.3048,
-.531914,-.322394,
-.527395,-.339463,
-.519981,-.355488,
-.509897,-.369983,
-.49745,-.382506,
-.483016,-.392677,
-.467036,-.400187,
-.449995,-.404808,
-.43241,-.4064,
-.4318,-.4064,
.4318,-.4064,
.449394,-.404914,
.466463,-.400395,
.482488,-.392981,
.496983,-.382897,
.509506,-.37045,
.519677,-.356016,
.527187,-.340036,
.531808,-.322995,
.5334,-.30541,
.5334,-.3048,
.5334,.3048,
.531914,.322394,
.527395,.339463,
.519981,.355488,
.509897,.369983,
.49745,.382506,
.483016,.392677,
.467036,.400187,
.449995,.404808,
.43241,.4064,
.4318,.4064,
-.4318,.4064,
-.449394,.404914,
-.466463,.400395,
-.482488,.392981,
-.496983,.382897,
-.509506,.37045,
-.519677,.356016,
-.527187,.340036,
-.531808,.322995,
-.5334,.30541,
-.5334,.3048,
0.0*
%
%ADD10MACRO10*%
%AMMACRO18*
4,1,44,-.381,.4318,
-.381,-.4318,
-.379577,-.449341,
-.37513,-.466369,
-.367793,-.482366,
-.35779,-.496846,
-.345425,-.509369,
-.331072,-.519554,
-.315169,-.527093,
-.298199,-.531755,
-.280677,-.5334,
-.2794,-.5334,
.2794,-.5334,
.296941,-.531977,
.313969,-.52753,
.329966,-.520193,
.344446,-.51019,
.356969,-.497825,
.367154,-.483472,
.374693,-.467569,
.379355,-.450599,
.381,-.433077,
.381,-.4318,
.381,.4318,
.379577,.449341,
.37513,.466369,
.367793,.482366,
.35779,.496846,
.345425,.509369,
.331072,.519554,
.315169,.527093,
.298199,.531755,
.280677,.5334,
.2794,.5334,
-.2794,.5334,
-.296941,.531977,
-.313969,.52753,
-.329966,.520193,
-.344446,.51019,
-.356969,.497825,
-.367154,.483472,
-.374693,.467569,
-.379355,.450599,
-.381,.433077,
-.381,.4318,
0.0*
%
%ADD18MACRO18*%
%AMMACRO11*
4,1,44,.4318,.381,
-.4318,.381,
-.449341,.379577,
-.466369,.37513,
-.482366,.367793,
-.496846,.35779,
-.509369,.345425,
-.519554,.331072,
-.527093,.315169,
-.531755,.298199,
-.5334,.280677,
-.5334,.2794,
-.5334,-.2794,
-.531977,-.296941,
-.52753,-.313969,
-.520193,-.329966,
-.51019,-.344446,
-.497825,-.356969,
-.483472,-.367154,
-.467569,-.374693,
-.450599,-.379355,
-.433077,-.381,
-.4318,-.381,
.4318,-.381,
.449341,-.379577,
.466369,-.37513,
.482366,-.367793,
.496846,-.35779,
.509369,-.345425,
.519554,-.331072,
.527093,-.315169,
.531755,-.298199,
.5334,-.280677,
.5334,-.2794,
.5334,.2794,
.531977,.296941,
.52753,.313969,
.520193,.329966,
.51019,.344446,
.497825,.356969,
.483472,.367154,
.467569,.374693,
.450599,.379355,
.433077,.381,
.4318,.381,
0.0*
%
%ADD11MACRO11*%
%ADD20R,1.5494X.5994*%
%ADD12C,1.5011*%
%ADD15C,1.6002*%
%ADD31C,3.1471*%
%ADD16R,1.6002X1.6002*%
%ADD13C,2.5171*%
%ADD22R,2.7051X3.904*%
%ADD14C,1.9533*%
%ADD28C,1.999*%
%ADD21R,2.4003X1.8999*%
%ADD27R,2.4994X1.8009*%
%AMMACRO26*
4,1,44,.5334,-.3048,
.5334,.3048,
.531914,.322394,
.527395,.339463,
.519981,.355488,
.509897,.369983,
.49745,.382506,
.483016,.392677,
.467036,.400187,
.449995,.404808,
.43241,.4064,
.4318,.4064,
-.4318,.4064,
-.449394,.404914,
-.466463,.400395,
-.482488,.392981,
-.496983,.382897,
-.509506,.37045,
-.519677,.356016,
-.527187,.340036,
-.531808,.322995,
-.5334,.30541,
-.5334,.3048,
-.5334,-.3048,
-.531914,-.322394,
-.527395,-.339463,
-.519981,-.355488,
-.509897,-.369983,
-.49745,-.382506,
-.483016,-.392677,
-.467036,-.400187,
-.449995,-.404808,
-.43241,-.4064,
-.4318,-.4064,
.4318,-.4064,
.449394,-.404914,
.466463,-.400395,
.482488,-.392981,
.496983,-.382897,
.509506,-.37045,
.519677,-.356016,
.527187,-.340036,
.531808,-.322995,
.5334,-.30541,
.5334,-.3048,
0.0*
%
%ADD26MACRO26*%
%AMMACRO19*
4,1,44,-.3048,-.5334,
.3048,-.5334,
.322394,-.531914,
.339463,-.527395,
.355488,-.519981,
.369983,-.509897,
.382506,-.49745,
.392677,-.483016,
.400187,-.467036,
.404808,-.449995,
.4064,-.43241,
.4064,-.4318,
.4064,.4318,
.404914,.449394,
.400395,.466463,
.392981,.482488,
.382897,.496983,
.37045,.509506,
.356016,.519677,
.340036,.527187,
.322995,.531808,
.30541,.5334,
.3048,.5334,
-.3048,.5334,
-.322394,.531914,
-.339463,.527395,
-.355488,.519981,
-.369983,.509897,
-.382506,.49745,
-.392677,.483016,
-.400187,.467036,
-.404808,.449995,
-.4064,.43241,
-.4064,.4318,
-.4064,-.4318,
-.404914,-.449394,
-.400395,-.466463,
-.392981,-.482488,
-.382897,-.496983,
-.37045,-.509506,
-.356016,-.519677,
-.340036,-.527187,
-.322995,-.531808,
-.30541,-.5334,
-.3048,-.5334,
0.0*
%
%ADD19MACRO19*%
%AMMACRO17*
4,1,44,.381,-.4318,
.381,.4318,
.379577,.449341,
.37513,.466369,
.367793,.482366,
.35779,.496846,
.345425,.509369,
.331072,.519554,
.315169,.527093,
.298199,.531755,
.280677,.5334,
.2794,.5334,
-.2794,.5334,
-.296941,.531977,
-.313969,.52753,
-.329966,.520193,
-.344446,.51019,
-.356969,.497825,
-.367154,.483472,
-.374693,.467569,
-.379355,.450599,
-.381,.433077,
-.381,.4318,
-.381,-.4318,
-.379577,-.449341,
-.37513,-.466369,
-.367793,-.482366,
-.35779,-.496846,
-.345425,-.509369,
-.331072,-.519554,
-.315169,-.527093,
-.298199,-.531755,
-.280677,-.5334,
-.2794,-.5334,
.2794,-.5334,
.296941,-.531977,
.313969,-.52753,
.329966,-.520193,
.344446,-.51019,
.356969,-.497825,
.367154,-.483472,
.374693,-.467569,
.379355,-.450599,
.381,-.433077,
.381,-.4318,
0.0*
%
%ADD17MACRO17*%
%AMMACRO24*
4,1,44,-.4318,-.381,
.4318,-.381,
.449341,-.379577,
.466369,-.37513,
.482366,-.367793,
.496846,-.35779,
.509369,-.345425,
.519554,-.331072,
.527093,-.315169,
.531755,-.298199,
.5334,-.280677,
.5334,-.2794,
.5334,.2794,
.531977,.296941,
.52753,.313969,
.520193,.329966,
.51019,.344446,
.497825,.356969,
.483472,.367154,
.467569,.374693,
.450599,.379355,
.433077,.381,
.4318,.381,
-.4318,.381,
-.449341,.379577,
-.466369,.37513,
-.482366,.367793,
-.496846,.35779,
-.509369,.345425,
-.519554,.331072,
-.527093,.315169,
-.531755,.298199,
-.5334,.280677,
-.5334,.2794,
-.5334,-.2794,
-.531977,-.296941,
-.52753,-.313969,
-.520193,-.329966,
-.51019,-.344446,
-.497825,-.356969,
-.483472,-.367154,
-.467569,-.374693,
-.450599,-.379355,
-.433077,-.381,
-.4318,-.381,
0.0*
%
%ADD24MACRO24*%
%ADD32C,.127*%
%ADD33C,.254*%
G75*
%LPD*%
G75*
G54D10*
X-10820400Y-2061210D03*
Y-1901190D03*
X-5638800Y783590D03*
Y943610D03*
X-3048000Y300990D03*
Y461010D03*
G54D20*
X-6620000Y571500D03*
Y698500D03*
Y825500D03*
Y952500D03*
X-6080000Y825500D03*
Y698500D03*
Y571500D03*
Y952500D03*
G54D11*
X-10820400Y-1657350D03*
Y-1492250D03*
G54D21*
X-7112000Y616970D03*
Y907030D03*
G54D12*
X-10485120Y-2003040D03*
Y-1552960D03*
X-9834880Y-2003040D03*
Y-1552960D03*
X-9088120Y-2003040D03*
Y-1552960D03*
X-8437880Y-2003040D03*
Y-1552960D03*
X-8072120Y-2003040D03*
Y-1552960D03*
X-7421880Y-2003040D03*
Y-1552960D03*
X-7239000Y1524000D03*
X-7493000D03*
X-3810000D03*
X-4064000D03*
X-3810000Y1270000D03*
X-4064000D03*
X-3302000Y1524000D03*
X-3556000D03*
X-3302000Y1270000D03*
X-3556000D03*
X-2164080Y287020D03*
X-2159000Y762000D03*
X-1910080Y287020D03*
X-1656080D03*
X-1402080D03*
X-1397000Y762000D03*
X-1651000D03*
X-1905000D03*
X-889000D03*
X-1143000D03*
X436880Y-2003040D03*
Y-1552960D03*
X547880Y55880D03*
Y706120D03*
X1452880Y-2003040D03*
X1087120D03*
X1452880Y-1552960D03*
X1087120D03*
X947930Y55880D03*
Y706120D03*
X2103120Y-2003040D03*
Y-1552960D03*
X1808480Y2044700D03*
X2062480D03*
X2316480D03*
X2570480D03*
X3247900Y-3302000D03*
X3048000D03*
X2848100D03*
G54D30*
X-4141220Y-135380D03*
Y-85340D03*
Y-35310D03*
Y14730D03*
Y64770D03*
Y114810D03*
Y164590D03*
Y214630D03*
Y264670D03*
Y314710D03*
Y364740D03*
Y414780D03*
X-3300980Y264670D03*
Y214630D03*
Y164590D03*
Y114810D03*
Y64770D03*
Y14730D03*
Y-35310D03*
Y-85340D03*
Y-135380D03*
Y414780D03*
Y364740D03*
Y314710D03*
G54D22*
X-6565900Y1524000D03*
X-6096000D03*
X-5626100D03*
G54D13*
X-9539990Y-369060D03*
Y1131060D03*
X-8240010Y-369060D03*
Y1131060D03*
X1128010Y-369060D03*
Y1131060D03*
X2427990Y-369060D03*
Y1131060D03*
G54D31*
X1651000Y-3302000D03*
X2413000D03*
G54D32*
G01X-10999750Y872850D02*
G03X-10987050I6350J3D01*
G03X-10999750I-6350J3D01*
G01Y872860D02*
G03X-10987050I6350J-3D01*
G03X-10999750I-6350J-3D01*
G01X1062430Y-4463650D02*
G03X1075130I6350J3D01*
G03X1062430I-6350J3D01*
G01D02*
G03X1075130I6350J4D01*
G03X1062430I-6350J4D01*
G01X4789620Y-2966930D02*
G03X4802320I6350J0D01*
G03X4789620I-6350J0D01*
G01D02*
G03X4802320I6350J0D01*
G03X4789620I-6350J0D01*
G54D14*
X-9144000Y-553970D03*
X-8636000D03*
X-8890000D03*
X-7940040Y127000D03*
Y635000D03*
Y381000D03*
X-6096000Y-1524000D03*
X-5588000D03*
X-5080000D03*
X-4064000D03*
X-3556000D03*
X-3048000D03*
X-2032000D03*
X-1524000D03*
X-1016000D03*
X1524000Y-553970D03*
X2032000D03*
X1778000D03*
X2727960Y127000D03*
Y635000D03*
Y381000D03*
G54D23*
X-5126990Y-50800D03*
X-5287010D03*
X-5126990Y457200D03*
X-5287010D03*
X-4398010Y787400D03*
X-4237990D03*
X-3374390Y-533400D03*
X-3534410D03*
G54D33*
G01X-11922070Y-2962210D02*
X-10993400Y872850D01*
G02X-7275920Y2427340I2429788J-588385D01*
G03X-6760850Y2284480I515077J857117D01*
G01X-366390D01*
G03X148680Y2427340I8626J968852D01*
G02X3866160Y872860I1287696J-2142870D01*
G01X4795970Y-2966930D01*
G02X1068780Y-4463650I-1972322J-477604D01*
G01X-5520Y-2613760D01*
G03X-697320Y-2215520I-691803J-401763D01*
G01X-1388620D01*
G03X-1688620Y-2515520I0J-300000D01*
G02X-1888620Y-2715520I-200000J0D01*
G01X-3052800D01*
X-4237000D01*
X-5138620D01*
G02X-5438620Y-2415520I0J300000D01*
G03X-5638620Y-2215520I-200000J0D01*
G01X-6429920D01*
G03X-7121730Y-2613760I-9J-800000D01*
G01X-8193580Y-4459440D01*
G02X-11922070Y-2962210I-1755481J1019466D01*
G01X-5138620Y-2715520D02*
G02X-5438620Y-2415520I0J300000D01*
G03X-5638620Y-2215520I-200000J0D01*
G01X-6429940D01*
G03X-7121730Y-2613770I11J-799989D01*
G01X-8193580Y-4459440D01*
G02X-11922070Y-2962200I-1755483J1019463D01*
G01X-10993400Y872850D01*
G02X-7275920Y2427340I2429788J-588386D01*
G03X-6760850Y2284480I515079J857123D01*
G01X-366400D01*
X-365970D01*
G03X148680Y2427340I8214J968847D01*
G02X3866160Y872860I1287699J-2142864D01*
G01X4795970Y-2966940D01*
G02X1068780Y-4463650I-1972321J-477599D01*
G01X-5510Y-2613770D01*
G03X-697300Y-2215520I-691801J-401739D01*
G01X-1388620D01*
G03X-1688620Y-2515520I0J-300000D01*
G02X-1888620Y-2715520I-200000J0D01*
G01X-5138620D01*
G01D02*
G02X-5438620Y-2415520I0J300000D01*
G03X-5638620Y-2215520I-200000J0D01*
G01X-6429940D01*
G03X-7121730Y-2613770I11J-799989D01*
G01X-8193580Y-4459440D01*
G02X-11922070Y-2962200I-1755483J1019463D01*
G01X-10993400Y872850D01*
G02X-7275920Y2427340I2429788J-588386D01*
G03X-6760850Y2284480I515079J857123D01*
G01X-366400D01*
X-365970D01*
G03X148680Y2427340I8214J968847D01*
G02X3866160Y872860I1287699J-2142864D01*
G01X4795970Y-2966940D01*
G02X1068780Y-4463650I-1972321J-477599D01*
G01X-5510Y-2613770D01*
G03X-697300Y-2215520I-691801J-401739D01*
G01X-1388620D01*
G03X-1688620Y-2515520I0J-300000D01*
G02X-1888620Y-2715520I-200000J0D01*
G01X-5138620D01*
G01X-11928420Y-2962210D02*
G03X-11915720I6350J2D01*
G03X-11928420I-6350J2D01*
G01D02*
G03X-11915720I6350J0D01*
G03X-11928420I-6350J0D01*
G01D02*
G03X-11915720I6350J2D01*
G03X-11928420I-6350J2D01*
G01D02*
G03X-11915720I6350J0D01*
G03X-11928420I-6350J0D01*
G01D02*
G03X-11915720I6350J0D01*
G03X-11928420I-6350J0D01*
G01D02*
G03X-11915720I6350J2D01*
G03X-11928420I-6350J2D01*
G01D02*
G03X-11915720I6350J0D01*
G03X-11928420I-6350J0D01*
G01D02*
G03X-11915720I6350J2D01*
G03X-11928420I-6350J2D01*
G01X-10999750Y872860D02*
G03X-10987050I6350J-3D01*
G03X-10999750I-6350J-3D01*
G01Y872850D02*
G03X-10987050I6350J3D01*
G03X-10999750I-6350J3D01*
G01Y872860D02*
G03X-10987050I6350J-3D01*
G03X-10999750I-6350J-3D01*
G01Y872850D02*
G03X-10987050I6350J3D01*
G03X-10999750I-6350J3D01*
G01D02*
G03X-10987050I6350J3D01*
G03X-10999750I-6350J3D01*
G01Y872860D02*
G03X-10987050I6350J-3D01*
G03X-10999750I-6350J-3D01*
G01Y872850D02*
G03X-10987050I6350J3D01*
G03X-10999750I-6350J3D01*
G01Y872860D02*
G03X-10987050I6350J-3D01*
G03X-10999750I-6350J-3D01*
G01D02*
G03X-10987050I6350J-3D01*
G03X-10999750I-6350J-3D01*
G01Y872850D02*
G03X-10987050I6350J3D01*
G03X-10999750I-6350J3D01*
G01X-8199930Y-4459440D02*
G03X-8187230I6350J-2D01*
G03X-8199930I-6350J-2D01*
G01D02*
G03X-8187230I6350J-3D01*
G03X-8199930I-6350J-3D01*
G01D02*
G03X-8187230I6350J-2D01*
G03X-8199930I-6350J-2D01*
G01D02*
G03X-8187230I6350J-3D01*
G03X-8199930I-6350J-3D01*
G01D02*
G03X-8187230I6350J-3D01*
G03X-8199930I-6350J-3D01*
G01D02*
G03X-8187230I6350J-2D01*
G03X-8199930I-6350J-2D01*
G01D02*
G03X-8187230I6350J-3D01*
G03X-8199930I-6350J-3D01*
G01D02*
G03X-8187230I6350J-2D01*
G03X-8199930I-6350J-2D01*
G01X-7282270Y2427340D02*
G03X-7269580I6345J-2D01*
G03X-7282270I-6345J-2D01*
G01D02*
G03X-7269580I6345J-2D01*
G03X-7282270I-6345J-2D01*
G01D02*
G03X-7269580I6345J-2D01*
G03X-7282270I-6345J-2D01*
G01D02*
G03X-7269580I6345J-2D01*
G03X-7282270I-6345J-2D01*
G01X-7128080Y-2613770D02*
G03X-7115380I6350J2D01*
G03X-7128080I-6350J2D01*
G01D02*
G03X-7115380I6350J2D01*
G03X-7128080I-6350J2D01*
G01D02*
G03X-7115380I6350J2D01*
G03X-7128080I-6350J2D01*
G01D02*
G03X-7115380I6350J2D01*
G03X-7128080I-6350J2D01*
G01D02*
G03X-7115380I6350J2D01*
G03X-7128080I-6350J2D01*
G01D02*
G03X-7115380I6350J2D01*
G03X-7128080I-6350J2D01*
G01D02*
G03X-7115380I6350J2D01*
G03X-7128080I-6350J2D01*
G01D02*
G03X-7115380I6350J2D01*
G03X-7128080I-6350J2D01*
G01D02*
G03X-7115380I6350J2D01*
G03X-7128080I-6350J2D01*
G01D02*
G03X-7115380I6350J2D01*
G03X-7128080I-6350J2D01*
G01D02*
G03X-7115380I6350J2D01*
G03X-7128080I-6350J2D01*
G01D02*
G03X-7115380I6350J2D01*
G03X-7128080I-6350J2D01*
G01X-6767200Y2284480D02*
G03X-6754500I6350J1D01*
G03X-6767200I-6350J1D01*
G01D02*
G03X-6754500I6350J1D01*
G03X-6767200I-6350J1D01*
G01D02*
G03X-6754500I6350J1D01*
G03X-6767200I-6350J1D01*
G01D02*
G03X-6754500I6350J1D01*
G03X-6767200I-6350J1D01*
G01X-6436270Y-2215520D02*
G03X-6423570I6350J-1D01*
G03X-6436270I-6350J-1D01*
G01D02*
G03X-6423570I6350J-1D01*
G03X-6436270I-6350J-1D01*
G01D02*
G03X-6423570I6350J-1D01*
G03X-6436270I-6350J-1D01*
G01D02*
G03X-6423570I6350J-1D01*
G03X-6436270I-6350J-1D01*
G01D02*
G03X-6423570I6350J-1D01*
G03X-6436270I-6350J-1D01*
G01D02*
G03X-6423570I6350J-1D01*
G03X-6436270I-6350J-1D01*
G01D02*
G03X-6423570I6350J-1D01*
G03X-6436270I-6350J-1D01*
G01D02*
G03X-6423570I6350J-1D01*
G03X-6436270I-6350J-1D01*
G01D02*
G03X-6423570I6350J-1D01*
G03X-6436270I-6350J-1D01*
G01D02*
G03X-6423570I6350J-1D01*
G03X-6436270I-6350J-1D01*
G01D02*
G03X-6423570I6350J-1D01*
G03X-6436270I-6350J-1D01*
G01D02*
G03X-6423570I6350J-1D01*
G03X-6436270I-6350J-1D01*
G01X-703670D02*
G03X-690970I6350J-1D01*
G03X-703670I-6350J-1D01*
G01D02*
G03X-690970I6350J-1D01*
G03X-703670I-6350J-1D01*
G01D02*
G03X-690970I6350J-1D01*
G03X-703670I-6350J-1D01*
G01D02*
G03X-690970I6350J-1D01*
G03X-703670I-6350J-1D01*
G01D02*
G03X-690970I6350J-1D01*
G03X-703670I-6350J-1D01*
G01D02*
G03X-690970I6350J-1D01*
G03X-703670I-6350J-1D01*
G01D02*
G03X-690970I6350J-1D01*
G03X-703670I-6350J-1D01*
G01D02*
G03X-690970I6350J-1D01*
G03X-703670I-6350J-1D01*
G01D02*
G03X-690970I6350J-1D01*
G03X-703670I-6350J-1D01*
G01D02*
G03X-690970I6350J-1D01*
G03X-703670I-6350J-1D01*
G01D02*
G03X-690970I6350J-1D01*
G03X-703670I-6350J-1D01*
G01D02*
G03X-690970I6350J-1D01*
G03X-703670I-6350J-1D01*
G01X-372740Y2284480D02*
G03X-360040I6350J1D01*
G03X-372740I-6350J1D01*
G01D02*
G03X-360040I6350J1D01*
G03X-372740I-6350J1D01*
G01D02*
G03X-360040I6350J1D01*
G03X-372740I-6350J1D01*
G01D02*
G03X-360040I6350J1D01*
G03X-372740I-6350J1D01*
G01X-11860Y-2613770D02*
G03X840I6350J3D01*
G03X-11860I-6350J3D01*
G01D02*
G03X840I6350J3D01*
G03X-11860I-6350J3D01*
G01D02*
G03X840I6350J3D01*
G03X-11860I-6350J3D01*
G01D02*
G03X840I6350J3D01*
G03X-11860I-6350J3D01*
G01D02*
G03X840I6350J3D01*
G03X-11860I-6350J3D01*
G01D02*
G03X840I6350J3D01*
G03X-11860I-6350J3D01*
G01D02*
G03X840I6350J3D01*
G03X-11860I-6350J3D01*
G01D02*
G03X840I6350J3D01*
G03X-11860I-6350J3D01*
G01D02*
G03X840I6350J3D01*
G03X-11860I-6350J3D01*
G01D02*
G03X840I6350J3D01*
G03X-11860I-6350J3D01*
G01D02*
G03X840I6350J3D01*
G03X-11860I-6350J3D01*
G01D02*
G03X840I6350J3D01*
G03X-11860I-6350J3D01*
G01X142340Y2427340D02*
G03X155030I6345J-2D01*
G03X142340I-6345J-2D01*
G01D02*
G03X155030I6345J-2D01*
G03X142340I-6345J-2D01*
G01D02*
G03X155030I6345J-2D01*
G03X142340I-6345J-2D01*
G01D02*
G03X155030I6345J-2D01*
G03X142340I-6345J-2D01*
G01X1062430Y-4463650D02*
G03X1075130I6350J4D01*
G03X1062430I-6350J4D01*
G01D02*
G03X1075130I6350J3D01*
G03X1062430I-6350J3D01*
G01D02*
G03X1075130I6350J4D01*
G03X1062430I-6350J4D01*
G01D02*
G03X1075130I6350J3D01*
G03X1062430I-6350J3D01*
G01D02*
G03X1075130I6350J3D01*
G03X1062430I-6350J3D01*
G01D02*
G03X1075130I6350J4D01*
G03X1062430I-6350J4D01*
G01D02*
G03X1075130I6350J3D01*
G03X1062430I-6350J3D01*
G01D02*
G03X1075130I6350J4D01*
G03X1062430I-6350J4D01*
G01D02*
G03X1075130I6350J4D01*
G03X1062430I-6350J4D01*
G01D02*
G03X1075130I6350J3D01*
G03X1062430I-6350J3D01*
G01X3859810Y872860D02*
G03X3872510I6350J-3D01*
G03X3859810I-6350J-3D01*
G01D02*
G03X3872510I6350J-3D01*
G03X3859810I-6350J-3D01*
G01D02*
G03X3872510I6350J-3D01*
G03X3859810I-6350J-3D01*
G01D02*
G03X3872510I6350J-3D01*
G03X3859810I-6350J-3D01*
G01D02*
G03X3872510I6350J-3D01*
G03X3859810I-6350J-3D01*
G01D02*
G03X3872510I6350J-3D01*
G03X3859810I-6350J-3D01*
G01D02*
G03X3872510I6350J-3D01*
G03X3859810I-6350J-3D01*
G01D02*
G03X3872510I6350J-3D01*
G03X3859810I-6350J-3D01*
G01X4789620Y-2966930D02*
G03X4802320I6350J0D01*
G03X4789620I-6350J0D01*
G01D02*
G03X4802320I6350J0D01*
G03X4789620I-6350J0D01*
G01D02*
G03X4802320I6350J0D01*
G03X4789620I-6350J0D01*
G01D02*
G03X4802320I6350J0D01*
G03X4789620I-6350J0D01*
G01D02*
G03X4802320I6350J0D01*
G03X4789620I-6350J0D01*
G01D02*
G03X4802320I6350J0D01*
G03X4789620I-6350J0D01*
G01D02*
G03X4802320I6350J0D01*
G03X4789620I-6350J0D01*
G01D02*
G03X4802320I6350J0D01*
G03X4789620I-6350J0D01*
G01D02*
G03X4802320I6350J0D01*
G03X4789620I-6350J0D01*
G01D02*
G03X4802320I6350J0D01*
G03X4789620I-6350J0D01*
G54D24*
X-4953000Y285750D03*
Y120650D03*
G54D15*
X-8382000Y2032000D03*
Y1778000D03*
X-8636000Y2032000D03*
Y1778000D03*
X-8890000Y2032000D03*
X1270000D03*
X1016000D03*
G54D16*
X-8890000Y1778000D03*
X762000Y2032000D03*
G54D25*
X-5177540Y1270000D03*
X-4982460D03*
X-5177540Y1778000D03*
X-4982460D03*
X-5177540Y1524000D03*
X-4982460D03*
G54D17*
X-8718550D03*
X-8553450D03*
X2965450Y-3048000D03*
X3130550D03*
X3473450D03*
X3638550D03*
G54D26*
X-4419600Y-334010D03*
Y-173990D03*
X-4292600Y1316990D03*
Y1477010D03*
G54D27*
X-4699000Y18290D03*
Y388110D03*
G54D18*
X-8553450Y2286000D03*
X-8718550D03*
X-4489450Y1270000D03*
X-4654550D03*
X-4489450Y1778000D03*
X-4654550D03*
X-4489450Y1524000D03*
X-4654550D03*
G54D19*
X-7192010Y254000D03*
X-7031990D03*
X-4042410Y787400D03*
X-3882390D03*
G54D28*
X-4141220Y-280420D03*
X-3300980Y559820D03*
G54D29*
X-3796030Y-280420D03*
X-3846070D03*
X-3896110D03*
X-3946140D03*
X-3996180D03*
Y559820D03*
X-3946140D03*
X-3896110D03*
X-3846070D03*
X-3796030D03*
X-3446020Y-280420D03*
X-3496060D03*
X-3546090D03*
X-3596130D03*
X-3646170D03*
X-3696210D03*
X-3745990D03*
Y559820D03*
X-3696210D03*
X-3646170D03*
X-3596130D03*
X-3546090D03*
X-3496060D03*
X-3446020D03*
M02*
