G04 ================== begin FILE IDENTIFICATION RECORD ==================*
G04 Layout Name:  F:/Cadence Boards/Remote/board/testv2/Remote_T.brd*
G04 Film Name:    TOP*
G04 File Format:  Gerber RS274X*
G04 File Origin:  Cadence Allegro 16.6-P004*
G04 Origin Date:  Fri Jul 01 15:30:26 2016*
G04 *
G04 Layer:  VIA CLASS/TOP*
G04 Layer:  PIN/TOP*
G04 Layer:  ETCH/TOP*
G04 Layer:  BOARD GEOMETRY/OUTLINE*
G04 *
G04 Offset:    (0.0000 0.0000)*
G04 Mirror:    No*
G04 Mode:      Positive*
G04 Rotation:  0*
G04 FullContactRelief:  No*
G04 UndefLineWidth:     0.2540*
G04 ================== end FILE IDENTIFICATION RECORD ====================*
%FSLAX25Y25*MOMM*%
%IR0*IPPOS*OFA0.00000B0.00000*MIA0B0*SFA1.00000B1.00000*%
%AMMACRO19*
4,1,40,.3302,-.381,
.3302,.381,
.328656,.398643,
.324073,.415749,
.316588,.4318,
.30643,.446307,
.293907,.45883,
.2794,.468988,
.263349,.476473,
.246243,.481056,
.2286,.4826,
-.2286,.4826,
-.246243,.481056,
-.263349,.476473,
-.2794,.468988,
-.293907,.45883,
-.30643,.446307,
-.316588,.4318,
-.324073,.415749,
-.328656,.398643,
-.3302,.381,
-.3302,-.381,
-.328656,-.398643,
-.324073,-.415749,
-.316588,-.4318,
-.30643,-.446307,
-.293907,-.45883,
-.2794,-.468988,
-.263349,-.476473,
-.246243,-.481056,
-.2286,-.4826,
.2286,-.4826,
.246243,-.481056,
.263349,-.476473,
.2794,-.468988,
.293907,-.45883,
.30643,-.446307,
.316588,-.4318,
.324073,-.415749,
.328656,-.398643,
.3302,-.381,
0.0*
%
%ADD19MACRO19*%
%AMMACRO28*
4,1,40,-.381,-.3302,
.381,-.3302,
.398643,-.328656,
.415749,-.324073,
.4318,-.316588,
.446307,-.30643,
.45883,-.293907,
.468988,-.2794,
.476473,-.263349,
.481056,-.246243,
.4826,-.2286,
.4826,.2286,
.481056,.246243,
.476473,.263349,
.468988,.2794,
.45883,.293907,
.446307,.30643,
.4318,.316588,
.415749,.324073,
.398643,.328656,
.381,.3302,
-.381,.3302,
-.398643,.328656,
-.415749,.324073,
-.4318,.316588,
-.446307,.30643,
-.45883,.293907,
-.468988,.2794,
-.476473,.263349,
-.481056,.246243,
-.4826,.2286,
-.4826,-.2286,
-.481056,-.246243,
-.476473,-.263349,
-.468988,-.2794,
-.45883,-.293907,
-.446307,-.30643,
-.4318,-.316588,
-.415749,-.324073,
-.398643,-.328656,
-.381,-.3302,
0.0*
%
%ADD28MACRO28*%
%ADD22C,.635*%
%ADD21C,.3048*%
%ADD33R,.2997X1.5011*%
%ADD10C,.6096*%
%ADD34R,1.5011X.2997*%
%AMMACRO27*
4,1,40,.254,.4826,
-.254,.4826,
-.271643,.481056,
-.288749,.476473,
-.3048,.468988,
-.319307,.45883,
-.33183,.446307,
-.341988,.4318,
-.349473,.415749,
-.354056,.398643,
-.3556,.381,
-.3556,-.381,
-.354056,-.398643,
-.349473,-.415749,
-.341988,-.4318,
-.33183,-.446307,
-.319307,-.45883,
-.3048,-.468988,
-.288749,-.476473,
-.271643,-.481056,
-.254,-.4826,
.254,-.4826,
.271643,-.481056,
.288749,-.476473,
.3048,-.468988,
.319307,-.45883,
.33183,-.446307,
.341988,-.4318,
.349473,-.415749,
.354056,-.398643,
.3556,-.381,
.3556,.381,
.354056,.398643,
.349473,.415749,
.341988,.4318,
.33183,.446307,
.319307,.45883,
.3048,.468988,
.288749,.476473,
.271643,.481056,
.254,.4826,
0.0*
%
%ADD27MACRO27*%
%AMMACRO12*
4,1,40,-.4826,.254,
-.4826,-.254,
-.481056,-.271643,
-.476473,-.288749,
-.468988,-.3048,
-.45883,-.319307,
-.446307,-.33183,
-.4318,-.341988,
-.415749,-.349473,
-.398643,-.354056,
-.381,-.3556,
.381,-.3556,
.398643,-.354056,
.415749,-.349473,
.4318,-.341988,
.446307,-.33183,
.45883,-.319307,
.468988,-.3048,
.476473,-.288749,
.481056,-.271643,
.4826,-.254,
.4826,.254,
.481056,.271643,
.476473,.288749,
.468988,.3048,
.45883,.319307,
.446307,.33183,
.4318,.341988,
.415749,.349473,
.398643,.354056,
.381,.3556,
-.381,.3556,
-.398643,.354056,
-.415749,.349473,
-.4318,.341988,
-.446307,.33183,
-.45883,.319307,
-.468988,.3048,
-.476473,.288749,
-.481056,.271643,
-.4826,.254,
0.0*
%
%ADD12MACRO12*%
%ADD24R,1.5494X.5994*%
%AMMACRO20*
4,1,40,-.3302,.381,
-.3302,-.381,
-.328656,-.398643,
-.324073,-.415749,
-.316588,-.4318,
-.30643,-.446307,
-.293907,-.45883,
-.2794,-.468988,
-.263349,-.476473,
-.246243,-.481056,
-.2286,-.4826,
.2286,-.4826,
.246243,-.481056,
.263349,-.476473,
.2794,-.468988,
.293907,-.45883,
.30643,-.446307,
.316588,-.4318,
.324073,-.415749,
.328656,-.398643,
.3302,-.381,
.3302,.381,
.328656,.398643,
.324073,.415749,
.316588,.4318,
.30643,.446307,
.293907,.45883,
.2794,.468988,
.263349,.476473,
.246243,.481056,
.2286,.4826,
-.2286,.4826,
-.246243,.481056,
-.263349,.476473,
-.2794,.468988,
-.293907,.45883,
-.30643,.446307,
-.316588,.4318,
-.324073,.415749,
-.328656,.398643,
-.3302,.381,
0.0*
%
%ADD20MACRO20*%
%AMMACRO13*
4,1,40,.381,.3302,
-.381,.3302,
-.398643,.328656,
-.415749,.324073,
-.4318,.316588,
-.446307,.30643,
-.45883,.293907,
-.468988,.2794,
-.476473,.263349,
-.481056,.246243,
-.4826,.2286,
-.4826,-.2286,
-.481056,-.246243,
-.476473,-.263349,
-.468988,-.2794,
-.45883,-.293907,
-.446307,-.30643,
-.4318,-.316588,
-.415749,-.324073,
-.398643,-.328656,
-.381,-.3302,
.381,-.3302,
.398643,-.328656,
.415749,-.324073,
.4318,-.316588,
.446307,-.30643,
.45883,-.293907,
.468988,-.2794,
.476473,-.263349,
.481056,-.246243,
.4826,-.2286,
.4826,.2286,
.481056,.246243,
.476473,.263349,
.468988,.2794,
.45883,.293907,
.446307,.30643,
.4318,.316588,
.415749,.324073,
.398643,.328656,
.381,.3302,
0.0*
%
%ADD13MACRO13*%
%ADD11C,1.016*%
%ADD32C,1.0008*%
%ADD17C,1.6002*%
%ADD25R,2.3012X1.8009*%
%ADD35C,3.048*%
%ADD18R,1.6002X1.6002*%
%ADD15C,2.4155*%
%ADD16C,1.8542*%
%ADD31R,2.4003X1.6993*%
%ADD26R,2.5552X3.7541*%
%ADD14C,1.3995*%
%AMMACRO30*
4,1,40,.4826,-.254,
.4826,.254,
.481056,.271643,
.476473,.288749,
.468988,.3048,
.45883,.319307,
.446307,.33183,
.4318,.341988,
.415749,.349473,
.398643,.354056,
.381,.3556,
-.381,.3556,
-.398643,.354056,
-.415749,.349473,
-.4318,.341988,
-.446307,.33183,
-.45883,.319307,
-.468988,.3048,
-.476473,.288749,
-.481056,.271643,
-.4826,.254,
-.4826,-.254,
-.481056,-.271643,
-.476473,-.288749,
-.468988,-.3048,
-.45883,-.319307,
-.446307,-.33183,
-.4318,-.341988,
-.415749,-.349473,
-.398643,-.354056,
-.381,-.3556,
.381,-.3556,
.398643,-.354056,
.415749,-.349473,
.4318,-.341988,
.446307,-.33183,
.45883,-.319307,
.468988,-.3048,
.476473,-.288749,
.481056,-.271643,
.4826,-.254,
0.0*
%
%ADD30MACRO30*%
%AMMACRO29*
4,1,40,.381,-.5842,
.381,.5842,
.37938,.601907,
.374709,.619064,
.367131,.635149,
.356874,.649673,
.344251,.662196,
.329645,.672337,
.3135,.679787,
.296307,.684321,
.2794,.6858,
-.2794,.6858,
-.297107,.68418,
-.314264,.679509,
-.330349,.671931,
-.344873,.661674,
-.357396,.649051,
-.367537,.634445,
-.374987,.6183,
-.379521,.601107,
-.381,.5842,
-.381,-.5842,
-.37938,-.601907,
-.374709,-.619064,
-.367131,-.635149,
-.356874,-.649673,
-.344251,-.662196,
-.329645,-.672337,
-.3135,-.679787,
-.296307,-.684321,
-.2794,-.6858,
.2794,-.6858,
.297107,-.68418,
.314264,-.679509,
.330349,-.671931,
.344873,-.661674,
.357396,-.649051,
.367537,-.634445,
.374987,-.6183,
.379521,-.601107,
.381,-.5842,
0.0*
%
%ADD29MACRO29*%
%AMMACRO23*
4,1,40,-.254,-.4826,
.254,-.4826,
.271643,-.481056,
.288749,-.476473,
.3048,-.468988,
.319307,-.45883,
.33183,-.446307,
.341988,-.4318,
.349473,-.415749,
.354056,-.398643,
.3556,-.381,
.3556,.381,
.354056,.398643,
.349473,.415749,
.341988,.4318,
.33183,.446307,
.319307,.45883,
.3048,.468988,
.288749,.476473,
.271643,.481056,
.254,.4826,
-.254,.4826,
-.271643,.481056,
-.288749,.476473,
-.3048,.468988,
-.319307,.45883,
-.33183,.446307,
-.341988,.4318,
-.349473,.415749,
-.354056,.398643,
-.3556,.381,
-.3556,-.381,
-.354056,-.398643,
-.349473,-.415749,
-.341988,-.4318,
-.33183,-.446307,
-.319307,-.45883,
-.3048,-.468988,
-.288749,-.476473,
-.271643,-.481056,
-.254,-.4826,
0.0*
%
%ADD23MACRO23*%
%ADD36C,.2032*%
%ADD37C,.127*%
%ADD38C,.254*%
%ADD39C,.508*%
%ADD40C,.762*%
%ADD48C,1.0164*%
%ADD45C,2.67*%
%ADD41C,1.654*%
%ADD47C,2.1086*%
%ADD43C,1.8546*%
%ADD44R,4.5724X7.6204*%
%ADD49C,1.9992*%
%ADD46R,1.8038X.0459*%
%ADD42R,1.8546X1.8546*%
G75*
%LPD*%
G75*
G36*
G01X315150Y-820190D02*
X942270Y-193060D01*
X2183350D01*
X2186600Y-200890D01*
X2166530Y-220960D01*
X1774360D01*
X1544770Y-450550D01*
X1541540Y-450010D01*
G03X1627960Y-536430I-17540J-103960D01*
G01X1627420Y-533200D01*
X1822780Y-337840D01*
X2214950D01*
X2621350Y68560D01*
X2640150D01*
X2642050Y65890D01*
G03X2831920Y144540I85910J61113D01*
G01X2831380Y147770D01*
X3131840Y448230D01*
Y1319610D01*
X2691210Y1760240D01*
X2175590D01*
X1891210Y2044620D01*
X1891140Y2047060D01*
Y2047130D01*
G03X1725820I-82660J-2430D01*
G01Y2047060D01*
X1725750Y2044620D01*
X1288970Y1607840D01*
X305990D01*
X153590Y1455440D01*
X130430D01*
X127190Y1463270D01*
X131820Y1467900D01*
X132100D01*
X135260Y1471060D01*
X136050D01*
X287270Y1622280D01*
X1058050D01*
X1197120Y1761350D01*
Y1914910D01*
X1230380Y1948170D01*
G03X1186170Y1992380I39620J83830D01*
G01X1142460Y1948670D01*
X1099490Y1991640D01*
G03X1100830Y1994540I-83499J40342D01*
G01X1101250Y1995520D01*
G03X1052480Y1946750I-85250J36480D01*
G01X1053460Y1947170D01*
G03X1056360Y1948510I-37442J84839D01*
G01X1089640Y1915230D01*
Y1805870D01*
X1013530Y1729760D01*
X242750D01*
X87810Y1574820D01*
X21210D01*
X17970Y1582650D01*
X561320Y2126000D01*
X944900D01*
X947420Y2128520D01*
X1927870D01*
X1931700Y2132350D01*
X1986480Y2077570D01*
X1985050Y2073740D01*
G03X2033440Y2122130I77430J-29040D01*
G01X2029610Y2120700D01*
X2020550Y2129770D01*
X2188180D01*
X2188230Y2129820D01*
X2240480Y2077570D01*
X2239050Y2073740D01*
G03X2287440Y2122130I77430J-29040D01*
G01X2283610Y2120700D01*
X2272000Y2132300D01*
X2805690D01*
X2807360Y2131210D01*
G02X3283120Y1655450I-1370982J-1846742D01*
G01X3283360Y1655220D01*
X3455990Y1385020D01*
G02X3671780Y825780I-2019615J-1100547D01*
G01X3693190Y737380D01*
X3709990Y720580D01*
Y667990D01*
X3855500Y67070D01*
X3963990Y-380940D01*
X4098980Y-938410D01*
X4217990Y-1429870D01*
X4342460Y-1943890D01*
X4345080Y-1946500D01*
X4471990Y-2478800D01*
X4601590Y-3014000D01*
G02X4471990Y-4237870I-1777940J-430524D01*
G01X4431430Y-4317140D01*
G02X1829290Y-4979990I-1607779J872618D01*
G01X1819420D01*
X1800160Y-4960730D01*
G02X1307440Y-4468010I1023489J1516209D01*
G01X1116010Y-4146710D01*
X944070Y-3850640D01*
X938120Y-3844700D01*
X862010Y-3709330D01*
X167450Y-2513330D01*
G03X-697300Y-2015520I-864755J-502185D01*
G01X-1388620D01*
G03X-1888580Y-2509250I0J-499999D01*
G01X-1888660Y-2515520D01*
X-3048000D01*
Y-2514600D01*
X-4216400D01*
Y-2515940D01*
G03X-4237000Y-2515520I-20490J-499575D01*
G01X-5138620D01*
G02X-5238620Y-2415520I0J100000D01*
G03X-5638620Y-2015520I-400000J0D01*
G01X-6429940D01*
G03X-7294690Y-2513330I5J-999995D01*
G01X-8366540Y-4359000D01*
G02X-11727690Y-3009280I-1582523J919035D01*
G01X-11583990Y-2415850D01*
Y-2415840D01*
X-11474570Y-1964000D01*
X-11075990Y-318010D01*
X-10986470Y51650D01*
X-10821990Y730910D01*
X-10724610Y1071960D01*
G02X-10567990Y1412530I2161000J-787494D01*
G02X-10449540Y1601030I2004241J-1127963D01*
G02X-9941620Y2125980I1885935J-1316557D01*
G01X-9067800D01*
Y1676400D01*
X-8948440D01*
Y1093390D01*
X-8669040Y813990D01*
Y509190D01*
X-8353120Y193270D01*
X-8356370Y185440D01*
X-10209610D01*
X-10220680Y174360D01*
X-10220690D01*
X-10280360Y114690D01*
Y114680D01*
X-10878840Y-483790D01*
Y-1458800D01*
G03X-10881430Y-1469380I20341J-10586D01*
G01Y-1515110D01*
G03X-10858500Y-1538040I22930J0D01*
G01X-10856710D01*
G03X-10784090I36310J45790D01*
G01X-10782300D01*
G03X-10759370Y-1515110I0J22930D01*
G01Y-1469380D01*
G03X-10761960Y-1458800I-22931J-6D01*
G01Y-532210D01*
X-10161190Y68560D01*
X-8280420D01*
Y-25420D01*
X-7137380D01*
Y482620D01*
X-7238980D01*
Y514200D01*
X-7213600D01*
Y719740D01*
X-7238980D01*
Y787380D01*
X-6710190D01*
Y782810D01*
X-6529810D01*
Y787380D01*
X-6527780D01*
Y990620D01*
X-6529810D01*
Y995190D01*
X-6710190D01*
Y990620D01*
X-6984220D01*
Y1009800D01*
X-7239780D01*
Y990620D01*
X-7493020D01*
Y228620D01*
X-7911940D01*
X-7912750Y228840D01*
G03X-7967330I-27290J-101840D01*
G01X-7968140Y228620D01*
X-8223170D01*
X-8552160Y557610D01*
Y862410D01*
X-8831560Y1141810D01*
Y1685270D01*
X-8813820D01*
Y1447780D01*
X-8610580D01*
Y1461550D01*
X-8593320Y1470090D01*
X-8590180Y1467700D01*
G03X-8576310Y1463020I13870J18213D01*
G01X-8530590D01*
G03X-8507710Y1485900I0J22880D01*
G01Y1493500D01*
X-8178870D01*
X-8095050Y1577320D01*
X-7792060D01*
G03Y1638320I32360J30500D01*
G01X-8120310D01*
X-8204130Y1554500D01*
X-8507710D01*
Y1562100D01*
G03X-8530590Y1584980I-22880J0D01*
G01X-8576310D01*
G03X-8590180Y1580300I0J-22893D01*
G01X-8593320Y1577910D01*
X-8610580Y1586450D01*
Y1650980D01*
X-8508980D01*
Y2123440D01*
X-8397410D01*
G03X-8366590I15410J-91440D01*
G01X-6807200D01*
Y1295420D01*
X-7391380D01*
Y1752620D01*
X-7645420D01*
Y1041380D01*
X-6223020D01*
Y888980D01*
X-5562620D01*
Y635020D01*
X-6223020D01*
Y482580D01*
X-5410180D01*
Y1752620D01*
X-5816620D01*
Y1041420D01*
X-5867380D01*
Y1752620D01*
X-6350000D01*
Y2123440D01*
X378510D01*
X-38030Y1706900D01*
X-292030D01*
X-774630Y1224300D01*
X-1841570D01*
X-2057470Y1440200D01*
X-2225700D01*
G03X-2301230Y1399010I-32360J-30506D01*
G03X-2280880Y1371530I43166J10691D01*
G01X-2277890Y1369740D01*
X-2277420Y1352040D01*
X-2280320Y1350090D01*
G03X-2288590Y1283450I24801J-36911D01*
G01X-2286900Y1281570D01*
X-2287250Y1267790D01*
X-2289030Y1266000D01*
G03X-2258640Y1190190I31539J-31353D01*
G01X-2256100Y1190130D01*
X-2245070Y1179100D01*
X-2257150Y1167010D01*
X-2257200Y1166960D01*
X-2258640Y1166930D01*
G03X-2259040Y1166920I911J-44464D01*
G01X-2259610Y1166890D01*
G03X-2288260Y1090360I2122J-44422D01*
G03X-2213130Y1119300I30770J32111D01*
G01X-2212880Y1122880D01*
X-2212800Y1122960D01*
X-2212730Y1123810D01*
X-2212100Y1124440D01*
X-2075430D01*
X-1986530Y1035540D01*
X-1985460D01*
X-1981390Y1031470D01*
X-1984630Y1023640D01*
X-2312590D01*
X-2456160Y1167210D01*
Y1370410D01*
X-2896790Y1811040D01*
X-3859610D01*
X-4063910Y1606740D01*
X-4066430Y1606660D01*
G03X-4132900Y1569740I2426J-82663D01*
G01X-4190980D01*
Y1905020D01*
X-4546620D01*
Y1142980D01*
X-4529710D01*
X-4526470Y1135150D01*
X-4545610Y1116010D01*
X-4612570Y1049040D01*
X-5080070D01*
X-5147040Y1116010D01*
Y1188380D01*
X-5142630Y1189800D01*
G03X-5126720Y1211560I-7010J21822D01*
G01Y1328440D01*
G03X-5149580Y1351300I-22921J-61D01*
G01X-5205500D01*
G03X-5228360Y1328440I61J-22921D01*
G01Y1211560D01*
G03X-5212450Y1189800I22920J62D01*
G01X-5208040Y1188380D01*
Y1090750D01*
X-5105330Y988040D01*
X-4584720D01*
Y712090D01*
X-4592550Y708850D01*
X-4828610Y944900D01*
X-5171510D01*
X-5278100Y1051490D01*
Y1349830D01*
X-5185230Y1442700D01*
X-5149580D01*
G03X-5126720Y1465560I-61J22921D01*
G01Y1582440D01*
G03X-5149580Y1605300I-22921J-61D01*
G01X-5205500D01*
G03X-5228360Y1582440I61J-22921D01*
G01Y1485830D01*
X-5339100Y1375090D01*
Y1026230D01*
X-5196770Y883900D01*
X-4853870D01*
X-4546620Y576650D01*
Y533420D01*
X-5207020D01*
Y203180D01*
X-4521180D01*
Y348570D01*
X-4513350Y351820D01*
X-4352030Y190500D01*
X-4491200Y51330D01*
X-4521180D01*
Y177820D01*
X-5207020D01*
Y-127020D01*
X-4577100D01*
Y-254070D01*
X-4828470Y-505440D01*
X-7254170D01*
X-7785030Y-1036300D01*
X-10011590D01*
X-10423070Y-1447780D01*
X-10744220D01*
Y-1600180D01*
X-10947420D01*
Y-1955820D01*
X-10642580D01*
Y-1701820D01*
X-10337780D01*
Y-1448750D01*
X-9986330Y-1097300D01*
X-8686670D01*
X-8683430Y-1105130D01*
X-9055250Y-1476960D01*
X-9059080Y-1475530D01*
G03X-9010690Y-1523920I-29040J-77430D01*
G01X-9012120Y-1520090D01*
X-8629970Y-1137940D01*
X-7742930D01*
X-7511790Y-906800D01*
X-7480170D01*
X-7476930Y-914630D01*
X-8039250Y-1476960D01*
X-8043080Y-1475530D01*
G03X-7994690Y-1523920I-29040J-77430D01*
G01X-7996120Y-1520090D01*
X-7423470Y-947440D01*
X-5948750D01*
X-5861170Y-859860D01*
X-5858630Y-859800D01*
G03X-5904240Y-814190I-1150J44460D01*
G01X-5904300Y-816730D01*
X-5974010Y-886440D01*
X-6064630D01*
X-6067870Y-878610D01*
X-5983090Y-793820D01*
X-5980550Y-793760D01*
G03X-6026160Y-748150I-1150J44460D01*
G01X-6026220Y-750690D01*
X-6121330Y-845800D01*
X-7497190D01*
X-7500430Y-837970D01*
X-7228910Y-566440D01*
X-4803210D01*
X-4516100Y-279330D01*
Y-157340D01*
X-4274450Y84310D01*
X-4229000D01*
Y45230D01*
X-4272730D01*
X-4348500Y-30540D01*
Y-123220D01*
X-4365290Y-131990D01*
X-4368450Y-129800D01*
G03X-4381500Y-125710I-13054J-18789D01*
G01X-4457700D01*
G03X-4470710Y-129770I0J-22875D01*
G01X-4474150Y-132140D01*
X-4476520Y-135580D01*
G03X-4480580Y-148590I18815J-13010D01*
G01Y-199390D01*
G03X-4457700Y-222270I22880J0D01*
G01X-4381500D01*
G03X-4368450Y-218180I-4J22879D01*
G01X-4365290Y-215990D01*
X-4348500Y-224760D01*
Y-291360D01*
X-4357730Y-300580D01*
X-4362590Y-295720D01*
X-4362890Y-295300D01*
G03X-4381500Y-285730I-18610J-13310D01*
G01X-4457700D01*
G03X-4480580Y-308610I0J-22880D01*
G01Y-359410D01*
G03X-4457700Y-382290I22880J0D01*
G01X-4381490D01*
G03X-4372610Y-380490I-15J22879D01*
G01X-4372400Y-380700D01*
X-4372380D01*
X-4365340Y-387740D01*
X-4574470Y-596880D01*
X-6950100D01*
G03Y-657880I-32360J-30500D01*
G01X-5355210D01*
X-5351970Y-665710D01*
X-5618500Y-932250D01*
Y-1422980D01*
X-5622760Y-1424460D01*
G03X-5553240I34760J-99540D01*
G01X-5557500Y-1422980D01*
Y-957510D01*
X-5301050Y-701060D01*
X-4135180D01*
X-3984470Y-550360D01*
X-3976640Y-553600D01*
Y-1146490D01*
X-3648930Y-1474200D01*
G03X-3601810Y-1429040I92929J-49800D01*
G01X-3605870Y-1431000D01*
X-3915640Y-1121230D01*
Y-943030D01*
X-3907810Y-939790D01*
X-3634670Y-1212920D01*
X-2649290D01*
X-2647970Y-1211600D01*
X-2047170D01*
X-1704270Y-1554500D01*
X-1625020D01*
X-1623540Y-1558760D01*
G03Y-1489240I99540J34760D01*
G01X-1625020Y-1493500D01*
X-1679010D01*
X-1859090Y-1313410D01*
X-1855850Y-1305580D01*
X-355530D01*
X-162580Y-1498530D01*
Y-1734760D01*
X-109420Y-1787930D01*
X-112660Y-1795760D01*
X-2210030D01*
X-2213280Y-1787930D01*
X-2052770Y-1627420D01*
X-2049540Y-1627960D01*
G03X-2135960Y-1541540I17540J103960D01*
G01X-2135420Y-1544770D01*
X-2386410Y-1795760D01*
X-4242030D01*
X-4245280Y-1787930D01*
X-4084760Y-1627410D01*
X-4081530Y-1627960D01*
G03X-4167960Y-1541530I17530J103960D01*
G01X-4167410Y-1544760D01*
X-4418410Y-1795760D01*
X-5741590D01*
X-5992590Y-1544760D01*
X-5992040Y-1541530D01*
G03X-6078470Y-1627960I-103960J17530D01*
G01X-6075240Y-1627410D01*
X-5790010Y-1912640D01*
X-151210D01*
X229790Y-2293640D01*
X559990D01*
X1500480Y-3234120D01*
G03X1583120Y-3151480I150520J-67880D01*
G01X628980Y-2197330D01*
X632230Y-2189500D01*
X647760D01*
X876360Y-2418100D01*
X2628970D01*
X2934950Y-2724080D01*
Y-2988010D01*
X2931640Y-2989810D01*
G03X2919710Y-3009900I10951J-20090D01*
G01Y-3086140D01*
G03X2920250Y-3091060I22882J22D01*
G01X2920400Y-3091730D01*
Y-3091740D01*
X2920910Y-3094040D01*
X2920400Y-3094670D01*
Y-3098780D01*
X2184380D01*
Y-3530620D01*
X2590820D01*
Y-3403620D01*
X3149620D01*
Y-3149620D01*
X3556020D01*
Y-2946380D01*
X3022580D01*
Y-2985550D01*
X3005320Y-2994090D01*
X3002180Y-2991700D01*
G03X2999260Y-2989810I-13857J-18208D01*
G01X2995950Y-2988010D01*
Y-2698820D01*
X2654230Y-2357100D01*
X901620D01*
X673020Y-2128500D01*
X317420D01*
X-101580Y-1709500D01*
Y-1473270D01*
X-330270Y-1244580D01*
X-1841570D01*
X-1856550Y-1229590D01*
X-1853310Y-1221760D01*
X-309950D01*
X22790Y-889020D01*
X1486080D01*
X1728130Y-646970D01*
X1732190Y-648930D01*
G03X1683040Y-599780I45810J94960D01*
G01X1685000Y-603840D01*
X1460820Y-828020D01*
X318390D01*
X315150Y-820190D01*
G37*
G36*
G01X-10922000Y-1930400D02*
X-10668000D01*
Y-1676400D01*
X-10363200D01*
Y-1473200D01*
X-10718800D01*
Y-1625600D01*
X-10922000D01*
Y-1930400D01*
G37*
G36*
G01X-8737600Y1930400D02*
Y2133600D01*
X-8788400D01*
Y2336800D01*
X-8636000D01*
Y2133600D01*
X-8534400D01*
Y1930400D01*
X-8737600D01*
G37*
G36*
G01Y1879600D02*
Y1676400D01*
X-8788400D01*
Y1473200D01*
X-8636000D01*
Y1676400D01*
X-8534400D01*
Y1879600D01*
X-8737600D01*
G37*
G36*
G01X-8255000Y0D02*
Y203200D01*
X-7467600D01*
Y965200D01*
X-6553200D01*
Y812800D01*
X-7264400D01*
Y457200D01*
X-7162800D01*
Y0D01*
X-8255000D01*
G37*
G36*
G01X-7620000Y1727200D02*
X-7416800D01*
Y1270000D01*
X-6350000D01*
Y1727200D01*
X-5892800D01*
Y1066800D01*
X-7518400D01*
X-7620000D01*
Y1168400D01*
Y1727200D01*
G37*
G36*
G01X-7797420Y1600640D02*
X-7782150Y1585380D01*
X-7757160Y1607820D01*
X-7782150Y1630260D01*
X-7797420Y1615000D01*
G03Y1600640I7190J-7180D01*
G37*
G36*
G01X-7792340Y2167060D02*
X-7777070Y2151800D01*
X-7752080Y2174240D01*
X-7777070Y2196680D01*
X-7792340Y2181420D01*
G03Y2167060I7190J-7180D01*
G37*
G36*
G01X-6944740Y-620200D02*
X-6960010Y-604940D01*
X-6985000Y-627380D01*
X-6960010Y-649820D01*
X-6944740Y-634560D01*
G03Y-620200I-7190J7180D01*
G37*
G36*
G01X-6197600Y508000D02*
Y609600D01*
X-5537200D01*
Y914400D01*
X-6197600D01*
Y1016000D01*
X-5791200D01*
Y1727200D01*
X-5435600D01*
Y508000D01*
X-6197600D01*
G37*
G36*
G01X-6003290Y-781050D02*
X-5981700D01*
X-5979900Y-747500D01*
X-6013450Y-749300D01*
Y-770890D01*
G03X-6003290Y-781050I10160J0D01*
G37*
G36*
G01X-5881370Y-847090D02*
X-5859780D01*
X-5857980Y-813540D01*
X-5891530Y-815340D01*
Y-836930D01*
G03X-5881370Y-847090I10160J0D01*
G37*
G36*
G01X-4546600Y508000D02*
Y228600D01*
X-5181600D01*
Y508000D01*
X-4546600D01*
G37*
G36*
G01X-5181600Y152400D02*
X-4546600D01*
Y-101600D01*
X-5181600D01*
Y152400D01*
G37*
G36*
G01X-4236830Y396320D02*
X-4399260Y558750D01*
Y650180D01*
X-4478000Y728920D01*
Y957650D01*
X-4434910Y1000740D01*
X-3955980D01*
X-3945910Y990670D01*
Y988040D01*
G03X-3870820Y955810I44470J20D01*
G01X-3868980Y957560D01*
X-3859450D01*
X-3837960Y936070D01*
Y857540D01*
X-3850000Y847490D01*
X-3852920Y848010D01*
G03X-3856990Y848380I-4098J-22507D01*
G01X-3907790D01*
G03X-3930670Y825500I0J-22880D01*
G01Y749300D01*
G03X-3907790Y726420I22880J0D01*
G01X-3856990D01*
G03X-3852920Y726790I-28J22877D01*
G01X-3850000Y727310D01*
X-3837960Y717260D01*
Y708980D01*
X-3876570Y670370D01*
Y647600D01*
X-3965680D01*
Y683540D01*
X-3962380Y687910D01*
Y889020D01*
X-4318020D01*
Y685780D01*
X-4250620D01*
X-4171720Y606880D01*
Y442480D01*
X-4229000D01*
Y399570D01*
X-4236830Y396320D01*
G37*
G36*
G01X-4521200Y1168400D02*
Y1879600D01*
X-4216400D01*
Y1422400D01*
X-4368800D01*
Y1168400D01*
X-4521200D01*
G37*
G36*
G01X-3993070Y-369960D02*
X-3981200Y-355480D01*
X-3996180Y-277880D01*
X-4011160Y-355480D01*
X-3999290Y-369960D01*
G03X-3993070I3110J9670D01*
G37*
G36*
G01X-3842970D02*
X-3831080Y-355480D01*
X-3846070Y-277880D01*
X-3861060Y-355480D01*
X-3849170Y-369960D01*
G03X-3842970I3100J9670D01*
G37*
G36*
G01X-3792930D02*
X-3781040Y-355480D01*
X-3796030Y-277880D01*
X-3811020Y-355480D01*
X-3799130Y-369960D01*
G03X-3792930I3100J9670D01*
G37*
G36*
G01X-3943030D02*
X-3931160Y-355480D01*
X-3946140Y-277880D01*
X-3961120Y-355480D01*
X-3949250Y-369960D01*
G03X-3943030I3110J9670D01*
G37*
G36*
G01X-3893010D02*
X-3881120Y-355480D01*
X-3896110Y-277880D01*
X-3911100Y-355480D01*
X-3899210Y-369960D01*
G03X-3893010I3100J9670D01*
G37*
G36*
G01X-4230760Y-38410D02*
X-4216280Y-50300D01*
X-4138680Y-35310D01*
X-4216280Y-20320D01*
X-4230760Y-32210D01*
G03Y-38410I9670J-3100D01*
G37*
G36*
G01X-4051680Y-82230D02*
X-4066160Y-70360D01*
X-4143760Y-85340D01*
X-4066160Y-100320D01*
X-4051680Y-88450D01*
G03Y-82230I-9670J3110D01*
G37*
G36*
G01X-3857880Y20760D02*
X-3842610Y5500D01*
X-3817620Y27940D01*
X-3842610Y50380D01*
X-3857880Y35120D01*
G03Y20760I7190J-7180D01*
G37*
G36*
G01X-4051680Y-132270D02*
X-4066160Y-120400D01*
X-4143760Y-135380D01*
X-4066160Y-150360D01*
X-4051680Y-138490D01*
G03Y-132270I-9670J3110D01*
G37*
G36*
G01X-3860420Y-65600D02*
X-3845150Y-80860D01*
X-3820160Y-58420D01*
X-3845150Y-35980D01*
X-3860420Y-51240D01*
G03Y-65600I7190J-7180D01*
G37*
G36*
G01X-4230760Y261570D02*
X-4216280Y249680D01*
X-4138680Y264670D01*
X-4216280Y279660D01*
X-4230760Y267770D01*
G03Y261570I9670J-3100D01*
G37*
G36*
G01X-4051680Y17830D02*
X-4066160Y29720D01*
X-4143760Y14730D01*
X-4066160Y-260D01*
X-4051680Y11630D01*
G03Y17830I-9670J3100D01*
G37*
G36*
G01X-4230760Y11630D02*
X-4216280Y-260D01*
X-4138680Y14730D01*
X-4216280Y29720D01*
X-4230760Y17830D01*
G03Y11630I9670J-3100D01*
G37*
G36*
G01X-4231110Y212730D02*
X-4216280Y199640D01*
X-4138040Y214630D01*
X-4216280Y229620D01*
X-4231110Y216530D01*
G03Y212730I12560J-1900D01*
G37*
G36*
G01X-4230760Y61670D02*
X-4216280Y49780D01*
X-4138680Y64770D01*
X-4216280Y79760D01*
X-4230760Y67870D01*
G03Y61670I9670J-3100D01*
G37*
G36*
G01X-4231110Y162690D02*
X-4216280Y149600D01*
X-4138040Y164590D01*
X-4216280Y179580D01*
X-4231110Y166490D01*
G03Y162690I12560J-1900D01*
G37*
G36*
G01X-4230760Y111710D02*
X-4216280Y99820D01*
X-4138680Y114810D01*
X-4216280Y129800D01*
X-4230760Y117910D01*
G03Y111710I9670J-3100D01*
G37*
G36*
G01X-3760470Y77470D02*
Y99060D01*
X-3794020Y100860D01*
X-3792220Y67310D01*
X-3770630D01*
G03X-3760470Y77470I0J10160D01*
G37*
G36*
G01X-4292600Y863600D02*
X-3987800D01*
Y711200D01*
X-4292600D01*
Y863600D01*
G37*
G36*
G01X-4051680Y417890D02*
X-4066160Y429760D01*
X-4143760Y414780D01*
X-4066160Y399800D01*
X-4051680Y411670D01*
G03Y417890I-9670J3110D01*
G37*
G36*
G01X-3993070Y470280D02*
X-3981200Y484760D01*
X-3996180Y562360D01*
X-4011160Y484760D01*
X-3999290Y470280D01*
G03X-3993070I3110J9670D01*
G37*
G36*
G01X-3999290Y649360D02*
X-4011160Y634880D01*
X-3996180Y557280D01*
X-3981200Y634880D01*
X-3993070Y649360D01*
G03X-3999290I-3110J-9670D01*
G37*
G36*
G01X-4230760Y311610D02*
X-4216280Y299720D01*
X-4138680Y314710D01*
X-4216280Y329700D01*
X-4230760Y317810D01*
G03Y311610I9670J-3100D01*
G37*
G36*
G01X-2987530Y263810D02*
Y270750D01*
X-2987420Y271340D01*
G03X-2987020Y275590I-22479J4260D01*
G01Y326390D01*
G03X-3009900Y349270I-22880J0D01*
G01X-3086100D01*
G03X-3108980Y326390I0J-22880D01*
G01Y274840D01*
X-3116810Y271600D01*
X-3190430Y345210D01*
X-3213200D01*
Y384280D01*
X-3152720D01*
X-3117080Y419920D01*
X-3103280Y420290D01*
X-3101400Y418590D01*
G03X-3086120Y412730I15292J17023D01*
G01X-3009900D01*
G03X-2987020Y435610I0J22880D01*
G01Y486410D01*
G03X-2998950Y506500I-22881J0D01*
G01X-3002260Y508300D01*
Y590920D01*
G03X-3093740I-45740J44080D01*
G01Y508300D01*
X-3097050Y506500D01*
G03X-3107150Y495370I10953J-20087D01*
G01X-3108800Y491510D01*
X-3131750D01*
X-3177980Y445280D01*
X-3936430D01*
X-3955360Y464210D01*
X-3952110Y472040D01*
X-3418320D01*
Y547000D01*
X-3417830Y548170D01*
G03X-3415520Y559810I-28191J11644D01*
G01Y719650D01*
X-3314770Y820400D01*
X-3072740D01*
G03Y881400I32360J30500D01*
G01X-3340030D01*
X-3476520Y744910D01*
Y647600D01*
X-3515590D01*
Y798640D01*
X-3385800Y928430D01*
Y963320D01*
G03X-3377490Y1017400I-30499J32365D01*
G01X-3379270Y1020570D01*
X-3370050Y1036300D01*
X-2809170D01*
X-2594420Y821550D01*
Y781990D01*
X-2606700Y771950D01*
X-2609650Y772560D01*
G03X-2662990Y730130I-8881J-43578D01*
G01X-2663050Y727590D01*
X-2674620Y716020D01*
X-2686190Y727590D01*
X-2686250Y730130D01*
G03X-2742390Y771890I-44457J-1150D01*
G01X-2745410Y771070D01*
X-2758420Y781000D01*
Y816000D01*
G03X-2819420I-30500J32360D01*
G01Y368230D01*
X-2923840Y263810D01*
X-2987530D01*
G37*
G36*
G01X-3965680Y647600D02*
Y683540D01*
X-3962380Y687910D01*
Y889020D01*
X-4042480D01*
X-4051080Y906190D01*
X-4048730Y909330D01*
G03X-4056340Y978400I-40670J30473D01*
G01X-4059700Y981270D01*
X-4052500Y1000740D01*
X-3955980D01*
X-3945910Y990670D01*
Y988040D01*
G03X-3870820Y955810I44470J20D01*
G01X-3868980Y957560D01*
X-3859450D01*
X-3837960Y936070D01*
Y857540D01*
X-3850000Y847490D01*
X-3852920Y848010D01*
G03X-3856990Y848380I-4098J-22507D01*
G01X-3907790D01*
G03X-3930670Y825500I0J-22880D01*
G01Y749300D01*
G03X-3907790Y726420I22880J0D01*
G01X-3856990D01*
G03X-3852920Y726790I-28J22877D01*
G01X-3850000Y727310D01*
X-3837960Y717260D01*
Y708980D01*
X-3876570Y670370D01*
Y647600D01*
X-3965680D01*
G37*
G36*
G01X-3949250Y649360D02*
X-3961120Y634880D01*
X-3946140Y557280D01*
X-3931160Y634880D01*
X-3943030Y649360D01*
G03X-3949250I-3110J-9670D01*
G37*
G36*
G01X-3799130D02*
X-3811020Y634880D01*
X-3796030Y557280D01*
X-3781040Y634880D01*
X-3792930Y649360D01*
G03X-3799130I-3100J-9670D01*
G37*
G36*
G01X-3849170D02*
X-3861060Y634880D01*
X-3846070Y557280D01*
X-3831080Y634880D01*
X-3842970Y649360D01*
G03X-3849170I-3100J-9670D01*
G37*
G36*
G01X-4230760Y361630D02*
X-4216280Y349760D01*
X-4138680Y364740D01*
X-4216280Y379720D01*
X-4230760Y367850D01*
G03Y361630I9670J-3110D01*
G37*
G36*
G01X-4169480Y889020D02*
X-4178080Y906190D01*
X-4175730Y909330D01*
G03X-4183340Y978400I-40670J30473D01*
G01X-4186700Y981270D01*
X-4179500Y1000740D01*
X-4126300D01*
X-4119100Y981270D01*
X-4122460Y978400D01*
G03X-4130070Y909330I33060J-38597D01*
G01X-4127720Y906190D01*
X-4136320Y889020D01*
X-4169480D01*
G37*
G36*
G01X-2520970Y897870D02*
X-2799150Y1176040D01*
X-3164910D01*
X-3226000Y1237130D01*
X-3224570Y1240960D01*
G03X-3272960Y1192570I-77430J29040D01*
G01X-3269130Y1194000D01*
X-3190170Y1115040D01*
X-2824410D01*
X-2814510Y1105130D01*
X-2817750Y1097300D01*
X-3599250D01*
X-3662660Y1160710D01*
Y1374210D01*
X-3588870Y1448000D01*
X-3585040Y1446570D01*
G03X-3633430Y1494960I29040J77430D01*
G01X-3632000Y1491130D01*
X-3723660Y1399470D01*
Y1326180D01*
X-3743320Y1319130D01*
X-3746160Y1322570D01*
G03X-3840500Y1193130I-63841J-52570D01*
G01Y1173400D01*
X-3898670Y1115240D01*
X-3906500Y1118480D01*
Y1384370D01*
X-3842870Y1448000D01*
X-3839040Y1446570D01*
G03X-3887430Y1494960I29040J77430D01*
G01X-3886000Y1491130D01*
X-3967500Y1409630D01*
Y1135310D01*
X-3980610Y1122210D01*
X-3987320Y1128910D01*
X-3986900Y1132030D01*
G03X-4014840Y1179360I-44079J5891D01*
G01X-4018410Y1180750D01*
X-4020560Y1199520D01*
X-4017390Y1201680D01*
G03X-4058110Y1187510I-46601J68322D01*
G02X-4054320Y1175770I457J-6334D01*
G03X-4063340Y1168420I23339J-37852D01*
G01X-4343380D01*
Y1269400D01*
X-4336330D01*
X-4335660Y1269250D01*
G03X-4330700Y1268710I4942J22342D01*
G01X-4254500D01*
G03X-4231620Y1291590I0J22880D01*
G01Y1342390D01*
G03X-4254500Y1365270I-22880J0D01*
G01X-4330700D01*
G03X-4335660Y1364730I-18J-22882D01*
G01X-4336330Y1364580D01*
X-4343380D01*
Y1396980D01*
X-4190980D01*
Y1442820D01*
X-4155540Y1478260D01*
X-4132900D01*
G03X-3981340Y1521570I68897J45741D01*
G01X-3981260Y1524090D01*
X-3811190Y1694160D01*
X-2945210D01*
X-2573040Y1321990D01*
Y1137870D01*
X-2580870Y1134630D01*
X-2916940Y1470690D01*
X-2975860D01*
X-2975870Y1470680D01*
X-3205550D01*
X-3226000Y1491130D01*
X-3224570Y1494960D01*
G03X-3345330Y1453560I-77432J29040D01*
G01X-3341230Y1451040D01*
X-3347180Y1430040D01*
X-3439090D01*
X-3523130Y1346000D01*
X-3526960Y1347430D01*
G03X-3478570Y1299040I-29040J-77430D01*
G01X-3480000Y1302870D01*
X-3413830Y1369040D01*
X-2959030D01*
X-2513140Y923150D01*
Y901110D01*
X-2520970Y897870D01*
G37*
G36*
G01D02*
X-2799150Y1176040D01*
X-3164910D01*
X-3226000Y1237130D01*
X-3224570Y1240960D01*
G03X-3272960Y1192570I-77430J29040D01*
G01X-3269130Y1194000D01*
X-3190170Y1115040D01*
X-2824410D01*
X-2814510Y1105130D01*
X-2817750Y1097300D01*
X-3599250D01*
X-3662660Y1160710D01*
Y1374210D01*
X-3588870Y1448000D01*
X-3585040Y1446570D01*
G03X-3633430Y1494960I29040J77430D01*
G01X-3632000Y1491130D01*
X-3723660Y1399470D01*
Y1326180D01*
X-3743320Y1319130D01*
X-3746160Y1322570D01*
G03X-3840500Y1193130I-63841J-52570D01*
G01Y1173400D01*
X-3898670Y1115240D01*
X-3906500Y1118480D01*
Y1384370D01*
X-3842870Y1448000D01*
X-3839040Y1446570D01*
G03X-3887430Y1494960I29040J77430D01*
G01X-3886000Y1491130D01*
X-3967500Y1409630D01*
Y1135310D01*
X-3980610Y1122210D01*
X-3987320Y1128910D01*
X-3986900Y1132030D01*
G03X-4014840Y1179360I-44079J5891D01*
G01X-4018410Y1180750D01*
X-4020560Y1199520D01*
X-4017390Y1201680D01*
G03X-4058110Y1187510I-46601J68322D01*
G02X-4054320Y1175770I457J-6334D01*
G03X-4063340Y1168420I23339J-37852D01*
G01X-4343380D01*
Y1269400D01*
X-4336330D01*
X-4335660Y1269250D01*
G03X-4330700Y1268710I4942J22342D01*
G01X-4254500D01*
G03X-4231620Y1291590I0J22880D01*
G01Y1342390D01*
G03X-4254500Y1365270I-22880J0D01*
G01X-4330700D01*
G03X-4335660Y1364730I-18J-22882D01*
G01X-4336330Y1364580D01*
X-4343380D01*
Y1396980D01*
X-4190980D01*
Y1442820D01*
X-4155540Y1478260D01*
X-4132900D01*
G03X-3981340Y1521570I68897J45741D01*
G01X-3981260Y1524090D01*
X-3811190Y1694160D01*
X-2945210D01*
X-2573040Y1321990D01*
Y1137870D01*
X-2580870Y1134630D01*
X-2916940Y1470690D01*
X-2975860D01*
X-2975870Y1470680D01*
X-3205550D01*
X-3226000Y1491130D01*
X-3224570Y1494960D01*
G03X-3345330Y1453560I-77432J29040D01*
G01X-3341230Y1451040D01*
X-3347180Y1430040D01*
X-3439090D01*
X-3523130Y1346000D01*
X-3526960Y1347430D01*
G03X-3478570Y1299040I-29040J-77430D01*
G01X-3480000Y1302870D01*
X-3413830Y1369040D01*
X-2959030D01*
X-2513140Y923150D01*
Y901110D01*
X-2520970Y897870D01*
G37*
G36*
G01X-4145000Y1252040D02*
X-4113470Y1220530D01*
X-4057650Y1270000D01*
X-4113470Y1319470D01*
X-4145000Y1287960D01*
G03Y1252040I17960J-17960D01*
G37*
G36*
G01X-3750310Y979170D02*
Y1000760D01*
X-3783860Y1002560D01*
X-3782060Y969010D01*
X-3760470D01*
G03X-3750310Y979170I0J10160D01*
G37*
G36*
G01X-3863720Y995240D02*
X-3878990Y1010500D01*
X-3903980Y988060D01*
X-3878990Y965620D01*
X-3863720Y980880D01*
G03Y995240I-7190J7180D01*
G37*
G36*
G01X-4068700Y1130740D02*
X-4053430Y1115480D01*
X-4028440Y1137920D01*
X-4053430Y1160360D01*
X-4068700Y1145100D01*
G03Y1130740I7190J-7180D01*
G37*
G36*
G01X-3485010Y-903000D02*
X-3562330Y-825680D01*
Y-594380D01*
X-3509010D01*
G03X-3486130Y-571500I0J22880D01*
G01Y-495300D01*
G03X-3509010Y-472420I-22880J0D01*
G01X-3535370D01*
X-3538610Y-464590D01*
X-3519910Y-445880D01*
Y-389340D01*
X-3515590Y-385020D01*
Y-368200D01*
X-3476520D01*
Y-403280D01*
X-3415480Y-464320D01*
X-3415110Y-478120D01*
X-3416810Y-480000D01*
G03X-3422670Y-495280I17023J-15292D01*
G01Y-500420D01*
X-3423670Y-501980D01*
G03X-3432830Y-533390I49282J-31413D01*
G01Y-713820D01*
X-3275410Y-871240D01*
X-2922190D01*
X-2773910Y-722960D01*
X-2766080Y-726210D01*
Y-784930D01*
X-2884150Y-903000D01*
X-3485010D01*
G37*
G36*
G01X-3593030Y-369960D02*
X-3581140Y-355480D01*
X-3596130Y-277880D01*
X-3611120Y-355480D01*
X-3599230Y-369960D01*
G03X-3593030I3100J9670D01*
G37*
G36*
G01X-3442910D02*
X-3431040Y-355480D01*
X-3446020Y-277880D01*
X-3461000Y-355480D01*
X-3449130Y-369960D01*
G03X-3442910I3110J9670D01*
G37*
G36*
G01X-3542990D02*
X-3531100Y-355480D01*
X-3546090Y-277880D01*
X-3561080Y-355480D01*
X-3549190Y-369960D01*
G03X-3542990I3100J9670D01*
G37*
G36*
G01X-3693110D02*
X-3681220Y-355480D01*
X-3696210Y-277880D01*
X-3711200Y-355480D01*
X-3699310Y-369960D01*
G03X-3693110I3100J9670D01*
G37*
G36*
G01X-3492950D02*
X-3481080Y-355480D01*
X-3496060Y-277880D01*
X-3511040Y-355480D01*
X-3499170Y-369960D01*
G03X-3492950I3110J9670D01*
G37*
G36*
G01X-3742890D02*
X-3731000Y-355480D01*
X-3745990Y-277880D01*
X-3760980Y-355480D01*
X-3749090Y-369960D01*
G03X-3742890I3100J9670D01*
G37*
G36*
G01X-3211440Y117910D02*
X-3225920Y129800D01*
X-3303520Y114810D01*
X-3225920Y99820D01*
X-3211440Y111710D01*
G03Y117910I-9670J3100D01*
G37*
G36*
G01Y167690D02*
X-3225920Y179580D01*
X-3303520Y164590D01*
X-3225920Y149600D01*
X-3211440Y161490D01*
G03Y167690I-9670J3100D01*
G37*
G36*
G01X-3390520Y211530D02*
X-3376040Y199640D01*
X-3298440Y214630D01*
X-3376040Y229620D01*
X-3390520Y217730D01*
G03Y211530I9670J-3100D01*
G37*
G36*
G01X-3582670Y184150D02*
X-3604260D01*
X-3606060Y150600D01*
X-3572510Y152400D01*
Y173990D01*
G03X-3582670Y184150I-10160J0D01*
G37*
G36*
G01X-3211440Y-82230D02*
X-3225920Y-70360D01*
X-3303520Y-85340D01*
X-3225920Y-100320D01*
X-3211440Y-88450D01*
G03Y-82230I-9670J3110D01*
G37*
G36*
G01Y-32210D02*
X-3225920Y-20320D01*
X-3303520Y-35310D01*
X-3225920Y-50300D01*
X-3211440Y-38410D01*
G03Y-32210I-9670J3100D01*
G37*
G36*
G01Y17830D02*
X-3225920Y29720D01*
X-3303520Y14730D01*
X-3225920Y-260D01*
X-3211440Y11630D01*
G03Y17830I-9670J3100D01*
G37*
G36*
G01Y-132270D02*
X-3225920Y-120400D01*
X-3303520Y-135380D01*
X-3225920Y-150360D01*
X-3211440Y-138490D01*
G03Y-132270I-9670J3110D01*
G37*
G36*
G01X-3649270Y-190880D02*
X-3661160Y-205360D01*
X-3646170Y-282960D01*
X-3631180Y-205360D01*
X-3643070Y-190880D01*
G03X-3649270I-3100J-9670D01*
G37*
G36*
G01X-3704590Y184150D02*
X-3726180D01*
X-3727980Y150600D01*
X-3694430Y152400D01*
Y173990D01*
G03X-3704590Y184150I-10160J0D01*
G37*
G36*
G01X-3390520Y261570D02*
X-3376040Y249680D01*
X-3298440Y264670D01*
X-3376040Y279660D01*
X-3390520Y267770D01*
G03Y261570I9670J-3100D01*
G37*
G36*
G01Y411670D02*
X-3376040Y399800D01*
X-3298440Y414780D01*
X-3376040Y429760D01*
X-3390520Y417890D01*
G03Y411670I9670J-3110D01*
G37*
G36*
G01X-3211440Y417890D02*
X-3225920Y429760D01*
X-3303520Y414780D01*
X-3225920Y399800D01*
X-3211440Y411670D01*
G03Y417890I-9670J3110D01*
G37*
G36*
G01Y317810D02*
X-3225920Y329700D01*
X-3303520Y314710D01*
X-3225920Y299720D01*
X-3211440Y311610D01*
G03Y317810I-9670J3100D01*
G37*
G36*
G01X-3699310Y649360D02*
X-3711200Y634880D01*
X-3696210Y557280D01*
X-3681220Y634880D01*
X-3693110Y649360D01*
G03X-3699310I-3100J-9670D01*
G37*
G36*
G01X-3649270D02*
X-3661160Y634880D01*
X-3646170Y557280D01*
X-3631180Y634880D01*
X-3643070Y649360D01*
G03X-3649270I-3100J-9670D01*
G37*
G36*
G01X-3599230D02*
X-3611120Y634880D01*
X-3596130Y557280D01*
X-3581140Y634880D01*
X-3593030Y649360D01*
G03X-3599230I-3100J-9670D01*
G37*
G36*
G01X-3549190D02*
X-3561080Y634880D01*
X-3546090Y557280D01*
X-3531100Y634880D01*
X-3542990Y649360D01*
G03X-3549190I-3100J-9670D01*
G37*
G36*
G01X-3211440Y367850D02*
X-3225920Y379720D01*
X-3303520Y364740D01*
X-3225920Y349760D01*
X-3211440Y361630D01*
G03Y367850I-9670J3110D01*
G37*
G36*
G01X-3449130Y649360D02*
X-3461000Y634880D01*
X-3446020Y557280D01*
X-3431040Y634880D01*
X-3442910Y649360D01*
G03X-3449130I-3110J-9670D01*
G37*
G36*
G01X-3685980Y963040D02*
X-3670720Y978310D01*
X-3693160Y1003300D01*
X-3715600Y978310D01*
X-3700340Y963040D01*
G03X-3685980I7180J7190D01*
G37*
G36*
G01X-3602160D02*
X-3586900Y978310D01*
X-3609340Y1003300D01*
X-3631780Y978310D01*
X-3616520Y963040D01*
G03X-3602160I7180J7190D01*
G37*
G36*
G01X-3503100Y960500D02*
X-3487840Y975770D01*
X-3510280Y1000760D01*
X-3532720Y975770D01*
X-3517460Y960500D01*
G03X-3503100I7180J7190D01*
G37*
G36*
G01X-3409120Y957960D02*
X-3393860Y973230D01*
X-3416300Y998220D01*
X-3438740Y973230D01*
X-3423480Y957960D01*
G03X-3409120I7180J7190D01*
G37*
G36*
G01X-3030040Y581120D02*
X-3012090Y599090D01*
X-3048000Y641350D01*
X-3083910Y599090D01*
X-3065960Y581120D01*
G03X-3030040I17960J17960D01*
G37*
G36*
G01X-2640120Y697230D02*
X-2618530D01*
X-2616730Y730780D01*
X-2650280Y728980D01*
Y707390D01*
G03X-2640120Y697230I10160J0D01*
G37*
G36*
G01X-2781740Y810640D02*
X-2766480Y825910D01*
X-2788920Y850900D01*
X-2811360Y825910D01*
X-2796100Y810640D01*
G03X-2781740I7180J7190D01*
G37*
G36*
G01X-2698960Y707390D02*
Y728980D01*
X-2732510Y730780D01*
X-2730710Y697230D01*
X-2709120D01*
G03X-2698960Y707390I0J10160D01*
G37*
G36*
G01X-3078100Y843720D02*
X-3062830Y828460D01*
X-3037840Y850900D01*
X-3062830Y873340D01*
X-3078100Y858080D01*
G03Y843720I7190J-7180D01*
G37*
G36*
G01X-1851730Y-1160760D02*
X-2264340Y-748150D01*
X-2264400Y-745610D01*
G03X-2310010Y-791220I-44460J-1150D01*
G01X-2307470Y-791280D01*
X-2009330Y-1089430D01*
X-2012570Y-1097260D01*
X-2247970D01*
X-2456160Y-889070D01*
Y-639010D01*
X-2370890Y-553740D01*
X-2351380D01*
G03X-2322010Y-478870I32361J30501D01*
G01X-2326400Y-479170D01*
X-2334960Y-460330D01*
X-2126110Y-251480D01*
X-1941450D01*
X-1938210Y-259310D01*
X-2183010Y-504120D01*
X-2185550Y-504180D01*
G03X-2139940Y-549790I1150J-44460D01*
G01X-2139880Y-547250D01*
X-1889830Y-297200D01*
X-1211650D01*
X-1036390Y-121940D01*
X-233750D01*
X-86430Y25380D01*
X380980D01*
Y-76220D01*
X685820D01*
Y838220D01*
X380980D01*
Y86380D01*
X-111690D01*
X-259010Y-60940D01*
X-1054080D01*
Y353130D01*
X-858500Y548710D01*
Y685130D01*
G03X-919500I-30500J76870D01*
G01Y573970D01*
X-1106170Y387300D01*
X-1219180Y500310D01*
Y642690D01*
X-1175870Y686000D01*
X-1172040Y684570D01*
G03X-1220430Y732960I29040J77430D01*
G01X-1219000Y729130D01*
X-1270000Y678130D01*
X-1321000Y729130D01*
X-1319570Y732960D01*
G03X-1367960Y684570I-77430J29040D01*
G01X-1364130Y686000D01*
X-1320820Y642690D01*
Y464840D01*
X-1463110D01*
X-1620500Y622230D01*
Y685130D01*
G03X-1681500I-30500J76870D01*
G01Y632230D01*
X-1689330Y628980D01*
X-1822300Y761950D01*
G03Y762050I-82700J50D01*
G01X-1677590Y906760D01*
X-585390D01*
X-153590Y1338560D01*
X202010D01*
X354410Y1490960D01*
X1337390D01*
X1808400Y1961970D01*
G03X1808560I80J82730D01*
G01X2127170Y1643360D01*
X2642790D01*
X3014960Y1271190D01*
Y496650D01*
X2748730Y230420D01*
X2745500Y230960D01*
G03X2640210Y185440I-17540J-103960D01*
G01X2586610D01*
X2583370Y193270D01*
X2678090Y288000D01*
X2682150Y286040D01*
G03X2633000Y335190I45810J94960D01*
G01X2634960Y331130D01*
X2171770Y-132060D01*
X917010D01*
X261690Y-787380D01*
X-31390D01*
X-359050Y-1115040D01*
X-1734890D01*
X-2144960Y-704970D01*
X-2145020Y-702430D01*
G03X-2190630Y-748040I-44460J-1150D01*
G01X-2188090Y-748100D01*
X-1783270Y-1152930D01*
X-1786510Y-1160760D01*
X-1851730D01*
G37*
G36*
G01X-2157730Y-725170D02*
Y-703580D01*
X-2191280Y-701780D01*
X-2189480Y-735330D01*
X-2167890D01*
G03X-2157730Y-725170I0J10160D01*
G37*
G36*
G01X-2277110Y-768350D02*
Y-746760D01*
X-2310660Y-744960D01*
X-2308860Y-778510D01*
X-2287270D01*
G03X-2277110Y-768350I0J10160D01*
G37*
G36*
G01X-2356740Y-530420D02*
X-2341470Y-545680D01*
X-2316480Y-523240D01*
X-2341470Y-500800D01*
X-2356740Y-516060D01*
G03Y-530420I7190J-7180D01*
G37*
G36*
G01X-2162810Y-516890D02*
X-2184400D01*
X-2186200Y-550440D01*
X-2152650Y-548640D01*
Y-527050D01*
G03X-2162810Y-516890I-10160J0D01*
G37*
G36*
G01X-1877210Y211020D02*
X-1836440Y170250D01*
Y71050D01*
X-1884610Y22880D01*
X-2232590D01*
X-2295930Y-40450D01*
X-2303760Y-37210D01*
Y280590D01*
X-2262340Y322020D01*
X-2243280Y311300D01*
X-2244420Y306620D01*
G03X-2183680Y367360I80340J-19600D01*
G01X-2188360Y366220D01*
X-2199080Y385280D01*
X-1905080Y679270D01*
G03X-1904920I80J82730D01*
G01X-1785640Y559990D01*
Y534590D01*
X-1639240Y388200D01*
X-1647590Y369400D01*
X-1651940Y369620D01*
G03X-1733510Y257980I-4138J-82597D01*
G01X-1732080Y254150D01*
X-1783080Y203150D01*
X-1834080Y254150D01*
X-1832650Y257980D01*
G03X-1881040Y209590I-77430J29040D01*
G01X-1877210Y211020D01*
G37*
G36*
G01D02*
X-1836440Y170250D01*
Y71050D01*
X-1884610Y22880D01*
X-2232590D01*
X-2295930Y-40450D01*
X-2303760Y-37210D01*
Y280590D01*
X-2262340Y322020D01*
X-2243280Y311300D01*
X-2244420Y306620D01*
G03X-2183680Y367360I80340J-19600D01*
G01X-2188360Y366220D01*
X-2199080Y385280D01*
X-1905080Y679270D01*
G03X-1904920I80J82730D01*
G01X-1785640Y559990D01*
Y534590D01*
X-1639240Y388200D01*
X-1647590Y369400D01*
X-1651940Y369620D01*
G03X-1733510Y257980I-4138J-82597D01*
G01X-1732080Y254150D01*
X-1783080Y203150D01*
X-1834080Y254150D01*
X-1832650Y257980D01*
G03X-1881040Y209590I-77430J29040D01*
G01X-1877210Y211020D01*
G37*
G36*
G01X-2403670Y345980D02*
X-2411500Y349230D01*
Y946170D01*
X-2403670Y949420D01*
X-2361010Y906760D01*
X-1853970D01*
X-1850720Y898930D01*
X-1904910Y844740D01*
X-1907430Y844660D01*
G03X-1987660Y764430I2430J-82660D01*
G01X-1987740Y761910D01*
X-2403670Y345980D01*
G37*
G36*
G01X-2235900Y1154220D02*
X-2257490D01*
X-2259290Y1120670D01*
X-2225740Y1122470D01*
Y1144060D01*
G03X-2235900Y1154220I-10160J0D01*
G37*
G36*
G01X-2217800Y1320360D02*
X-2233070Y1335620D01*
X-2258060Y1313180D01*
X-2233070Y1290740D01*
X-2217800Y1306000D01*
G03Y1320360I-7190J7180D01*
G37*
G36*
G01X-2225740Y1213060D02*
Y1234650D01*
X-2259290Y1236450D01*
X-2257490Y1202900D01*
X-2235900D01*
G03X-2225740Y1213060I0J10160D01*
G37*
G36*
G01X-2220340Y1416880D02*
X-2235610Y1432140D01*
X-2260600Y1409700D01*
X-2235610Y1387260D01*
X-2220340Y1402520D01*
G03Y1416880I-7190J7180D01*
G37*
G36*
G01X406400Y812800D02*
X660400D01*
Y-50800D01*
X406400D01*
Y812800D01*
G37*
G36*
G01X2260600Y-3124200D02*
X2921000D01*
Y-3378200D01*
X2565400D01*
Y-3505200D01*
X2260600D01*
X2209800D01*
Y-3124200D01*
X2260600D01*
G37*
G36*
G01X3530600Y-2971800D02*
Y-3124200D01*
X3124200D01*
Y-3378200D01*
X2971800D01*
Y-3149600D01*
X3048000D01*
Y-2971800D01*
X3098800D01*
X3530600D01*
G37*
%LPC*%
G75*
G36*
G01X-5149580Y1696700D02*
X-5205500D01*
G02X-5228360Y1719560I61J22921D01*
G01Y1836440D01*
G02X-5205500Y1859300I22921J-61D01*
G01X-5149580D01*
G02X-5126720Y1836440I-61J-22921D01*
G01Y1719560D01*
G02X-5149580Y1696700I-22921J61D01*
G37*
G36*
G01X-5577820Y758190D02*
G02X-5588000Y739160I-22877J0D01*
G01Y828020D01*
G02X-5577820Y808990I-12697J-19030D01*
G01Y758190D01*
G37*
G36*
G01X-5298420Y659740D02*
G02X-5359420I-30500J-32360D01*
G01Y854100D01*
G02X-5298420I30500J32360D01*
G01Y659740D01*
G37*
G36*
G01X-5242580Y508000D02*
X-5331440D01*
G02X-5312410Y518180I19030J-12697D01*
G01X-5261610D01*
G02X-5242580Y508000I0J-22877D01*
G37*
G36*
G01X-6527780Y177780D02*
X-7086620D01*
Y482620D01*
X-6781820D01*
Y635020D01*
X-6527780D01*
Y177780D01*
G37*
G36*
G01X-5261610Y-111780D02*
X-5312410D01*
G02X-5331440Y-101600I0J22877D01*
G01X-5242580D01*
G02X-5261610Y-111780I-19030J12697D01*
G37*
G36*
G01X-9477400Y-486980D02*
G02X-9581530Y-242190I-62591J117917D01*
G02X-9477310Y-486930I41535J-126873D01*
G03X-9477400Y-486980I6122J-11125D01*
G37*
G36*
G01X-10782300Y-2109490D02*
X-10858500D01*
G02X-10881380Y-2086610I0J22880D01*
G01Y-2035810D01*
G02X-10858500Y-2012930I22880J0D01*
G01X-10782300D01*
G02X-10759420Y-2035810I0J-22880D01*
G01Y-2086610D01*
G02X-10782300Y-2109490I-22880J0D01*
G37*
G36*
G01X3661410Y-3108980D02*
X3615690D01*
G02X3592810Y-3086100I0J22880D01*
G01Y-3009900D01*
G02X3615690Y-2987020I22880J0D01*
G01X3661410D01*
G02X3684290Y-3009900I0J-22880D01*
G01Y-3086100D01*
G02X3661410Y-3108980I-22880J0D01*
G37*
G36*
G01X-4372610Y726420D02*
X-4423410D01*
G02X-4446290Y749300I0J22880D01*
G01Y825500D01*
G02X-4423410Y848380I22880J0D01*
G01X-4372610D01*
G02X-4349730Y825500I0J-22880D01*
G01Y749300D01*
G02X-4372610Y726420I-22880J0D01*
G37*
G54D48*
X-8356600Y-4140200D03*
X-8610600Y-4394200D03*
X-8864600Y-4648200D03*
G54D45*
X-8240010Y1131060D03*
X-9539990D03*
X2427990Y-369060D03*
X1128010D03*
X-8240010D03*
X2427990Y1131060D03*
X1128010D03*
G54D41*
X2570480Y2044700D03*
X-7239000Y1524000D03*
X2103120Y-1552960D03*
X1452880D03*
X1087120D03*
X436880D03*
X-7421880D03*
X-8437880D03*
X-9834880D03*
X2103120Y-2003040D03*
X1452880D03*
X1087120D03*
X436880D03*
X-7421880D03*
X-8072120D03*
X-8437880D03*
X-9088120D03*
X-9834880D03*
X-10485120D03*
X3247900Y-3302000D03*
X947930Y706120D03*
Y55880D03*
X-2159000Y762000D03*
G54D47*
X-7940040Y635000D03*
Y381000D03*
X2032000Y-553970D03*
X-8636000D03*
X-8890000D03*
X-9144000D03*
X-1016000Y-1524000D03*
X-3048000D03*
X-5080000D03*
X2727960Y635000D03*
G54D43*
X-8382000Y1778000D03*
G54D44*
X-4826000Y1524000D03*
G54D49*
X-3301100Y559700D03*
G54D46*
X-6080000Y865895D03*
Y658105D03*
X-6620000D03*
G54D42*
X762000Y2032000D03*
%LPD*%
G75*
G36*
G01X-10425310Y-1482990D02*
X-10485120Y-1483000D01*
X-10486920Y-1554760D01*
X-10415160Y-1552960D01*
X-10415150Y-1493150D01*
G03X-10425310Y-1482990I-10160J0D01*
G37*
G36*
G01X-8053190Y109040D02*
X-8005600Y61450D01*
X-7933690Y127000D01*
X-8005600Y192550D01*
X-8053190Y144960D01*
G03Y109040I17960J-17960D01*
G37*
G36*
G01X-7061200Y304800D02*
Y355600D01*
Y457200D01*
X-6756400D01*
Y609600D01*
X-6553200D01*
Y558800D01*
Y203200D01*
X-7061200D01*
Y304800D01*
G37*
G36*
G01X-5336100Y665100D02*
X-5351360Y649830D01*
X-5328920Y624840D01*
X-5306480Y649830D01*
X-5321740Y665100D01*
G03X-5336100I-7180J-7190D01*
G37*
G36*
G01X-5321740Y848740D02*
X-5306480Y864010D01*
X-5328920Y889000D01*
X-5351360Y864010D01*
X-5336100Y848740D01*
G03X-5321740I7180J7190D01*
G37*
G36*
G01X-5029200Y1371600D02*
X-4622800D01*
Y1168400D01*
X-5029200D01*
Y1371600D01*
G37*
G36*
G01Y1625600D02*
X-4622800D01*
Y1422400D01*
X-5029200D01*
Y1625600D01*
G37*
G36*
G01Y1879600D02*
X-4622800D01*
Y1676400D01*
X-5029200D01*
Y1879600D01*
G37*
G36*
G01X456110Y48700D02*
X498400Y6410D01*
X550420Y55880D01*
X498400Y105350D01*
X456110Y63060D01*
G03Y48700I7180J-7180D01*
G37*
G54D10*
X-10896600Y-4648200D03*
Y-4394200D03*
X-11150600D03*
X-10896600Y-4140200D03*
X-11150600D03*
X-10896600Y-3886200D03*
X-11150600D03*
X-10896600Y-3632200D03*
X-11150600D03*
X-10896600Y-3378200D03*
X-11150600D03*
X-10896600Y-3124200D03*
X-11150600D03*
X-10896600Y-2870200D03*
X-11150600D03*
X-10896600Y-2616200D03*
X-11150600D03*
X-10896600Y-2362200D03*
X-11150600D03*
X-10134600Y-4648200D03*
X-10388600D03*
X-10642600D03*
X-10134600Y-4394200D03*
X-10388600D03*
X-10642600D03*
X-10134600Y-4140200D03*
X-10388600D03*
X-10642600D03*
X-10134600Y-3886200D03*
X-10388600D03*
X-10642600D03*
X-10134600Y-3632200D03*
X-10388600D03*
X-10642600D03*
X-10134600Y-3378200D03*
X-10388600D03*
X-10642600D03*
X-10134600Y-3124200D03*
X-10388600D03*
X-10642600D03*
X-10134600Y-2870200D03*
X-10388600D03*
X-10642600D03*
X-10134600Y-2616200D03*
X-10388600D03*
X-10642600D03*
X-10134600Y-2362200D03*
X-10388600D03*
X-10642600D03*
X-10290200Y-958800D03*
X-10490200D03*
X-10290200Y-758800D03*
X-10490200D03*
X-10290200Y-558800D03*
X-10490200D03*
X-10290200Y-374600D03*
X-10490200D03*
X-10290200Y-174600D03*
X-10490200Y25400D03*
X-10290200Y184200D03*
X-10490200D03*
X-10290200Y384200D03*
X-10490200D03*
X-10290200Y584200D03*
X-10490200D03*
X-10290200Y768400D03*
X-10490200D03*
X-10290200Y968400D03*
X-10490200D03*
X-10290200Y1168400D03*
X-10490200D03*
X-9626600Y-4648200D03*
X-9880600D03*
X-9626600Y-4394200D03*
X-9880600D03*
X-9626600Y-4140200D03*
X-9880600D03*
X-9626600Y-3886200D03*
X-9880600D03*
X-9626600Y-3632200D03*
X-9880600D03*
X-9626600Y-3378200D03*
X-9880600D03*
X-9626600Y-3124200D03*
X-9880600D03*
X-9626600Y-2870200D03*
X-9880600D03*
X-9626600Y-2616200D03*
X-9880600D03*
X-9626600Y-2362200D03*
X-9880600D03*
X-10090200Y-958800D03*
X-9690200D03*
X-9890200D03*
X-10090200Y-758800D03*
Y-558800D03*
Y-374600D03*
X-9690200Y-758800D03*
X-9890200D03*
X-9690200Y-558800D03*
X-9890200D03*
Y-374600D03*
X-10090200Y-174600D03*
X-9690200D03*
X-9890200D03*
X-10090200Y384200D03*
Y584200D03*
X-9690200Y384200D03*
X-9890200D03*
X-9690200Y584200D03*
X-9890200D03*
X-10090200Y768400D03*
X-9690200D03*
X-9890200D03*
X-10090200Y968400D03*
Y1168400D03*
X-9690200Y968400D03*
X-9890200D03*
Y1168400D03*
X-10058400Y1428800D03*
X-9658400D03*
X-9858400D03*
X-10058400Y1628800D03*
Y1828800D03*
X-9658400Y1628800D03*
X-9858400D03*
X-9658400Y1828800D03*
X-9858400D03*
X-9372600Y-4648200D03*
Y-4394200D03*
X-9118600Y-4648200D03*
Y-4394200D03*
X-9372600Y-4140200D03*
X-9118600D03*
X-9372600Y-3886200D03*
X-9118600D03*
X-9372600Y-3632200D03*
Y-3378200D03*
X-9118600Y-3632200D03*
Y-3378200D03*
X-9372600Y-3124200D03*
Y-2870200D03*
Y-2616200D03*
X-9118600Y-3124200D03*
Y-2870200D03*
Y-2616200D03*
X-9372600Y-2362200D03*
X-9118600D03*
X-9290200Y-958800D03*
X-9490200D03*
X-9090200D03*
X-9290200Y-758800D03*
X-9490200D03*
Y-558800D03*
X-9290200Y-374600D03*
X-9090200Y-758800D03*
Y-374600D03*
X-9290200Y-174600D03*
X-9490200D03*
X-9090200D03*
X-9290200Y384200D03*
X-9490200D03*
X-9290200Y584200D03*
X-9490200D03*
X-9090200Y384200D03*
Y584200D03*
X-9290200Y768400D03*
X-9490200D03*
X-9090200D03*
X-9290200Y968400D03*
Y1168400D03*
X-9090200Y968400D03*
Y1168400D03*
X-8864600Y-4394200D03*
X-8610600D03*
X-8864600Y-4648200D03*
X-8610600Y-4140200D03*
X-8864600D03*
X-8610600Y-3886200D03*
X-8864600D03*
X-8610600Y-3632200D03*
X-8864600D03*
X-8610600Y-3378200D03*
X-8864600D03*
X-8610600Y-3124200D03*
X-8864600D03*
X-8610600Y-2870200D03*
X-8864600D03*
X-8610600Y-2616200D03*
X-8864600D03*
X-8610600Y-2362200D03*
X-8864600D03*
X-8356600Y-3886200D03*
Y-4140200D03*
Y-3632200D03*
Y-3378200D03*
Y-3124200D03*
Y-2870200D03*
Y-2616200D03*
Y-2362200D03*
X-6858000Y-323800D03*
X-6658000D03*
X-6858000Y76200D03*
X-6658000D03*
X-6858000Y-123800D03*
X-6658000D03*
X-6458000Y-323800D03*
X-6258000D03*
X-6458000Y76200D03*
X-6258000D03*
X-6458000Y-123800D03*
X-6258000D03*
X-6477000Y759800D03*
X-6297000D03*
Y579800D03*
X-6477000D03*
X-6297000Y939800D03*
X-6477000D03*
X-6058000Y-323800D03*
X-5638800Y-393600D03*
X-6058000Y76200D03*
Y-123800D03*
X-5638800Y206400D03*
Y6400D03*
Y-193600D03*
Y406400D03*
X-5438800Y-393600D03*
Y206400D03*
Y6400D03*
Y-193600D03*
Y406400D03*
X-4368800Y939800D03*
X-4216400D03*
X-4089400D03*
X-3454400Y-812800D03*
X-3505200Y-685800D03*
X-2921000Y381000D03*
X-3048000Y635000D03*
X-1625600Y1320800D03*
X-1879600Y1574800D03*
Y1828800D03*
X-1625600Y1574800D03*
Y1828800D03*
X-1117600Y1320800D03*
X-863600D03*
X-1371600D03*
X-1117600Y1574800D03*
X-1371600D03*
X-1117600Y1828800D03*
X-1371600D03*
X-863600Y1574800D03*
Y1828800D03*
X1295400Y-4368800D03*
Y-4114800D03*
Y-3860800D03*
Y-3606800D03*
X1270000Y330200D03*
Y584200D03*
Y838200D03*
X1803400Y-4622800D03*
X1549400D03*
X1803400Y-4368800D03*
X1549400D03*
X1803400Y-4114800D03*
X1549400D03*
X1803400Y-3860800D03*
X1549400D03*
X1803400Y-3606800D03*
X1549400D03*
X2032000Y330200D03*
X1778000D03*
X1524000D03*
X2032000Y584200D03*
X1778000D03*
X1524000D03*
X2032000Y838200D03*
X1778000D03*
X1524000D03*
X2057400Y-4622800D03*
Y-4368800D03*
X2565400Y-4622800D03*
X2311400D03*
X2565400Y-4368800D03*
X2311400D03*
X2057400Y-4114800D03*
X2565400D03*
X2311400D03*
X2057400Y-3860800D03*
X2565400D03*
X2311400D03*
X2057400Y-3606800D03*
X2565400D03*
X2311400D03*
X2286000Y330200D03*
Y584200D03*
Y838200D03*
X2819400Y-4622800D03*
Y-4368800D03*
X3073400Y-4622800D03*
Y-4368800D03*
X2819400Y-4114800D03*
X3073400D03*
X2819400Y-3860800D03*
X3073400D03*
X2819400Y-3606800D03*
X3073400D03*
X3149600Y-2590800D03*
X2895600Y-2336800D03*
Y-2082800D03*
X2641600D03*
X3149600Y-2336800D03*
Y-2082800D03*
X2895600Y-1828800D03*
X2641600D03*
X3149600D03*
X2895600Y-1574800D03*
X2641600D03*
X3149600D03*
X2895600Y-1320800D03*
X2641600D03*
X2895600Y-1066800D03*
X2641600D03*
X3149600Y-1320800D03*
Y-1066800D03*
X2895600Y-609600D03*
X2641600D03*
X2895600Y-355600D03*
X2641600D03*
X2895600Y-812800D03*
X2641600D03*
X3149600Y-609600D03*
Y-355600D03*
Y-812800D03*
X2895600Y-101600D03*
X2641600D03*
X3149600D03*
X3581400Y-4622800D03*
X3327400D03*
X3581400Y-4368800D03*
X3327400D03*
X3581400Y-4114800D03*
X3327400D03*
X3581400Y-3860800D03*
X3327400D03*
X3581400Y-3606800D03*
X3327400D03*
X3657600Y-2590800D03*
X3403600D03*
X3657600Y-2336800D03*
X3403600D03*
X3657600Y-2082800D03*
X3403600D03*
X3657600Y-1828800D03*
X3403600D03*
X3657600Y-1574800D03*
X3403600D03*
X3657600Y-1320800D03*
X3403600D03*
X3657600Y-1066800D03*
X3403600D03*
X3657600Y-609600D03*
X3403600D03*
X3657600Y-355600D03*
X3403600D03*
X3657600Y-812800D03*
X3403600D03*
X3657600Y-101600D03*
X3403600D03*
X3835400Y-4622800D03*
X4089400Y-4368800D03*
X3835400D03*
X4089400Y-4114800D03*
X3835400D03*
X4089400Y-3860800D03*
X3835400D03*
X4089400Y-3606800D03*
X3835400D03*
X3911600Y-2590800D03*
Y-2336800D03*
Y-2082800D03*
Y-1828800D03*
Y-1574800D03*
Y-1320800D03*
Y-1066800D03*
Y-812800D03*
G54D11*
X-11150600Y-4394200D03*
X-10896600D03*
Y-4648200D03*
X-11150600Y-3886200D03*
X-10896600D03*
X-11150600Y-4140200D03*
X-10896600D03*
X-11150600Y-3378200D03*
X-10896600D03*
X-11150600Y-3632200D03*
X-10896600D03*
X-11150600Y-2616200D03*
X-10896600D03*
X-11150600Y-2870200D03*
X-10896600D03*
X-11150600Y-3124200D03*
X-10896600D03*
X-11150600Y-2362200D03*
X-10896600D03*
X-10642600Y-4394200D03*
X-10388600D03*
X-10134600D03*
X-10642600Y-4648200D03*
X-10388600D03*
X-10134600D03*
X-10642600Y-3886200D03*
X-10388600D03*
X-10134600D03*
X-10642600Y-4140200D03*
X-10388600D03*
X-10134600D03*
X-10642600Y-3378200D03*
X-10388600D03*
X-10134600D03*
X-10642600Y-3632200D03*
X-10388600D03*
X-10134600D03*
X-10642600Y-2616200D03*
X-10388600D03*
X-10134600D03*
X-10642600Y-2870200D03*
X-10388600D03*
X-10134600D03*
X-10642600Y-3124200D03*
X-10388600D03*
X-10134600D03*
X-10642600Y-2362200D03*
X-10388600D03*
X-10134600D03*
X-10490200Y-958800D03*
X-10290200D03*
X-10490200Y-374600D03*
X-10290200D03*
X-10490200Y-558800D03*
X-10290200D03*
X-10490200Y-758800D03*
X-10290200D03*
X-10490200Y184200D03*
X-10290200D03*
X-10490200Y25400D03*
X-10290200Y-174600D03*
X-10490200Y768400D03*
X-10290200D03*
X-10490200Y584200D03*
X-10290200D03*
X-10490200Y384200D03*
X-10290200D03*
X-10490200Y1168400D03*
X-10290200D03*
X-10490200Y968400D03*
X-10290200D03*
X-9880600Y-4394200D03*
X-9626600D03*
X-9880600Y-4648200D03*
X-9626600D03*
X-9880600Y-3886200D03*
X-9626600D03*
X-9880600Y-4140200D03*
X-9626600D03*
X-9880600Y-3378200D03*
X-9626600D03*
X-9880600Y-3632200D03*
X-9626600D03*
X-9880600Y-2616200D03*
X-9626600D03*
X-9880600Y-2870200D03*
X-9626600D03*
X-9880600Y-3124200D03*
X-9626600D03*
X-9880600Y-2362200D03*
X-9626600D03*
X-9890200Y-958800D03*
X-9690200D03*
X-10090200D03*
X-9890200Y-374600D03*
Y-558800D03*
X-9690200D03*
X-9890200Y-758800D03*
X-9690200D03*
X-10090200Y-374600D03*
Y-558800D03*
Y-758800D03*
X-9890200Y-174600D03*
X-9690200D03*
X-10090200D03*
X-9890200Y768400D03*
X-9690200D03*
X-10090200D03*
X-9890200Y584200D03*
X-9690200D03*
X-9890200Y384200D03*
X-9690200D03*
X-10090200Y584200D03*
Y384200D03*
X-9858400Y1428800D03*
X-9658400D03*
X-10058400D03*
X-9890200Y1168400D03*
Y968400D03*
X-9690200D03*
X-10090200Y1168400D03*
Y968400D03*
X-9858400Y1828800D03*
X-9658400D03*
X-9858400Y1628800D03*
X-9658400D03*
X-10058400Y1828800D03*
Y1628800D03*
X-9118600Y-4394200D03*
Y-4648200D03*
X-9372600Y-4394200D03*
Y-4648200D03*
X-9118600Y-3886200D03*
X-9372600D03*
X-9118600Y-4140200D03*
X-9372600D03*
X-9118600Y-3378200D03*
Y-3632200D03*
X-9372600Y-3378200D03*
Y-3632200D03*
X-9118600Y-2616200D03*
Y-2870200D03*
Y-3124200D03*
X-9372600Y-2616200D03*
Y-2870200D03*
Y-3124200D03*
X-9118600Y-2362200D03*
X-9372600D03*
X-9090200Y-958800D03*
X-9490200D03*
X-9290200D03*
X-9090200Y-374600D03*
Y-758800D03*
X-9290200Y-374600D03*
X-9490200Y-558800D03*
Y-758800D03*
X-9290200D03*
X-9090200Y-174600D03*
X-9490200D03*
X-9290200D03*
X-9090200Y768400D03*
X-9490200D03*
X-9290200D03*
X-9090200Y584200D03*
Y384200D03*
X-9490200Y584200D03*
X-9290200D03*
X-9490200Y384200D03*
X-9290200D03*
X-9090200Y1168400D03*
Y968400D03*
X-9290200Y1168400D03*
Y968400D03*
X-8864600Y-4394200D03*
Y-3886200D03*
X-8610600D03*
X-8864600Y-4140200D03*
X-8610600D03*
X-8864600Y-3378200D03*
X-8610600D03*
X-8864600Y-3632200D03*
X-8610600D03*
X-8864600Y-2616200D03*
X-8610600D03*
X-8864600Y-2870200D03*
X-8610600D03*
X-8864600Y-3124200D03*
X-8610600D03*
X-8864600Y-2362200D03*
X-8610600D03*
X-8356600Y-3886200D03*
Y-3378200D03*
Y-3632200D03*
Y-2616200D03*
Y-2870200D03*
Y-3124200D03*
Y-2362200D03*
X-6658000Y-323800D03*
X-6858000D03*
X-6658000Y-123800D03*
X-6858000D03*
X-6658000Y76200D03*
X-6858000D03*
X-6058000Y-323800D03*
X-6258000D03*
X-6458000D03*
X-6058000Y-123800D03*
X-6258000D03*
X-6458000D03*
X-6058000Y76200D03*
X-6258000D03*
X-6458000D03*
X-6477000Y579800D03*
X-6297000D03*
Y759800D03*
X-6477000D03*
Y939800D03*
X-6297000D03*
X-5638800Y-393600D03*
Y-193600D03*
Y6400D03*
Y206400D03*
Y406400D03*
X-5438800Y-393600D03*
Y-193600D03*
Y6400D03*
Y206400D03*
Y406400D03*
X-4368800Y939800D03*
X-4089400D03*
X-4216400D03*
X-3505200Y-685800D03*
X-3454400Y-812800D03*
X-3048000Y635000D03*
X-2921000Y381000D03*
X-1625600Y1320800D03*
Y1828800D03*
Y1574800D03*
X-1879600Y1828800D03*
Y1574800D03*
X-1117600Y1320800D03*
X-863600Y1828800D03*
Y1574800D03*
X-1371600Y1828800D03*
X-1117600D03*
X-1371600Y1574800D03*
X-1117600D03*
X1295400Y-3860800D03*
Y-4114800D03*
Y-3606800D03*
X1270000Y838200D03*
Y584200D03*
Y330200D03*
X1549400Y-4368800D03*
X1803400D03*
X2057400D03*
X1549400Y-4622800D03*
X1803400D03*
X2057400D03*
X1549400Y-3860800D03*
X1803400D03*
X2057400D03*
X1549400Y-4114800D03*
X1803400D03*
X2057400D03*
X1549400Y-3606800D03*
X1803400D03*
X2057400D03*
X1524000Y838200D03*
X1778000D03*
X2032000D03*
X1524000Y584200D03*
X1778000D03*
X2032000D03*
X1524000Y330200D03*
X1778000D03*
X2032000D03*
X2311400Y-4368800D03*
X2565400D03*
X2311400Y-4622800D03*
X2565400D03*
X2311400Y-3860800D03*
X2565400D03*
X2311400Y-4114800D03*
X2565400D03*
X2311400Y-3606800D03*
X2565400D03*
X2641600Y-2082800D03*
Y-1574800D03*
Y-1828800D03*
Y-1066800D03*
Y-1320800D03*
Y-812800D03*
Y-355600D03*
Y-609600D03*
Y-101600D03*
X2286000Y838200D03*
Y584200D03*
Y330200D03*
X3073400Y-4368800D03*
Y-4622800D03*
X2819400Y-4368800D03*
Y-4622800D03*
X3073400Y-3860800D03*
X2819400D03*
X3073400Y-4114800D03*
X2819400D03*
X3073400Y-3606800D03*
X2819400D03*
X3149600Y-2590800D03*
Y-2082800D03*
Y-2336800D03*
X2895600Y-2082800D03*
Y-2336800D03*
X3149600Y-1574800D03*
X2895600D03*
X3149600Y-1828800D03*
X2895600D03*
X3149600Y-1066800D03*
Y-1320800D03*
X2895600Y-1066800D03*
Y-1320800D03*
X3149600Y-812800D03*
Y-355600D03*
Y-609600D03*
X2895600Y-812800D03*
Y-355600D03*
Y-609600D03*
X3149600Y-101600D03*
X2895600D03*
X3327400Y-4368800D03*
X3581400D03*
X3327400Y-4622800D03*
X3581400D03*
X3327400Y-3860800D03*
X3581400D03*
X3327400Y-4114800D03*
X3581400D03*
X3327400Y-3606800D03*
X3581400D03*
X3403600Y-2590800D03*
X3657600D03*
X3403600Y-2082800D03*
X3657600D03*
X3403600Y-2336800D03*
X3657600D03*
X3403600Y-1574800D03*
X3657600D03*
X3403600Y-1828800D03*
X3657600D03*
X3403600Y-1066800D03*
X3657600D03*
X3403600Y-1320800D03*
X3657600D03*
X3403600Y-812800D03*
X3657600D03*
X3403600Y-355600D03*
X3657600D03*
X3403600Y-609600D03*
X3657600D03*
X3403600Y-101600D03*
X3657600D03*
X3835400Y-4368800D03*
X4089400D03*
X3835400Y-4622800D03*
Y-3860800D03*
X4089400D03*
X3835400Y-4114800D03*
X4089400D03*
X3835400Y-3606800D03*
X4089400D03*
X3911600Y-2590800D03*
Y-2082800D03*
Y-2336800D03*
Y-1574800D03*
Y-1828800D03*
Y-1066800D03*
Y-1320800D03*
Y-812800D03*
G54D20*
X-8553450Y2286000D03*
X-8718550D03*
X-4489450Y1270000D03*
X-4654550D03*
X-4489450Y1778000D03*
X-4654550D03*
X-4489450Y1524000D03*
X-4654550D03*
G54D30*
X-4419600Y-334010D03*
Y-173990D03*
X-4292600Y1316990D03*
Y1477010D03*
G54D12*
X-10820400Y-2061210D03*
Y-1901190D03*
X-5638800Y783590D03*
Y943610D03*
X-3048000Y300990D03*
Y461010D03*
G54D21*
X-7759700Y1607820D03*
X-7754620Y2174240D03*
X-6982460Y-627380D03*
X-5859780Y-815340D03*
X-5981700Y-749300D03*
X-5328920Y627380D03*
Y886460D03*
X-3792220Y99060D03*
X-3822700Y-58420D03*
X-3820160Y27940D03*
X-3901440Y988060D03*
X-4030980Y1137920D03*
X-3782060Y1000760D03*
X-3726180Y152400D03*
X-3604260D03*
X-3416300Y995680D03*
X-3510280Y998220D03*
X-3609340Y1000760D03*
X-3693160D03*
X-3040380Y850900D03*
X-2730710Y728980D03*
X-2788920Y848360D03*
X-2618530Y728980D03*
X-2184400Y-548640D03*
X-2319020Y-523240D03*
X-2308860Y-746760D03*
X-2189480Y-703580D03*
X-2258060Y1409700D03*
X-2257490Y1234650D03*
X-2255520Y1313180D03*
X-2257490Y1122470D03*
G54D40*
G01X-8204200Y127000D02*
X-10185400D01*
X-10820400Y-508000D01*
Y-1492250D01*
G01X-8204200Y127000D02*
X-8610600Y533400D01*
Y838200D01*
X-8890000Y1117600D01*
Y1778000D01*
G01D02*
Y2032000D01*
G01X-4394200Y-1854200D02*
X-5765800D01*
X-6096000Y-1524000D01*
G01X-2362200Y-1854200D02*
X-4394200D01*
G01X-4064000Y-1524000D02*
X-4394200Y-1854200D01*
G01X-1701800Y965200D02*
X-2336800D01*
X-2514600Y1143000D01*
Y1346200D01*
X-2921000Y1752600D01*
X-3835400D01*
X-4064000Y1524000D01*
G01X-1905000Y762000D02*
X-2362200Y304800D01*
Y-25400D01*
X-2819400Y-482600D01*
Y-685800D01*
X-2946400Y-812800D01*
X-3251200D01*
X-3374390Y-689610D01*
Y-533400D01*
G01X1651000Y-3302000D02*
X584200Y-2235200D01*
X254000D01*
X-127000Y-1854200D01*
X-2362200D01*
G01X-2032000Y-1524000D02*
X-2362200Y-1854200D01*
G01X-1905000Y762000D02*
X-1727200Y584200D01*
Y558800D01*
X-1531850Y363450D01*
X-1478510D01*
X-1402080Y287020D01*
G01X-1701800Y965200D02*
X-1905000Y762000D01*
G01X-1701800Y965200D02*
X-609600D01*
X-177800Y1397000D01*
X177800D01*
X330200Y1549400D01*
X1313180D01*
X1808480Y2044700D01*
G01X2727960Y127000D02*
X2597140D01*
X2190740Y-279400D01*
X1798570D01*
X1524000Y-553970D01*
G01X1808480Y2044700D02*
X2151380Y1701800D01*
X2667000D01*
X3073400Y1295400D01*
Y472440D01*
X2727960Y127000D01*
G54D31*
X-4699000Y18290D03*
Y388110D03*
G54D13*
X-10820400Y-1657350D03*
Y-1492250D03*
G54D22*
X-7759700Y1607820D03*
X-7754620Y2174240D03*
X-6982460Y-627380D03*
X-5981700Y-749300D03*
X-5859780Y-815340D03*
X-5328920Y886460D03*
Y627380D03*
X-3820160Y27940D03*
X-3822700Y-58420D03*
X-3792220Y99060D03*
X-3782060Y1000760D03*
X-4030980Y1137920D03*
X-3901440Y988060D03*
X-3604260Y152400D03*
X-3726180D03*
X-3693160Y1000760D03*
X-3609340D03*
X-3510280Y998220D03*
X-3416300Y995680D03*
X-2618530Y728980D03*
X-2788920Y848360D03*
X-2730710Y728980D03*
X-3040380Y850900D03*
X-2189480Y-703580D03*
X-2308860Y-746760D03*
X-2319020Y-523240D03*
X-2184400Y-548640D03*
X-2257490Y1122470D03*
X-2255520Y1313180D03*
X-2257490Y1234650D03*
X-2258060Y1409700D03*
G54D23*
X-7192010Y254000D03*
X-7031990D03*
X-4042410Y787400D03*
X-3882390D03*
G54D14*
X-10485120Y-2003040D03*
Y-1552960D03*
X-9834880Y-2003040D03*
Y-1552960D03*
X-9088120Y-2003040D03*
Y-1552960D03*
X-8437880Y-2003040D03*
Y-1552960D03*
X-8072120Y-2003040D03*
Y-1552960D03*
X-7421880Y-2003040D03*
Y-1552960D03*
X-7239000Y1524000D03*
X-7493000D03*
X-3810000D03*
X-4064000D03*
X-3810000Y1270000D03*
X-4064000D03*
X-3302000Y1524000D03*
X-3556000D03*
X-3302000Y1270000D03*
X-3556000D03*
X-2164080Y287020D03*
X-2159000Y762000D03*
X-1910080Y287020D03*
X-1656080D03*
X-1402080D03*
X-1397000Y762000D03*
X-1651000D03*
X-1905000D03*
X-889000D03*
X-1143000D03*
X436880Y-2003040D03*
Y-1552960D03*
X547880Y55880D03*
Y706120D03*
X1452880Y-2003040D03*
X1087120D03*
X1452880Y-1552960D03*
X1087120D03*
X947930Y55880D03*
Y706120D03*
X2103120Y-2003040D03*
Y-1552960D03*
X1808480Y2044700D03*
X2062480D03*
X2316480D03*
X2570480D03*
X3247900Y-3302000D03*
X3048000D03*
X2848100D03*
G54D32*
X-4141220Y-280420D03*
X-3300980Y559820D03*
G54D15*
X-9539990Y-369060D03*
Y1131060D03*
X-8240010Y-369060D03*
Y1131060D03*
X1128010Y-369060D03*
Y1131060D03*
X2427990Y-369060D03*
Y1131060D03*
G54D24*
X-6620000Y571500D03*
Y698500D03*
Y825500D03*
Y952500D03*
X-6080000Y825500D03*
Y698500D03*
Y571500D03*
Y952500D03*
G54D33*
X-3796030Y-280420D03*
X-3846070D03*
X-3896110D03*
X-3946140D03*
X-3996180D03*
Y559820D03*
X-3946140D03*
X-3896110D03*
X-3846070D03*
X-3796030D03*
X-3446020Y-280420D03*
X-3496060D03*
X-3546090D03*
X-3596130D03*
X-3646170D03*
X-3696210D03*
X-3745990D03*
Y559820D03*
X-3696210D03*
X-3646170D03*
X-3596130D03*
X-3546090D03*
X-3496060D03*
X-3446020D03*
G54D16*
X-9144000Y-553970D03*
X-8636000D03*
X-8890000D03*
X-7940040Y127000D03*
Y635000D03*
Y381000D03*
X-6096000Y-1524000D03*
X-5588000D03*
X-5080000D03*
X-4064000D03*
X-3556000D03*
X-3048000D03*
X-2032000D03*
X-1524000D03*
X-1016000D03*
X1524000Y-553970D03*
X2032000D03*
X1778000D03*
X2727960Y127000D03*
Y635000D03*
Y381000D03*
G54D25*
X-7112000Y616970D03*
Y907030D03*
G54D34*
X-4141220Y-135380D03*
Y-85340D03*
Y-35310D03*
Y14730D03*
Y64770D03*
Y114810D03*
Y164590D03*
Y214630D03*
Y264670D03*
Y314710D03*
Y364740D03*
Y414780D03*
X-3300980Y264670D03*
Y214630D03*
Y164590D03*
Y114810D03*
Y64770D03*
Y14730D03*
Y-35310D03*
Y-85340D03*
Y-135380D03*
Y414780D03*
Y364740D03*
Y314710D03*
G54D26*
X-6565900Y1524000D03*
X-6096000D03*
X-5626100D03*
G54D35*
X1651000Y-3302000D03*
X2413000D03*
G54D17*
X-8382000Y2032000D03*
Y1778000D03*
X-8636000Y2032000D03*
Y1778000D03*
X-8890000Y2032000D03*
X1270000D03*
X1016000D03*
G54D36*
G01X-10887730Y-2061210D02*
X-10820400D01*
G01D02*
X-10753070D01*
G01X-10820400Y-2115840D02*
Y-2061210D01*
G01D02*
Y-2006580D01*
G01X-10485120Y-2092090D02*
Y-2003040D01*
G01D02*
Y-1913990D01*
G01X-10574170Y-2003040D02*
X-10485120D01*
G01D02*
X-10396070D01*
G01X-4141220Y114810D02*
X-4287080D01*
X-4546600Y-144710D01*
Y-266700D01*
X-4815840Y-535940D01*
X-7241540D01*
X-7772400Y-1066800D01*
X-9998960D01*
X-10485120Y-1552960D01*
G01X-9088120Y-2092090D02*
Y-2003040D01*
G01X-5981700Y-749300D02*
X-6108700Y-876300D01*
X-7524420D01*
X-7755560Y-1107440D01*
X-8642600D01*
X-9088120Y-1552960D01*
G01Y-2003040D02*
Y-1913990D01*
G01X-9177170Y-2003040D02*
X-9088120D01*
G01D02*
X-8999070D01*
G01X-8481080Y1778000D02*
X-8382000D01*
G01X-7759700Y1607820D02*
X-8107680D01*
X-8191500Y1524000D01*
X-8553450D01*
G01X-8481080Y2032000D02*
X-8382000D01*
G01X-7754620Y2174240D02*
X-8120380D01*
X-8232140Y2286000D01*
X-8553450D01*
G01X-8072120Y-2092090D02*
Y-2003040D01*
G01Y-1552960D02*
X-7436100Y-916940D01*
X-5961380D01*
X-5859780Y-815340D01*
G01X-8072120Y-2003040D02*
Y-1913990D01*
G01X-8161170Y-2003040D02*
X-8072120D01*
G01D02*
X-7983070D01*
G01X-7940040Y523220D02*
Y635000D01*
G01D02*
Y746780D01*
G01X-8051820Y635000D02*
X-7940040D01*
G01D02*
X-7828260D01*
G01X-8382000Y1678920D02*
Y1778000D01*
G01D02*
Y1877080D01*
G01Y1778000D02*
X-8282920D01*
G01X-8382000Y1932920D02*
Y2032000D01*
G01D02*
X-8282920D01*
G01X-7328050Y1524000D02*
X-7239000D01*
G01X-6982460Y-627380D02*
X-4561840D01*
X-4277360Y-342900D01*
Y-73530D01*
X-4239140Y-35310D01*
X-4141220D01*
G01X-7239000Y1434950D02*
Y1524000D01*
G01D02*
Y1613050D01*
G01Y1524000D02*
X-7149950D01*
G01X-3996180Y-280420D02*
Y-518930D01*
X-4147810Y-670560D01*
X-5313680D01*
X-5588000Y-944880D01*
Y-1524000D01*
G01X-5080000Y-1635780D02*
Y-1524000D01*
G01D02*
Y-1412220D01*
G01X-5191780Y-1524000D02*
X-5080000D01*
G01D02*
X-4968220D01*
G01X-5287010Y-118130D02*
Y-50800D01*
G01D02*
X-5232380D01*
G01X-5287010Y457200D02*
Y524530D01*
G01Y457200D02*
X-5232380D01*
G01X-5328920Y627380D02*
Y886460D01*
G01X-5177540Y1524000D02*
Y1493520D01*
X-5308600Y1362460D01*
Y1038860D01*
X-5184140Y914400D01*
X-4841240D01*
X-4516120Y589280D01*
Y477520D01*
X-4303270Y264670D01*
X-4141220D01*
G01X-5177540Y1270000D02*
Y1103380D01*
X-5092700Y1018540D01*
X-4599940D01*
X-4480560Y1137920D01*
X-4030980D01*
G01X-5234710Y1778000D02*
X-5177540D01*
G01D02*
X-5120370D01*
G01X-5177540Y1690350D02*
Y1778000D01*
G01D02*
Y1865650D01*
G01X-4141220Y14730D02*
X-4260100D01*
X-4318000Y-43170D01*
Y-303990D01*
X-4348020Y-334010D01*
X-4419600D01*
G01X-4486930Y-173990D02*
X-4419600D01*
G01Y-228620D02*
Y-173990D01*
G01Y-75190D02*
Y-173990D01*
G01X-4279640Y64770D02*
X-4419600Y-75190D01*
G01X-4141220Y314710D02*
X-4277110D01*
X-4470400Y508000D01*
Y620710D01*
X-4554220Y704530D01*
Y982040D01*
X-4464380Y1071880D01*
X-3987800D01*
X-3937000Y1122680D01*
Y1397000D01*
X-3810000Y1524000D01*
G01X-4398010Y720070D02*
Y787400D01*
G01D02*
Y854730D01*
G01X-4452640Y787400D02*
X-4398010D01*
G01D02*
X-4343380D01*
G01X-4141220Y364740D02*
X-4248380D01*
X-4429760Y546120D01*
Y637550D01*
X-4508500Y716290D01*
Y970280D01*
X-4447540Y1031240D01*
X-3939530D01*
X-3810000Y1160770D01*
Y1270000D01*
G01X-889000Y762000D02*
Y561340D01*
X-1084580Y365760D01*
Y-55590D01*
X-1249970Y-220980D01*
X-2138740D01*
X-2527300Y-609540D01*
Y-922960D01*
X-2527290Y-922970D01*
Y-990310D01*
X-2678760Y-1141780D01*
X-3605200D01*
X-3846070Y-900910D01*
Y-280420D01*
G01X-1143000Y762000D02*
X-1249680Y655320D01*
Y487680D01*
X-1132840Y370840D01*
Y367360D01*
X-1125220Y359740D01*
Y-38750D01*
X-1266810Y-180340D01*
X-2155580D01*
X-2567940Y-592700D01*
Y-939800D01*
X-2567930Y-939810D01*
Y-973470D01*
X-2695600Y-1101140D01*
X-3588360D01*
X-3796030Y-893470D01*
Y-280420D01*
G01X-3946140D02*
Y-1133860D01*
X-3556000Y-1524000D01*
G01X-1524000D02*
X-1691640D01*
X-2034540Y-1181100D01*
X-2660600D01*
X-2661920Y-1182420D01*
X-3622040D01*
X-3896110Y-908350D01*
Y-280420D01*
G01X-3820160Y27940D02*
X-3898550D01*
X-4011830Y-85340D01*
X-4141220D01*
G01X-3822700Y-58420D02*
X-3914140D01*
X-3991100Y-135380D01*
X-4141220D01*
G01Y14730D02*
X-4043300D01*
X-3962400Y95630D01*
Y355600D01*
X-4021580Y414780D01*
X-4141220D01*
G01Y64770D02*
X-4279640D01*
G01X-3646170Y-280420D02*
Y-46990D01*
X-3792220Y99060D01*
G01X-4042410Y787400D02*
Y715010D01*
G01X-4141220Y414780D02*
Y619510D01*
X-4237990Y716280D01*
G01D02*
Y787400D01*
G01X-4042410Y715010D02*
X-3996180Y668780D01*
Y559820D01*
G01X-3300980Y414780D02*
X-3949060D01*
X-3996180Y461900D01*
Y559820D01*
G01X-3882390Y787400D02*
Y715010D01*
G01X-3946140Y651260D02*
Y559820D01*
G01X-3882390Y715010D02*
X-3946140Y651260D01*
G01X-3882390Y787400D02*
Y854730D01*
G01X-3937020Y787400D02*
X-3882390D01*
G01X-3782060Y1000760D02*
X-3743430Y962130D01*
Y696490D01*
X-3796030Y643890D01*
Y559820D01*
G01X-3901440Y988060D02*
X-3846820D01*
X-3807460Y948700D01*
Y696350D01*
X-3846070Y657740D01*
Y559820D01*
G01X-4292600Y1316990D02*
Y1371620D01*
G01Y1262360D02*
Y1316990D01*
G01X-1656080Y287020D02*
X-1760220Y182880D01*
Y39480D01*
X-1853040Y-53340D01*
X-2201020D01*
X-2689860Y-542180D01*
Y-816500D01*
X-2852580Y-979220D01*
X-3516580D01*
X-3638550Y-857250D01*
Y-456730D01*
X-3596130Y-414310D01*
Y-280420D01*
G01X-1910080Y287020D02*
X-1805940Y182880D01*
Y58420D01*
X-1871980Y-7620D01*
X-2219960D01*
X-2735580Y-523240D01*
Y-797560D01*
X-2871520Y-933500D01*
X-3497640D01*
X-3592830Y-838310D01*
Y-475670D01*
X-3550410Y-433250D01*
Y-376710D01*
X-3546090Y-372390D01*
Y-280420D01*
G01X-1651000Y762000D02*
Y609600D01*
X-1475740Y434340D01*
X-1333500D01*
X-1216660Y317500D01*
Y-15230D01*
X-1300490Y-99060D01*
X-2189260D01*
X-2649220Y-559020D01*
Y-939800D01*
X-2729280Y-1019860D01*
X-3554670D01*
X-3696210Y-878320D01*
Y-280420D01*
G01X-3745990D02*
Y-886020D01*
X-3571510Y-1060500D01*
X-2712440D01*
X-2608580Y-956640D01*
Y-575860D01*
X-2172420Y-139700D01*
X-1283650D01*
X-1165860Y-21910D01*
Y342900D01*
X-1290320Y467360D01*
Y655320D01*
X-1397000Y762000D01*
G01X-3446020Y-280420D02*
Y-390650D01*
X-3374390Y-462280D01*
Y-533400D01*
G01X-3496060Y-280420D02*
Y-476130D01*
G01D02*
X-3534410Y-514480D01*
Y-533400D01*
G01Y-600730D02*
Y-533400D01*
G01D02*
X-3479780D01*
G01X-2618530Y728980D02*
X-2651760Y695750D01*
Y304800D01*
X-2839720Y116840D01*
X-3206990D01*
X-3209020Y114810D01*
X-3300980D01*
G01X-2730710Y728980D02*
X-2697480Y695750D01*
Y323740D01*
X-2858660Y162560D01*
X-3206990D01*
X-3209020Y164590D01*
X-3300980D01*
G01X-3604260Y152400D02*
X-3542030Y214630D01*
X-3300980D01*
G01Y-85340D02*
X-2784420D01*
X-2558390Y140690D01*
X-2558380D01*
X-2534590Y164480D01*
X-2534580D01*
X-2482640Y216420D01*
Y935780D01*
X-2946400Y1399540D01*
X-3426460D01*
X-3556000Y1270000D01*
G01X-3300980Y-35310D02*
X-2791870D01*
X-2575230Y181330D01*
X-2575220D01*
X-2523280Y233270D01*
Y857040D01*
X-2811780Y1145540D01*
X-3177540D01*
X-3302000Y1270000D01*
G01X-3300980Y14730D02*
X-2799310D01*
X-2563920Y250120D01*
Y834180D01*
X-2796540Y1066800D01*
X-3611880D01*
X-3693160Y1148080D01*
Y1386840D01*
X-3556000Y1524000D01*
G01X-3300980Y-135380D02*
X-2776960D01*
X-2465800Y175780D01*
X-2465790D01*
X-2442000Y199570D01*
Y952620D01*
X-2929570Y1440190D01*
X-2963230D01*
X-2963240Y1440180D01*
X-3218180D01*
X-3302000Y1524000D01*
G01X-3726180Y152400D02*
X-3613910Y264670D01*
X-3300980D01*
G01Y414780D02*
X-3165350D01*
X-3119120Y461010D01*
X-3048000D01*
G01X-2788920Y848360D02*
Y355600D01*
X-2911210Y233310D01*
X-3121660D01*
X-3203060Y314710D01*
X-3300980D01*
G01X-3693160Y1000760D02*
Y915420D01*
X-3696210Y912370D01*
Y559820D01*
G01X-3609340Y1000760D02*
Y944880D01*
X-3646170Y908050D01*
Y559820D01*
G01X-3596130D02*
Y856490D01*
X-3510280Y942340D01*
Y998220D01*
G01X-3416300Y995680D02*
Y941060D01*
X-3546090Y811270D01*
Y559820D01*
G01X-3300980Y364740D02*
X-3184140D01*
G01D02*
X-3124200Y304800D01*
X-3122930D01*
X-3119120Y300990D01*
G01X-3040380Y850900D02*
X-3327400D01*
X-3446020Y732280D01*
Y559820D01*
G01X-3048000Y-1635780D02*
Y-1524000D01*
G01D02*
Y-1412220D01*
G01X-3159780Y-1524000D02*
X-3048000D01*
G01D02*
X-2936220D01*
G01X-3119120Y300990D02*
X-3048000D01*
G01D02*
X-2980670D01*
G01X-3048000D02*
Y355620D01*
G01X-2308860Y-746760D02*
X-1864360Y-1191260D01*
X-322580D01*
X10160Y-858520D01*
X1473450D01*
X1778000Y-553970D01*
G01X-2319020Y-523240D02*
X-2383520D01*
X-2486660Y-626380D01*
Y-901700D01*
X-2260600Y-1127760D01*
X-2001520D01*
X-1854200Y-1275080D01*
X-342900D01*
X-132080Y-1485900D01*
Y-1722130D01*
X304790Y-2159000D01*
X660390D01*
X888990Y-2387600D01*
X2641600D01*
X2965450Y-2711450D01*
Y-3048000D01*
G01X-2189480Y-703580D02*
X-1747520Y-1145540D01*
X-346420D01*
X-18760Y-817880D01*
X274320D01*
X929640Y-162560D01*
X2184400D01*
X2727960Y381000D01*
G01X547880Y55880D02*
X-99060D01*
X-246380Y-91440D01*
X-1049020D01*
X-1224280Y-266700D01*
X-1902460D01*
X-2184400Y-548640D01*
G01X-2164080Y287020D02*
X-2075030D01*
G01X-2253130D02*
X-2164080D01*
G01D02*
Y376070D01*
G01Y197970D02*
Y287020D01*
G01X-2159000Y762000D02*
X-2069950D01*
G01X-2248050D02*
X-2159000D01*
G01D02*
Y851050D01*
G01Y672950D02*
Y762000D01*
G01X1270000Y2032000D02*
X1165860Y1927860D01*
Y1774300D01*
X1045100Y1653540D01*
X274320D01*
X119380Y1498600D01*
X-229980D01*
X-661780Y1066800D01*
X-1973580D01*
X-2062480Y1155700D01*
X-2224260D01*
X-2257490Y1122470D01*
G01X2062480Y2044700D02*
X1860100Y2247080D01*
Y2247090D01*
X1859290Y2247900D01*
X640080D01*
X2540Y1610360D01*
X-269240D01*
X-726440Y1153160D01*
X-1889760D01*
X-2049780Y1313180D01*
X-2255520D01*
G01X1016000Y2032000D02*
X1120140Y1927860D01*
Y1793240D01*
X1026160Y1699260D01*
X255380D01*
X100440Y1544320D01*
X-248920D01*
X-680720Y1112520D01*
X-1954640D01*
X-2043540Y1201420D01*
X-2224260D01*
X-2257490Y1234650D01*
G01X2316480Y2044700D02*
X2049780Y2311400D01*
X609600D01*
X-25400Y1676400D01*
X-279400D01*
X-762000Y1193800D01*
X-1854200D01*
X-2070100Y1409700D01*
X-2258060D01*
G01X-1016000Y-1635780D02*
Y-1524000D01*
G01D02*
Y-1412220D01*
G01X-1127780Y-1524000D02*
X-1016000D01*
G01D02*
X-904220D01*
G01X436880Y-2092090D02*
Y-2003040D01*
G01D02*
Y-1913990D01*
G01X347830Y-2003040D02*
X436880D01*
G01D02*
X525930D01*
G01X858880Y55880D02*
X947930D01*
G01X858880Y706120D02*
X947930D01*
G01X762000Y1932920D02*
Y2032000D01*
G01X662920D02*
X762000D01*
G01D02*
X861080D01*
G01X1363830Y-2003040D02*
X1452880D01*
G01X947930Y-33170D02*
Y55880D01*
G01D02*
Y144930D01*
G01Y55880D02*
X1036980D01*
G01X947930Y617070D02*
Y706120D01*
G01D02*
Y795170D01*
G01Y706120D02*
X1036980D01*
G01X1452880Y-2092090D02*
Y-2003040D01*
G01D02*
Y-1913990D01*
G01Y-2003040D02*
X1541930D01*
G01X1920220Y-553970D02*
X2032000D01*
G01Y-665750D02*
Y-553970D01*
G01D02*
Y-442190D01*
G01Y-553970D02*
X2143780D01*
G01X2570480Y1955650D02*
Y2044700D01*
G01X2481430D02*
X2570480D01*
G01D02*
X2659530D01*
G01X3158850Y-3302000D02*
X3247900D01*
G01X2727960Y523220D02*
Y635000D01*
G01D02*
Y746780D01*
G01X2616180Y635000D02*
X2727960D01*
G01D02*
X2839740D01*
G01X3247900Y-3391050D02*
Y-3302000D01*
G01D02*
Y-3212950D01*
G01Y-3302000D02*
X3336950D01*
G01X3586460Y-3048000D02*
X3638550D01*
G01D02*
X3690640D01*
G01X3638550Y-3115330D02*
Y-3048000D01*
G01D02*
Y-2980670D01*
G54D18*
X-8890000Y1778000D03*
X762000Y2032000D03*
G54D27*
X-5126990Y-50800D03*
X-5287010D03*
X-5126990Y457200D03*
X-5287010D03*
X-4398010Y787400D03*
X-4237990D03*
X-3374390Y-533400D03*
X-3534410D03*
G54D37*
G01X-10999750Y872850D02*
G03X-10987050I6350J3D01*
G03X-10999750I-6350J3D01*
G01Y872860D02*
G03X-10987050I6350J-3D01*
G03X-10999750I-6350J-3D01*
G01X1062430Y-4463650D02*
G03X1075130I6350J3D01*
G03X1062430I-6350J3D01*
G01D02*
G03X1075130I6350J4D01*
G03X1062430I-6350J4D01*
G01X4789620Y-2966930D02*
G03X4802320I6350J0D01*
G03X4789620I-6350J0D01*
G01D02*
G03X4802320I6350J0D01*
G03X4789620I-6350J0D01*
G54D28*
X-4953000Y285750D03*
Y120650D03*
G54D19*
X-8718550Y1524000D03*
X-8553450D03*
X2965450Y-3048000D03*
X3130550D03*
X3473450D03*
X3638550D03*
G54D38*
G01X-4141220Y214630D02*
X-4329430D01*
X-4502910Y388110D01*
X-4699000D01*
G01X-4141220Y164590D02*
X-4331210D01*
X-4477510Y18290D01*
X-4699000D01*
G01X-11922070Y-2962210D02*
X-10993400Y872850D01*
G02X-7275920Y2427340I2429788J-588385D01*
G03X-6760850Y2284480I515077J857117D01*
G01X-366390D01*
G03X148680Y2427340I8626J968852D01*
G02X3866160Y872860I1287696J-2142870D01*
G01X4795970Y-2966930D01*
G02X1068780Y-4463650I-1972322J-477604D01*
G01X-5520Y-2613760D01*
G03X-697320Y-2215520I-691803J-401763D01*
G01X-1388620D01*
G03X-1688620Y-2515520I0J-300000D01*
G02X-1888620Y-2715520I-200000J0D01*
G01X-3052800D01*
X-4237000D01*
X-5138620D01*
G02X-5438620Y-2415520I0J300000D01*
G03X-5638620Y-2215520I-200000J0D01*
G01X-6429920D01*
G03X-7121730Y-2613760I-9J-800000D01*
G01X-8193580Y-4459440D01*
G02X-11922070Y-2962210I-1755481J1019466D01*
G01X-5138620Y-2715520D02*
G02X-5438620Y-2415520I0J300000D01*
G03X-5638620Y-2215520I-200000J0D01*
G01X-6429940D01*
G03X-7121730Y-2613770I11J-799989D01*
G01X-8193580Y-4459440D01*
G02X-11922070Y-2962200I-1755483J1019463D01*
G01X-10993400Y872850D01*
G02X-7275920Y2427340I2429788J-588386D01*
G03X-6760850Y2284480I515079J857123D01*
G01X-366400D01*
X-365970D01*
G03X148680Y2427340I8214J968847D01*
G02X3866160Y872860I1287699J-2142864D01*
G01X4795970Y-2966940D01*
G02X1068780Y-4463650I-1972321J-477599D01*
G01X-5510Y-2613770D01*
G03X-697300Y-2215520I-691801J-401739D01*
G01X-1388620D01*
G03X-1688620Y-2515520I0J-300000D01*
G02X-1888620Y-2715520I-200000J0D01*
G01X-5138620D01*
G01D02*
G02X-5438620Y-2415520I0J300000D01*
G03X-5638620Y-2215520I-200000J0D01*
G01X-6429940D01*
G03X-7121730Y-2613770I11J-799989D01*
G01X-8193580Y-4459440D01*
G02X-11922070Y-2962200I-1755483J1019463D01*
G01X-10993400Y872850D01*
G02X-7275920Y2427340I2429788J-588386D01*
G03X-6760850Y2284480I515079J857123D01*
G01X-366400D01*
X-365970D01*
G03X148680Y2427340I8214J968847D01*
G02X3866160Y872860I1287699J-2142864D01*
G01X4795970Y-2966940D01*
G02X1068780Y-4463650I-1972321J-477599D01*
G01X-5510Y-2613770D01*
G03X-697300Y-2215520I-691801J-401739D01*
G01X-1388620D01*
G03X-1688620Y-2515520I0J-300000D01*
G02X-1888620Y-2715520I-200000J0D01*
G01X-5138620D01*
G01X-11928420Y-2962210D02*
G03X-11915720I6350J2D01*
G03X-11928420I-6350J2D01*
G01D02*
G03X-11915720I6350J0D01*
G03X-11928420I-6350J0D01*
G01D02*
G03X-11915720I6350J2D01*
G03X-11928420I-6350J2D01*
G01D02*
G03X-11915720I6350J0D01*
G03X-11928420I-6350J0D01*
G01D02*
G03X-11915720I6350J0D01*
G03X-11928420I-6350J0D01*
G01D02*
G03X-11915720I6350J2D01*
G03X-11928420I-6350J2D01*
G01D02*
G03X-11915720I6350J0D01*
G03X-11928420I-6350J0D01*
G01D02*
G03X-11915720I6350J2D01*
G03X-11928420I-6350J2D01*
G01X-10999750Y872860D02*
G03X-10987050I6350J-3D01*
G03X-10999750I-6350J-3D01*
G01Y872850D02*
G03X-10987050I6350J3D01*
G03X-10999750I-6350J3D01*
G01Y872860D02*
G03X-10987050I6350J-3D01*
G03X-10999750I-6350J-3D01*
G01Y872850D02*
G03X-10987050I6350J3D01*
G03X-10999750I-6350J3D01*
G01D02*
G03X-10987050I6350J3D01*
G03X-10999750I-6350J3D01*
G01Y872860D02*
G03X-10987050I6350J-3D01*
G03X-10999750I-6350J-3D01*
G01Y872850D02*
G03X-10987050I6350J3D01*
G03X-10999750I-6350J3D01*
G01Y872860D02*
G03X-10987050I6350J-3D01*
G03X-10999750I-6350J-3D01*
G01D02*
G03X-10987050I6350J-3D01*
G03X-10999750I-6350J-3D01*
G01Y872850D02*
G03X-10987050I6350J3D01*
G03X-10999750I-6350J3D01*
G01X-8199930Y-4459440D02*
G03X-8187230I6350J-2D01*
G03X-8199930I-6350J-2D01*
G01D02*
G03X-8187230I6350J-3D01*
G03X-8199930I-6350J-3D01*
G01D02*
G03X-8187230I6350J-2D01*
G03X-8199930I-6350J-2D01*
G01D02*
G03X-8187230I6350J-3D01*
G03X-8199930I-6350J-3D01*
G01D02*
G03X-8187230I6350J-3D01*
G03X-8199930I-6350J-3D01*
G01D02*
G03X-8187230I6350J-2D01*
G03X-8199930I-6350J-2D01*
G01D02*
G03X-8187230I6350J-3D01*
G03X-8199930I-6350J-3D01*
G01D02*
G03X-8187230I6350J-2D01*
G03X-8199930I-6350J-2D01*
G01X-7282270Y2427340D02*
G03X-7269580I6345J-2D01*
G03X-7282270I-6345J-2D01*
G01D02*
G03X-7269580I6345J-2D01*
G03X-7282270I-6345J-2D01*
G01D02*
G03X-7269580I6345J-2D01*
G03X-7282270I-6345J-2D01*
G01D02*
G03X-7269580I6345J-2D01*
G03X-7282270I-6345J-2D01*
G01X-7128080Y-2613770D02*
G03X-7115380I6350J2D01*
G03X-7128080I-6350J2D01*
G01D02*
G03X-7115380I6350J2D01*
G03X-7128080I-6350J2D01*
G01D02*
G03X-7115380I6350J2D01*
G03X-7128080I-6350J2D01*
G01D02*
G03X-7115380I6350J2D01*
G03X-7128080I-6350J2D01*
G01D02*
G03X-7115380I6350J2D01*
G03X-7128080I-6350J2D01*
G01D02*
G03X-7115380I6350J2D01*
G03X-7128080I-6350J2D01*
G01D02*
G03X-7115380I6350J2D01*
G03X-7128080I-6350J2D01*
G01D02*
G03X-7115380I6350J2D01*
G03X-7128080I-6350J2D01*
G01D02*
G03X-7115380I6350J2D01*
G03X-7128080I-6350J2D01*
G01D02*
G03X-7115380I6350J2D01*
G03X-7128080I-6350J2D01*
G01D02*
G03X-7115380I6350J2D01*
G03X-7128080I-6350J2D01*
G01D02*
G03X-7115380I6350J2D01*
G03X-7128080I-6350J2D01*
G01X-6767200Y2284480D02*
G03X-6754500I6350J1D01*
G03X-6767200I-6350J1D01*
G01D02*
G03X-6754500I6350J1D01*
G03X-6767200I-6350J1D01*
G01D02*
G03X-6754500I6350J1D01*
G03X-6767200I-6350J1D01*
G01D02*
G03X-6754500I6350J1D01*
G03X-6767200I-6350J1D01*
G01X-6436270Y-2215520D02*
G03X-6423570I6350J-1D01*
G03X-6436270I-6350J-1D01*
G01D02*
G03X-6423570I6350J-1D01*
G03X-6436270I-6350J-1D01*
G01D02*
G03X-6423570I6350J-1D01*
G03X-6436270I-6350J-1D01*
G01D02*
G03X-6423570I6350J-1D01*
G03X-6436270I-6350J-1D01*
G01D02*
G03X-6423570I6350J-1D01*
G03X-6436270I-6350J-1D01*
G01D02*
G03X-6423570I6350J-1D01*
G03X-6436270I-6350J-1D01*
G01D02*
G03X-6423570I6350J-1D01*
G03X-6436270I-6350J-1D01*
G01D02*
G03X-6423570I6350J-1D01*
G03X-6436270I-6350J-1D01*
G01D02*
G03X-6423570I6350J-1D01*
G03X-6436270I-6350J-1D01*
G01D02*
G03X-6423570I6350J-1D01*
G03X-6436270I-6350J-1D01*
G01D02*
G03X-6423570I6350J-1D01*
G03X-6436270I-6350J-1D01*
G01D02*
G03X-6423570I6350J-1D01*
G03X-6436270I-6350J-1D01*
G01X-703670D02*
G03X-690970I6350J-1D01*
G03X-703670I-6350J-1D01*
G01D02*
G03X-690970I6350J-1D01*
G03X-703670I-6350J-1D01*
G01D02*
G03X-690970I6350J-1D01*
G03X-703670I-6350J-1D01*
G01D02*
G03X-690970I6350J-1D01*
G03X-703670I-6350J-1D01*
G01D02*
G03X-690970I6350J-1D01*
G03X-703670I-6350J-1D01*
G01D02*
G03X-690970I6350J-1D01*
G03X-703670I-6350J-1D01*
G01D02*
G03X-690970I6350J-1D01*
G03X-703670I-6350J-1D01*
G01D02*
G03X-690970I6350J-1D01*
G03X-703670I-6350J-1D01*
G01D02*
G03X-690970I6350J-1D01*
G03X-703670I-6350J-1D01*
G01D02*
G03X-690970I6350J-1D01*
G03X-703670I-6350J-1D01*
G01D02*
G03X-690970I6350J-1D01*
G03X-703670I-6350J-1D01*
G01D02*
G03X-690970I6350J-1D01*
G03X-703670I-6350J-1D01*
G01X-372740Y2284480D02*
G03X-360040I6350J1D01*
G03X-372740I-6350J1D01*
G01D02*
G03X-360040I6350J1D01*
G03X-372740I-6350J1D01*
G01D02*
G03X-360040I6350J1D01*
G03X-372740I-6350J1D01*
G01D02*
G03X-360040I6350J1D01*
G03X-372740I-6350J1D01*
G01X-11860Y-2613770D02*
G03X840I6350J3D01*
G03X-11860I-6350J3D01*
G01D02*
G03X840I6350J3D01*
G03X-11860I-6350J3D01*
G01D02*
G03X840I6350J3D01*
G03X-11860I-6350J3D01*
G01D02*
G03X840I6350J3D01*
G03X-11860I-6350J3D01*
G01D02*
G03X840I6350J3D01*
G03X-11860I-6350J3D01*
G01D02*
G03X840I6350J3D01*
G03X-11860I-6350J3D01*
G01D02*
G03X840I6350J3D01*
G03X-11860I-6350J3D01*
G01D02*
G03X840I6350J3D01*
G03X-11860I-6350J3D01*
G01D02*
G03X840I6350J3D01*
G03X-11860I-6350J3D01*
G01D02*
G03X840I6350J3D01*
G03X-11860I-6350J3D01*
G01D02*
G03X840I6350J3D01*
G03X-11860I-6350J3D01*
G01D02*
G03X840I6350J3D01*
G03X-11860I-6350J3D01*
G01X142340Y2427340D02*
G03X155030I6345J-2D01*
G03X142340I-6345J-2D01*
G01D02*
G03X155030I6345J-2D01*
G03X142340I-6345J-2D01*
G01D02*
G03X155030I6345J-2D01*
G03X142340I-6345J-2D01*
G01D02*
G03X155030I6345J-2D01*
G03X142340I-6345J-2D01*
G01X1062430Y-4463650D02*
G03X1075130I6350J4D01*
G03X1062430I-6350J4D01*
G01D02*
G03X1075130I6350J3D01*
G03X1062430I-6350J3D01*
G01D02*
G03X1075130I6350J4D01*
G03X1062430I-6350J4D01*
G01D02*
G03X1075130I6350J3D01*
G03X1062430I-6350J3D01*
G01D02*
G03X1075130I6350J3D01*
G03X1062430I-6350J3D01*
G01D02*
G03X1075130I6350J4D01*
G03X1062430I-6350J4D01*
G01D02*
G03X1075130I6350J3D01*
G03X1062430I-6350J3D01*
G01D02*
G03X1075130I6350J4D01*
G03X1062430I-6350J4D01*
G01D02*
G03X1075130I6350J4D01*
G03X1062430I-6350J4D01*
G01D02*
G03X1075130I6350J3D01*
G03X1062430I-6350J3D01*
G01X3859810Y872860D02*
G03X3872510I6350J-3D01*
G03X3859810I-6350J-3D01*
G01D02*
G03X3872510I6350J-3D01*
G03X3859810I-6350J-3D01*
G01D02*
G03X3872510I6350J-3D01*
G03X3859810I-6350J-3D01*
G01D02*
G03X3872510I6350J-3D01*
G03X3859810I-6350J-3D01*
G01D02*
G03X3872510I6350J-3D01*
G03X3859810I-6350J-3D01*
G01D02*
G03X3872510I6350J-3D01*
G03X3859810I-6350J-3D01*
G01D02*
G03X3872510I6350J-3D01*
G03X3859810I-6350J-3D01*
G01D02*
G03X3872510I6350J-3D01*
G03X3859810I-6350J-3D01*
G01X4789620Y-2966930D02*
G03X4802320I6350J0D01*
G03X4789620I-6350J0D01*
G01D02*
G03X4802320I6350J0D01*
G03X4789620I-6350J0D01*
G01D02*
G03X4802320I6350J0D01*
G03X4789620I-6350J0D01*
G01D02*
G03X4802320I6350J0D01*
G03X4789620I-6350J0D01*
G01D02*
G03X4802320I6350J0D01*
G03X4789620I-6350J0D01*
G01D02*
G03X4802320I6350J0D01*
G03X4789620I-6350J0D01*
G01D02*
G03X4802320I6350J0D01*
G03X4789620I-6350J0D01*
G01D02*
G03X4802320I6350J0D01*
G03X4789620I-6350J0D01*
G01D02*
G03X4802320I6350J0D01*
G03X4789620I-6350J0D01*
G01D02*
G03X4802320I6350J0D01*
G03X4789620I-6350J0D01*
G54D29*
X-5177540Y1270000D03*
X-4982460D03*
X-5177540Y1778000D03*
X-4982460D03*
X-5177540Y1524000D03*
X-4982460D03*
G54D39*
G01X-7940040Y127000D02*
X-8204200D01*
G01X-4174490Y1270000D02*
X-4221480Y1316990D01*
G01D02*
X-4292600D01*
G01X-4064000Y1270000D02*
X-4174490D01*
G01X-4292600Y1477010D02*
X-4221480D01*
G01D02*
X-4174490Y1524000D01*
X-4064000D01*
G01X-3048000Y635000D02*
Y461010D01*
M02*
